<?xml version="1.0" standalone="no"?>
<!DOCTYPE svg PUBLIC "-//W3C//DTD SVG 1.1//EN" "http://www.w3.org/Graphics/SVG/1.1/DTD/svg11.dtd" >
<svg xmlns="http://www.w3.org/2000/svg" xmlns:xlink="http://www.w3.org/1999/xlink" version="1.1">
<metadata>
Created by FontForge 20161003 at Tue Apr  3 11:05:13 2018
 By www-data
Copyright (c) 2012 by Cultivated Mind by Cindy Kinash. All rights reserved.
</metadata>
<defs>
<font id="CMHELLOILIKEYOUW01Bold" horiz-adv-x="0" >
  <font-face 
    font-family="CMHELLOILIKEYOUW01Bold"
    font-weight="700"
    font-stretch="normal"
    units-per-em="1000"
    panose-1="0 0 0 0 0 0 0 0 0 0"
    ascent="900"
    descent="-100"
    x-height="795"
    cap-height="800"
    bbox="-39 -270 595.25 1002"
    underline-thickness="50"
    underline-position="-200"
    unicode-range="U+0002-2122"
  />
<missing-glyph 
 />
    <glyph glyph-name=".notdef" 
 />
    <glyph glyph-name=".null" 
 />
    <glyph glyph-name="uni000D" unicode="&#xd;" 
 />
    <glyph glyph-name="uni0002" 
 />
    <glyph glyph-name="uni0009" unicode="&#x9;" 
 />
    <glyph glyph-name="uni000A" unicode="&#xa;" 
 />
    <glyph glyph-name="space" unicode=" " horiz-adv-x="250" 
 />
    <glyph glyph-name="exclam" unicode="!" horiz-adv-x="125" 
d="M59 60q3 -9 3 -20q0 -17 -8.5 -28.5t-21.5 -11.5q-10 0 -17 7q-11 11 -12 29.5t8 31.5v1q9 12 22 12h4q9 -1 14 -10l1 -1l2 -1l2 -4q2 -2 2 -3t1 -2zM64 790q8 -11 8 -21t-2 -18v-4.5t-1 -5.5q-7 -64 -8 -129t-3 -130v-5q0 -38 -1 -76l-2 -76q-2 -38 -3 -78t3 -76v-1
q0 -4 1 -6q2 -12 2 -22.5t-5 -18.5l-6 -11h-7q-6 -2 -11 -2q-13 0 -21 11q-8 10 -9 26.5t1 42.5v1v1q1 4 1 11v64t1 72q1 25 1.5 48.5t0.5 46.5q1 110 6 191.5t5 150.5v22h17q6 2 10 2q8 0 12.5 -2.5t6.5 -4.5l2 -2z" />
    <glyph glyph-name="quotedbl" unicode="&#x22;" horiz-adv-x="243" 
d="M168 784q11 -11 9 -26.5t-6 -26.5v-1q-2 -5 -2 -7.5v-3.5q0 -10 -1 -22t-3 -26l-3 -30q-2 -17 -3 -30q0 -2 1 -3v-3v-3v-2q1 -8 0.5 -14.5t-4.5 -12.5l-7 -10q-11 0 -20.5 3t-14.5 14q-5 10 -7 38t5 93q0 2 0.5 4t0.5 4v1q1 13 6 28v1l2.5 12.5t5 14t9.5 11t15 4.5
q4 0 8 -2l5 -2zM66 784q11 -11 9 -26.5t-6 -26.5v-1q-2 -5 -2 -7.5v-3.5q0 -10 -1 -22t-3 -26l-3 -30q-2 -17 -3 -30q0 -2 1 -3v-3v-3v-2q1 -8 0.5 -14.5t-4.5 -12.5l-7 -10q-11 0 -20.5 3t-14.5 14q-5 10 -7 38t5 93q0 2 0.5 4t0.5 4v1q1 13 6 28v1l2.5 12.5t5 14t9.5 11
t15 4.5q4 0 8 -2l5 -2z" />
    <glyph glyph-name="numbersign" unicode="#" horiz-adv-x="644" 
d="M565 675v-17l-2 -5q-5 -9 -12.5 -14t-13.5 -7l-4 -1q0 -1 -1 -1q-1 -1 -2 -1t-3 -1q-22 -11 -42.5 -21.5t-37.5 -20.5q-1 -45 0 -90t1 -87v-18q18 11 37.5 21.5t40.5 22.5l33 18v-30q3 -10 2 -18q-3 -14 -16.5 -23t-30.5 -17l-4 -2l-57 -31q-2 -2 -4 -2v-1v-111
q0 -50 1.5 -99t3.5 -93v-2v-24h-53l-2 19q-1 11 0 20v7v18q0 39 -1 82.5t-1 86.5v26t-1 26v13q-2 -2 -5 -3t-5 -3q-11 -6 -21.5 -12.5t-21.5 -12.5q-32 -20 -66.5 -40.5t-70.5 -40.5h-2q-9 -6 -21 -12q0 -38 1.5 -76t3.5 -72v-2v-24h-56v22v12t1 14v16q0 20 -0.5 39.5
t-1.5 39.5q-5 -3 -10.5 -6t-11.5 -7q-6 -3 -11 -8q-8 -5 -15 -9.5t-15 -9.5l-1 -1q-6 -5 -12 -8.5t-14 -3.5q-7 0 -11 3q-10 5 -12 13.5t-2 12.5q0 10 3.5 15t7.5 7q15 11 31 19v1q2 1 3.5 1.5t2.5 1.5q3 0 5 2h1q9 6 18.5 12t19.5 12q6 3 12 6.5t11 6.5v29v60t-1 59
q0 13 -0.5 25t-0.5 24q-2 0 -4 -2q-8 -4 -14.5 -8t-14.5 -9h-1q-1 -1 -4.5 -3.5t-6.5 -4.5q-15 -11 -26.5 -17.5t-22.5 -6.5h-7q-9 2 -14.5 9.5t-3.5 16.5q1 13 19 26q5 4 8.5 5.5t5.5 3.5q4 2 7 4t7 4t8 4.5t8 4.5l55 34q-1 51 -0.5 95t1 82t1 72t0.5 65v10l7 7
q5 5 10.5 6.5t10.5 1.5t7 -1h9l6 -10q7 -11 7 -22t-1 -20v-2v-1q-1 -2 -1 -6v-1q-2 -63 -3 -124.5t-1 -121.5q11 7 21.5 13t20.5 12q48 29 90 54t80 48q0 42 1.5 81t1.5 76v9l7 8q8 8 20 8q5 0 8.5 -1t5.5 -2l6 -3l3 -5q6 -11 6.5 -22t-0.5 -20v-2l-1 -1v-6v-1l-2 -44
t-1 -45q40 22 78 42l9 10l14 -7q9 -4 14 -14zM275 288q17 11 33.5 20.5t31.5 18.5q14 9 28 17l28 16q-3 109 -3 195q-12 -7 -23.5 -13.5t-23.5 -13.5q-26 -16 -55 -32q-26 -16 -53.5 -32.5t-55.5 -32.5v-4v-9t1 -9v-175q3 2 7 4q9 6 18.5 11.5t18.5 10.5l24 14z" />
    <glyph glyph-name="dollar" unicode="$" horiz-adv-x="432" 
d="M341 247v-8q1 -4 1 -7.5v-6.5v-2v-2q-6 -38 -17 -81t-32 -73l-6 -9h-2l-1 -2q-2 -1 -2.5 -2t-1.5 -2l-2 -2q-1 -2 -2.5 -3t-1.5 -2l-2 -2l-1 -1l-1 -1q-2 -2 -4 -4.5t-6 -4.5q-5 -2 -8.5 -3t-6.5 -2q-9 -3 -12 -6l-5 -6l-8 -2q-4 -1 -10 -3q-4 -1 -7 -1.5t-6 -0.5
q0 -2 0.5 -2.5t0.5 -1.5q2 -13 2 -23.5t-3 -19.5q-7 -16 -26 -16q-10 0 -15 4t-7 8q-7 10 -8 40h-3q-31 0 -62 11l-1 1h-1q-7 4 -17 10.5t-18 13.5q-7 5 -10 9t-7 9l-1 2l-1 2q-22 30 -23 75v4l1 4q1 2 1 6v7v12l6 7q12 10 25 10h7l6 -5q11 -8 12 -19t0 -19q-1 -3 -1 -7
q0 -2 -0.5 -3.5t-0.5 -3.5l1 -2q0 -6 3 -13t7 -15v-2q2 -2 3.5 -4.5t3.5 -4.5l3 -3l1 -2q1 -1 1 -1.5t1 -1.5q1 0 1 -1q12 -7 28.5 -11t33.5 -5v6q0 36 -0.5 75t-1.5 80l-1 32q0 34 -0.5 67.5t-1.5 63.5v1q0 5 0.5 11t1.5 11q1 10 1 19.5t-2 17.5q-1 3 -3.5 4.5t-13.5 5.5
q-4 1 -7.5 2t-8.5 3q-35 14 -61.5 43t-39.5 65q-11 31 -9 61.5t17 57.5q1 2 1.5 3.5t2.5 3.5q11 21 26 44t37 38l1 1h2l6 3h1q20 12 46 20v20q0 9 0.5 17.5t0.5 16.5v10l7 7q7 9 21 9h12l10 -10l1 -4q8 -14 5 -42l-1 -13v-5q28 -2 49 -10q15 -1 28 -8.5t25 -16.5l2 -1l1 -1
q6 -4 13.5 -12t5.5 -23l-3 -18h-16q-2 -1 -5 -2t-7 -1q-5 0 -11 3t-11 11v1l-3 2q-2 2 -7 3.5t-10 3.5l-6 3q-5 2 -10 3t-10 3h-1q-3 1 -9 1q-2 1 -8 1q-3 1 -9 1q-2 -69 -1.5 -135.5t1.5 -122.5q6 -3 13.5 -6.5t12.5 -5.5q8 -4 12.5 -6t6.5 -3h1l2 -1q2 -2 5 -3.5t6 -3.5
q15 -10 31 -22t27 -29q9 -12 11 -19q28 -56 28 -127q0 -6 -1 -8v-3v-1zM77 693q-5 -9 -10.5 -22t-9 -28.5t-3.5 -32.5t5 -35q11 -36 37 -52q8 -5 17 -8.5t20 -7.5q-1 66 -1.5 123.5t0.5 110.5q-14 -5 -21 -10q-3 -2 -8 -9q-3 -3 -6.5 -7t-8.5 -7q-2 -5 -4 -8t-4 -5zM223 72
q14 7 24.5 23t16.5 29q0 5 1 8.5t3 8.5l1 4l1 1q1 3 3 7v1q8 32 10.5 69.5t-0.5 68.5q-3 26 -11.5 49t-22.5 38q-4 4 -6 5q-2 2 -2.5 3t-2.5 2l-8 6t-8 8q-8 4 -16.5 8t-17.5 8q2 -46 2.5 -92.5t-0.5 -93.5v-1q0 -45 0.5 -86.5t2.5 -78.5h8q2 0 6 1q4 2 8 2.5t6 0.5l1 1h1z
" />
    <glyph glyph-name="percent" unicode="%" horiz-adv-x="427" 
d="M361 772q5 -12 1.5 -21.5t-7.5 -17.5q-2 -2 -2 -3l-1 -2l-1 -1q-1 -2 -2 -3.5t-2 -3.5q-38 -75 -71 -152.5t-62 -149.5q-8 -18 -15.5 -38.5t-15.5 -42.5q-11 -30 -22.5 -59.5t-22.5 -55.5q-10 -23 -18.5 -43t-16.5 -40q-6 -17 -12.5 -32t-13.5 -30q0 -1 -2 -5l-3 -9
l-3 -9l-1 -2q-2 -9 -6.5 -19.5t-6.5 -15.5q-5 -15 -22 -15q-3 0 -5.5 0.5t-5.5 1.5q-13 5 -16 18q-3 11 1 29.5t20 49.5l1 1q4 8 5 11q0 1 0.5 1.5t0.5 1.5q14 35 29 72t31 75l5 11l12 30q8 20 16.5 40t16.5 40q25 64 47.5 119t43 103t39.5 90.5t38 81.5l6 12h13h5.5t8.5 -2
l1 -1h2q3 -2 5 -3.5t3 -2.5l4 -4zM229 726q3 -12 2 -24.5t-3 -22.5h-1q-2 -8 -4.5 -16.5t-9.5 -16.5q-22 -27 -54 -27q-15 0 -29 6t-25 17h-1q-11 12 -15.5 27.5t-2.5 32.5q2 16 7 31t21 29q16 15 30 20q13 5 23 5q20 0 35.5 -12.5t21.5 -32.5v-2q1 -1 1 -2t1 -2l3 -6v-4z
M170 663q8 8 10.5 18t1.5 36q0 6 -3 15.5t-11 15.5q-2 0 -3 -0.5t-2 -0.5l-3 -2q-11 -6 -17.5 -21t-6.5 -29q0 -12 2.5 -19.5t4.5 -10.5l1 -1q3 -5 5.5 -5.5t4.5 -0.5q6 0 16 5zM267 97q4 -12 2.5 -24.5t-3.5 -21.5v-1q-2 -8 -5 -16.5t-10 -16.5q-22 -27 -54 -27
q-15 0 -29 6t-25 17l-1 1q-11 11 -15 26.5t-2 32.5q2 16 6.5 31t20.5 29q16 15 30 20q11 5 23 5q20 0 35.5 -12.5t21.5 -32.5v-1q1 -2 1 -3t1 -2l3 -5v-5zM208 35q8 7 10.5 17t1.5 36q0 6 -3 15.5t-11 15.5q-2 0 -3 -0.5t-2 -0.5l-3 -2q-11 -6 -17 -21t-6 -29q0 -12 2 -19.5
t4 -10.5l1 -1q3 -5 5.5 -5.5t4.5 -0.5q8 0 16 6z" />
    <glyph glyph-name="ampersand" unicode="&#x26;" horiz-adv-x="466" 
d="M378 560q-10 -26 -19 -43t-17 -30q-9 -14 -11.5 -20t1.5 -19q3 -5 4.5 -10.5t3.5 -10.5v-1q13 -50 23.5 -99t13.5 -109q0 -3 0.5 -5.5t0.5 -5.5q0 -2 0.5 -4.5t0.5 -4.5v-1q2 -10 1.5 -19.5t-0.5 -20.5q0 -12 -1 -25.5t-3 -24.5q-1 -3 -1 -6t-1 -5v-2q-2 -11 -6.5 -25
t-12.5 -27t-19 -23.5t-26 -14.5q-12 -4 -25 -4q-18 0 -33.5 7t-29 18t-25 24.5t-21.5 25.5l-1 2q-2 3 -4.5 6t-4.5 5t-3 4t-3 4q-15 17 -25 38q-4 -5 -6 -9t-4 -6q-4 -5 -7.5 -11t-8.5 -12q-23 -34 -39 -56.5t-29 -30.5l-5 -3h-3q-2 -1 -7 -1t-7 1l-5 6l-12 11q-1 3 -1 6v5
v1q1 13 15 28l2 2q2 2 4 4.5t4 5.5q2 2 3 4q20 26 29 39.5t15 24.5v1q5 8 16.5 26.5t21.5 32.5q-1 5 -2 10.5t-2 10.5q-1 3 -1 5.5t-1 4.5q-2 6 -2.5 18.5t-0.5 25.5v32l3 21l28 1h20l2 -19q2 -14 0 -29v-15q6 9 12 15q0 1 2 5q2 3 4 6.5t4 8.5l3 6l6 12q4 7 7 13t8 13v1
q18 27 31 54q7 14 13.5 25.5t12.5 21.5v1q2 4 3.5 6.5t3.5 4.5q3 6 4.5 10t3.5 6q0 6 -1 13t-3 15q0 2 -0.5 3.5t-0.5 3.5q-2 8 -3 14t-2 11q-1 4 -1.5 7.5t-0.5 8.5q-2 7 -2.5 14t-1.5 15q-2 15 -2 32.5v37.5v30q0 14 4 27t9 25l1 1l4 10l4 10l2 4l4 3q5 5 6 7l2 3l2 2l3 3
q5 7 15 14q13 8 26 8q8 0 14.5 -2t12.5 -4q10 -5 17 -13.5t12.5 -19t8.5 -21.5t5 -19q5 -26 2.5 -47.5t-8.5 -43.5q-5 -19 -10.5 -35.5t-12.5 -34.5zM292 57q1 0 2 0.5t3 0.5q11 3 18 22t9 51v1q3 34 0.5 69t-7.5 68t-11.5 65t-14.5 63q-10 -17 -19 -34.5t-18 -34.5l-12 -21
q-8 -16 -16.5 -32t-17.5 -31v-1q-3 -5 -6 -9t-7 -9q-5 -8 -12 -20t-8 -19q0 -4 4.5 -15.5t21.5 -36.5q8 -10 16.5 -20t17.5 -20q7 -8 12.5 -14t10.5 -12q8 -4 10 -4l2 -1l10 -4t10 -2h2zM341 746q-18 -9 -25 -30t-8.5 -47.5t1.5 -55.5t6 -54l1 -6l6 16l6 16q1 2 1.5 5t2.5 6
q1 6 3 9q2 5 3 8.5t3 7.5l1 4q6 20 11.5 39t3.5 37q-1 14 -6 27t-10 18z" />
    <glyph glyph-name="quotesingle" unicode="'" horiz-adv-x="152" 
d="M66 784q11 -11 9 -26.5t-6 -26.5v-1q-2 -5 -2 -7.5v-3.5q0 -10 -1 -22t-3 -26l-3 -30q-2 -17 -3 -30q0 -2 1 -3v-3v-3v-2q1 -8 0.5 -14.5t-4.5 -12.5l-7 -10q-11 0 -20.5 3t-14.5 14q-5 10 -7 38t5 93q0 2 0.5 4t0.5 4v1q1 13 6 28v1l2.5 12.5t5 14t9.5 11t15 4.5
q4 0 8 -2l5 -2z" />
    <glyph glyph-name="parenleft" unicode="(" horiz-adv-x="325" 
d="M264 4l-1 -21l-9 -10q-8 -15 -21 -15q-8 0 -13.5 5t-10.5 10l-2 3q-2 2 -4.5 4t-4.5 4t-5 4.5t-5 5.5l-5 4q-31 29 -64.5 64.5t-61.5 86.5h-1l-6 11q-18 37 -30 84.5t-16 109.5v2v5q-1 4 -1.5 9t0.5 12v6q1 3 1 9t1 10v7v2q2 20 4.5 36t7.5 32q7 29 16 56.5t17 51.5
q1 0 1 2v3l2 5q2 4 2 6l1 2v2l1 2q1 1 3 5q0 1 1 1q1 3 2 5.5t2 5.5q7 18 16 38t20 38l2 3l1 1q2 3 4 5.5t4 5.5q1 2 2 3.5t2 3.5l4 4q2 5 6 10t7 9q1 1 1 2t1 2q3 3 4 6q5 8 10 14t11 13q1 1 1.5 2t2.5 3q3 5 7 9l6 6h1q6 6 16 10l3 2h1q1 0 1 1h6q4 0 7 -1t5 -2
q14 -7 14 -24q0 -11 -5.5 -17t-10.5 -9q-3 -2 -7 -6q-23 -25 -42.5 -53.5t-35.5 -61.5q-5 -9 -8.5 -18.5t-6.5 -17.5l-1 -2l-4 -8v-1l-1 -1q-14 -32 -23 -63v-1q-4 -9 -6 -17.5t-4 -16.5q-7 -23 -11.5 -50.5t-7.5 -63.5q0 -6 -1 -9v-14v-1v-1q0 -1 0.5 -2t0.5 -2l1 -2
q2 -10 2 -18q0 -12 2 -24.5t4 -24.5q5 -28 24 -83v-1q3 -8 6 -14.5t8 -14.5l2 -3q3 -5 6 -9.5t5 -9.5h1q15 -30 37 -48l1 -2q3 -2 5.5 -5t4.5 -5q2 -3 4.5 -5.5l4.5 -4.5l1 -1l18 -18t18 -17q4 -4 8 -7l8 -6l1 -1q6 -4 13 -10t15 -13z" />
    <glyph glyph-name="parenright" unicode=")" horiz-adv-x="325" 
d="M10 12q7 7 14 13t13 10l1 1q7 5 17 13q9 8 17.5 17t17.5 18l1 1q6 6 9 10l5 5t6 5l1 2q20 19 37 48q2 5 5.5 9.5t5.5 9.5l2 3q5 8 8.5 14.5t5.5 14.5v1q9 27 15.5 47.5t9.5 35.5q2 12 4 24.5t2 24.5q0 8 2 18v2q1 1 1 4v1v1v14v9q-3 36 -8 63.5t-11 50.5q-2 8 -4.5 16.5
t-5.5 17.5v1q-5 15 -11 31t-13 32l-1 1v1q0 2 -1 4l-2 4l-1 2q-4 8 -7 17.5t-8 18.5q-17 33 -36.5 61.5t-42.5 53.5q-1 2 -7 6q-5 3 -10.5 9t-5.5 17q0 17 15 24q2 1 4.5 2t6.5 1h6q1 -1 2 -1l4 -2q10 -5 16 -10q7 -5 14 -15q1 -2 2 -3t1 -2h1q5 -7 10 -13t10 -14
q2 -2 2.5 -3l1.5 -3q1 -1 1.5 -2t1.5 -2q7 -9 13 -19q2 -2 3 -4q2 -2 2.5 -3.5t2.5 -3.5q2 -3 3.5 -5.5t3.5 -5.5l2 -1l1 -3q11 -18 20 -38t16 -38q2 -3 3 -5.5t2 -5.5q0 -1 1 -1q0 -3 2 -5l1 -2v-2q1 0 1 -2q1 -2 1 -3t1 -3l2 -5v-3l1 -2q9 -24 18 -51.5t16 -56.5
q4 -16 7 -32t4 -36v-2q1 -2 1 -7q0 -3 0.5 -5.5t0.5 -4.5v-9q0 -2 0.5 -3t0.5 -3q1 -7 0.5 -12t-1.5 -9q0 -2 -0.5 -3t-0.5 -2v-2q-4 -62 -15.5 -109.5t-30.5 -84.5l-5 -11h-2q-27 -51 -61 -86.5t-64 -64.5l-5 -4q-7 -7 -11 -10q-2 -2 -4.5 -4t-4.5 -4l-2 -3l-10 -10t-13 -5
q-14 0 -22 15l-9 10v21z" />
    <glyph glyph-name="asterisk" unicode="*" horiz-adv-x="354" 
d="M271 681q2 -4 2.5 -12.5t-10.5 -18.5v-1q-8 -7 -17.5 -8t-17.5 -1h-10t-9 1h-8h-4q11 -17 20.5 -32.5t19.5 -30.5q5 -8 3.5 -16t-7.5 -14t-14.5 -8.5t-17.5 0.5q-13 5 -19.5 20t-13.5 26q-8 12 -14 23q-4 4 -7 10q-14 -19 -26.5 -38t-22.5 -37q-5 -9 -9.5 -12.5t-9 -2.5
t-10 5t-12.5 10q-15 11 -12 15t11 19l1 1v1q7 10 13.5 19.5t13.5 20.5q3 5 6.5 9.5t6.5 9.5h-2q-3 0 -6 0.5t-6 0.5t-5.5 -0.5t-5.5 -0.5h-1q-2 0 -4.5 -0.5t-4.5 -0.5q-5 -1 -10 -1.5t-10 -0.5q-14 0 -23 6q-11 8 -12 16.5t0 12.5q5 14 19 17t31 3h5l1 1h2h25h12
q-5 10 -11 19t-12 17q-1 1 -1.5 2t-1.5 2q-5 8 -11 18t-1 22q2 4 6 10t15 8l15 4l9 -12q3 -5 5.5 -9.5t4.5 -8.5q2 -3 3.5 -6t3.5 -5v-1q6 -8 8 -12q4 -7 7.5 -13t7.5 -12q2 2 4 6l18 27q5 7 9.5 13.5t9.5 13.5v2q2 4 7 11t16 10h1q3 1 8 1q17 0 23 -14q6 -12 0 -23.5
t-13 -19.5l-1 -1q-4 -6 -7 -11.5t-7 -10.5q-4 -6 -7.5 -12t-8.5 -11q7 1 14 1h14h1q1 0 3 0.5t4 0.5t3 -0.5t3 -0.5q14 0 20 -5.5t8 -10.5z" />
    <glyph glyph-name="plus" unicode="+" horiz-adv-x="500" 
d="M425 324q1 -2 1 -7v-23h-14q-5 -4 -14 -4q-2 0 -4 0.5t-4 0.5t-3 0.5t-2 0.5q-38 3 -83 3h-33t-33 -1v-46v-95q-1 -39 -0.5 -70.5t2.5 -57.5l1 -21h-50v35q0 29 -0.5 61.5t-0.5 64.5v87q0 11 -0.5 21t-0.5 20q-16 -1 -32 -1.5t-33 0.5h-28q-7 0 -17.5 -2.5t-21 -4
t-20 -0.5t-15.5 7q-4 5 -5 12.5t0.5 15t6.5 13t13 5.5h5h3q21 1 42.5 1t43.5 1h15t15 1h27q-1 73 1.5 127t2.5 100v8l6 6q5 5 10 6.5t9 1.5h23v-14q4 -8 4 -15t-1 -12v-2q0 -4 -1 -5v-2v-1q-2 -49 -3.5 -98t-1.5 -98q28 1 49.5 1.5t40.5 0.5q45 0 81 -3h7l12 -12v-6z" />
    <glyph glyph-name="comma" unicode="," horiz-adv-x="216" 
d="M132 29q3 -13 0 -24t-8 -23q-8 -20 -15.5 -36t-20.5 -34v-1q-17 -21 -21 -40l-1 -7l-6 -5q-17 -12 -29.5 -3.5t-7.5 31.5q2 10 7 18.5t10 16.5q4 7 11.5 16.5t9.5 16.5q2 8 5 14.5t7 12.5l2 4q1 2 1 2.5t1 2.5q0 1 0.5 1t0.5 1v8l3 -1q2 2 2.5 5t1.5 5h-1
q-5 0 -14.5 -5.5t-22.5 -22.5l-1 -1l-16 -21l-13 22q-5 8 -5 15.5t1 10.5q5 18 21 31t26 18q6 2 11.5 3.5t13.5 1.5q19 0 31 -9t16 -24z" />
    <glyph glyph-name="hyphen" unicode="-" horiz-adv-x="383" 
d="M327 343v-49h-23q-20 1 -43.5 1.5t-44.5 0.5q-10 0 -8 0h6.5t7 -0.5t-7.5 -0.5q-15 -1 -29.5 -1h-29.5h-8h-46l-2 -1h-6q-16 0 -22.5 -0.5t-11 -1t-11 -0.5h-22.5h-18l-5 50h22q3 0 5 -0.5t4 -0.5h2h-26h21h8t8 1h1q14 1 28.5 1h34.5q23 0 45 0.5t44 0.5q12 0 13.5 0.5
t-2 0.5t-10 0.5t-9.5 0.5t-1 0h15h42.5t36.5 -1q5 0 10.5 -0.5t11.5 -0.5h20z" />
    <glyph glyph-name="period" unicode="." horiz-adv-x="144" 
d="M9 38q0 13 9 22t22 9t22 -9t9 -22t-9 -22t-22 -9t-22 9t-9 22z" />
    <glyph glyph-name="slash" unicode="/" horiz-adv-x="366" 
d="M306 785v-11q0 -5 -2 -15q-6 -35 -14 -65.5t-24 -68.5q-9 -20 -16.5 -43t-13.5 -43t-13 -40.5t-15 -39.5v-1q-6 -14 -10.5 -28.5t-9.5 -28.5q-1 -5 -2 -9l-2 -8q-2 -4 -2.5 -7.5t-1.5 -6.5q-2 -9 -5 -17.5t-6 -16.5q-2 -6 -4 -12.5t-4 -12.5q-3 -11 -8 -25q-3 -13 -8 -29
q-1 -3 -1.5 -6.5t-2.5 -7.5q-2 -6 -3 -8q-2 -9 -5 -18l-6 -18q-2 -7 -4 -13.5t-4 -13.5q-5 -18 -10.5 -35t-10.5 -34l-3 -8q-2 -5 -3 -10t-3 -10t-3 -9.5t-3 -9.5l-1 -1q0 -2 -2 -8q-3 -13 -10 -27.5t-22 -18.5q-11 -3 -17.5 1.5t-10 12.5t-4 17t2.5 17q1 2 2 4.5t1 4.5
q1 7 6 15q1 1 1 1.5t1 1.5v2q1 3 2 7t4 10t5.5 12t4.5 11q5 20 10.5 38.5t10.5 37.5q2 6 4 12.5t4 13.5q31 105 64 205t64 191q5 14 8.5 26t7.5 23q2 6 3.5 12t3.5 12q3 13 6.5 26t8.5 27q1 2 1 5t1 6l1 2q0 3 1 4q3 12 9.5 26.5t23.5 14.5q6 0 10.5 -2.5t9.5 -5.5z" />
    <glyph glyph-name="zero" unicode="0" horiz-adv-x="440" 
d="M369 449q1 -11 0.5 -23t-1.5 -22q0 -10 -1 -15v-13q0 -9 -1 -13v-1q-2 -67 -9.5 -125t-25.5 -106q-1 -2 -3 -7t-7 -15l-1 -1q-6 -11 -13 -23t-15 -23l-1 -1l-1 -1l-1 -1l-1 -2q-18 -21 -43.5 -39t-66.5 -18q-34 0 -57 16l-1 1q-4 2 -6 4q-11 5 -17 14q-4 4 -7 10
q0 1 -1 1h-1l-14 20l-4 4l-2 1l-4 7q-5 8 -10 16.5t-9 16.5q-13 23 -19 44.5t-8 41.5v2q0 5 -0.5 9.5t-1.5 9.5q-5 38 -8.5 78.5t0.5 82.5q1 22 8 47q0 4 2 10v1q2 6 3 11q10 53 22 92t23 76l5 19q2 9 5.5 17t7.5 15q2 5 4 9l4 8q3 8 7 17.5t10 20.5q9 19 21 35t23 32l5 7
l8 2q5 1 10 1.5t11 0.5q76 0 129 -94q23 -38 31.5 -79.5t14.5 -82.5q3 -26 4.5 -49.5t2.5 -45.5zM206 63q6 2 11 3.5t10 5.5q6 5 10.5 9t9.5 9q8 9 18 26q20 32 26 67t11 71l3 21q1 20 6 43q3 14 4 35t1 44t-1 45.5t-3 38.5q-2 19 -5 41.5t-7.5 46t-10.5 47t-14 43.5v1
q-11 26 -22.5 42t-23 25t-23 12.5t-20.5 4.5h-1q-14 -20 -23 -38.5t-19 -38.5v-1q-2 -2 -2.5 -4.5t-2.5 -4.5q-5 -8 -8 -16t-7 -22v-1q-2 -5 -4 -13t-4 -15.5t-6 -16.5l-1 -2q-5 -9 -6 -16v-1q-3 -9 -6.5 -21t-7.5 -29l-1 -4q-3 -15 -6.5 -30t-8.5 -29q-9 -66 -9 -120
q0 -17 2 -33t4 -33q2 -12 4 -24.5t2 -25.5v-2q0 -2 0.5 -4t0.5 -4v-5q3 -18 10.5 -36t19 -35.5t24.5 -32.5t27 -26q4 -1 7.5 -1.5t8.5 -0.5l8 1q17 2 25 4z" />
    <glyph glyph-name="one" unicode="1" horiz-adv-x="257" 
d="M208 47l-5 -16q-4 -11 -13 -17t-20.5 -8.5t-23.5 -3t-23 -0.5q-13 0 -17 -1h-1h-2h-12q-5 -1 -16 -1q-38 0 -54 15l-6 6v8q-2 5 0 13l6 20l20 -4q4 -1 14 -2t25 -1q1 44 2.5 84t3.5 82l1 11q0 14 0.5 27t1.5 27q2 42 3.5 85t1.5 86l-3 -4v78h3q-1 5 -1 9v9q-1 20 -1.5 41
t-0.5 42v1q1 27 1 52.5t-3 46.5q-2 -1 -6 -5q-9 -8 -23 -16.5t-34 -7.5l-21 2v20q0 16 11 22.5t18 9.5q4 2 6 2l2 1q5 3 8 6t8 6q11 9 22.5 17.5t27.5 9.5l13 1l7 -11q12 -20 15 -42t3 -42v-2q1 -42 4.5 -82.5t2.5 -82.5l-4 -72t-2 -73v-1v-23v-55t-3 -54q-5 -60 -6.5 -110
t1.5 -90h10q5 2 10 2h10q6 0 12.5 -0.5t12.5 -5.5z" />
    <glyph glyph-name="two" unicode="2" horiz-adv-x="371" 
d="M282 56q18 -8 14.5 -17t-10.5 -23l-8 -16l-17 5q-23 7 -48.5 10t-54.5 3q-22 0 -47 -2t-55 -7q-2 0 -4 -0.5t-3 -0.5l-3 -2h-3q-1 -1 -4 -1q-2 -1 -5.5 -2t-7.5 -1h-4l-3 -2v3q-5 0 -9 3l-14 7l2 15q5 30 17 57t25 52q2 3 3.5 6.5t3.5 6.5q8 15 12 25l1 1
q17 40 32.5 76.5t31.5 74.5q5 12 9.5 23t9.5 22v1q25 62 50.5 127.5t42.5 137.5q3 15 4.5 31t-1 30.5t-8.5 26.5t-17 18q-1 0 -2 0.5t-2 0.5h-4q-43 0 -76 -32q-3 -3 -6 -6.5t-6 -7.5l-1 -2q-2 -2 -3 -4q-6 -8 -15 -15l-10 -9l-37 16l5 18q5 17 17.5 31.5t21.5 22.5h1
q14 13 42 28t62 15q33 0 56 -16l2 -1l2 -1q23 -23 30 -52t5 -61t-11 -64.5t-19 -62.5l-1 -4q-2 -5 -3 -9.5t-3 -9.5v-1q-11 -35 -27.5 -75.5t-37.5 -89.5q-7 -15 -14 -31t-15 -35q-2 -6 -4.5 -12t-5.5 -12q-16 -36 -31.5 -71.5t-30.5 -63.5q-2 -2 -3 -5t-3 -5
q-4 -8 -7.5 -14.5t-5.5 -14.5q-3 -10 -7 -16q0 -2 -2 -4q5 0 9.5 0.5t8.5 0.5h12l2 1q36 3 68 3q69 0 117 -18z" />
    <glyph glyph-name="three" unicode="3" horiz-adv-x="369" 
d="M243 782q73 -38 70 -133v-8.5t-2 -10.5v-1q-8 -30 -23.5 -59t-32.5 -58q-11 -19 -26.5 -37t-37.5 -37q15 -11 27 -22.5t21 -22.5l1 -1q1 -1 2 -1.5t3 -2.5t5.5 -5t6.5 -8q6 -9 15.5 -25.5t14.5 -36.5q4 -17 5 -37.5t-1 -48.5v-1q-2 -31 -11 -58t-23 -58
q-8 -18 -19.5 -33.5t-23.5 -29.5q-13 -15 -29.5 -23.5t-31.5 -14.5h-1q-9 -4 -22 -6.5t-28 -2.5q-46 0 -69 28l-1 1l-3 3l-4 4l-4 4q-5 5 -8 9.5t-5 9.5q0 1 -0.5 1.5t-0.5 1.5l-8 16l14 11q10 9 23 9q11 0 18 -7t11 -12l3 -4q5 -6 7 -9t5 -4l2 -1q3 -1 6.5 -1.5t8.5 -0.5
q20 0 39.5 8t27.5 13q7 5 13 11.5t11 13.5q18 24 30 58t15 66q5 80 -20 112q-10 12 -21 22t-23 19q-2 2 -6 4q-10 8 -17 11h-3q-5 2 -16.5 6.5t-13.5 21.5q-1 2 -1 6l-2 1l2 1q2 12 10 19t14 12q1 0 2 1q1 0 1 1l2 1l1 1q5 3 7 4.5t3 2.5l1 1q19 18 32.5 32.5t24.5 34.5l1 1
q13 21 24.5 43t16.5 46l1 4q2 9 3.5 17.5t-0.5 16.5q-2 20 -6.5 31t-13.5 19l-7 7q-26 16 -56 16q-26 0 -51.5 -11.5t-40.5 -29.5q0 -1 -0.5 -1.5t-0.5 -1.5q-2 -2 -4 -6v-1l-1 -1q-4 -8 -11 -16.5t-20 -8.5q-2 0 -4 0.5t-3 0.5q-15 5 -20.5 8.5t1.5 21.5q9 22 25 41
t36 32.5t44 21t49 7.5q37 0 70 -17z" />
    <glyph glyph-name="four" unicode="4" horiz-adv-x="374" 
d="M293 392q18 -5 21.5 -14.5t3.5 -12.5q0 -11 -9 -20t-26 -9h-5h-1q-1 -4 -1 -7.5t-1 -8.5q-3 -20 -6 -41t-4 -44l-1 -1q0 -20 -1 -40.5t-3 -40.5v-1q-2 -15 -3.5 -27t-2.5 -32v-2v-2q-1 -3 -1.5 -14.5t-0.5 -16.5v-1v-1v-5q0 -5 -0.5 -10.5t-1.5 -11.5q-4 -20 -13.5 -24.5
t-14.5 -4.5q-10 0 -17 6l-1 1q-11 8 -11 20t1 21v5q0 9 1 21t2 25t2 24.5t2 20.5q1 6 1 12t1 12q1 8 1.5 15.5t1.5 15.5q1 23 3 43.5t5 40.5l1 1q1 5 2 22t2 31h-1h-21q-6 0 -12.5 -0.5t-14.5 -1.5l-16 -2t-16 -1q-11 0 -20.5 1t-17.5 1h-11l-6 1q-20 2 -37.5 1t-31.5 11
q-11 9 -13 13.5t3 18.5q14 38 33 71.5t39 65.5l9 14q8 13 15 26t15 27q2 4 4 7t4 7q2 3 3.5 6t3.5 6l1 2q4 5 8.5 12t8.5 16q6 12 11 24.5t10 24.5l1 1l4 9q10 23 20 43.5t25 38.5l3 4l4 2q1 0 3 2q1 1 1.5 1t1.5 1q11 10 25 10q13 0 23.5 -9.5t10.5 -28.5q0 -78 -2 -156.5
t-7 -156.5q0 -6 -0.5 -12t-1.5 -13q-1 -8 -1.5 -16t-0.5 -15q10 0 14 -1h1zM192 389q8 0 16 0.5t16 0.5q5 78 7 154.5t2 154.5q-20 -35 -35 -78l-1 -2l-1 -2q-32 -53 -64 -108.5t-62 -115.5q12 0 23 -3q6 -1 11 -1.5t10 -0.5q6 0 12 0.5t12 0.5h26h28z" />
    <glyph glyph-name="five" unicode="5" horiz-adv-x="401" 
d="M293 379q21 -26 33.5 -68.5t11.5 -85.5v-9q0 -29 -4.5 -60.5t-22.5 -60.5v-1q-2 -2 -2.5 -3.5t-2.5 -3.5q-6 -9 -12.5 -18.5t-15.5 -17.5l-1 -1q-14 -13 -33.5 -22.5t-41.5 -15.5q-16 -5 -37.5 -8.5t-44.5 -3.5q-30 0 -50.5 7.5t-33.5 18.5t-19 23.5t-9 22.5l-1 1
q-2 9 -4.5 23.5t8.5 25.5q10 10 22 10q16 0 21.5 -12t6.5 -17l1 -1q1 -5 1 -8.5t1 -6.5q1 -8 1.5 -11.5t5.5 -6.5q15 -12 49 -12q21 0 37 4h1q14 3 29.5 8.5t29.5 13.5t25.5 17t17.5 20q20 35 22 92v1q2 48 -15.5 91t-52.5 74q-12 11 -30 22t-34 15h-1q-5 1 -10 1.5t-9 0.5
q-10 0 -23.5 -6t-28 -12t-27.5 -9.5t-22 2.5t-9 21t1 23v4v2q1 3 1 6.5v6.5q0 42 -3 89v1q0 10 -0.5 20t-0.5 20q-2 36 -3 72.5t4 72.5q0 3 1 5q2 21 5 36t14 23q9 6 21 6q6 0 11.5 -1t10.5 -2q8 -2 10 -2q11 0 20 0.5t14 1.5h4h4q8 -2 20 -2.5t24 -0.5h33q24 0 41 -1t29 -4
q28 -6 15 -31q0 -1 -1 -1v-17l-19 -2q-8 -1 -16 -1.5t-19 -0.5q-14 0 -28.5 0.5t-30.5 1.5h-3q-5 1 -11 1h-12q-11 1 -22.5 1.5t-22.5 0.5h-18t-16 -1q-5 -41 -5 -83t2 -89q1 -6 1 -12v-13q1 -20 1 -40v-41l1 1q5 2 9.5 3t9.5 3q10 2 18.5 3t17.5 1q34 0 71 -20q1 0 5 -2
q0 -1 2 -1v-1q10 -5 24 -14t22 -17l3.5 -3.5l3.5 -3.5l4 -4t4 -5q6 -6 11.5 -12t10.5 -11z" />
    <glyph glyph-name="six" unicode="6" horiz-adv-x="407" 
d="M350 174q1 -11 0.5 -26.5t-3.5 -32.5t-9 -34.5t-17 -31.5q-8 -9 -17 -17q-24 -19 -56.5 -26t-58.5 -7q-35 0 -63.5 14.5t-43.5 26.5q-12 10 -20 18t-17 19q-12 15 -20 34q-2 2 -2 3q-4 6 -6 11v1l-1 2q-23 100 -2 219.5t87 266.5q20 45 37.5 77t33.5 55q7 11 16 22t19 19
q16 13 22.5 11t12.5 -22q3 -11 0.5 -19t-6.5 -15v-1l-2 -5l-6 -10l-6 -10q-3 -4 -7 -12l-1 -1q-2 -4 -5 -8.5t-6 -9.5q-1 -3 -5 -9q-9 -16 -22 -39.5t-26.5 -50.5t-25.5 -55t-20 -52q-2 -7 -4 -15l-4 -16l-3 -12q-2 -9 -4.5 -18.5t-4.5 -18.5q-8 -26 -12.5 -50t-7.5 -46
q9 7 18 13l2 1q16 9 36.5 13t43.5 4q30 0 59 -8.5t52 -22.5q29 -20 49.5 -53.5t25.5 -74.5v-1zM239 65q47 13 55 62q3 18 -0.5 34.5t-8.5 33.5l-1 1q-1 3 -1 6t-1 6q-1 2 -1 3t-1 3q-5 5 -8.5 10.5t-6.5 10.5v1q-2 4 -5 8t-6 7q-15 14 -41.5 22t-53.5 8q-17 0 -34 -5
q-46 -15 -57 -61q-7 -30 4.5 -64.5t36.5 -59.5q15 -15 34.5 -22.5t41.5 -9.5h2q11 -1 24.5 0t27.5 6z" />
    <glyph glyph-name="seven" unicode="7" horiz-adv-x="413" 
d="M368 783q5 -17 0.5 -30t-9.5 -24q0 -2 -2 -6q-3 -5 -5.5 -10.5t-4.5 -10.5t-2.5 -9.5t-2.5 -9.5q-4 -10 -6.5 -19t-4.5 -19q-3 -11 -6 -23.5t-8 -25.5q-8 -19 -13 -33.5t-10 -31.5q-6 -19 -10.5 -37t-9.5 -36v-1q-3 -12 -6.5 -24t-6.5 -24q-5 -23 -11 -45.5t-13 -44.5
q-8 -25 -16.5 -50.5l-16.5 -49.5h-1q-11 -30 -19.5 -56.5t-15.5 -50.5q-3 -10 -6.5 -20t-6.5 -20q-5 -14 -9 -27.5t-8 -27.5l-4 -14l-14 -2q-2 -1 -7 -1q-16 0 -26 13q-9 14 -4 31t12 32l2 4t1 3q3 8 5.5 16t5.5 16q4 12 8 24.5t9 24.5q2 5 3.5 10.5t3.5 10.5l12 34t11 34
q15 48 29.5 98t28.5 103q18 69 39 143.5t48 144.5q-31 -2 -60 -5t-59 -7l-6 -1q-29 -4 -55 -7.5t-55 -4.5h-1q-2 -1 -4.5 -1t-5.5 -1h-1q-5 -1 -10.5 -1.5t-10.5 -0.5q-14 0 -22.5 5.5t-11 14t2.5 17.5t17 16t25 6.5t27 1.5q3 1 10 1q3 1 8 1h1q21 3 41.5 5.5t38.5 5.5
q5 0 15 2q20 3 42 6.5t42 2.5h1h7h12t13 1q6 0 12.5 0.5t13.5 0.5h10t12 -1l13 -2l3 -10h4z" />
    <glyph glyph-name="eight" unicode="8" horiz-adv-x="319" 
d="M271 211q5 -32 1.5 -58t-13.5 -58v-1q-9 -26 -30 -46q-20 -18 -46 -33t-61 -15q-6 0 -11.5 0.5t-10.5 1.5q-42 7 -66.5 36t-25.5 71v1q0 13 2 26t4 25l2 8v2v2q0 1 1 1v2v2q10 56 29.5 108t40.5 99l1 2q5 10 9 19.5t8 19.5q-6 8 -12.5 16.5t-14.5 19.5l-2 3l-1 1v1l-3 3
q-20 30 -41 68.5t-26 77.5q-5 38 6.5 74.5t36.5 65.5q20 22 43.5 33t48.5 11q13 0 26 -2.5t27 -9.5l1 -1q31 -14 41 -43t7 -62.5t-13.5 -68t-19.5 -59.5h-1q0 -2 -0.5 -2.5t-0.5 -1.5q-2 -4 -2 -6l-1 -2v-2q-3 -6 -5 -13.5t-4 -15.5v-1q-5 -18 -11 -37t-14 -36q2 -6 6 -12
t9 -13q3 -5 6 -9.5t6 -9.5q8 -12 14 -24t11 -24q2 -5 4 -9.5t4 -9.5q12 -24 24 -53.5t17 -61.5zM122 51q23 5 42 19t33 35q11 17 16 42t3 48q-2 26 -11 48t-21 46v1q-4 8 -5 12q-4 8 -6 13q-8 16 -15.5 32t-15.5 30q-5 -12 -10 -23l-4 -11q-15 -36 -30.5 -75.5t-24.5 -79.5
q-18 -81 4 -115q15 -19 45 -22zM137 746q-20 0 -37 -11t-27 -30q-4 -8 -8 -20t-6 -21q-9 -50 22 -102q22 -36 47 -67q2 -4 4 -5q6 17 11.5 36t11.5 41l1 2q0 1 2 5q1 3 1.5 5.5t1.5 5.5l1 1q8 25 18 57.5t7 61.5q-1 5 -2.5 11.5t-3.5 9.5q-17 20 -44 20z" />
    <glyph glyph-name="nine" unicode="9" horiz-adv-x="398" 
d="M309 774q22 -20 23 -42.5t-1 -42.5q-1 -5 -1.5 -10t-0.5 -10q-1 -24 -1.5 -48.5t-1.5 -49.5v-1q-1 -45 -2 -90.5t-5 -93.5q-8 -88 -30 -173.5t-62 -167.5v-1l-2 -2q-2 -5 -5.5 -12.5t-9 -14t-12.5 -11t-17 -4.5h-15l-5 13q-8 16 -2.5 29t11.5 23l2 3l2 1q0 1 0.5 1t0.5 1
v2l2 3q1 1 3 5l2 4l2 4l2 3q15 31 29 63t22 68q14 65 22.5 140.5t11.5 145.5q-6 -11 -15.5 -26.5t-23 -30t-31.5 -26t-40 -13.5q-6 -1 -10.5 -1h-9.5q-46 0 -79.5 19.5t-51.5 57.5h-1q-6 14 -7 37.5t1 44.5q3 34 19.5 70.5t43.5 70.5q28 34 62 55.5t68 29.5q15 3 30 3
q14 0 38.5 -3.5t44.5 -22.5zM66 506q11 -16 30 -26t42 -10q20 0 35 9q25 14 49 57q17 29 31.5 59t19.5 62l1 2q0 9 3 20q2 22 0.5 34.5t-4.5 19t-7 8.5t-7 3q-5 1 -10.5 1.5t-11.5 0.5q-25 0 -50 -10q-48 -18 -90 -77q-22 -30 -32 -70q-11 -45 1 -83z" />
    <glyph glyph-name="colon" unicode=":" horiz-adv-x="161" 
d="M9 38q0 13 9 22t22 9t22 -9t9 -22t-9 -22t-22 -9t-22 9t-9 22zM9 607q0 13 9 22t22 9t22 -9t9 -22t-9 -22t-22 -9t-22 9t-9 22z" />
    <glyph glyph-name="semicolon" unicode=";" horiz-adv-x="200" 
d="M29 607q0 13 9 22t22 9t22 -9t9 -22t-9 -22t-22 -9t-22 9t-9 22zM132 29q3 -13 0 -24t-8 -23q-8 -20 -15.5 -36t-20.5 -34v-1q-17 -21 -21 -40l-1 -7l-6 -5q-17 -12 -29.5 -3.5t-7.5 31.5q2 10 7 18.5t10 16.5q4 7 11.5 16.5t9.5 16.5q2 8 5 14.5t7 12.5l2 4q1 2 1 2.5
t1 2.5q0 1 0.5 1t0.5 1v8l3 -1q2 2 2.5 5t1.5 5h-1q-5 0 -14.5 -5.5t-22.5 -22.5l-1 -1l-16 -21l-13 22q-5 8 -5 15.5t1 10.5q5 18 21 31t26 18q6 2 11.5 3.5t13.5 1.5q19 0 31 -9t16 -24z" />
    <glyph glyph-name="less" unicode="&#x3c;" horiz-adv-x="472" 
d="M390 521q5 -14 -1 -27q-6 -12 -19 -17.5t-24 -8.5q-2 -1 -4 -1.5t-3 -1.5l-26 -10l-26 -10q-5 -2 -10.5 -4t-10.5 -4q-20 -8 -39 -17.5l-39 -19.5q-13 -7 -25.5 -13.5t-25.5 -12.5h-1q-2 -2 -5 -2.5t-5 -2.5q-14 -6 -27.5 -12t-25.5 -14q48 -42 97 -90t102 -104
q12 -9 22.5 -19t21.5 -19q2 -2 2.5 -3t2.5 -2v-1l2 -1l10 -10q1 -1 2 -1.5t2 -2.5q7 -6 14.5 -14t9.5 -21q2 -12 -8.5 -19.5t-21.5 -7.5q-8 0 -18 3.5t-18 11.5q-3 4 -6.5 7.5t-6.5 7.5q-5 6 -10.5 12t-10.5 11q-4 4 -8.5 7.5t-9.5 8.5q-8 7 -16 13.5t-14 13.5
q-8 8 -15 16.5t-15 17.5q-8 11 -16 20t-17 17q-5 4 -9 7.5t-8 6.5q-15 12 -30 27q-13 13 -24 22.5t-21 17.5q-11 8 -24 19.5t-22 21.5l-1 1q-17 20 -8.5 38.5t28.5 29.5q8 4 15.5 7.5t14.5 8.5q17 8 33.5 16.5t34.5 16.5q48 21 92.5 40.5t87.5 40.5l7 3q2 1 4.5 2t4.5 2
q9 5 19 8.5t22 3.5h6l13 -2z" />
    <glyph glyph-name="equal" unicode="=" horiz-adv-x="489" 
d="M407 383v-49h-23q-20 1 -38.5 1.5t-39.5 0.5q-10 0 -8 0h6.5t7 -0.5t-7.5 -0.5q-15 -1 -29.5 -1h-29.5h-98h-46l-2 -1h-6q-16 0 -22.5 -0.5t-11 -1t-11 -0.5h-22.5h-18l-5 50h22q3 0 5 -0.5t4 -0.5h2h-26h21h8t8 1h1q14 1 28.5 1h34.5q23 0 45 0.5t44 0.5q18 0 28 0.5
t18.5 1t19.5 0.5h30h37.5t31.5 -1q5 0 10.5 -0.5t11.5 -0.5h20zM407 235v-49l-23 1q-20 1 -38.5 1.5t-39.5 0.5q-10 0 -8 0h6.5t7 -0.5t-7.5 -0.5q-15 -1 -29.5 -1h-29.5h-98q-14 0 -25 -0.5t-21 -0.5h-2h-6q-16 -1 -22.5 -1.5t-11 -1t-11 -0.5h-22.5h-18l-5 50h22h9
q1 0 2 -0.5t0 -0.5h-26q-3 0 -1 0t6 0.5t8.5 0.5h7.5h16h1q14 1 28.5 1.5t34.5 0.5h45t44 1q18 0 28 0.5t18.5 1t19.5 0.5h30q23 0 37.5 -0.5t31.5 -1.5h22z" />
    <glyph glyph-name="greater" unicode="&#x3e;" horiz-adv-x="472" 
d="M11 521l5 12l13 2h6q11 0 21.5 -3.5t18.5 -8.5q3 -1 5.5 -2t4.5 -2l7 -3q43 -21 87 -40.5t93 -40.5q18 -8 34.5 -16.5t32.5 -16.5q8 -5 15 -8.5l15 -7.5h1q20 -11 28.5 -29.5t-8.5 -38.5l-1 -1q-9 -10 -22.5 -21.5t-24.5 -19.5q-9 -8 -20 -17.5t-24 -22.5
q-8 -8 -15.5 -14.5t-14.5 -12.5q-4 -3 -8 -6.5t-9 -7.5q-9 -8 -17 -17t-17 -20q-7 -9 -14 -17.5t-15 -16.5q-7 -7 -14.5 -13.5t-15.5 -13.5q-5 -5 -9.5 -8.5t-8.5 -7.5q-5 -5 -10.5 -11t-10.5 -12q-3 -4 -6.5 -7.5l-7.5 -7.5q-7 -8 -17 -11.5t-18 -3.5q-11 0 -21.5 7.5
t-8.5 19.5q2 13 9.5 21t13.5 14q3 3 5 4l10 10l1 1l1 1l5 5q10 9 20.5 19t23.5 19q52 56 101.5 104t97.5 90q-13 8 -26 14t-27 12q-3 2 -5.5 2.5t-5.5 2.5q-14 6 -26.5 12.5t-24.5 13.5l-39 19.5t-39 17.5q-5 2 -10.5 4t-11.5 4q-13 5 -25.5 10t-25.5 10q-2 1 -8 3
q-11 3 -23.5 8.5t-19.5 17.5q-5 15 0 27z" />
    <glyph glyph-name="question" unicode="?" horiz-adv-x="377" 
d="M136 77q4 -13 2 -29t-10 -30q-4 -7 -11 -13.5t-18 -6.5q-13 0 -23 13q-16 21 -4 52q13 31 37 31q10 0 16 -4l8 -4zM285 773q16 -23 23 -51.5t2 -63.5l-1 -2v-11v-2q-1 -8 -2.5 -16.5t-2.5 -15.5q-4 -20 -9.5 -40t-18.5 -37q-19 -23 -46.5 -41.5t-58.5 -27.5q-2 -1 -3 -1
t-3 -1t-5 -1v-1h-3q-10 -3 -11.5 -4.5t-2.5 -4.5q-2 -9 -2 -19v-19v-13.5t-1 -12.5q-1 -10 -1 -23.5t-1 -28.5q-1 -32 -2.5 -64t-2.5 -52l-2 -72l-11 -6l-4 -2l-26 -1l-7 42q-4 23 -2.5 50t4.5 54q1 6 1 11.5v10.5l1 2q0 14 1 41.5t2 50.5q0 10 0.5 18t0.5 13v11v5
q0 9 0.5 20t7.5 22q8 12 19 15.5t20 5.5q6 2 8 2q6 2 8 3l16 4t13 6q4 2 7.5 4t6.5 4q4 2 7 4l6 4l1 1q11 9 19 20q5 7 8.5 15.5t6.5 17.5l1 1q8 23 11 46q3 18 3.5 35.5t-3.5 31.5q-8 33 -34 43v1q-15 6 -30 6q-32 0 -61.5 -21.5t-47.5 -46.5l-2 -2q0 -1 -1 -2l-2 -3
q-4 -6 -7.5 -12t-6.5 -13q-1 -2 -1 -2.5t-1 -2.5q-1 -1 -1 -4l-1 -1v-2q-10 -29 -31 -29q-10 0 -17 7q-9 11 -8 26v2q0 14 7.5 28t11.5 20q12 20 30 40t39.5 36.5t46.5 27t51 10.5q24 0 50 -12q4 -2 6 -2l1 -1l2 -1l2 -1q8 -3 16.5 -8.5t16.5 -17.5z" />
    <glyph glyph-name="at" unicode="@" horiz-adv-x="659" 
d="M571 508q2 -22 1 -39t-3 -33v-1q-3 -23 -10.5 -45t-16.5 -43q-1 -4 -2 -7t-3 -7q-3 -7 -8 -19t-13 -25.5t-19 -28t-25 -26.5q-34 -28 -71 -28h-7q-23 2 -41 23l-1 -1q-5 -8 -9.5 -14t-9.5 -12q-15 -19 -38.5 -35t-49.5 -16q-6 0 -16 2q-23 6 -45 26t-30 43l-1 1
q-5 13 -6.5 27.5t-2 28t0 25.5t1.5 20q2 20 11 46t24 50t35.5 40.5t47.5 17.5h10q13 0 29.5 -2.5t33.5 -13.5l1 -1q15 -11 26 -29q6 -11 9 -21l5 -5q6 -7 7.5 -14.5t1.5 -12.5q1 -11 -0.5 -21.5t-3.5 -19.5l-1 -3q-10 -43 5 -63q2 -2 5.5 -4.5t11.5 -4.5h5q14 0 29.5 12
t28.5 32q20 32 36.5 79t17.5 93q1 27 -3.5 52t-13.5 51q-25 65 -56 84q-11 7 -27.5 13t-35.5 6q-36 0 -66 -7.5t-58 -22.5q-12 -6 -24.5 -17t-25.5 -22l-5 -5h-1q-18 -17 -41 -43t-45 -62q-44 -75 -56 -156q-7 -38 -5.5 -76t3.5 -67l1 -11q2 -30 6.5 -61.5t15.5 -57.5v-1
q19 -40 39 -54q48 -31 112 -31q17 0 34 5t30.5 14.5t27.5 20.5l2 2l12 9q3 2 5.5 3.5t5.5 3.5q17 25 35 25q5 0 11 -2.5t11 -10.5l5 -8l-2 -9q-6 -18 -14 -28t-21 -19q-2 -1 -5.5 -3.5t-7 -6t-7 -6.5t-4.5 -4l-1 -1l-2 -1q-29 -20 -60 -30t-73 -8h-1q-14 0 -25.5 2.5
t-22.5 5.5l-12 3h-1q-6 2 -10 2q-10 2 -21 6t-22 13q-15 12 -30 25.5t-26 32.5q-9 15 -13.5 30t-8.5 30q0 4 -2 10q-14 49 -18 108q-2 27 -3 57t3 60v1q1 5 1.5 9.5t0.5 9.5q2 9 3 18.5t3 19.5t4 15q3 15 7 30.5t11 30.5q6 14 13 26.5t14 24.5q3 5 5.5 9t4.5 9q18 33 40 60
t47 55q9 11 18.5 19t19.5 16q8 6 11 9q12 11 28 18.5t29 12.5q25 10 45 14t48 7q2 0 5 0.5t8 0.5q11 0 16 -1h10q31 0 58 -12q29 -13 51 -35t32 -51v-1l12 -30q3 -8 6.5 -16t5.5 -16l1 -1q5 -14 6 -28.5t3 -28.5v-8v-1zM254 209q18 2 40 31q24 34 30 80q0 7 1 10
q2 21 2.5 40.5t-7.5 36.5q-5 8 -18.5 13t-25.5 5q-23 0 -37 -14h-1q-12 -12 -21.5 -33t-14.5 -46t-5 -49.5t7 -43.5q12 -31 42 -31q4 0 5 1h2h1z" />
    <glyph glyph-name="A" unicode="A" horiz-adv-x="427" 
d="M367 100q4 -17 9.5 -34.5t5.5 -34.5q0 -11 -6.5 -21t-18.5 -10q-11 0 -20.5 19t-18 48.5t-16 65t-13 69t-10 60t-6.5 37.5q-44 3 -87 3q-44 0 -87 -3l-40 -150t-54 -146q-10 -1 -23 2.5t-21 10.5q2 29 12.5 73t26 97t35.5 112.5t40.5 119t40 116.5t34.5 106t24.5 87.5
t9.5 59.5l27 13q15 0 24 -22.5t14.5 -51.5t8 -56.5l3.5 -38.5q15 -131 45.5 -266t59.5 -264zM118 358q35 5 70.5 3.5t71.5 -3.5q-16 75 -31 148.5t-26 148.5q-23 -74 -45 -148t-40 -149z" />
    <glyph glyph-name="B" unicode="B" horiz-adv-x="405" 
d="M155 399q-2 -2 -5.5 -3t-6.5 -3q17 -3 36 -7.5t38 -10.5q85 -28 106 -80q18 -45 8.5 -89.5t-47.5 -84.5h-1q-2 -2 -3 -3.5t-2 -2.5l-6 -9h-3q-58 -61 -129 -86q-3 -1 -13 -5q-11 -5 -25 -10t-27 -5q-29 0 -40 24l4 2l-12 12q-2 2 -5 5.5t-5 8.5q-4 9 -4.5 19t-0.5 20
q0 4 -0.5 7.5t-0.5 6.5v1q-2 17 -2.5 34.5t-0.5 35.5v25t1 25q0 6 0.5 12t0.5 12q1 12 1.5 24.5t0.5 23.5q0 7 -1 13.5t-1 13.5q-3 21 -3 44q1 35 1 70v72v17t-1 17q0 8 -0.5 17t-0.5 18v30q1 18 1.5 36.5t2.5 37.5q3 16 3 38q0 1 -0.5 3.5t-0.5 4.5q-2 10 -2 21t7 21
q9 13 28 18t43 7q2 0 4 0.5t4 0.5q12 2 22.5 2h19.5h13h14q16 0 34 -3q4 0 7.5 -0.5t6.5 -0.5h1q42 -4 72.5 -19.5t53.5 -43.5q17 -20 22 -50.5t-5 -63.5q-8 -28 -23 -49q-3 -5 -5 -10l-1 -6l-4 -5q-4 -5 -7.5 -9t-5.5 -8l-1 -1l-6 -9q-5 -7 -10.5 -14t-12.5 -14
q-9 -10 -19.5 -17t-21.5 -13l-3 -2q-5 -3 -10 -7t-10 -9q-9 -9 -21 -18zM244 299q-6 5 -12 7.5t-14 6.5l-6 3l-4 1l-3 1q-2 2 -4.5 2.5t-5.5 2.5q-1 0 -5 2q-2 1 -5 2t-5 2l-14 3q-51 15 -103 17q0 -5 1 -7v-1v-17.5t1 -17.5q0 -13 0.5 -25.5t-0.5 -25.5v-1q-1 -23 -2 -47.5
t0 -48.5l1 -1v-34v-31q1 -1 1 -3t1 -4q1 -5 2 -12.5t-1 -15.5l18 4.5t20 5.5t17.5 5.5t9.5 3.5q21 8 43.5 22t36.5 28l7 7q23 23 41 45.5t17 54.5q-1 46 -33 66zM63 407q12 6 24.5 13.5t24.5 16.5q11 8 23 16.5t23 16.5q21 14 40.5 27.5t36.5 29.5q22 20 33.5 39.5
t20.5 39.5l1 5q2 4 3 7t3 7q5 13 9.5 24.5t2.5 24.5q-2 12 -16.5 27.5t-30.5 23.5h-1q-19 8 -50 13.5t-62 5.5h-8q-22 0 -39 -1.5t-31 -3.5q-1 -4 -1 -7.5v-6.5v-9q-1 -1 -1 -2v-1v-1q0 -10 -0.5 -19.5t-1.5 -18.5q-2 -17 -3 -39.5t2 -43.5q2 -8 1 -16.5t-2 -16.5
q-1 -5 -1 -9v-8q-1 -6 -1 -12v-12q-1 -23 -1.5 -44t1.5 -44q0 -5 0.5 -10.5t0.5 -11.5z" />
    <glyph glyph-name="C" unicode="C" horiz-adv-x="390" 
d="M304 95q10 0 16.5 -6.5t6.5 -16.5v-4l-1 -2v-3v-10l-9 -7l-2 -2q-29 -23 -59.5 -33.5t-68.5 -10.5q-61 0 -94 25q-18 15 -31 36.5t-22 47.5t-15 54t-10 56q-3 23 -4 48t-2 51v1q0 13 -0.5 27t-1.5 29v1q0 8 -0.5 14t-1.5 13v1v11q-1 9 -1.5 18t-0.5 19q2 23 5 40.5
t5 29.5v1v2q6 29 14 63.5t21 66.5q4 20 19 48.5t30 52.5l1 2q2 2 3.5 4t3.5 4q1 0 1 1l2 6l11 4q37 23 76 23q16 0 36 -5q14 -4 28 -13t22 -17l1 -1l1 -1l4 -6.5t7.5 -16t5.5 -20t-1 -18.5q-5 -13 -18 -16h-2h-4q-12 0 -19 7l-10 10l-1 8q-1 9 -7 17t-14 11q-4 2 -13 3.5
t-26 1.5q-16 0 -30.5 -13t-24.5 -29q-4 -6 -8 -15.5t-8 -19.5q-8 -20 -15 -32q-1 -7 -2.5 -14t-3.5 -12q-1 -1 -1 -3q-2 -7 -4 -12.5t-4 -11.5l-4 -12l-4 -12v-2q-3 -11 -4.5 -21.5t-3.5 -21.5q-1 -5 -1.5 -11t-1.5 -12q0 -3 -0.5 -6t-1.5 -7q-5 -29 -3.5 -61t3.5 -67v-1
q1 -7 1 -13v-13q1 -13 1.5 -26t0.5 -26q5 -8 5.5 -16.5t-0.5 -16.5v-4v-10v-2q7 -31 14.5 -64t19.5 -57q11 -21 26.5 -32t46.5 -15h2q4 -1 13 -1q52 0 79 25h1v1l4 3q2 2 3 2q4 4 10 8t14 4z" />
    <glyph glyph-name="D" unicode="D" horiz-adv-x="374" 
d="M329 560q3 -15 3 -26.5t-2 -23.5v-1l-1 -43q-1 -11 -2 -23t-3 -24q-3 -20 -8.5 -43.5t-14.5 -49.5q-5 -18 -10.5 -36t-13.5 -36q-6 -14 -12.5 -28.5t-13.5 -29.5q-11 -25 -38 -61l-1 -4l-1 -1q-3 -5 -5.5 -9t-7.5 -8v-1l-2 -5q-3 -7 -9 -11q0 -1 -2 -3l-4 -4v-2l-2 -2
q-1 -1 -1 -3l-1 -2l-7 -7q-2 -2 -3.5 -4t-5.5 -4l-11 -11q-1 -1 -2.5 -3t-3.5 -4q-4 -5 -7 -7q-2 -4 -9 -8l-14 -8l-1 -1l-1 -1l-3 -1h-2q-2 -2 -3.5 -2.5t-2.5 -1.5q-4 -2 -5 -4l-1 -2l-3 -2q-5 -5 -11.5 -9t-17.5 -6q-2 -1 0.5 -1.5t-0.5 -0.5q-7 0 -15 3t-15 8t-12 11
t-5 12v1q0 5 -1 7l-1 2v5q0 18 -0.5 38t-1.5 41q-2 38 -3 76.5t1 80.5q-2 15 -2.5 29.5t0.5 30.5v15v16v23q0 30 -0.5 56l-1 52t0 53t1.5 59q0 6 -0.5 18t-0.5 24v30v18v14.5t1 9.5q1 13 -2 23t4 22q6 12 16.5 17t23.5 5q5 0 15 -2h2l5 -3q2 0 2 -0.5t2 -0.5l2 -1
q9 -4 19 -5l6 -2q5 0 11 -2q2 0 2 -1q6 0 10 -2q6 -2 8 -4h1l6 -3h4l2 -1l12 -3q9 -3 16 -7l14 -8q6 -4 9 -5q3 -2 6 -3.5t5 -3.5l3 -2l1 -2l4 -2q7 -4 14 -9l24 -22t23 -24v-1q9 -11 14 -22l10 -22l4 -8l4 -8q15 -28 19 -53zM70 94v-1q0 -6 -1 -8v-7q0 -5 -0.5 -9t1.5 -9
q1 1 6 3t8.5 3.5t6.5 3.5l1 1q11 10 24 24.5t21 24.5l4 6q25 34 41.5 60.5t27.5 53.5q26 59 41.5 110t20.5 93l1 7q4 32 5.5 58.5t-3.5 49.5q-3 14 -10.5 29.5t-18.5 32.5q-20 30 -43 52q-5 5 -11.5 9t-13.5 8q-2 2 -3.5 2.5t-3.5 2.5t-5 2.5t-5 2.5l-4 2q-17 7 -32 13
t-30 10q-9 2 -13 4h-1l-4 1q-4 2 -12 4q0 -20 -3 -41q-1 -7 -1.5 -13t-0.5 -11q-1 -9 -0.5 -18t0.5 -18q2 -15 1.5 -29t-0.5 -28v-31t2 -30q0 -7 0.5 -13.5t0.5 -14.5l-1 -23q2 -14 2 -26.5t-1 -25.5q-1 -4 -1 -8v-8l-1 -16v-12q0 -8 -0.5 -16t0.5 -16q2 -15 1.5 -30
t-0.5 -29q0 -6 0.5 -10.5t0.5 -9.5v-38.5t1 -37.5v-11t-1 -10v-20l1 -1q0 -6 1 -9q0 -6 1 -10q0 -2 0.5 -5t0.5 -6q2 -8 2 -13v-1z" />
    <glyph glyph-name="E" unicode="E" horiz-adv-x="387" 
d="M67 537q-1 -5 -1.5 -10.5t0.5 -10.5q0 -10 -0.5 -19t-1.5 -17v-9q-1 -3 -1 -11q-1 -8 -1.5 -14.5t0.5 -13.5v-19h16q1 0 2 0.5t3 0.5h8h9q2 0 3 -0.5t2 -0.5h13q8 0 9 1h3h7h5q2 0 9 -1t13 -7l3 -2l1 -4q5 -9 3 -20v-20h-23h-4.5t-4.5 -1q-3 -1 -7.5 -2t-9.5 -1
q-3 0 -6 0.5t-6 0.5h-11q-3 0 -6 0.5t-7 0.5h-10h-8h-6l-1 -1v-30v-10.5t-1 -10.5v-21v-2l-1 -7q-2 -17 -2.5 -35.5t-1.5 -35.5q0 -8 0.5 -16.5t0.5 -18.5v-2v-9q-1 -2 -1 -6v-6v-6v-2v-2q0 -10 1 -19.5t3 -19.5q1 -5 1 -10v-10q1 -5 1 -12t1 -10q2 0 3 1q4 1 8 1t9 1
q9 1 18 1t18 1q8 1 17 1.5t18 0.5l3 1l51 3h2h23l1 1h27h17q3 0 5.5 -0.5t4.5 -0.5h3q6 0 19 -2.5t18 -17.5q2 -5 2.5 -10t-3.5 -13l-1 -3l-3 -2q-6 -7 -14 -8.5t-14 -1.5h-46h-18q-5 0 -10 -0.5t-10 -0.5h-37h-22t-22 -2h-1q-4 -1 -11 -1q-2 0 -3.5 -0.5t-3.5 -0.5h-2h-2
q-2 0 -12 -2h-3q-10 -2 -19.5 -2h-19.5h-8q-20 0 -27.5 9t-9.5 19v1q-1 5 -1 9v8q1 1 1 4q0 7 -1 10v2v2q0 6 -1 11.5t-1 11.5v3v5q0 5 -0.5 10t-1.5 10q-1 18 -2 35t0 34l2 74t3 63q1 15 1 30.5v31.5v43.5t2 44.5q1 17 1.5 35.5t1.5 36.5v7v9q0 6 0.5 12t1.5 13v2
q2 11 2 22v22v1v2q1 3 1 11q0 3 0.5 6.5t0.5 7.5q3 21 3 42q0 6 1 8v1v2v7q2 14 2 30t7 28q9 14 25 16.5t31 2.5h9q19 0 38 1t39 1h3l13 1q9 0 17.5 0.5t16.5 0.5q25 1 48 0t43 -1h1q18 0 23 -18q2 -13 -5 -22q-7 -10 -21 -13t-37 -3h-16h-9h-2q-6 0 -12 -0.5t-13 -0.5
q-6 0 -12 0.5t-12 0.5h-23q-19 0 -41 -3h-1h-1q-6 0 -11.5 -1t-12.5 -1h-2h-5l-3 -1h-9t-9 -1v-6q0 -2 -0.5 -4t-0.5 -4v-4q0 -3 -0.5 -4.5t-0.5 -3.5v-2l-1 -2q0 -3 -0.5 -5.5t-0.5 -4.5q0 -12 -0.5 -24t-1.5 -25v-1q-1 -11 -2 -22.5t-1 -22.5v-12q-1 -3 -1 -8v-2v-2
q-1 -4 -1.5 -7t-0.5 -7v-13q0 -2 -0.5 -4.5t-0.5 -4.5v-1v-2z" />
    <glyph glyph-name="F" unicode="F" horiz-adv-x="329" 
d="M284 787q7 -8 6.5 -15.5t-1.5 -10.5q-5 -11 -14.5 -14t-13.5 -4q-5 0 -10.5 -0.5t-13.5 -0.5q-15 0 -36.5 -2t-47.5 -4h-1q-6 -1 -12.5 -1.5t-12.5 -1.5q-13 -2 -26 -3t-27 0h-6v-17v-9t-1 -9q-2 -17 -1.5 -35t0.5 -37q0 -11 0.5 -23t-0.5 -24v-8v-2q-1 -2 -1 -7v-2l1 -2
v-4v-7v-9v-1q-1 -20 -1.5 -40.5t-1.5 -40.5q-1 -7 -1 -14v-14v-5q18 3 35.5 4.5t33.5 3.5q5 0 8 1q5 1 10.5 1.5t10.5 0.5q8 0 18.5 1.5t15.5 -2.5l9 -15l-3 -21q-4 -10 -12 -15t-17.5 -7t-20 -2.5t-19.5 -0.5q-11 0 -13 -1h-1q-5 -1 -10.5 -1t-10.5 -1q-11 0 -16 -1
t-10 -1.5t-10 -1.5v-10q-1 -11 -1 -22.5t-1 -19.5v-11v-1q-1 -25 -2 -49.5t-2 -47.5q-1 -17 -0.5 -34t1.5 -35q2 -25 2.5 -49.5t-2.5 -50.5v-1q-5 -32 -27 -32q-10 0 -18 8q-7 8 -9 19.5t-2 19.5q0 7 1 9v4q-1 50 0 105v14t1 15v68v23v35t1 36q0 11 0.5 21t1.5 21
q1 13 1 25.5t1 25.5q0 13 1 26t1 27v15q0 10 -0.5 20t0.5 20q1 13 1 26v27q-1 25 0 49v19t1 17h1v14q1 5 1 15q0 2 0.5 3t0.5 2v1v2l1 4q0 2 0.5 3.5t0.5 2.5v1l-1 1l-1 2q-2 6 -2 11v4l2 4q7 15 24 19t37 4h5q5 1 9 1h8h13l2 1h2h7t11 1h1q9 1 20.5 1.5t22.5 1.5t19.5 1.5
t12.5 1.5h2h2h5.5t5.5 1h2h2q1 0 2.5 0.5t3.5 0.5q5 0 10 0.5t10 0.5q8 0 16.5 -1.5t14.5 -9.5z" />
    <glyph glyph-name="G" unicode="G" horiz-adv-x="397" 
d="M335 182v-1q1 -2 1 -6q0 -25 -2 -44.5t-5 -36.5q-5 -23 -16.5 -43.5t-28.5 -32.5t-36.5 -15t-36.5 -3h-16q-38 0 -75 7t-63 35q-20 21 -31 47.5t-16 55.5t-5.5 59t0.5 57l1 5v25v49q0 6 0.5 12.5t0.5 13.5v24q0 5 0.5 9t0.5 9v18q0 5 0.5 9.5t0.5 9.5q2 38 4 78t8 79
q1 7 1.5 12.5t1.5 10.5q1 10 1.5 17.5t2.5 15.5v1q2 6 2 10q1 2 1 4t1 4q0 2 0.5 3t0.5 2v1v2q3 14 7.5 29t15.5 31q2 2 3 4t3 4q3 5 9 12.5t14 14.5l6 5h4l4 2h1q12 6 29 9.5t33 3.5q26 0 52 -9q26 -8 43 -24.5t30 -47.5q2 -2 2 -4q0 -1 0.5 -1t0.5 -1l1 -2q3 -6 6 -17
t4.5 -24t0.5 -26t-7 -25q-2 -5 -8.5 -13.5t-19.5 -8.5q-12 0 -19 11q-2 4 -4.5 12t-0.5 23q1 10 0 24q-2 14 -7 27.5t-13 25.5q-8 11 -24.5 18.5t-36.5 7.5q-16 0 -26 -3q-2 -1 -2.5 -1t-2.5 -1h-1v-1q-1 0 -5 -2l-3 -3h-3q-6 -4 -10 -12l-2 -3l-4 -4l-2 -1l-1 -1
q-16 -38 -19 -97v-1q0 -13 -1 -25t-3 -24l-1 -1q-2 -14 -3.5 -28t-1.5 -28q-1 -19 -1.5 -32.5t-2.5 -22.5q2 -32 -0.5 -62.5t-3.5 -60.5v-12v-28.5t1 -32.5v-2q1 -4 1 -8v-9v-20v-12q0 -5 0.5 -9.5t0.5 -9.5q0 -9 0.5 -18t1.5 -17q1 -10 6 -19q0 -2 2 -6q0 -2 2 -6l2 -6
t2 -7l1 -2q1 -4 1.5 -5t4.5 -5l1 -1q3 -2 3 -3l2 -1q5 -4 8 -8t6 -7q6 -9 14 -12q5 -1 10.5 -2t10.5 -1q2 -1 6 -1h3h3l2 -1h4q2 -1 3.5 -1t3.5 -1q8 -1 15.5 -2t15.5 -1q5 0 15 2q16 2 30 6t19 14v1l1 1q2 5 3 12t3 14l1 4v3q1 2 1 4t1 4q6 33 6.5 63t-1.5 63v3
q-1 10 -1.5 19.5t-0.5 20.5q-16 0 -34 -5h-2q-9 -2 -19 -4t-22 -2h-21l-6 12q-2 5 -2.5 9t-0.5 6v5l2 4q8 17 22.5 21t24.5 4l2 1h7q2 0 5 0.5t7 0.5q8 2 15 2q2 1 4.5 1t4.5 1q10 1 19.5 2t20.5 1h16l5 -15q4 -11 6.5 -22t3.5 -21v-1q1 -19 1.5 -46.5t-0.5 -57.5v-3z" />
    <glyph glyph-name="H" unicode="H" horiz-adv-x="398" 
d="M319 248v-47q0 -35 -0.5 -71.5t-0.5 -72.5v-12q0 -11 -1 -20t-6 -16q-7 -9 -20 -9q-2 0 -6 0.5t-9 2.5l-12 6v11l-1 1v3l-1 2l-2 7l2 7v2v9v2q-1 11 0 21t1 19q1 10 1.5 18.5t0.5 17.5q-1 23 -1 47t2 46q-3 18 -3 35.5t1 34.5v14v13q-4 0 -7.5 0.5t-7.5 0.5q-25 0 -51 -1
t-52 -1h-1q-5 0 -9 -0.5t-8 -0.5h-18h-24t-23 -1v-14t1 -15v-1v-10q0 -13 -0.5 -26.5t-2.5 -27.5q2 -22 2 -46t-1 -47q0 -10 -1 -14v-10q0 -2 1 -4q2 -8 1.5 -16.5t-0.5 -16.5v-15.5t2 -13.5l2 -6l-2 -7l-1 -2q-1 -2 -1 -5v-10l-12 -6q-5 -2 -9 -2.5t-6 -0.5q-13 0 -20 9
q-5 7 -6 16t-1 20v13q0 40 -1 80t0 80v52v46v97q-1 34 -1 66t2 64v1q0 11 0.5 22.5t0.5 22.5v38v20.5t1 20.5q0 26 0.5 53t0.5 51l-1 9l7 7q3 3 9 7.5t16 4.5q11 0 18 -7l7 -7v-113q0 -3 -0.5 -5.5t-0.5 -5.5v-9v-3l-2 -4v-3v-1v-1q0 -2 0.5 -3.5t0.5 -3.5v-3v-14
q-2 -10 -1.5 -21.5t0.5 -22.5v-14l1 -2v-2v-9v-21q-4 -31 -4 -62v-62q1 -8 -1 -16.5t2 -15.5q10 4 21 3h10h41q3 2 5.5 2h4.5t4 -0.5t4 -0.5h1q2 0 4 -0.5t4 -0.5q3 0 4 1h3h2q6 2 11.5 2h10.5h71v13q0 17 -0.5 34.5t-1.5 34.5q-1 24 -1.5 48.5t0.5 50.5v1v2q1 4 1 14v22.5
t-1 21.5v14v3v3l1 3v2v1v3q-1 2 -1 6v3q-1 5 -1.5 9t-0.5 9v113l7 7q6 7 18 7q10 0 17 -5t11 -10l3 -6v-7q-1 -24 0 -51t1 -53v-20.5t1 -20.5v-38v-17q0 -41 1 -79.5t1 -79.5v-26t-1 -27q5 -11 0 -21q0 -23 0.5 -45.5t0.5 -45.5z" />
    <glyph glyph-name="I" unicode="I" horiz-adv-x="351" 
d="M221 743q-12 1 -22.5 2t-26.5 1q1 -12 3 -18l1 -2q2 -9 0 -17v-6v-14q0 -22 1 -47t-2 -53q-1 -10 -1 -20.5v-20.5v-15v-17t-1 -18v-13q0 -3 -0.5 -5.5t-0.5 -5.5v-1v-2q-2 -9 -2 -18v-18v-54q0 -20 -1 -39.5t0 -39.5q2 -75 5.5 -132.5t9.5 -105.5q2 1 6 1h2q15 2 26 3
t19 1h8q15 0 25 -8l1 -2l2 -1q6 -10 5 -17.5t-3 -11.5l-1 -1q-9 -17 -41 -17h-1q-12 0 -22.5 -1t-21.5 -2l-9 -1q-5 -1 -9 -1t-9 -1q-14 -1 -29 -2t-30 -1h-21q-5 0 -10 -0.5t-11 -0.5h-2h-5q-3 -1 -8 -1q-10 0 -16 3t-8 5q-5 5 -7 13.5t4 19.5l1 3l3 3l2 2l3 7h14
q12 0 24.5 0.5t26.5 1.5h3q8 1 16 1t16 1q-2 22 -3 43.5t-3 42.5q0 3 -0.5 6t-0.5 6q0 7 -1 9v1q-1 8 -1.5 16.5t-0.5 16.5q0 14 -0.5 27.5t-0.5 28.5l-1 4v30q0 8 -0.5 16.5t-0.5 16.5q0 22 0.5 44.5t1.5 46.5v8q1 9 1 18v18q1 9 1 18v18v10.5t1 10.5v21v2q0 9 0.5 18
t0.5 19t0.5 19t0.5 18v49q0 22 -0.5 43.5t-3.5 38.5h-29h-29t-24 1l-14 1l-6 6q-7 7 -7 19v4l1 3q5 14 20 21l5 1h4q21 -2 40 -3t47 -1q23 0 44.5 0.5t44.5 0.5l15 1l4 -2h7q5 1 14 1q6 0 11 -0.5t10 -4.5l12 -3v-17q0 -11 -5.5 -17t-8.5 -8l-6 -4h-2l-4 -2h-7
q-10 0 -18 0.5t-15 1.5z" />
    <glyph glyph-name="J" unicode="J" horiz-adv-x="399" 
d="M356 751q-4 -4 -17 -8h-2h-2q-1 -1 -2 -1h-2q-10 -2 -15 -2q-13 0 -20.5 -0.5t-18.5 -2.5q-2 0 -4 -0.5t-4 -0.5q-5 -1 -9.5 -1.5t-9.5 -0.5q-4 -1 -8 -1t-6 -1h-2l-1 -1h-3q-4 0 -6 -1q1 -10 0 -19v-8q0 -5 0.5 -10t0.5 -10q1 -11 1.5 -23t0.5 -23v-12q0 -6 -0.5 -11
t0.5 -10q0 -6 0.5 -12t0.5 -12v-11.5t1 -10.5q1 -10 0.5 -19.5t-0.5 -18.5v-18v-2v-2q-1 -3 -1 -7v-7q0 -8 -0.5 -15t-0.5 -15v-16.5t-1 -16.5v-33v-16q1 -5 1 -9.5v-9.5v-1q-1 -17 -1.5 -33.5t0.5 -36.5q1 -26 1.5 -52.5t-1.5 -50.5q-2 -31 -6.5 -59.5t-17.5 -54.5v-1
q-10 -20 -27.5 -38t-53.5 -25q-4 -1 -14 -1q-18 0 -30.5 8t-23.5 17q-2 1 -2.5 1.5t-2.5 1.5q-14 11 -24.5 27.5t-16.5 35t-5.5 39t8.5 39.5l6 14h16q10 0 20 -5l12 -6v-13q0 -3 -0.5 -6t-1.5 -8l-1 -1l-1 -1q-2 -11 0 -24t7 -25t12.5 -21t17.5 -12q7 -3 14 -3q15 0 25 11.5
t16.5 27.5t10 32t4.5 24q2 8 3 18.5t1 21.5v3q0 24 0.5 48.5t-0.5 50.5v2q-1 29 -1.5 59t1.5 61q2 45 2.5 80t-0.5 66v1v23q0 59 -6 121v3q0 2 -0.5 5.5t-0.5 6.5h-4h-5q-2 0 -3.5 -0.5t-3.5 -0.5h-2q-12 -1 -24.5 -1.5t-25.5 -1.5q-10 0 -15.5 -1t-12.5 -3q-4 -1 -7.5 -1.5
t-8.5 -1.5h-1q-1 0 -1 -0.5t-1 -0.5h-2q-6 -3 -17 -3q-2 0 -3.5 0.5t-3.5 0.5h-19v43l10 6q7 4 14 5.5t12 2.5h1h1q1 0 1.5 0.5t2.5 0.5q31 5 55.5 8t53.5 5q9 1 18.5 1t19.5 2l38 5q8 2 14.5 2.5t13.5 1.5q11 2 21 2.5t21 1.5q16 1 36 3l15 1l2 -5v-44z" />
    <glyph glyph-name="K" unicode="K" horiz-adv-x="358" 
d="M283 95q8 -10 16.5 -22.5t7.5 -27.5q-1 -9 -5.5 -14.5t-10.5 -7.5q-3 -1 -9 -1q-16 0 -26 12t-16 22q-1 1 -1 1.5t-1 1.5l-20 30q-9 14 -20 34t-20 42v1q-5 10 -8.5 18t-8.5 17q-2 5 -5 9.5t-5 9.5l-1 1q-7 14 -11.5 24.5t-11.5 21.5q-5 8 -7.5 14t-4.5 11q-2 6 -3 8
l-6 12q-5 8 -9 16t-8 13q-6 8 -10.5 15t-9.5 15q-2 4 -4 5v-21q0 -22 -1 -43.5t-2 -43.5q-1 -16 -1.5 -32t-1.5 -32v-1q-1 -20 -2 -43.5t1 -46.5v-3v-2q-3 -17 -3.5 -34t1.5 -33l1 -8l-4 -6q-1 -2 -2 -3q-2 -10 -14 -17q-2 -1 -7 -3t-11 -2.5t-10.5 1t-4.5 6.5q-1 5 -1 9.5
t-1 9.5q-2 14 -1.5 26.5t0.5 24.5v9t1 8v2q1 21 1.5 41.5t0.5 43.5q0 10 0.5 19.5t0.5 19.5v21.5t1 21.5v1q0 9 0.5 18t1.5 18q1 10 1.5 19.5t0.5 19.5q2 22 3 46l2 48l1 93v31t-2 36v2v2v19.5v38.5v47.5t0.5 46.5t1.5 35.5t3 14.5q10 0 22.5 0.5t20.5 -6.5q9 -8 10 -19.5
t-1 -22.5v-4v-23v-49q-1 -14 -1 -27v-27v-28v-16t-1 -16v-44q2 5 4.5 9t5.5 8l24 45q8 16 16 28l9 15v1l3 5q1 2 2 4.5t3 5.5q1 2 2 4.5t2 5.5q2 5 5 10.5t6 10.5q5 11 10.5 21.5t11.5 20.5l2 4l2 4l9.5 19t7.5 18l1 1l1 2v1q0 1 0.5 1t0.5 1q4 10 11.5 23.5t24.5 12.5
q13 0 21 -11q5 -9 4.5 -17.5t-2.5 -12.5q-3 -10 -7 -17.5t-9 -14.5q-2 -2 -3 -5t-3 -5q-5 -11 -10.5 -21.5t-10.5 -21.5q-3 -6 -9 -10.5t-3 -15.5q-9 -18 -18 -33q-5 -8 -9 -16l-8 -16t-7.5 -13.5t-6.5 -11.5q-3 -5 -6 -8.5t-5 -8.5q-3 -6 -6 -15q-2 -6 -5 -12.5t-7 -12.5
q-5 -7 -9 -14t-9 -13l-6 -9v-1q-3 -3 -5 -6.5t-4 -7.5q-2 -3 -3 -5.5t-3 -5.5l2 -2q3 -3 4 -5q2 -2 8 -9h1q19 -25 37 -54.5t32 -62.5l1 -1q2 -5 4.5 -10.5t5.5 -10.5l4 -6t4 -7l1 -2q8 -17 13.5 -30.5t12.5 -24.5q5 -8 9 -16.5t9 -16.5q2 -5 3.5 -8.5t3.5 -7.5
q7 -13 17 -30.5t23 -34.5q1 -2 4 -5z" />
    <glyph glyph-name="L" unicode="L" horiz-adv-x="319" 
d="M242 52q8 -9 6 -20v-1q-2 -9 -7.5 -13.5t-12.5 -6.5t-13.5 -2.5t-10.5 -0.5q-5 0 -9.5 -0.5t-9.5 0.5h-14q-5 -1 -9 -1t-9 -1q-18 -3 -37 -3q-11 0 -16 1q-3 0 -9.5 -0.5t-14.5 -0.5q-19 -2 -32 -2.5t-18 -0.5h-3q-9 1 -15 7t-6 15v2q1 6 1 12.5v13.5q-2 32 -2 60.5v57.5
v70q0 83 3 163v20.5t1 20.5q1 9 0.5 17.5t-0.5 16.5v17v14v27.5t2 28.5q-2 11 -1.5 22.5t1.5 22.5v10q1 3 1 8v1v2q1 3 0.5 4.5t-0.5 2.5v2v11v58v1v35v5q-1 5 -1 12t2 12q2 6 5 10t5 6l2 2l1 1l3 3l6 6l9 -3q2 0 8 -1t11 -6l6 -6v-9q1 -8 0.5 -16.5t-0.5 -16.5
q-1 -5 -1 -10.5v-10.5v-8t1 -8q0 -7 0.5 -13t-0.5 -13v-27.5t-1 -27.5t-1 -27v-27v-28t-2 -30v-22q0 -15 -0.5 -30.5t-1.5 -29.5q-1 -15 -1.5 -29.5t-0.5 -29.5v-40v-11.5t1 -10.5v-3v-10v-19.5t-1 -19.5q2 -8 2 -15t-1 -14q0 -6 -1 -8v-3v-9q1 -3 1 -9q1 -27 0 -52
q-1 -4 -1 -11q0 -6 0.5 -12.5t1.5 -13.5q1 -5 1 -9.5t1 -9.5q0 -8 0.5 -16t0.5 -16q9 0 14 1h2q18 1 35.5 0.5t36.5 1.5q4 0 18 1t28 1q20 0 30 -2.5t16 -9.5z" />
    <glyph glyph-name="M" unicode="M" horiz-adv-x="474" 
d="M328 748q3 7 7 16t9.5 17t12.5 13.5t17 5.5t17 -7q8 -8 9.5 -19t1.5 -23l-1 -2v-4q0 -24 0.5 -50t1.5 -48q1 -5 1 -9.5v-9.5q1 -5 1 -8.5v-7.5v-2q1 -10 0.5 -19t-1.5 -20q-1 -16 -0.5 -29t2.5 -24q1 -11 0 -18v-6v-8q-1 -2 -1 -4q1 -17 1.5 -35t0.5 -35q1 -17 1 -33
t1 -33q0 -7 0.5 -13t0.5 -13q0 -6 0.5 -12t0.5 -12v-1q2 -26 2 -51v-56v-130q3 -21 0 -30t-5 -12q-6 -8 -7 -10t-14 -2q-5 0 -16 0.5t-11 8.5v1q0 1 -0.5 3t-0.5 5v13.5t-1 12.5v26q-1 13 -1.5 30t-0.5 30v9q0 2 0.5 3t0.5 3v15v8.5t1 8.5q0 47 -3 94q0 5 -0.5 11t-0.5 11
q-2 37 -3 71t-1 67v28.5t-1 28.5v56q-1 23 -1.5 47.5t-0.5 48.5q-2 -4 -3 -7l-1 -1q-3 -8 -6.5 -16t-6.5 -17v-2q-1 -2 -2 -3.5t-2 -3.5q-2 -7 -5.5 -14t-6.5 -14l-6 -15q-1 -2 -1.5 -3.5t-1.5 -3.5l-1 -1l-3 -5q-9 -20 -16 -38.5t-14 -36.5q-5 -14 -9.5 -24.5t-9.5 -20.5
l-2 -6t-2 -5q-5 -13 -9.5 -24.5t-8.5 -23.5q-1 -8 -7 -14l-6 -6h-9q-13 0 -18.5 8.5t-7.5 13.5v2l-2 4v1l-1 1q0 2 -2 6q0 3 -1 4v1l-5 19q-9 23 -19.5 47.5t-21.5 50.5l-1 2l-12 27q-11 20 -22 49q-3 8 -6.5 14.5t-7.5 14.5l-1 2q-2 4 -3.5 8t-3.5 9q-2 2 -2 4
q-1 -3 -1 -10v-2q-2 -11 -2 -20.5t1 -22.5v-1q1 -8 0.5 -14.5t-1.5 -11.5q-1 -2 -1 -6v-8q1 -27 0.5 -54.5t-0.5 -54.5v-86q0 -8 -0.5 -16.5t-0.5 -16.5q0 -11 -0.5 -21.5t-1.5 -21.5v-2v-17q0 -4 -0.5 -7.5t-0.5 -7.5v-15t1 -13q1 -9 1.5 -18t-0.5 -17v-16t-1 -21l-1 -9
q-1 -19 -1.5 -35t-0.5 -23v-3q0 -14 -3 -32t-22 -23l-2 -1h-3q-5 0 -7 1h-6l-7 8q-3 4 -5 10t-3 20t0.5 37.5t4.5 62.5q0 4 0.5 6.5t0.5 4.5q1 13 1 26v27v3h-2v60q0 7 1 11v7v12q1 3 1 9q0 5 -1 8v2v2v35t1 37q1 13 0.5 26t-0.5 27v1v27q0 15 0.5 29.5t1.5 30.5v18
q1 5 1 9.5v9.5v21v16t1 17v8q0 1 0.5 2t0.5 3v1v2q0 4 1 7q0 5 1 8v21v13q0 13 0.5 26.5t3.5 26.5v3l1 3q1 4 0 9.5t-1.5 11t0.5 10t6 7.5q2 2 5.5 0.5t5.5 0.5q6 4 13 4q11 0 17 -8l2 -1q5 -5 7 -11.5t4 -11.5l2 -4v-2l1 -2q0 -2 2 -8q1 -1 1 -2t1 -2v-2q1 -2 1.5 -3.5
t1.5 -3.5h1q8 -20 15 -41l1 -3q2 -3 2.5 -6t1.5 -5l1 -1q7 -23 16.5 -44t20.5 -41l6 -12q14 -26 26.5 -54t21.5 -57q1 -6 4 -11l2 5q2 6 4 11.5t4 11.5q2 5 4.5 10.5t4.5 11.5q4 11 8 20t8 19q4 7 7 14.5t7 15.5q1 3 3 11q2 3 2.5 6t2.5 6l2 6t2 5q5 14 11 27.5t13 27.5
q11 21 22 52q2 5 3.5 10t3.5 10q2 6 2 8l1 2z" />
    <glyph glyph-name="N" unicode="N" horiz-adv-x="472" 
d="M408 748q0 -22 -1 -44.5t-1 -36.5q-1 -15 -0.5 -31t1.5 -33v-1v-49q0 -75 -0.5 -151t-2.5 -152q-1 -9 -0.5 -18t0.5 -19q1 -9 1 -19v-20v-26v-30v-59v-5q1 -12 1 -21.5t-7 -17.5q-6 -6 -11.5 -7.5t-9.5 -1.5q-10 0 -16.5 5t-10.5 12t-6 14.5t-3 12.5l-18 54
q-5 14 -9.5 28.5t-9.5 28.5q-12 40 -27 81q-8 23 -20.5 52.5t-25.5 58.5q-2 5 -5 10.5t-5 10.5l-8 16t-8 17v1q-6 17 -12.5 31t-13.5 28q-3 7 -6 13t-6 13q-9 20 -18.5 38.5t-19.5 36.5l-14 26t-14 27v1q-8 17 -16 31.5t-16 27.5q0 -12 -0.5 -24t-0.5 -21q-1 -19 0 -40v-23
v-22q1 -6 1 -12v-13q0 -83 -1 -154t-3 -137q0 -8 0.5 -17.5t0.5 -17.5q0 -10 1 -19t0 -19v-2v-9.5t-0.5 -18t-0.5 -22.5v-22v-46v-15v-5q-1 -12 -8 -17t-14 -5h-17l-7 6q-7 8 -8 15.5t-1 14.5v8q0 32 -1 72t1 76q1 9 0.5 18.5t-0.5 20.5v20q-1 10 -1 20v19q0 14 0.5 28.5
t1.5 29.5q0 7 0.5 13.5t0.5 13.5q1 14 1.5 26t0.5 25q0 5 -0.5 9.5t-0.5 9.5v20q0 8 -1 12v13.5t1 13.5v17.5t-1 17.5q-2 20 -1.5 38.5t0.5 37.5v25v33t1 33q0 7 0.5 12t1.5 10q0 5 0.5 10.5t0.5 10.5l1 5v3q0 5 1 12.5t3.5 14t8 11.5t15.5 5q11 0 18.5 -7t9.5 -11
q11 -14 21 -30.5t21 -38.5q4 -5 7 -11l6 -12q12 -21 23.5 -42.5t22.5 -43.5l18 -36q14 -26 27.5 -53.5t24.5 -56.5v-1q3 -6 5.5 -12t5.5 -13q2 -4 6 -14q2 -6 5 -11.5t6 -11.5q5 -8 8.5 -16t7.5 -17q5 -14 11 -28t12 -29q9 -23 18.5 -47t18.5 -47q1 14 0.5 28t-0.5 28v1
q0 5 -0.5 9t-0.5 9v21q0 11 0.5 21t0.5 21q1 5 1 9.5t1 9.5q1 20 1 40.5v40.5v39q0 11 -0.5 21t-0.5 20v37v1q-2 26 -1.5 52t0.5 52v34.5t1 34.5q0 7 0.5 13.5t0.5 13.5q0 6 -1.5 9.5t-1.5 5.5t2.5 4t8.5 4q2 1 9 1.5t15 0.5t15 -0.5t9 -1.5v-42z" />
    <glyph glyph-name="O" unicode="O" horiz-adv-x="409" 
d="M350 471q2 -21 3.5 -43t1.5 -45q0 -66 -3 -133q-1 -19 -4 -36.5t-6 -34.5q-2 -11 -3.5 -22t-3.5 -22q-3 -18 -13 -39t-18 -32q-14 -21 -33.5 -33.5t-31.5 -18.5h-2l-2 -1q-1 0 -2 -1q-4 -1 -11 -3t-21 -4h-1q-20 -3 -42 -3q-41 0 -71 25t-44 72l-2 6q-8 26 -14.5 50.5
t-8.5 52.5q-2 17 -3 34.5t-2 34.5q-1 11 -1.5 23t-1.5 23v3v9l-1 15q-4 66 -6.5 132t2.5 131v1q2 27 7.5 52t14.5 47q10 28 25 43v1q14 19 23 24.5t12 7.5q11 5 28 8.5t29 4.5h2h6q64 0 114 -41q23 -19 33.5 -40.5t20.5 -44.5q1 -2 1.5 -4t2.5 -4v-1q2 -5 3 -9l2 -8
q1 -8 3 -12q10 -24 11.5 -48t2.5 -48v-16.5t1 -16.5zM283 168q4 17 5.5 32.5t3.5 32.5q1 5 1.5 10t1.5 10q2 14 3 28.5t1 31.5q0 8 -0.5 15.5t-0.5 15.5q0 12 -0.5 24.5t0.5 25.5v1v23t-1 25q0 3 -0.5 6.5t-0.5 6.5t-0.5 6t-0.5 6v2q-1 8 -1 16.5t-1 16.5v1q-2 33 -3.5 60
t-6.5 53q-2 7 -4.5 13.5t-5.5 14.5q-1 1 -1 2t-1 2l-1 4q-5 11 -8 20q-3 3 -5 7l-4 4l-1 2q-11 17 -27 31q-9 8 -25.5 15.5t-27.5 9.5q-7 2 -13 2h-11t-15 -0.5t-15 -2.5l-4 -2q-2 -2 -4.5 -4t-5.5 -4l-1 -2q-2 -2 -3 -2q-2 -2 -4.5 -4t-5.5 -4q-19 -34 -23 -56
q-6 -29 -6 -61v-4q-1 -5 -1 -8.5v-7.5q0 -5 -0.5 -8.5t-0.5 -8.5q-1 -5 -1 -16q0 -4 -0.5 -7.5t-0.5 -8.5q-1 -13 0 -25t2 -25q1 -12 2 -23.5t1 -24.5v-1q-1 -16 -1 -31t2 -29q2 -8 2 -16v-16q0 -5 0.5 -10t0.5 -10l1 -9q3 -23 5 -46t1 -49q0 -12 2.5 -25t5.5 -27l3 -15
q20 -91 83 -91q6 0 12 0.5t13 1.5l2 1h1h2q4 0 7 1q5 0 9.5 1t8.5 2q8 3 14 9t13 15l1 1q1 1 1.5 2t2.5 3l2 2q1 3 6 6q0 1 2 3v1q7 11 10.5 25t7.5 31z" />
    <glyph glyph-name="P" unicode="P" horiz-adv-x="373" 
d="M202 788q25 -5 49.5 -16.5t44 -30.5t30 -44t7.5 -57q-4 -39 -28 -76.5t-62 -64.5q-13 -9 -30 -20t-34 -19h-1q-8 -4 -16.5 -7t-16.5 -6q-2 -1 -4 -1.5t-4 -1.5l-10 -4t-11 -4l-1 -1l-12 -4t-13 -5h-1q-2 -1 -3 -1t-2 -1q-11 -3 -18 -6q-1 -2 -0.5 -4t0.5 -4v-2v-2
q1 -2 1 -7v-2q-1 -26 -2.5 -52t-1.5 -52v-45q0 -21 -0.5 -42t-0.5 -42q0 -18 0.5 -36.5t0.5 -36.5v-1v-21q0 -19 -0.5 -34t-10.5 -25q-9 -10 -22 -10h-21l-2 21q-1 11 -1 22v22v2q2 15 0 32v2v85v21q-1 5 -1 10v10v38v31v17v4l1 3q1 11 0.5 23t-1.5 25q-1 22 -0.5 43.5
t1.5 41.5q2 47 0 93v1v18t-1 17v2v25v40t1 40q1 12 1.5 26.5t0.5 30.5v6q0 5 0.5 12t3.5 14t10 12t19 7l2 1h1h3h2h1q4 1 11 1q3 1 8 1h2h13q21 0 40 -2t38 -5h1q2 0 3.5 -0.5t3.5 -0.5h3h3l3 -1h2h1q5 -1 9.5 -1.5t9.5 -1.5h1zM89 744h-10t-10 -1q-1 -11 -2 -22.5t-2 -22.5
q-1 -10 -1.5 -20t-1.5 -19q-1 -41 0 -84q3 -50 3 -97l18 6l4 1q2 1 5 1.5t5 1.5t4 1.5t4 1.5q5 2 8.5 4t8.5 4q14 7 27 11q18 6 37.5 17.5t36.5 27.5t30 35t18 40q4 19 1.5 32t-12.5 32h-1q-9 16 -27.5 23.5t-39.5 13.5q-2 1 -5 1.5t-5 1.5l-6 1q-18 4 -35.5 6t-35.5 2
q-3 1 -6 0.5t-7 0.5h-3z" />
    <glyph glyph-name="Q" unicode="Q" horiz-adv-x="423" 
d="M358 46v-2q0 -7 -2 -12v-32l-32 17q-6 4 -12 7t-11 7q-2 2 -4 2.5t-4 2.5h-1q-3 2 -6.5 4.5t-6.5 4.5q-9 -8 -19 -14t-21 -10q-5 -3 -13 -5t-25 -5q-20 -3 -42 -3q-40 0 -70 25t-44 71q-9 29 -16 54.5t-9 53.5v1q-2 14 -2.5 28t-1.5 28t-1 28t-2 28l-1 12
q-5 66 -7.5 136.5t2.5 139.5q2 24 7.5 50t14.5 49q5 13 10.5 23.5t12.5 18.5l3 2q1 1 1.5 2t2.5 3q7 8 14 15t16 11h1q10 5 25 7.5t28 4.5q3 1 5.5 1h4.5q31 0 60 -10.5t52 -30.5q23 -19 34 -40t21 -44q1 -2 3 -8q2 -5 3 -9.5t2 -8.5q2 -8 4 -11q9 -24 11 -48t2 -47
q0 -8 0.5 -16.5t0.5 -16.5q1 -9 1.5 -18t1.5 -17q2 -22 3.5 -43.5t1.5 -44.5q0 -65 -3 -132q-1 -18 -4 -35.5t-6 -34.5q-2 -11 -3.5 -21.5t-3.5 -21.5q-2 -13 -8 -27.5t-13 -26.5h1v-1l4 -2l2 -1q11 -6 22.5 -14t14.5 -21zM252 125q4 -2 7 -4l6 -4q6 11 9.5 24t7.5 29l1 5
q4 16 5.5 31.5t3.5 32.5q1 5 1.5 10t1.5 10q3 27 3 59v31q-1 12 -1 24v25v1q2 23 0 47q-1 7 -1.5 13t-0.5 13q-1 5 -1 9v9q-1 5 -1 8.5v7.5v1q-1 5 -1 14q-1 26 -2.5 50t-6.5 47q-2 10 -5.5 18t-6.5 15l-1 3q-2 5 -4 9.5t-4 9.5l-3 3v2q-1 1 -1 1.5t-1 1.5t-1.5 2t-1.5 2
l-1 1q-5 7 -12 15.5t-16 15.5l-1 1q-8 7 -24 15t-27 10q-6 1 -12 1.5t-12 0.5q-8 0 -16.5 -1.5t-14.5 -3.5h-1q-5 -2 -10 -8l-2 -1l-6 -6t-7 -5q-18 -34 -23 -56v-1q-4 -17 -5.5 -33t-1.5 -27v-1q0 -13 -1 -18v-15v-2q0 -4 -0.5 -7.5t-0.5 -7.5t-0.5 -8t-0.5 -8
q0 -12 0.5 -23.5t1.5 -23.5t1.5 -24.5t0.5 -26.5v-10v-26t2 -24l1 -1q1 -8 1 -14.5v-12.5t0.5 -12t0.5 -11l1 -8q3 -23 5 -46t1 -49q0 -13 2.5 -26.5t5.5 -27.5l3 -12q19 -91 82 -91h11.5t11.5 2q2 0 3.5 0.5t3.5 0.5t3 1h1h2q9 1 16 3l1 1h1q2 0 4 2q-17 8 -33 19
q-4 3 -10 7t-10.5 10t-7 13t0.5 15q7 17 24 17q10 0 23.5 -7.5t37.5 -24.5z" />
    <glyph glyph-name="R" unicode="R" horiz-adv-x="413" 
d="M342 45q5 -8 5 -14t-2 -11q-5 -14 -22 -14h-5t-8 2q-14 5 -29.5 21t-35.5 44l-4 6l-1 1l-2 2q-3 5 -7.5 10.5t-9.5 10.5l-1 1q-4 6 -7 9q-3 4 -6.5 8.5t-7.5 9.5q-37 51 -73 87q-4 4 -6 5q-3 2 -7 6q-5 5 -11.5 10t-11.5 12q-3 5 -7 6l-2 2l-14 13l-2 2q0 -8 0.5 -15
t1.5 -14q1 -6 0.5 -11.5t0.5 -10.5q1 -25 0 -52.5t-1 -60.5v-10q0 -7 -1 -10v-7v-1q0 -4 -0.5 -7.5t-0.5 -6.5q0 -7 -0.5 -13t-1.5 -13l1 -2v-4q2 -4 2 -10.5t-6 -14.5t-14.5 -9.5t-16.5 -1.5h-26l1 23q4 55 5.5 112.5t1.5 117.5v66v24v44v1v165q0 18 1 41.5t3 43.5
q2 17 2 29v25v20q0 17 3.5 39.5t21.5 36.5l1 1q10 8 20 9t17 1h17q7 1 13.5 1h13.5q10 0 18 -0.5t13 -1.5h2q14 -2 26 -5.5t26 -7.5q6 -2 8 -2q3 -3 3 -2h1q14 -4 29.5 -10.5t30.5 -20.5v-1q27 -25 38 -59.5t2 -67.5v-1q-5 -22 -11 -36.5t-13 -26.5q-4 -7 -9.5 -14.5
t-12.5 -15.5q-5 -5 -7 -8q-2 -4 -5 -7t-5 -7q-11 -17 -24.5 -31.5t-26.5 -27.5q-19 -19 -35 -38l-1 -1q-8 -11 -16 -18t-15 -13q-4 -4 -6 -5q-3 -3 -5 -4l-17 -17q-1 -2 -4 -5l-17 -17q5 -4 9 -8t9 -8l1 -1q2 -1 6 -5q5 -5 9.5 -9t9.5 -9l5.5 -5.5l4.5 -4.5l1 -1
q9 -8 18.5 -18.5t19.5 -21.5q4 -4 7.5 -8t7.5 -9q10 -11 21 -23.5t22 -24.5l3 -2l1 -3q0 -1 1 -2t2 -3q2 -2 2 -3q2 -2 2 -3h1q6 -5 13 -13t14.5 -17t14 -18t11.5 -16l1 -1q3 -6 7.5 -11.5t9.5 -11.5l6 -7v-1q9 -11 11 -16zM104 419l4 4q3 3 5 4q3 3 5 4l9.5 9.5t8.5 9.5
l1 1q11 14 22 25t21 24q2 2 2.5 3t2.5 2q1 2 1.5 2.5t1.5 2.5l1 1q22 27 42 52t30 55q8 23 5.5 49.5t-19.5 39.5q-27 21 -74 30l-15 3q-9 2 -18.5 3.5t-18.5 1.5q-25 0 -44 -3q-1 -6 -1.5 -13t-0.5 -14q0 -2 -0.5 -4t-0.5 -4v-16q0 -14 -1 -29l-2 -30l-1 -22
q-2 -53 -3.5 -106t-0.5 -107v-1v-8q7 5 13 10.5t11 9.5t8 6.5t6 4.5z" />
    <glyph glyph-name="S" unicode="S" horiz-adv-x="409" 
d="M358 268q1 -25 1.5 -51.5t-7.5 -53.5l-1 -2q0 -2 -2 -8q-3 -14 -6 -26t-8 -23l-2 -4q0 -2 -1 -3v-1q-1 -2 -1 -2.5t-1 -2.5q-4 -10 -9.5 -20t-15.5 -19q-31 -26 -61.5 -39t-65.5 -13h-11q-36 0 -65.5 13t-52.5 33q-5 4 -7.5 7t-5.5 6q0 1 -2 3l-2 2l-1 2q-10 14 -15.5 30
t-8.5 33q-2 6 -2 8q-3 29 11 39l1 1q5 4 14 4t15 -5t9.5 -12.5t5.5 -17t3 -17.5q0 -1 0.5 -1.5t0.5 -1.5q5 -25 21 -41q12 -11 30 -16t32 -8l1 -1q18 -3 32 -3q34 0 60 16q8 5 15 11.5t12 12.5q8 9 12.5 23t7.5 28l1 2q0 4 1 6.5t2 4.5q8 32 10.5 69t-1.5 69q-2 26 -12 49
t-24 39l-1 1q-7 7 -11 10q-1 1 -1.5 1t-1.5 1q-3 2 -6 4.5t-6 7.5q-26 12 -58 25t-70 27l-1 1q-16 5 -35.5 16t-33.5 30q-19 25 -26.5 59.5t-2.5 70.5q2 14 5.5 29.5t11.5 29.5q3 5 5.5 9.5t5.5 9.5v1q2 3 4 7q5 8 9 14.5t10 13.5q8 8 16 13t17 9l13 7q15 8 31.5 12t38.5 4
q8 0 16 -0.5t16 -1.5q9 -1 25 -3t32.5 -8t30.5 -17.5t20 -32.5v-2l-6 -19l-16 -6q-4 0 -13.5 3t-15.5 7q-4 3 -6 6.5t-4 5.5q-7 4 -19 6l-2 1q-11 3 -23.5 5.5t-25.5 2.5h-1q-17 0 -37 -7t-35 -18q-11 -8 -17 -18.5t-14 -22.5l-1 -1l-1 -2q-5 -8 -8.5 -18.5t-5.5 -23.5
q-3 -16 -2.5 -37t12.5 -41q5 -9 12 -15t15 -10h1q20 -11 39.5 -19.5t40.5 -16.5l6 -2l6 -3q1 -1 2 -1h1l5 -2l2 -1q27 -11 59.5 -29.5t54.5 -48.5q11 -15 18 -32.5t11 -34.5t6 -32.5t2 -26.5v-1v-6v-9z" />
    <glyph glyph-name="T" unicode="T" horiz-adv-x="475" 
d="M423 794v-36l-12 -6q-9 -5 -33 -6.5t-84 -2.5q-14 -1 -27.5 -1t-25.5 -1v-19q2 -38 3 -77.5t1 -68.5t-0.5 -55.5t-1.5 -54.5v-8q0 -24 -1 -48.5t-1 -48.5q0 -6 0.5 -12.5t1.5 -12.5q0 -3 0.5 -5.5t0.5 -4.5q0 -5 1 -7v-1v-2q3 -98 0 -251q0 -6 -1 -8v-4v-9
q0 -3 -0.5 -6.5t0.5 -5.5l1 -11l-8 -8q-1 -3 -7 -7q-6 -5 -11.5 -5.5t-7.5 -0.5h-11l-7 9q-8 11 -8 22t1 19v2l1 2v1v1q1 31 1.5 66t0.5 59v51v6.5t-1 8.5v17q-2 57 -3.5 105.5t0.5 99.5v1q1 21 2 53.5t1 70t-0.5 76.5t-2.5 73q-8 -1 -20 -1.5t-26 -1.5l-8 -1
q-5 -1 -10.5 -1t-10.5 -1q-16 -1 -31.5 -2t-27.5 -1q-9 0 -13.5 0.5t-6.5 0.5h-12l-6 12q-2 3 -3.5 6.5t-1.5 8.5q0 2 3 9.5t14 12.5h1q4 2 11 4t18 2h8q3 1 10 1t10 -1q2 0 4.5 0.5t4.5 0.5h8h3q4 1 7.5 1h6.5q7 1 13.5 1t13.5 1l34 3h22h23h22h21q7 1 14 0.5t14 0.5
q14 0 27.5 0.5t24.5 0.5h7h9l2 1h2h12q5 0 14.5 -0.5t17.5 -5.5h13z" />
    <glyph glyph-name="U" unicode="U" horiz-adv-x="419" 
d="M343 559v-38v-18v-32q0 -2 -0.5 -4t-0.5 -3q0 -6 1 -9v-2v-2q0 -26 -0.5 -50.5t-2.5 -49.5v-1q0 -2 -0.5 -5t-0.5 -5q0 -3 -0.5 -6t-0.5 -6q-1 -10 -1.5 -19.5t-0.5 -19.5v-20q0 -19 0.5 -39.5t-2.5 -45.5v-2v-6.5t-1 -7.5v-1v-4q-2 -32 -8.5 -66.5t-33.5 -62.5
q-29 -31 -88 -34h-8q-28 0 -54 11.5t-44 32.5v1q-6 8 -11 15l-10 14q-4 5 -7 9l-6 8q-7 9 -10.5 17.5t-5.5 16.5l-1 2q-2 4 -3 8t-3 9l-1 3q-16 47 -25 107q-3 22 -5 43.5t-2 44.5v32q-1 8 -1 16.5v16.5q-1 54 -1 108.5t4 111.5q2 31 3 66.5t2 58.5l1 29l3 11h46v-12l2 -2
v-75q0 -12 -0.5 -24.5t-1.5 -24.5q0 -6 -0.5 -11.5t-0.5 -11.5q0 -10 -0.5 -21t-1.5 -22v-10t1 -10v-1v-2v-6q1 -4 0.5 -8t-0.5 -9v-14t-1 -15q-2 -41 0 -84v-1q1 -15 1.5 -31t0.5 -32q1 -37 3 -74t11 -72q2 -6 2 -7v-1l3 -8q1 -3 2 -6.5t2 -6.5q1 -4 3 -10l1 -2l1 -4
q2 -9 4.5 -17.5t6.5 -16.5q8 -19 19.5 -35.5t25.5 -27.5h1l6 -5q9 -7 18.5 -11.5t23.5 -4.5h3q19 0 37 10t26 26q8 14 10 29.5t3 33.5v5q1 5 1 9.5t1 9.5q2 18 2 36.5t1 36.5v6q1 17 2.5 34.5t1.5 34.5v4q0 45 2.5 94t2.5 107q0 31 -3 60t-7 52q0 7 -2 17q-1 5 -1 9t-1 8
q-2 12 -4 24.5t-3 25.5q-1 4 -1 7.5v5.5q0 4 -0.5 7t-0.5 8l-1 2l-1 1v2q-2 5 -2.5 11.5t3.5 13.5l1 3l3 3q6 8 22 8h22l1 -20q2 -12 4 -20q0 -2 0.5 -3.5t0.5 -3.5l2 -3v-3q2 -13 3.5 -26.5t3.5 -24.5v-1q5 -32 9.5 -66.5t5.5 -69.5z" />
    <glyph glyph-name="V" unicode="V" horiz-adv-x="376" 
d="M341 773v-2q0 -4 -0.5 -7t-1.5 -7q-1 -1 -1 -4v-1q-1 -3 -3 -7q0 -2 -0.5 -2.5t-0.5 -1.5v-1q-5 -19 -10 -42t-10 -45q-2 -11 -4 -21t-4 -19l-2 -9q-4 -17 -7.5 -33.5t-6.5 -33.5q-2 -12 -4 -20q-1 -2 -1 -4t-1 -4q-1 -5 -1.5 -9t-0.5 -9q0 -18 -6 -36q0 -3 -0.5 -6
t-0.5 -6q-2 -6 -2 -11q-2 -20 -5 -39.5t-7 -39.5l-3 -18q-2 -9 -2.5 -17.5t-2.5 -16.5v-1q-1 -8 -1.5 -17t-1.5 -17l-1 -4q0 -3 -0.5 -6.5t-0.5 -7.5q-1 -6 -1.5 -12.5t-2.5 -13.5v-4v-2q-5 -27 -9.5 -54t-9.5 -54h-1q0 -5 -2 -13l-2 -14t-4 -15q-2 -4 -2 -11
q-2 -9 -4.5 -18.5t-6.5 -17.5t-11 -13.5t-17 -5.5q-13 0 -23 11h-1q-11 12 -15.5 28t-6.5 30v4l-2 6q-3 16 -6 30.5t-5 30.5q0 4 -2 12q-1 4 -1 6.5t-1 5.5v1q-3 14 -5 26t-3 23v2q-2 11 -3.5 23t-3.5 23v2q0 3 -2 11q0 4 -0.5 7t-0.5 6q-2 12 -3 23t-3 22q-2 8 -3 17l-2 18
q-2 9 -2.5 18t-2.5 17l-12 59l-1 8q-2 8 -3 11q0 4 -2 10q-4 12 -5 27q-3 14 -6.5 27.5t-6.5 26.5q-2 12 -4 19q-2 9 -4 18.5t-4 20.5q-5 20 -10.5 41t-10.5 41q-1 4 -2 7t-1 5q-7 14 -3 27q3 9 12 15.5t20 6.5h14l6 -13q5 -13 6 -21q2 -6 2 -8l1 -2v-2l3 -15l1 -4
q7 -25 13 -50.5t11 -50.5l9 -39v-2q0 -2 0.5 -3t0.5 -3q2 -6 2 -10l1 -3q9 -35 17 -81t16 -94l1 -6l1 -11l10 -70t11 -70q2 -7 3 -15t3 -18q2 -8 3 -15t3 -14q1 1 1 3q1 4 1.5 8t1.5 8t1 8t2 9v1q2 7 3 13.5t2 13.5l1 5q7 35 11.5 71t9.5 71v1l1 10q7 48 14.5 95.5
t17.5 95.5l1 4q1 3 1 8q1 2 1 6v2l2 10q7 34 14.5 68.5t15.5 69.5q2 4 2 8q2 8 3 13q2 8 3.5 15t3.5 15l5 15h16q11 0 20.5 -7t11.5 -17z" />
    <glyph glyph-name="W" unicode="W" horiz-adv-x="648" 
d="M592 780q2 -4 3 -10.5t-2 -16.5q-2 -8 -2 -15q-1 -2 -1 -5v-2l-1 -1q0 -6 -2 -16q0 -2 -0.5 -3t-0.5 -2v-2v-2q-2 -6 -4 -16q0 -2 -2 -10v-5q-5 -24 -9 -47t-9 -54l-1 -3q-2 -8 -2.5 -15t-1.5 -15v-2l-1 -4q-2 -19 -6 -38q-8 -32 -14 -65t-11 -65l-1 -11q-2 -6 -2.5 -13
t-2.5 -14v-2q-1 -4 -1.5 -8t-1.5 -8t-1.5 -8t-1.5 -8q-2 -13 -4.5 -25t-5.5 -24q-1 -3 -1.5 -5.5t-1.5 -5.5q-2 -7 -3.5 -15t-4.5 -18q-1 -2 -1 -4.5t-1 -5.5q-1 -2 -1 -5t-1 -6q-2 -8 -3.5 -16.5t-3.5 -16.5q-1 -2 -1 -4.5t-1 -5.5t-1.5 -5.5t-0.5 -5.5q-2 -6 -3 -14.5
t-4 -17.5v-2q-2 -4 -2 -5q-1 -2 -1.5 -4t-1.5 -4q-1 -3 -1.5 -5.5t-1.5 -5.5q-3 -9 -4 -19v-1q-1 -2 -1 -3.5t-1 -3.5q0 -2 -0.5 -3t-0.5 -3l-1 -1q-9 -39 -35 -39q-4 0 -9 1.5t-10 6.5q-4 3 -6 6t-3 5l-1 1l-1 2l-1 4q-1 2 -1.5 3.5t-1.5 2.5l-3 3l-2 3q-17 39 -30 78
q-1 4 -2 7t-3 7l-22 62q-5 14 -9.5 28t-9.5 28q-2 5 -3.5 9.5t-3.5 9.5l-4 10l-4 10l-2 4q0 -5 -2 -13q-3 -8 -3 -14q-1 -2 -1 -4.5t-1 -4.5q-2 -12 -6 -29l-2 -4q-5 -17 -10 -36t-10 -42q-1 -5 -1.5 -8.5t-1.5 -7.5l-2 -10l-2 -10l-6 -30q-1 -4 -1 -8v-8v-2
q-1 -11 -3 -22.5t-10 -22.5l-1 -1l-1 -1q-3 -3 -8.5 -7t-14.5 -4q-20 0 -29.5 20t-14.5 40v1q-1 2 -1 3t-1 2v2q-2 3 -2.5 6t-2.5 6q-2 5 -4 10.5t-4 11.5l-3 9q0 3 -2 7v2q-2 5 -3.5 11t-3.5 12q-19 57 -35 120.5t-30 132.5q-3 13 -6 25v2l-1 1q-2 7 -3 14t-3 14l-6 30
q-5 28 -9.5 54.5t-9.5 51.5q-7 37 -13.5 71.5t-12.5 69.5v2v1q-1 1 -1 2.5t-1 3.5q-2 8 -4 20t4 23q8 16 24 16t24 -17l2 -3v-3q1 -4 1.5 -7.5t1.5 -8.5q2 -6 4 -16l3 -12q2 -7 3.5 -14t2.5 -15l1 -2q1 -6 1.5 -12t1.5 -11v-2q2 -12 4 -23t5 -25q5 -25 9.5 -50t9.5 -51
l3 -14q2 -8 3 -15.5t3 -15.5q1 -5 1.5 -8.5t1.5 -8.5q3 -19 6 -37t7 -35q2 -5 4 -13v-1q2 -5 2.5 -8.5t2.5 -8.5q1 -3 1.5 -6.5t1.5 -6.5v-1q5 -17 8.5 -32t7.5 -29q2 -7 4 -17l6 -21l1 -1q5 -18 8.5 -35.5t11.5 -34.5q2 -5 3.5 -11.5t3.5 -11.5l1 -3q1 -3 1.5 -6.5
t1.5 -6.5q0 -3 2 -7q13 59 21.5 96.5t13.5 59.5t7 31t2 12v2l1 2l1 2q0 4 1 7q3 17 7 37.5t19 31.5q11 8 20.5 5.5t16 -10t11.5 -18t7 -19.5q0 -1 0.5 -1.5t0.5 -1.5q0 -2 1 -2v-1l1 -2q4 -14 9 -26.5t10 -25.5t8.5 -24t5.5 -21q2 -6 4.5 -13t4.5 -14q2 -3 2.5 -6t2.5 -5v-1
v-1l3 -6q2 -6 4 -11.5t3 -10.5l1 -1q1 -8 6 -18v-2q5 -11 8 -20q4 -10 7.5 -20t7.5 -19v-1q1 -1 1 -2t1 -2q0 2 0.5 3t0.5 3v2q1 2 1 4t1 4q0 2 0.5 4t0.5 4q3 15 6 29.5t7 28.5q1 9 5 22q4 17 7.5 35t7.5 35v2q4 20 8 39.5t9 39.5q2 13 4.5 25.5t4.5 24.5t4.5 24.5
t4.5 24.5q3 17 6 33t5 32l2 9q4 24 8 48.5t9 48.5q3 16 5.5 32t4.5 32q2 15 3.5 28.5t5.5 27.5l1 3q2 12 4 17t8 13l7 9h12q12 0 22 -10l2 -2z" />
    <glyph glyph-name="X" unicode="X" horiz-adv-x="451" 
d="M366 66q1 -4 3 -10q3 -6 5.5 -14.5t-2.5 -21.5q-5 -16 -14.5 -17.5t-19 5.5t-17.5 18.5t-11 21.5l-1 2v2l-2 3l-1 2q-3 10 -7 19.5t-8 18.5q-8 20 -16 39l-16 38q-2 7 -5 13.5t-6 13.5q-5 9 -9 18.5t-7 19.5q-1 1 -1 3q-1 1 -1 2t-1 2q-2 4 -3.5 8t-3.5 9q-2 6 -5 12
t-5 12l-1 1q-2 7 -5 13t-5 13l-9 24q-2 -6 -5 -12t-5 -12q-2 -7 -5 -13t-5 -13v-1l-6 -12t-5 -13q-2 -4 -3.5 -8t-3.5 -8q-1 -1 -1 -2t-1 -2q0 -2 -1 -3q-3 -9 -6.5 -17.5t-6.5 -16.5q-4 -8 -7 -15t-6 -15q-5 -14 -10.5 -26.5t-10.5 -25.5q-3 -7 -5.5 -13t-4.5 -12l-1 -1
q-2 -3 -3 -6.5t-3 -6.5q-3 -7 -5.5 -13t-4.5 -12l-1 -3l-1 -2q-1 0 -1 -2l-1 -2q-2 -8 -10 -19t-18 -18.5t-19.5 -7t-14.5 16.5q-5 13 -2.5 21.5t5.5 14.5q2 6 4 10v2l1 1q2 4 5 8l2 4l2 4q1 3 2 6.5t4 8.5v1q3 5 7 11t6 13q5 13 10 25.5t10 24.5q5 13 10 25.5t10 25.5
q16 39 32 77.5t32 76.5q3 7 6 13.5t6 14.5q-5 14 -10.5 27t-12.5 25q-10 18 -19 38.5t-17 39.5q-4 11 -9 20.5t-10 20.5t-11 23.5t-11 24.5q-3 9 -6.5 16.5t-6.5 15.5q-11 25 -18.5 47t-18.5 51q-1 4 -2 6.5t-2 6.5l-3 10l7 9q8 11 21 13h3q15 0 22.5 -13.5t12.5 -29.5
q2 -4 2 -6l2 -4l1 -2q7 -17 11.5 -30t9.5 -24q8 -20 14.5 -36t14.5 -35l30 -69q8 -20 17 -39.5t18 -39.5q15 36 31 72.5t33 74.5q8 20 15 36t15 36q4 11 8.5 23.5t12.5 29.5q1 2 1 3t1 2q0 2 0.5 2.5t0.5 1.5v2l1 1q5 17 12.5 30.5t22.5 13.5h2q12 0 23 -13l6 -9l-3 -10
q-1 -4 -2 -6.5t-2 -6.5q-11 -29 -18.5 -51t-18.5 -47q-3 -8 -6.5 -15.5t-6.5 -16.5q-5 -12 -11 -24.5t-11 -23.5q-10 -20 -19 -41q-8 -19 -16.5 -39.5t-19.5 -38.5q-7 -12 -12 -25t-11 -27q3 -8 6 -14.5t6 -13.5q16 -38 32 -76.5t32 -77.5q5 -13 10 -25.5t10 -25.5
q5 -12 10 -24.5t10 -25.5q2 -7 6 -13t7 -11v-1q3 -5 4 -8.5t2 -6.5l2 -4l2 -4q3 -4 5 -8l1 -1z" />
    <glyph glyph-name="Y" unicode="Y" horiz-adv-x="463" 
d="M413 795q8 -10 8 -27l-1 -4q-1 -2 -1.5 -3.5t-1.5 -3.5l-1 -1v-2l-1 -1q-1 -1 -1 -2t-1 -2q-2 -5 -5 -10q-5 -12 -8 -18q-1 -1 -3 -5l-1 -2q-1 -3 -3 -7v-2l-1 -2q-2 -5 -4.5 -10.5t-5.5 -11.5q-2 -2 -2 -3t-1 -3q-2 -2 -2.5 -4.5t-2.5 -4.5v-1q-8 -14 -16 -34l-6 -12
q-5 -11 -10.5 -20.5t-11.5 -19.5q-3 -5 -5.5 -9.5t-5.5 -9.5l-1 -4q-7 -13 -14.5 -26.5t-15.5 -26.5q-8 -14 -12.5 -29.5t-12.5 -29.5q-8 -11 -15 -21.5t-13 -24.5l-6 -15q-10 -25 -22 -47q-4 -8 -7.5 -15.5t-6.5 -15.5q-4 -8 -8 -15.5t-9 -14.5q-3 -6 -6.5 -11.5
t-5.5 -11.5q-23 -55 -50 -109t-56 -108q-3 -11 -11 -20t-16.5 -11.5t-17 2.5t-12.5 21q-5 19 3.5 35t17.5 30q3 4 5.5 8t4.5 7q8 17 17.5 37t20.5 42q3 7 6.5 13.5t6.5 12.5q10 20 19.5 40.5t20.5 40.5q2 4 4 7.5t4 7.5q5 10 10.5 19.5t10.5 19.5l3 7q12 21 21 42l1 1l1 3
q7 16 13.5 32.5t14.5 31.5l5 9q-5 9 -10.5 18.5t-10.5 18.5q-3 7 -6.5 13.5t-6.5 12.5h-2l-6 12q-2 4 -4 7.5t-4 7.5t-4 6q-2 3 -3.5 6.5t-3.5 6.5q-8 12 -16 28v1l-18 36q-2 3 -3.5 6.5t-3.5 6.5l-8 17q-2 5 -4 9t-4 9q-2 2 -2 4v1q-2 3 -3 5.5t-2 4.5l-2 4l-1 1l-1 2
q-6 10 -9 20q-2 4 -4 7.5t-4 7.5l-1 1v2l-3 3q-4 5 -5.5 8l-2.5 5t-2 2q-3 5 0 9.5t9 8t12 5.5l9 3q17 4 23.5 -4t11.5 -23l1 -1q0 -2 1 -4l2 -4l22 -43q5 -11 10.5 -21.5t10.5 -20.5h1q11 -22 21.5 -41t19.5 -36t18.5 -34t19.5 -36q5 11 10 20.5t10 20.5q5 9 10 18.5
t10 19.5q8 14 15 27.5t14 27.5q2 5 5 9t5 9t4.5 10t4.5 10q4 10 10 20v1q4 7 7.5 13.5t6.5 14.5q2 3 3.5 6.5t3.5 6.5l1 2q0 2 1 3v2h1q8 23 23 28.5t25 -5.5z" />
    <glyph glyph-name="Z" unicode="Z" horiz-adv-x="466" 
d="M414 763q4 -11 2 -21.5t-7 -17.5q-2 -2 -4 -6q-6 -11 -16 -22q-8 -11 -17.5 -26.5t-19.5 -32.5q-9 -17 -18 -32.5t-18 -26.5q-5 -12 -10.5 -22t-10.5 -19q-1 -1 -3 -5l-2 -4l-2 -4q-2 -3 -4 -7q-2 -2 -2 -4l-1 -1q-1 -2 -2 -3t-2 -3l-6 -10t-5 -10q-3 -8 -8 -16
q-3 -7 -6 -13l-6 -12l-2 -4l-2 -4l-1 -1l-14 -26q-27 -49 -52 -100.5t-50 -105.5v-2l-6 -10l-1 -4q-14 -35 -21.5 -56t-9.5 -26v-1q-3 -11 -7 -21t-9 -21h10q18 5 39 7.5t46 5.5q14 2 27 3l26 2h1h10h2q8 -1 16 0q17 4 34.5 4h34.5h18q5 0 10.5 0.5t10.5 0.5q6 0 11.5 -0.5
t10.5 -1.5l25 -4l-8 -24q-2 -5 -9 -14.5t-27 -9.5h-7h-4q-11 -1 -20.5 -0.5t-18.5 -0.5q-29 -1 -60 -1t-59 -5q-5 -1 -8.5 -1h-6.5q-4 0 -13 -1.5t-20 -3l-22 -3t-20 -2.5q-5 -1 -9 -1.5t-6 -0.5q-10 -2 -19 -3t-17 -2q-1 0 -2 -0.5t-2 -0.5q-5 -1 -9.5 -2t-9.5 -1
q-9 0 -15 3t-11.5 12t0.5 23q2 5 3 9t3 8q2 2 4 8v1q6 17 13 33t13 32q6 17 12.5 33t13.5 33l10 22q4 11 9.5 23t11.5 25v2l1 1l1 2q2 4 4 7q5 6 6 13l3 11l4 2q10 23 20.5 44t22.5 44q3 5 5.5 9t4.5 9l1 1l5 10q5 6 8 12.5t7 14.5q3 7 7 13.5t8 14.5q2 3 2.5 5.5t2.5 4.5
l2 4l2 4v1q9 19 20 37q2 3 2.5 5.5t2.5 5.5l1 2q2 5 4.5 9t4.5 8t3 5q0 2 2 4l1 3l1 1q3 3 7 13q8 14 20 33.5t23 38.5q6 10 11.5 18.5t9.5 16.5l1 1q10 14 23 37q-35 4 -71.5 7t-73.5 5q-7 0 -9 1h-4h-1q-2 0 -6.5 0.5t-15 0.5h-28.5h-46q-10 0 -20 -0.5t-20 0.5h-1
q-2 0 -4 -0.5t-4 -0.5q-14 0 -24 10q-7 7 -7 20q1 8 8 16.5t31 8.5q13 0 18 -1h3h38h37q23 0 46 -1t46 -3q5 0 7 -1h1h3h2q5 -2 8.5 -2h8.5l11 1l2 -3q26 -1 50.5 -3.5t50.5 -5.5l8 -1q12 -2 18 -11l10 -1z" />
    <glyph glyph-name="bracketleft" unicode="[" horiz-adv-x="296" 
d="M230 -17q8 -13 4 -26l-2 -5l-12 -12l-10 1q-14 1 -27.5 2t-25.5 3q-20 2 -37.5 3t-34.5 1q-2 0 -8.5 -0.5t-11.5 -1.5q-9 0 -19 -2q-5 0 -7 -0.5t-4 -0.5q-8 0 -12 3t-6 5l-4 4l-2 5q-3 10 -3.5 20.5t1.5 19.5v3q1 1 1 5q0 2 0.5 3t0.5 3v25q1 6 1 12v13q1 75 2.5 168.5
t-3.5 190.5q-3 67 -3 136q-1 63 2 122t-6 117l-1 2v25h12q22 3 48 3q5 1 16 1q19 0 35.5 1t30.5 3h1h2q8 0 13 1q8 2 14.5 3t13.5 1h4q28 0 33 -25v-2v-21l-17 -5q-30 -8 -55.5 -9.5t-50.5 -2.5h-1q-13 0 -25 -0.5t-23 -1.5q1 -10 1.5 -19.5t1.5 -17.5v-1q2 -18 3 -37t1 -38
q0 -23 1 -45.5t3 -44.5q1 -11 1.5 -21.5t0.5 -21.5v-1v-5q0 -10 0.5 -19.5t1.5 -19.5q2 -45 3 -90t2 -91v-49.5t-1 -47.5q-1 -8 -1 -15.5v-15.5v-1q-2 -38 -2.5 -73.5t0.5 -67.5q0 -5 -0.5 -11t-1.5 -11v-3q1 1 2 1h3q5 1 8.5 1.5t8.5 0.5q27 0 53 -3h5.5t6.5 -1
q22 0 35.5 -2.5t22 -6t12 -7t5.5 -6.5z" />
    <glyph glyph-name="backslash" unicode="\" horiz-adv-x="350" 
d="M292 47q2 -5 4 -14t-5 -22l-7 -14l-16 3q-10 1 -16 6.5t-10 12t-6.5 14t-3.5 12.5q0 3 -1 4q0 2 -0.5 2.5t-0.5 2.5q-2 5 -3 9.5t-3 9.5t-3.5 9.5t-3.5 9.5v1q-14 37 -24 78q-2 6 -4 12.5t-4 13.5l-6 18t-5 18l-3 9q-2 6 -4 12.5t-4 14.5q-2 4 -2.5 7t-2.5 7v1
q-3 11 -6 20.5t-6 20.5q-1 2 -1.5 5t-2.5 5q-3 11 -6.5 23t-7.5 24v1q-5 19 -10.5 38t-13.5 36v1q-7 15 -12.5 31.5l-11.5 34.5l-6 19q-7 20 -13.5 40.5t-14.5 39.5q-8 18 -13 34.5t-8.5 32t-7 32t-8.5 35.5q-2 6 -3 10l-3 14l11 8q4 3 9 5.5t11 2.5q17 0 23.5 -14t10.5 -28
v-4l1 -1q1 -3 1 -5.5t1 -4.5q3 -11 6 -20t5 -17q2 -5 2.5 -9t2.5 -8q1 -3 1.5 -6.5t1.5 -6.5q5 -14 8.5 -28t9.5 -31q30 -88 64 -188.5t65 -207.5q5 -16 9 -32t9 -31q3 -10 5.5 -19t5.5 -19q2 -5 4.5 -11t5.5 -13l1 -2q4 -8 4 -14q1 -1 1 -3l5 -10t3 -8q0 -3 2 -9z" />
    <glyph glyph-name="bracketright" unicode="]" horiz-adv-x="304" 
d="M7 -17q2 3 5.5 6.5t12 7t22 6t35.5 2.5q5 1 12 1q25 3 53 3q7 0 17 -2h3q2 0 2 -1v3q-1 5 -1.5 11t-0.5 11q1 32 0.5 67.5t-2.5 73.5v1v31q-1 23 -1.5 47.5t-0.5 49.5q2 93 6 181q0 10 0.5 19.5t0.5 19.5v5v1q1 11 1.5 21.5t0.5 21.5q2 22 3 44.5t1 45.5q0 19 1 38t3 37
v1q1 8 1.5 17.5t1.5 19.5q-11 1 -23 1.5t-25 0.5q-25 1 -51 2.5t-56 9.5l-17 5v21v2q5 25 33 25h4q7 0 14 -1t14 -3q5 -1 13 -1h2h1q14 -2 30.5 -3t35.5 -1h1q10 0 15 -1q25 0 48 -3h12v-25v-2q-10 -58 -7 -117t2 -122q0 -69 -3 -136q-5 -97 -3.5 -190.5t2.5 -168.5
q0 -7 0.5 -13t0.5 -12v-25q1 -2 1 -6q0 -2 0.5 -3t0.5 -2v-3q2 -9 2 -19.5t-4 -20.5l-2 -5l-3 -4q-3 -2 -7 -5t-11 -3q-2 0 -4.5 0.5t-7.5 0.5q-10 2 -18 2h-1q-5 1 -11 1.5t-8 0.5q-17 0 -35 -1t-38 -3q-12 -2 -25.5 -3t-27.5 -2l-10 -1l-12 12l-2 5q-4 13 4 26z" />
    <glyph glyph-name="asciicircum" unicode="^" horiz-adv-x="366" 
d="M52 555q-3 -5 -7 -10.5t-14 -5.5q-3 1 -8.5 2.5t-10.5 7.5l-2 2l-2 3q-3 5 -4 9t-1 6q-3 17 8 35v1q4 7 7 11t7 9v1l1 2q23 31 44 58.5t45 56.5q7 8 12 10l7 4l9 -3q6 -2 10 -6l8 -8q2 -2 2 -3l3 -2l2 -4h1v-1l5 -5q5 -5 10 -11l10 -12q7 -8 14 -16.5t15 -16.5
q5 -5 8.5 -9t7.5 -8l7 -7l4 -4l4 -4q1 -2 1.5 -2.5t1.5 -2.5l6 -6q1 -1 1 -2q8 -8 16 -17.5t14 -20.5q2 -5 3 -9l2 -8q2 -10 1 -17q-2 -10 -7.5 -12.5t-13 -0.5t-14.5 8t-12 14l-1 1l-3 5q-8 11 -17 21t-18 21q-5 5 -7 8l-1 1q-2 2 -5 4l-1 1l-33 38q-5 6 -11 12.5t-11 12.5
q-6 -7 -11 -14t-10 -15l-1 -1q-2 -4 -5 -7t-5 -8q-2 -3 -4 -5.5t-4 -5.5q-2 -1 -2.5 -2t-1.5 -2q-2 -2 -2 -3l-1 -1l-4 -7q-5 -6 -10 -13l-10 -14v-1l-20 -28z" />
    <glyph glyph-name="underscore" unicode="_" horiz-adv-x="608" 
d="M504 -36v-50l-23 1q-20 1 -38.5 1.5t-39.5 0.5h-31.5t-30.5 -1q-15 -1 -29.5 -1h-29.5h-98h-25t-21 -1h-2h-6q-32 -2 -54 -2h-53h-18l-5 49h22h9h2h14h21h16h1q14 1 28.5 1.5t34.5 0.5h45.5t43.5 1q35 1 76.5 1.5t79.5 0.5q23 0 37.5 -0.5t31.5 -0.5q5 -1 10.5 -1h11.5
h20z" />
    <glyph glyph-name="grave" unicode="`" horiz-adv-x="230" 
d="M41 941q6 0 10 -2l2 -1h2l1 -1q3 -2 11 -6l5 -4q10 -6 20 -14t22 -16q2 -2 3 -2h1l1 -1l1 -1q4 -3 7.5 -6t5.5 -5q1 -1 1.5 -1t1.5 -1q2 -2 5.5 -4.5t6.5 -5.5q15 -17 3 -34l-1 -2l-2 -2q-8 -8 -18 -8q-14 0 -29 15l-2 3q-5 4 -10.5 7.5t-11.5 7.5q-5 3 -8.5 5.5
t-8.5 5.5q-4 3 -7.5 5.5t-6.5 4.5q-4 3 -7.5 5.5t-6.5 4.5l-1 1l-2 1q-12 7 -12 20v7q0 10 6.5 17t17.5 7z" />
    <glyph glyph-name="a" unicode="a" horiz-adv-x="427" 
d="M379 55q2 -14 3 -24t-4 -18q-7 -13 -21 -13q-17 0 -23.5 13.5t-8.5 23.5q-1 5 -2 9.5t-2 8.5q-1 2 -1 4l-1 3v3q-1 7 -2 14.5t-3 16.5l-1 6q-2 5 -2.5 9t-1.5 8q-5 21 -8.5 42t-7.5 42q-3 14 -5.5 27t-5.5 27l-1 3l-1 3q0 4 -1 6q-2 6 -2 12q-1 2 -1 3.5t-1 3.5
q0 2 -0.5 3.5t-0.5 3.5q0 1 -0.5 2t-0.5 2q-24 2 -46.5 2.5t-40.5 0.5q-40 0 -85 -3h-2q-2 -7 -3.5 -13.5t-3.5 -13.5q-2 -8 -4 -15t-4 -15l-6 -21q-1 -2 -1 -2.5t-1 -2.5l-1 -1q-2 -7 -4 -13l-4 -12q-2 -11 -5 -21l-6 -20l-2 -6q-2 -5 -3 -8.5t-2 -8.5q-2 -4 -4 -12v-1
l-1 -3q-7 -28 -12.5 -49t-16.5 -37l-10 -21l-26 2l-3 4q-2 0 -2 1l-13 6v16l1 1q1 7 3 13.5t4 13.5h1q0 1 0.5 1.5t0.5 1.5l2 6l1 2v2q1 2 1.5 3.5t1.5 3.5q1 3 3 7q2 5 3 9.5t2 7.5q1 2 1 2.5t1 2.5q5 23 12 45.5t13 42.5q1 4 2 7.5t3 7.5l8 27q1 3 1.5 5.5t1.5 5.5
q2 3 2.5 6.5t1.5 5.5v2l1 4q2 3 2 5.5t1 6.5l1 2q0 2 0.5 3t0.5 3l1 1v2l1 3q1 10 6 22v1v2l1 3q10 31 20 66q1 2 1.5 5t1.5 5t1 3t1 3v1l1 4q2 3 2.5 7t2.5 9q0 2 2 8q2 4 2 8l1 2l1 7v1q1 4 3 10q2 4 2.5 8t2.5 8v1l1 3q6 22 12 43.5t13 42.5l1 1q10 31 20 66v2q5 13 8 23
q2 4 3 8t3 9v2q2 5 3.5 9.5t3.5 8.5v1q4 11 7.5 22t6.5 23q1 3 2 6.5t3 7.5q5 12 5 18v13l9 6q9 7 18 7t14.5 -5t9 -11.5t5.5 -14t3 -12.5q2 -9 3.5 -20.5t3.5 -25.5q0 -5 0.5 -7.5t0.5 -4.5q4 -17 6 -34l4 -34q2 -14 4 -27.5t4 -27.5q0 -4 2 -14q5 -27 12 -56
q9 -33 15.5 -65t11.5 -58q5 -24 10.5 -48.5t11.5 -49.5q1 -5 2 -10.5t2 -10.5q5 -17 8.5 -35t7.5 -36q1 -5 1.5 -9.5t1.5 -9.5q1 -6 2 -12.5t2 -12.5q0 -3 0.5 -6t0.5 -6q3 -20 6 -36l1 -1l2 -7q0 -2 0.5 -3t0.5 -3q0 -1 0.5 -2t0.5 -2v-1l1 -2q1 -2 2 -5.5t1 -7.5l2 -5h1
v-2l1 -1v-1v-3zM129 359q7 1 13 1.5t13 0.5q17 0 36 -0.5t42 -1.5h13q5 -1 14 -1q-2 9 -4 17.5t-4 17.5q-2 8 -4 14l-1 7l-6 24q-5 15 -8.5 29t-5.5 28l-2 16t-3 16q-4 30 -8 55.5t-8 51.5q0 3 -0.5 6.5t-0.5 6.5q-1 2 -1 4t-1 4q-2 -9 -5 -18.5t-7 -18.5v-1
q-5 -11 -7.5 -22t-5.5 -22l-1 -1l-3 -12q-2 -10 -5 -20t-8 -21q-2 -7 -3.5 -14t-3.5 -15q-1 -2 -1 -3.5t-1 -3.5v-5l-1 -2q-1 -8 -2.5 -14t-3.5 -12l-2 -6q-2 -4 -3 -7t-3 -7q-2 -7 -3.5 -14t-3.5 -14q-5 -16 -8 -28q-2 -5 -2.5 -8.5t-1.5 -7.5q2 0 3 0.5t3 0.5h4h1z" />
    <glyph glyph-name="b" unicode="b" horiz-adv-x="405" 
d="M155 399q-2 -2 -5.5 -3t-6.5 -3q17 -3 36 -7.5t38 -10.5q85 -28 106 -80q18 -45 8.5 -89.5t-47.5 -84.5h-1q-2 -2 -3 -3.5t-2 -2.5l-6 -9h-3q-58 -61 -129 -86q-3 -1 -13 -5q-11 -5 -25 -10t-27 -5q-29 0 -40 24l4 2l-12 12q-2 2 -5 5.5t-5 8.5q-4 9 -4.5 19t-0.5 20
q0 4 -0.5 7.5t-0.5 6.5v1q-2 17 -2.5 34.5t-0.5 35.5v25t1 25q0 6 0.5 12t0.5 12q1 12 1.5 24.5t0.5 23.5q0 7 -1 13.5t-1 13.5q-3 21 -3 44q1 35 1 70v72v17t-1 17q0 8 -0.5 17t-0.5 18v30q1 18 1.5 36.5t2.5 37.5q3 16 3 38q0 1 -0.5 3.5t-0.5 4.5q-2 10 -2 21t7 21
q9 13 28 18t43 7q2 0 4 0.5t4 0.5q12 2 22.5 2h19.5h13h14q16 0 34 -3q4 0 7.5 -0.5t6.5 -0.5h1q42 -4 72.5 -19.5t53.5 -43.5q17 -20 22 -50.5t-5 -63.5q-8 -28 -23 -49q-3 -5 -5 -10l-1 -6l-4 -5q-4 -5 -7.5 -9t-5.5 -8l-1 -1l-6 -9q-5 -7 -10.5 -14t-12.5 -14
q-9 -10 -19.5 -17t-21.5 -13l-3 -2q-5 -3 -10 -7t-10 -9q-9 -9 -21 -18zM244 299q-6 5 -12 7.5t-14 6.5l-6 3l-4 1l-3 1q-2 2 -4.5 2.5t-5.5 2.5q-1 0 -5 2q-2 1 -5 2t-5 2l-14 3q-51 15 -103 17q0 -5 1 -7v-1v-17.5t1 -17.5q0 -13 0.5 -25.5t-0.5 -25.5v-1q-1 -23 -2 -47.5
t0 -48.5l1 -1v-34v-31q1 -1 1 -3t1 -4q1 -5 2 -12.5t-1 -15.5l18 4.5t20 5.5t17.5 5.5t9.5 3.5q21 8 43.5 22t36.5 28l7 7q23 23 41 45.5t17 54.5q-1 46 -33 66zM63 407q12 6 24.5 13.5t24.5 16.5q11 8 23 16.5t23 16.5q21 14 40.5 27.5t36.5 29.5q22 20 33.5 39.5
t20.5 39.5l1 5q2 4 3 7t3 7q5 13 9.5 24.5t2.5 24.5q-2 12 -16.5 27.5t-30.5 23.5h-1q-19 8 -50 13.5t-62 5.5h-8q-22 0 -39 -1.5t-31 -3.5q-1 -4 -1 -7.5v-6.5v-9q-1 -1 -1 -2v-1v-1q0 -10 -0.5 -19.5t-1.5 -18.5q-2 -17 -3 -39.5t2 -43.5q2 -8 1 -16.5t-2 -16.5
q-1 -5 -1 -9v-8q-1 -6 -1 -12v-12q-1 -23 -1.5 -44t1.5 -44q0 -5 0.5 -10.5t0.5 -11.5z" />
    <glyph glyph-name="c" unicode="c" horiz-adv-x="390" 
d="M304 95q10 0 16.5 -6.5t6.5 -16.5v-4l-1 -2v-3v-10l-9 -7l-2 -2q-29 -23 -59.5 -33.5t-68.5 -10.5q-61 0 -94 25q-18 15 -31 36.5t-22 47.5t-15 54t-10 56q-3 23 -4 48t-2 51v1q0 13 -0.5 27t-1.5 29v1q0 8 -0.5 14t-1.5 13v1v11q-1 9 -1.5 18t-0.5 19q2 23 5 40.5
t5 29.5v1v2q6 29 14 63.5t21 66.5q4 20 19 48.5t30 52.5l1 2q2 2 3.5 4t3.5 4q1 0 1 1l2 6l11 4q37 23 76 23q16 0 36 -5q14 -4 28 -13t22 -17l1 -1l1 -1l4 -6.5t7.5 -16t5.5 -20t-1 -18.5q-5 -13 -18 -16h-2h-4q-12 0 -19 7l-10 10l-1 8q-1 9 -7 17t-14 11q-4 2 -13 3.5
t-26 1.5q-16 0 -30.5 -13t-24.5 -29q-4 -6 -8 -15.5t-8 -19.5q-8 -20 -15 -32q-1 -7 -2.5 -14t-3.5 -12q-1 -1 -1 -3q-2 -7 -4 -12.5t-4 -11.5l-4 -12l-4 -12v-2q-3 -11 -4.5 -21.5t-3.5 -21.5q-1 -5 -1.5 -11t-1.5 -12q0 -3 -0.5 -6t-1.5 -7q-5 -29 -3.5 -61t3.5 -67v-1
q1 -7 1 -13v-13q1 -13 1.5 -26t0.5 -26q5 -8 5.5 -16.5t-0.5 -16.5v-4v-10v-2q7 -31 14.5 -64t19.5 -57q11 -21 26.5 -32t46.5 -15h2q4 -1 13 -1q52 0 79 25h1v1l4 3q2 2 3 2q4 4 10 8t14 4z" />
    <glyph glyph-name="d" unicode="d" horiz-adv-x="374" 
d="M329 560q3 -15 3 -26.5t-2 -23.5v-1l-1 -43q-1 -11 -2 -23t-3 -24q-3 -20 -8.5 -43.5t-14.5 -49.5q-5 -18 -10.5 -36t-13.5 -36q-6 -14 -12.5 -28.5t-13.5 -29.5q-11 -25 -38 -61l-1 -4l-1 -1q-3 -5 -5.5 -9t-7.5 -8v-1l-2 -5q-3 -7 -9 -11q0 -1 -2 -3l-4 -4v-2l-2 -2
q-1 -1 -1 -3l-1 -2l-7 -7q-2 -2 -3.5 -4t-5.5 -4l-11 -11q-1 -1 -2.5 -3t-3.5 -4q-4 -5 -7 -7q-2 -4 -9 -8l-14 -8l-1 -1l-1 -1l-3 -1h-2q-2 -2 -3.5 -2.5t-2.5 -1.5q-4 -2 -5 -4l-1 -2l-3 -2q-5 -5 -11.5 -9t-17.5 -6q-2 -1 0.5 -1.5t-0.5 -0.5q-7 0 -15 3t-15 8t-12 11
t-5 12v1q0 5 -1 7l-1 2v5q0 18 -0.5 38t-1.5 41q-2 38 -3 76.5t1 80.5q-2 15 -2.5 29.5t0.5 30.5v15v16v23q0 30 -0.5 56l-1 52t0 53t1.5 59q0 6 -0.5 18t-0.5 24v30v18v14.5t1 9.5q1 13 -2 23t4 22q6 12 16.5 17t23.5 5q5 0 15 -2h2l5 -3q2 0 2 -0.5t2 -0.5l2 -1
q9 -4 19 -5l6 -2q5 0 11 -2q2 0 2 -1q6 0 10 -2q6 -2 8 -4h1l6 -3h4l2 -1l12 -3q9 -3 16 -7l14 -8q6 -4 9 -5q3 -2 6 -3.5t5 -3.5l3 -2l1 -2l4 -2q7 -4 14 -9l24 -22t23 -24v-1q9 -11 14 -22l10 -22l4 -8l4 -8q15 -28 19 -53zM70 94v-1q0 -6 -1 -8v-7q0 -5 -0.5 -9t1.5 -9
q1 1 6 3t8.5 3.5t6.5 3.5l1 1q11 10 24 24.5t21 24.5l4 6q25 34 41.5 60.5t27.5 53.5q26 59 41.5 110t20.5 93l1 7q4 32 5.5 58.5t-3.5 49.5q-3 14 -10.5 29.5t-18.5 32.5q-20 30 -43 52q-5 5 -11.5 9t-13.5 8q-2 2 -3.5 2.5t-3.5 2.5t-5 2.5t-5 2.5l-4 2q-17 7 -32 13
t-30 10q-9 2 -13 4h-1l-4 1q-4 2 -12 4q0 -20 -3 -41q-1 -7 -1.5 -13t-0.5 -11q-1 -9 -0.5 -18t0.5 -18q2 -15 1.5 -29t-0.5 -28v-31t2 -30q0 -7 0.5 -13.5t0.5 -14.5l-1 -23q2 -14 2 -26.5t-1 -25.5q-1 -4 -1 -8v-8l-1 -16v-12q0 -8 -0.5 -16t0.5 -16q2 -15 1.5 -30
t-0.5 -29q0 -6 0.5 -10.5t0.5 -9.5v-38.5t1 -37.5v-11t-1 -10v-20l1 -1q0 -6 1 -9q0 -6 1 -10q0 -2 0.5 -5t0.5 -6q2 -8 2 -13v-1z" />
    <glyph glyph-name="e" unicode="e" horiz-adv-x="387" 
d="M67 537q-1 -5 -1.5 -10.5t0.5 -10.5q0 -10 -0.5 -19t-1.5 -17v-9q-1 -3 -1 -11q-1 -8 -1.5 -14.5t0.5 -13.5v-19h16q1 0 2 0.5t3 0.5h8h9q2 0 3 -0.5t2 -0.5h13q8 0 9 1h3h7h5q2 0 9 -1t13 -7l3 -2l1 -4q5 -9 3 -20v-20h-23h-4.5t-4.5 -1q-3 -1 -7.5 -2t-9.5 -1
q-3 0 -6 0.5t-6 0.5h-11q-3 0 -6 0.5t-7 0.5h-10h-8h-6l-1 -1v-30v-10.5t-1 -10.5v-21v-2l-1 -7q-2 -17 -2.5 -35.5t-1.5 -35.5q0 -8 0.5 -16.5t0.5 -18.5v-2v-9q-1 -2 -1 -6v-6v-6v-2v-2q0 -10 1 -19.5t3 -19.5q1 -5 1 -10v-10q1 -5 1 -12t1 -10q2 0 3 1q4 1 8 1t9 1
q9 1 18 1t18 1q8 1 17 1.5t18 0.5l3 1l51 3h2h23l1 1h27h17q3 0 5.5 -0.5t4.5 -0.5h3q6 0 19 -2.5t18 -17.5q2 -5 2.5 -10t-3.5 -13l-1 -3l-3 -2q-6 -7 -14 -8.5t-14 -1.5h-46h-18q-5 0 -10 -0.5t-10 -0.5h-37h-22t-22 -2h-1q-4 -1 -11 -1q-2 0 -3.5 -0.5t-3.5 -0.5h-2h-2
q-2 0 -12 -2h-3q-10 -2 -19.5 -2h-19.5h-8q-20 0 -27.5 9t-9.5 19v1q-1 5 -1 9v8q1 1 1 4q0 7 -1 10v2v2q0 6 -1 11.5t-1 11.5v3v5q0 5 -0.5 10t-1.5 10q-1 18 -2 35t0 34l2 74t3 63q1 15 1 30.5v31.5v43.5t2 44.5q1 17 1.5 35.5t1.5 36.5v7v9q0 6 0.5 12t1.5 13v2
q2 11 2 22v22v1v2q1 3 1 11q0 3 0.5 6.5t0.5 7.5q3 21 3 42q0 6 1 8v1v2v7q2 14 2 30t7 28q9 14 25 16.5t31 2.5h9q19 0 38 1t39 1h3l13 1q9 0 17.5 0.5t16.5 0.5q25 1 48 0t43 -1h1q18 0 23 -18q2 -13 -5 -22q-7 -10 -21 -13t-37 -3h-16h-9h-2q-6 0 -12 -0.5t-13 -0.5
q-6 0 -12 0.5t-12 0.5h-23q-19 0 -41 -3h-1h-1q-6 0 -11.5 -1t-12.5 -1h-2h-5l-3 -1h-9t-9 -1v-6q0 -2 -0.5 -4t-0.5 -4v-4q0 -3 -0.5 -4.5t-0.5 -3.5v-2l-1 -2q0 -3 -0.5 -5.5t-0.5 -4.5q0 -12 -0.5 -24t-1.5 -25v-1q-1 -11 -2 -22.5t-1 -22.5v-12q-1 -3 -1 -8v-2v-2
q-1 -4 -1.5 -7t-0.5 -7v-13q0 -2 -0.5 -4.5t-0.5 -4.5v-1v-2z" />
    <glyph glyph-name="f" unicode="f" horiz-adv-x="329" 
d="M284 787q7 -8 6.5 -15.5t-1.5 -10.5q-5 -11 -14.5 -14t-13.5 -4q-5 0 -10.5 -0.5t-13.5 -0.5q-15 0 -36.5 -2t-47.5 -4h-1q-6 -1 -12.5 -1.5t-12.5 -1.5q-13 -2 -26 -3t-27 0h-6v-17v-9t-1 -9q-2 -17 -1.5 -35t0.5 -37q0 -11 0.5 -23t-0.5 -24v-8v-2q-1 -2 -1 -7v-2l1 -2
v-4v-7v-9v-1q-1 -20 -1.5 -40.5t-1.5 -40.5q-1 -7 -1 -14v-14v-5q18 3 35.5 4.5t33.5 3.5q5 0 8 1q5 1 10.5 1.5t10.5 0.5q8 0 18.5 1.5t15.5 -2.5l9 -15l-3 -21q-4 -10 -12 -15t-17.5 -7t-20 -2.5t-19.5 -0.5q-11 0 -13 -1h-1q-5 -1 -10.5 -1t-10.5 -1q-11 0 -16 -1
t-10 -1.5t-10 -1.5v-10q-1 -11 -1 -22.5t-1 -19.5v-11v-1q-1 -25 -2 -49.5t-2 -47.5q-1 -17 -0.5 -34t1.5 -35q2 -25 2.5 -49.5t-2.5 -50.5v-1q-5 -32 -27 -32q-10 0 -18 8q-7 8 -9 19.5t-2 19.5q0 7 1 9v4q-1 50 0 105v14t1 15v68v23v35t1 36q0 11 0.5 21t1.5 21
q1 13 1 25.5t1 25.5q0 13 1 26t1 27v15q0 10 -0.5 20t0.5 20q1 13 1 26v27q-1 25 0 49v19t1 17h1v14q1 5 1 15q0 2 0.5 3t0.5 2v1v2l1 4q0 2 0.5 3.5t0.5 2.5v1l-1 1l-1 2q-2 6 -2 11v4l2 4q7 15 24 19t37 4h5q5 1 9 1h8h13l2 1h2h7t11 1h1q9 1 20.5 1.5t22.5 1.5t19.5 1.5
t12.5 1.5h2h2h5.5t5.5 1h2h2q1 0 2.5 0.5t3.5 0.5q5 0 10 0.5t10 0.5q8 0 16.5 -1.5t14.5 -9.5z" />
    <glyph glyph-name="g" unicode="g" horiz-adv-x="397" 
d="M335 182v-1q1 -2 1 -6q0 -25 -2 -44.5t-5 -36.5q-5 -23 -16.5 -43.5t-28.5 -32.5t-36.5 -15t-36.5 -3h-16q-38 0 -75 7t-63 35q-20 21 -31 47.5t-16 55.5t-5.5 59t0.5 57l1 5v25v49q0 6 0.5 12.5t0.5 13.5v24q0 5 0.5 9t0.5 9v18q0 5 0.5 9.5t0.5 9.5q2 38 4 78t8 79
q1 7 1.5 12.5t1.5 10.5q1 10 1.5 17.5t2.5 15.5v1q2 6 2 10q1 2 1 4t1 4q0 2 0.5 3t0.5 2v1v2q3 14 7.5 29t15.5 31q2 2 3 4t3 4q3 5 9 12.5t14 14.5l6 5h4l4 2h1q12 6 29 9.5t33 3.5q26 0 52 -9q26 -8 43 -24.5t30 -47.5q2 -2 2 -4q0 -1 0.5 -1t0.5 -1l1 -2q3 -6 6 -17
t4.5 -24t0.5 -26t-7 -25q-2 -5 -8.5 -13.5t-19.5 -8.5q-12 0 -19 11q-2 4 -4.5 12t-0.5 23q1 10 0 24q-2 14 -7 27.5t-13 25.5q-8 11 -24.5 18.5t-36.5 7.5q-16 0 -26 -3q-2 -1 -2.5 -1t-2.5 -1h-1v-1q-1 0 -5 -2l-3 -3h-3q-6 -4 -10 -12l-2 -3l-4 -4l-2 -1l-1 -1
q-16 -38 -19 -97v-1q0 -13 -1 -25t-3 -24l-1 -1q-2 -14 -3.5 -28t-1.5 -28q-1 -19 -1.5 -32.5t-2.5 -22.5q2 -32 -0.5 -62.5t-3.5 -60.5v-12v-28.5t1 -32.5v-2q1 -4 1 -8v-9v-20v-12q0 -5 0.5 -9.5t0.5 -9.5q0 -9 0.5 -18t1.5 -17q1 -10 6 -19q0 -2 2 -6q0 -2 2 -6l2 -6
t2 -7l1 -2q1 -4 1.5 -5t4.5 -5l1 -1q3 -2 3 -3l2 -1q5 -4 8 -8t6 -7q6 -9 14 -12q5 -1 10.5 -2t10.5 -1q2 -1 6 -1h3h3l2 -1h4q2 -1 3.5 -1t3.5 -1q8 -1 15.5 -2t15.5 -1q5 0 15 2q16 2 30 6t19 14v1l1 1q2 5 3 12t3 14l1 4v3q1 2 1 4t1 4q6 33 6.5 63t-1.5 63v3
q-1 10 -1.5 19.5t-0.5 20.5q-16 0 -34 -5h-2q-9 -2 -19 -4t-22 -2h-21l-6 12q-2 5 -2.5 9t-0.5 6v5l2 4q8 17 22.5 21t24.5 4l2 1h7q2 0 5 0.5t7 0.5q8 2 15 2q2 1 4.5 1t4.5 1q10 1 19.5 2t20.5 1h16l5 -15q4 -11 6.5 -22t3.5 -21v-1q1 -19 1.5 -46.5t-0.5 -57.5v-3z" />
    <glyph glyph-name="h" unicode="h" horiz-adv-x="398" 
d="M319 248v-47q0 -35 -0.5 -71.5t-0.5 -72.5v-12q0 -11 -1 -20t-6 -16q-7 -9 -20 -9q-2 0 -6 0.5t-9 2.5l-12 6v11l-1 1v3l-1 2l-2 7l2 7v2v9v2q-1 11 0 21t1 19q1 10 1.5 18.5t0.5 17.5q-1 23 -1 47t2 46q-3 18 -3 35.5t1 34.5v14v13q-4 0 -7.5 0.5t-7.5 0.5q-25 0 -51 -1
t-52 -1h-1q-5 0 -9 -0.5t-8 -0.5h-18h-24t-23 -1v-14t1 -15v-1v-10q0 -13 -0.5 -26.5t-2.5 -27.5q2 -22 2 -46t-1 -47q0 -10 -1 -14v-10q0 -2 1 -4q2 -8 1.5 -16.5t-0.5 -16.5v-15.5t2 -13.5l2 -6l-2 -7l-1 -2q-1 -2 -1 -5v-10l-12 -6q-5 -2 -9 -2.5t-6 -0.5q-13 0 -20 9
q-5 7 -6 16t-1 20v13q0 40 -1 80t0 80v52v46v97q-1 34 -1 66t2 64v1q0 11 0.5 22.5t0.5 22.5v38v20.5t1 20.5q0 26 0.5 53t0.5 51l-1 9l7 7q3 3 9 7.5t16 4.5q11 0 18 -7l7 -7v-113q0 -3 -0.5 -5.5t-0.5 -5.5v-9v-3l-2 -4v-3v-1v-1q0 -2 0.5 -3.5t0.5 -3.5v-3v-14
q-2 -10 -1.5 -21.5t0.5 -22.5v-14l1 -2v-2v-9v-21q-4 -31 -4 -62v-62q1 -8 -1 -16.5t2 -15.5q10 4 21 3h10h41q3 2 5.5 2h4.5t4 -0.5t4 -0.5h1q2 0 4 -0.5t4 -0.5q3 0 4 1h3h2q6 2 11.5 2h10.5h71v13q0 17 -0.5 34.5t-1.5 34.5q-1 24 -1.5 48.5t0.5 50.5v1v2q1 4 1 14v22.5
t-1 21.5v14v3v3l1 3v2v1v3q-1 2 -1 6v3q-1 5 -1.5 9t-0.5 9v113l7 7q6 7 18 7q10 0 17 -5t11 -10l3 -6v-7q-1 -24 0 -51t1 -53v-20.5t1 -20.5v-38v-17q0 -41 1 -79.5t1 -79.5v-26t-1 -27q5 -11 0 -21q0 -23 0.5 -45.5t0.5 -45.5z" />
    <glyph glyph-name="i" unicode="i" horiz-adv-x="351" 
d="M221 743q-12 1 -22.5 2t-26.5 1q1 -12 3 -18l1 -2q2 -9 0 -17v-6v-14q0 -22 1 -47t-2 -53q-1 -10 -1 -20.5v-20.5v-15v-17t-1 -18v-13q0 -3 -0.5 -5.5t-0.5 -5.5v-1v-2q-2 -9 -2 -18v-18v-54q0 -20 -1 -39.5t0 -39.5q2 -75 5.5 -132.5t9.5 -105.5q2 1 6 1h2q15 2 26 3
t19 1h8q15 0 25 -8l1 -2l2 -1q6 -10 5 -17.5t-3 -11.5l-1 -1q-9 -17 -41 -17h-1q-12 0 -22.5 -1t-21.5 -2l-9 -1q-5 -1 -9 -1t-9 -1q-14 -1 -29 -2t-30 -1h-21q-5 0 -10 -0.5t-11 -0.5h-2h-5q-3 -1 -8 -1q-10 0 -16 3t-8 5q-5 5 -7 13.5t4 19.5l1 3l3 3l2 2l3 7h14
q12 0 24.5 0.5t26.5 1.5h3q8 1 16 1t16 1q-2 22 -3 43.5t-3 42.5q0 3 -0.5 6t-0.5 6q0 7 -1 9v1q-1 8 -1.5 16.5t-0.5 16.5q0 14 -0.5 27.5t-0.5 28.5l-1 4v30q0 8 -0.5 16.5t-0.5 16.5q0 22 0.5 44.5t1.5 46.5v8q1 9 1 18v18q1 9 1 18v18v10.5t1 10.5v21v2q0 9 0.5 18
t0.5 19t0.5 19t0.5 18v49q0 22 -0.5 43.5t-3.5 38.5h-29h-29t-24 1l-14 1l-6 6q-7 7 -7 19v4l1 3q5 14 20 21l5 1h4q21 -2 40 -3t47 -1q23 0 44.5 0.5t44.5 0.5l15 1l4 -2h7q5 1 14 1q6 0 11 -0.5t10 -4.5l12 -3v-17q0 -11 -5.5 -17t-8.5 -8l-6 -4h-2l-4 -2h-7
q-10 0 -18 0.5t-15 1.5z" />
    <glyph glyph-name="j" unicode="j" horiz-adv-x="399" 
d="M356 751q-4 -4 -17 -8h-2h-2q-1 -1 -2 -1h-2q-10 -2 -15 -2q-13 0 -20.5 -0.5t-18.5 -2.5q-2 0 -4 -0.5t-4 -0.5q-5 -1 -9.5 -1.5t-9.5 -0.5q-4 -1 -8 -1t-6 -1h-2l-1 -1h-3q-4 0 -6 -1q1 -10 0 -19v-8q0 -5 0.5 -10t0.5 -10q1 -11 1.5 -23t0.5 -23v-12q0 -6 -0.5 -11
t0.5 -10q0 -6 0.5 -12t0.5 -12v-11.5t1 -10.5q1 -10 0.5 -19.5t-0.5 -18.5v-18v-2v-2q-1 -3 -1 -7v-7q0 -8 -0.5 -15t-0.5 -15v-16.5t-1 -16.5v-33v-16q1 -5 1 -9.5v-9.5v-1q-1 -17 -1.5 -33.5t0.5 -36.5q1 -26 1.5 -52.5t-1.5 -50.5q-2 -31 -6.5 -59.5t-17.5 -54.5v-1
q-10 -20 -27.5 -38t-53.5 -25q-4 -1 -14 -1q-18 0 -30.5 8t-23.5 17q-2 1 -2.5 1.5t-2.5 1.5q-14 11 -24.5 27.5t-16.5 35t-5.5 39t8.5 39.5l6 14h16q10 0 20 -5l12 -6v-13q0 -3 -0.5 -6t-1.5 -8l-1 -1l-1 -1q-2 -11 0 -24t7 -25t12.5 -21t17.5 -12q7 -3 14 -3q15 0 25 11.5
t16.5 27.5t10 32t4.5 24q2 8 3 18.5t1 21.5v3q0 24 0.5 48.5t-0.5 50.5v2q-1 29 -1.5 59t1.5 61q2 45 2.5 80t-0.5 66v1v23q0 59 -6 121v3q0 2 -0.5 5.5t-0.5 6.5h-4h-5q-2 0 -3.5 -0.5t-3.5 -0.5h-2q-12 -1 -24.5 -1.5t-25.5 -1.5q-10 0 -15.5 -1t-12.5 -3q-4 -1 -7.5 -1.5
t-8.5 -1.5h-1q-1 0 -1 -0.5t-1 -0.5h-2q-6 -3 -17 -3q-2 0 -3.5 0.5t-3.5 0.5h-19v43l10 6q7 4 14 5.5t12 2.5h1h1q1 0 1.5 0.5t2.5 0.5q31 5 55.5 8t53.5 5q9 1 18.5 1t19.5 2l38 5q8 2 14.5 2.5t13.5 1.5q11 2 21 2.5t21 1.5q16 1 36 3l15 1l2 -5v-44z" />
    <glyph glyph-name="k" unicode="k" horiz-adv-x="358" 
d="M283 95q8 -10 16.5 -22.5t7.5 -27.5q-1 -9 -5.5 -14.5t-10.5 -7.5q-3 -1 -9 -1q-16 0 -26 12t-16 22q-1 1 -1 1.5t-1 1.5l-20 30q-9 14 -20 34t-20 42v1q-5 10 -8.5 18t-8.5 17q-2 5 -5 9.5t-5 9.5l-1 1q-7 14 -11.5 24.5t-11.5 21.5q-5 8 -7.5 14t-4.5 11q-2 6 -3 8
l-6 12q-5 8 -9 16t-8 13q-6 8 -10.5 15t-9.5 15q-2 4 -4 5v-21q0 -22 -1 -43.5t-2 -43.5q-1 -16 -1.5 -32t-1.5 -32v-1q-1 -20 -2 -43.5t1 -46.5v-3v-2q-3 -17 -3.5 -34t1.5 -33l1 -8l-4 -6q-1 -2 -2 -3q-2 -10 -14 -17q-2 -1 -7 -3t-11 -2.5t-10.5 1t-4.5 6.5q-1 5 -1 9.5
t-1 9.5q-2 14 -1.5 26.5t0.5 24.5v9t1 8v2q1 21 1.5 41.5t0.5 43.5q0 10 0.5 19.5t0.5 19.5v21.5t1 21.5v1q0 9 0.5 18t1.5 18q1 10 1.5 19.5t0.5 19.5q2 22 3 46l2 48l1 93v31t-2 36v2v2v19.5v38.5v47.5t0.5 46.5t1.5 35.5t3 14.5q10 0 22.5 0.5t20.5 -6.5q9 -8 10 -19.5
t-1 -22.5v-4v-23v-49q-1 -14 -1 -27v-27v-28v-16t-1 -16v-44q2 5 4.5 9t5.5 8l24 45q8 16 16 28l9 15v1l3 5q1 2 2 4.5t3 5.5q1 2 2 4.5t2 5.5q2 5 5 10.5t6 10.5q5 11 10.5 21.5t11.5 20.5l2 4l2 4l9.5 19t7.5 18l1 1l1 2v1q0 1 0.5 1t0.5 1q4 10 11.5 23.5t24.5 12.5
q13 0 21 -11q5 -9 4.5 -17.5t-2.5 -12.5q-3 -10 -7 -17.5t-9 -14.5q-2 -2 -3 -5t-3 -5q-5 -11 -10.5 -21.5t-10.5 -21.5q-3 -6 -9 -10.5t-3 -15.5q-9 -18 -18 -33q-5 -8 -9 -16l-8 -16t-7.5 -13.5t-6.5 -11.5q-3 -5 -6 -8.5t-5 -8.5q-3 -6 -6 -15q-2 -6 -5 -12.5t-7 -12.5
q-5 -7 -9 -14t-9 -13l-6 -9v-1q-3 -3 -5 -6.5t-4 -7.5q-2 -3 -3 -5.5t-3 -5.5l2 -2q3 -3 4 -5q2 -2 8 -9h1q19 -25 37 -54.5t32 -62.5l1 -1q2 -5 4.5 -10.5t5.5 -10.5l4 -6t4 -7l1 -2q8 -17 13.5 -30.5t12.5 -24.5q5 -8 9 -16.5t9 -16.5q2 -5 3.5 -8.5t3.5 -7.5
q7 -13 17 -30.5t23 -34.5q1 -2 4 -5z" />
    <glyph glyph-name="l" unicode="l" horiz-adv-x="319" 
d="M242 52q8 -9 6 -20v-1q-2 -9 -7.5 -13.5t-12.5 -6.5t-13.5 -2.5t-10.5 -0.5q-5 0 -9.5 -0.5t-9.5 0.5h-14q-5 -1 -9 -1t-9 -1q-18 -3 -37 -3q-11 0 -16 1q-3 0 -9.5 -0.5t-14.5 -0.5q-19 -2 -32 -2.5t-18 -0.5h-3q-9 1 -15 7t-6 15v2q1 6 1 12.5v13.5q-2 32 -2 60.5v57.5
v70q0 83 3 163v20.5t1 20.5q1 9 0.5 17.5t-0.5 16.5v17v14v27.5t2 28.5q-2 11 -1.5 22.5t1.5 22.5v10q1 3 1 8v1v2q1 3 0.5 4.5t-0.5 2.5v2v11v58v1v35v5q-1 5 -1 12t2 12q2 6 5 10t5 6l2 2l1 1l3 3l6 6l9 -3q2 0 8 -1t11 -6l6 -6v-9q1 -8 0.5 -16.5t-0.5 -16.5
q-1 -5 -1 -10.5v-10.5v-8t1 -8q0 -7 0.5 -13t-0.5 -13v-27.5t-1 -27.5t-1 -27v-27v-28t-2 -30v-22q0 -15 -0.5 -30.5t-1.5 -29.5q-1 -15 -1.5 -29.5t-0.5 -29.5v-40v-11.5t1 -10.5v-3v-10v-19.5t-1 -19.5q2 -8 2 -15t-1 -14q0 -6 -1 -8v-3v-9q1 -3 1 -9q1 -27 0 -52
q-1 -4 -1 -11q0 -6 0.5 -12.5t1.5 -13.5q1 -5 1 -9.5t1 -9.5q0 -8 0.5 -16t0.5 -16q9 0 14 1h2q18 1 35.5 0.5t36.5 1.5q4 0 18 1t28 1q20 0 30 -2.5t16 -9.5z" />
    <glyph glyph-name="m" unicode="m" horiz-adv-x="474" 
d="M328 748q3 7 7 16t9.5 17t12.5 13.5t17 5.5t17 -7q8 -8 9.5 -19t1.5 -23l-1 -2v-4q0 -24 0.5 -50t1.5 -48q1 -5 1 -9.5v-9.5q1 -5 1 -8.5v-7.5v-2q1 -10 0.5 -19t-1.5 -20q-1 -16 -0.5 -29t2.5 -24q1 -11 0 -18v-6v-8q-1 -2 -1 -4q1 -17 1.5 -35t0.5 -35q1 -17 1 -33
t1 -33q0 -7 0.5 -13t0.5 -13q0 -6 0.5 -12t0.5 -12v-1q2 -26 2 -51v-56v-130q3 -21 0 -30t-5 -12q-6 -8 -7 -10t-14 -2q-5 0 -16 0.5t-11 8.5v1q0 1 -0.5 3t-0.5 5v13.5t-1 12.5v26q-1 13 -1.5 30t-0.5 30v9q0 2 0.5 3t0.5 3v15v8.5t1 8.5q0 47 -3 94q0 5 -0.5 11t-0.5 11
q-2 37 -3 71t-1 67v28.5t-1 28.5v56q-1 23 -1.5 47.5t-0.5 48.5q-2 -4 -3 -7l-1 -1q-3 -8 -6.5 -16t-6.5 -17v-2q-1 -2 -2 -3.5t-2 -3.5q-2 -7 -5.5 -14t-6.5 -14l-6 -15q-1 -2 -1.5 -3.5t-1.5 -3.5l-1 -1l-3 -5q-9 -20 -16 -38.5t-14 -36.5q-5 -14 -9.5 -24.5t-9.5 -20.5
l-2 -6t-2 -5q-5 -13 -9.5 -24.5t-8.5 -23.5q-1 -8 -7 -14l-6 -6h-9q-13 0 -18.5 8.5t-7.5 13.5v2l-2 4v1l-1 1q0 2 -2 6q0 3 -1 4v1l-5 19q-9 23 -19.5 47.5t-21.5 50.5l-1 2l-12 27q-11 20 -22 49q-3 8 -6.5 14.5t-7.5 14.5l-1 2q-2 4 -3.5 8t-3.5 9q-2 2 -2 4
q-1 -3 -1 -10v-2q-2 -11 -2 -20.5t1 -22.5v-1q1 -8 0.5 -14.5t-1.5 -11.5q-1 -2 -1 -6v-8q1 -27 0.5 -54.5t-0.5 -54.5v-86q0 -8 -0.5 -16.5t-0.5 -16.5q0 -11 -0.5 -21.5t-1.5 -21.5v-2v-17q0 -4 -0.5 -7.5t-0.5 -7.5v-15t1 -13q1 -9 1.5 -18t-0.5 -17v-16t-1 -21l-1 -9
q-1 -19 -1.5 -35t-0.5 -23v-3q0 -14 -3 -32t-22 -23l-2 -1h-3q-5 0 -7 1h-6l-7 8q-3 4 -5 10t-3 20t0.5 37.5t4.5 62.5q0 4 0.5 6.5t0.5 4.5q1 13 1 26v27v3h-2v60q0 7 1 11v7v12q1 3 1 9q0 5 -1 8v2v2v35t1 37q1 13 0.5 26t-0.5 27v1v27q0 15 0.5 29.5t1.5 30.5v18
q1 5 1 9.5v9.5v21v16t1 17v8q0 1 0.5 2t0.5 3v1v2q0 4 1 7q0 5 1 8v21v13q0 13 0.5 26.5t3.5 26.5v3l1 3q1 4 0 9.5t-1.5 11t0.5 10t6 7.5q2 2 5.5 0.5t5.5 0.5q6 4 13 4q11 0 17 -8l2 -1q5 -5 7 -11.5t4 -11.5l2 -4v-2l1 -2q0 -2 2 -8q1 -1 1 -2t1 -2v-2q1 -2 1.5 -3.5
t1.5 -3.5h1q8 -20 15 -41l1 -3q2 -3 2.5 -6t1.5 -5l1 -1q7 -23 16.5 -44t20.5 -41l6 -12q14 -26 26.5 -54t21.5 -57q1 -6 4 -11l2 5q2 6 4 11.5t4 11.5q2 5 4.5 10.5t4.5 11.5q4 11 8 20t8 19q4 7 7 14.5t7 15.5q1 3 3 11q2 3 2.5 6t2.5 6l2 6t2 5q5 14 11 27.5t13 27.5
q11 21 22 52q2 5 3.5 10t3.5 10q2 6 2 8l1 2z" />
    <glyph glyph-name="n" unicode="n" horiz-adv-x="472" 
d="M408 748q0 -22 -1 -44.5t-1 -36.5q-1 -15 -0.5 -31t1.5 -33v-1v-49q0 -75 -0.5 -151t-2.5 -152q-1 -9 -0.5 -18t0.5 -19q1 -9 1 -19v-20v-26v-30v-59v-5q1 -12 1 -21.5t-7 -17.5q-6 -6 -11.5 -7.5t-9.5 -1.5q-10 0 -16.5 5t-10.5 12t-6 14.5t-3 12.5l-18 54
q-5 14 -9.5 28.5t-9.5 28.5q-12 40 -27 81q-8 23 -20.5 52.5t-25.5 58.5q-2 5 -5 10.5t-5 10.5l-8 16t-8 17v1q-6 17 -12.5 31t-13.5 28q-3 7 -6 13t-6 13q-9 20 -18.5 38.5t-19.5 36.5l-14 26t-14 27v1q-8 17 -16 31.5t-16 27.5q0 -12 -0.5 -24t-0.5 -21q-1 -19 0 -40v-23
v-22q1 -6 1 -12v-13q0 -83 -1 -154t-3 -137q0 -8 0.5 -17.5t0.5 -17.5q0 -10 1 -19t0 -19v-2v-9.5t-0.5 -18t-0.5 -22.5v-22v-46v-15v-5q-1 -12 -8 -17t-14 -5h-17l-7 6q-7 8 -8 15.5t-1 14.5v8q0 32 -1 72t1 76q1 9 0.5 18.5t-0.5 20.5v20q-1 10 -1 20v19q0 14 0.5 28.5
t1.5 29.5q0 7 0.5 13.5t0.5 13.5q1 14 1.5 26t0.5 25q0 5 -0.5 9.5t-0.5 9.5v20q0 8 -1 12v13.5t1 13.5v17.5t-1 17.5q-2 20 -1.5 38.5t0.5 37.5v25v33t1 33q0 7 0.5 12t1.5 10q0 5 0.5 10.5t0.5 10.5l1 5v3q0 5 1 12.5t3.5 14t8 11.5t15.5 5q11 0 18.5 -7t9.5 -11
q11 -14 21 -30.5t21 -38.5q4 -5 7 -11l6 -12q12 -21 23.5 -42.5t22.5 -43.5l18 -36q14 -26 27.5 -53.5t24.5 -56.5v-1q3 -6 5.5 -12t5.5 -13q2 -4 6 -14q2 -6 5 -11.5t6 -11.5q5 -8 8.5 -16t7.5 -17q5 -14 11 -28t12 -29q9 -23 18.5 -47t18.5 -47q1 14 0.5 28t-0.5 28v1
q0 5 -0.5 9t-0.5 9v21q0 11 0.5 21t0.5 21q1 5 1 9.5t1 9.5q1 20 1 40.5v40.5v39q0 11 -0.5 21t-0.5 20v37v1q-2 26 -1.5 52t0.5 52v34.5t1 34.5q0 7 0.5 13.5t0.5 13.5q0 6 -1.5 9.5t-1.5 5.5t2.5 4t8.5 4q2 1 9 1.5t15 0.5t15 -0.5t9 -1.5v-42z" />
    <glyph glyph-name="o" unicode="o" horiz-adv-x="409" 
d="M350 471q2 -21 3.5 -43t1.5 -45q0 -66 -3 -133q-1 -19 -4 -36.5t-6 -34.5q-2 -11 -3.5 -22t-3.5 -22q-3 -18 -13 -39t-18 -32q-14 -21 -33.5 -33.5t-31.5 -18.5h-2l-2 -1q-1 0 -2 -1q-4 -1 -11 -3t-21 -4h-1q-20 -3 -42 -3q-41 0 -71 25t-44 72l-2 6q-8 26 -14.5 50.5
t-8.5 52.5q-2 17 -3 34.5t-2 34.5q-1 11 -1.5 23t-1.5 23v3v9l-1 15q-4 66 -6.5 132t2.5 131v1q2 27 7.5 52t14.5 47q10 28 25 43v1q14 19 23 24.5t12 7.5q11 5 28 8.5t29 4.5h2h6q64 0 114 -41q23 -19 33.5 -40.5t20.5 -44.5q1 -2 1.5 -4t2.5 -4v-1q2 -5 3 -9l2 -8
q1 -8 3 -12q10 -24 11.5 -48t2.5 -48v-16.5t1 -16.5zM283 168q4 17 5.5 32.5t3.5 32.5q1 5 1.5 10t1.5 10q2 14 3 28.5t1 31.5q0 8 -0.5 15.5t-0.5 15.5q0 12 -0.5 24.5t0.5 25.5v1v23t-1 25q0 3 -0.5 6.5t-0.5 6.5t-0.5 6t-0.5 6v2q-1 8 -1 16.5t-1 16.5v1q-2 33 -3.5 60
t-6.5 53q-2 7 -4.5 13.5t-5.5 14.5q-1 1 -1 2t-1 2l-1 4q-5 11 -8 20q-3 3 -5 7l-4 4l-1 2q-11 17 -27 31q-9 8 -25.5 15.5t-27.5 9.5q-7 2 -13 2h-11t-15 -0.5t-15 -2.5l-4 -2q-2 -2 -4.5 -4t-5.5 -4l-1 -2q-2 -2 -3 -2q-2 -2 -4.5 -4t-5.5 -4q-19 -34 -23 -56
q-6 -29 -6 -61v-4q-1 -5 -1 -8.5v-7.5q0 -5 -0.5 -8.5t-0.5 -8.5q-1 -5 -1 -16q0 -4 -0.5 -7.5t-0.5 -8.5q-1 -13 0 -25t2 -25q1 -12 2 -23.5t1 -24.5v-1q-1 -16 -1 -31t2 -29q2 -8 2 -16v-16q0 -5 0.5 -10t0.5 -10l1 -9q3 -23 5 -46t1 -49q0 -12 2.5 -25t5.5 -27l3 -15
q20 -91 83 -91q6 0 12 0.5t13 1.5l2 1h1h2q4 0 7 1q5 0 9.5 1t8.5 2q8 3 14 9t13 15l1 1q1 1 1.5 2t2.5 3l2 2q1 3 6 6q0 1 2 3v1q7 11 10.5 25t7.5 31z" />
    <glyph glyph-name="p" unicode="p" horiz-adv-x="373" 
d="M202 788q25 -5 49.5 -16.5t44 -30.5t30 -44t7.5 -57q-4 -39 -28 -76.5t-62 -64.5q-13 -9 -30 -20t-34 -19h-1q-8 -4 -16.5 -7t-16.5 -6q-2 -1 -4 -1.5t-4 -1.5l-10 -4t-11 -4l-1 -1l-12 -4t-13 -5h-1q-2 -1 -3 -1t-2 -1q-11 -3 -18 -6q-1 -2 -0.5 -4t0.5 -4v-2v-2
q1 -2 1 -7v-2q-1 -26 -2.5 -52t-1.5 -52v-45q0 -21 -0.5 -42t-0.5 -42q0 -18 0.5 -36.5t0.5 -36.5v-1v-21q0 -19 -0.5 -34t-10.5 -25q-9 -10 -22 -10h-21l-2 21q-1 11 -1 22v22v2q2 15 0 32v2v85v21q-1 5 -1 10v10v38v31v17v4l1 3q1 11 0.5 23t-1.5 25q-1 22 -0.5 43.5
t1.5 41.5q2 47 0 93v1v18t-1 17v2v25v40t1 40q1 12 1.5 26.5t0.5 30.5v6q0 5 0.5 12t3.5 14t10 12t19 7l2 1h1h3h2h1q4 1 11 1q3 1 8 1h2h13q21 0 40 -2t38 -5h1q2 0 3.5 -0.5t3.5 -0.5h3h3l3 -1h2h1q5 -1 9.5 -1.5t9.5 -1.5h1zM89 744h-10t-10 -1q-1 -11 -2 -22.5t-2 -22.5
q-1 -10 -1.5 -20t-1.5 -19q-1 -41 0 -84q3 -50 3 -97l18 6l4 1q2 1 5 1.5t5 1.5t4 1.5t4 1.5q5 2 8.5 4t8.5 4q14 7 27 11q18 6 37.5 17.5t36.5 27.5t30 35t18 40q4 19 1.5 32t-12.5 32h-1q-9 16 -27.5 23.5t-39.5 13.5q-2 1 -5 1.5t-5 1.5l-6 1q-18 4 -35.5 6t-35.5 2
q-3 1 -6 0.5t-7 0.5h-3z" />
    <glyph glyph-name="q" unicode="q" horiz-adv-x="423" 
d="M358 46v-2q0 -7 -2 -12v-32l-32 17q-6 4 -12 7t-11 7q-2 2 -4 2.5t-4 2.5h-1q-3 2 -6.5 4.5t-6.5 4.5q-9 -8 -19 -14t-21 -10q-5 -3 -13 -5t-25 -5q-20 -3 -42 -3q-40 0 -70 25t-44 71q-9 29 -16 54.5t-9 53.5v1q-2 14 -2.5 28t-1.5 28t-1 28t-2 28l-1 12
q-5 66 -7.5 136.5t2.5 139.5q2 24 7.5 50t14.5 49q5 13 10.5 23.5t12.5 18.5l3 2q1 1 1.5 2t2.5 3q7 8 14 15t16 11h1q10 5 25 7.5t28 4.5q3 1 5.5 1h4.5q31 0 60 -10.5t52 -30.5q23 -19 34 -40t21 -44q1 -2 3 -8q2 -5 3 -9.5t2 -8.5q2 -8 4 -11q9 -24 11 -48t2 -47
q0 -8 0.5 -16.5t0.5 -16.5q1 -9 1.5 -18t1.5 -17q2 -22 3.5 -43.5t1.5 -44.5q0 -65 -3 -132q-1 -18 -4 -35.5t-6 -34.5q-2 -11 -3.5 -21.5t-3.5 -21.5q-2 -13 -8 -27.5t-13 -26.5h1v-1l4 -2l2 -1q11 -6 22.5 -14t14.5 -21zM252 125q4 -2 7 -4l6 -4q6 11 9.5 24t7.5 29l1 5
q4 16 5.5 31.5t3.5 32.5q1 5 1.5 10t1.5 10q3 27 3 59v31q-1 12 -1 24v25v1q2 23 0 47q-1 7 -1.5 13t-0.5 13q-1 5 -1 9v9q-1 5 -1 8.5v7.5v1q-1 5 -1 14q-1 26 -2.5 50t-6.5 47q-2 10 -5.5 18t-6.5 15l-1 3q-2 5 -4 9.5t-4 9.5l-3 3v2q-1 1 -1 1.5t-1 1.5t-1.5 2t-1.5 2
l-1 1q-5 7 -12 15.5t-16 15.5l-1 1q-8 7 -24 15t-27 10q-6 1 -12 1.5t-12 0.5q-8 0 -16.5 -1.5t-14.5 -3.5h-1q-5 -2 -10 -8l-2 -1l-6 -6t-7 -5q-18 -34 -23 -56v-1q-4 -17 -5.5 -33t-1.5 -27v-1q0 -13 -1 -18v-15v-2q0 -4 -0.5 -7.5t-0.5 -7.5t-0.5 -8t-0.5 -8
q0 -12 0.5 -23.5t1.5 -23.5t1.5 -24.5t0.5 -26.5v-10v-26t2 -24l1 -1q1 -8 1 -14.5v-12.5t0.5 -12t0.5 -11l1 -8q3 -23 5 -46t1 -49q0 -13 2.5 -26.5t5.5 -27.5l3 -12q19 -91 82 -91h11.5t11.5 2q2 0 3.5 0.5t3.5 0.5t3 1h1h2q9 1 16 3l1 1h1q2 0 4 2q-17 8 -33 19
q-4 3 -10 7t-10.5 10t-7 13t0.5 15q7 17 24 17q10 0 23.5 -7.5t37.5 -24.5z" />
    <glyph glyph-name="r" unicode="r" horiz-adv-x="413" 
d="M342 45q5 -8 5 -14t-2 -11q-5 -14 -22 -14h-5t-8 2q-14 5 -29.5 21t-35.5 44l-4 6l-1 1l-2 2q-3 5 -7.5 10.5t-9.5 10.5l-1 1q-4 6 -7 9q-3 4 -6.5 8.5t-7.5 9.5q-37 51 -73 87q-4 4 -6 5q-3 2 -7 6q-5 5 -11.5 10t-11.5 12q-3 5 -7 6l-2 2l-14 13l-2 2q0 -8 0.5 -15
t1.5 -14q1 -6 0.5 -11.5t0.5 -10.5q1 -25 0 -52.5t-1 -60.5v-10q0 -7 -1 -10v-7v-1q0 -4 -0.5 -7.5t-0.5 -6.5q0 -7 -0.5 -13t-1.5 -13l1 -2v-4q2 -4 2 -10.5t-6 -14.5t-14.5 -9.5t-16.5 -1.5h-26l1 23q4 55 5.5 112.5t1.5 117.5v66v24v44v1v165q0 18 1 41.5t3 43.5
q2 17 2 29v25v20q0 17 3.5 39.5t21.5 36.5l1 1q10 8 20 9t17 1h17q7 1 13.5 1h13.5q10 0 18 -0.5t13 -1.5h2q14 -2 26 -5.5t26 -7.5q6 -2 8 -2q3 -3 3 -2h1q14 -4 29.5 -10.5t30.5 -20.5v-1q27 -25 38 -59.5t2 -67.5v-1q-5 -22 -11 -36.5t-13 -26.5q-4 -7 -9.5 -14.5
t-12.5 -15.5q-5 -5 -7 -8q-2 -4 -5 -7t-5 -7q-11 -17 -24.5 -31.5t-26.5 -27.5q-19 -19 -35 -38l-1 -1q-8 -11 -16 -18t-15 -13q-4 -4 -6 -5q-3 -3 -5 -4l-17 -17q-1 -2 -4 -5l-17 -17q5 -4 9 -8t9 -8l1 -1q2 -1 6 -5q5 -5 9.5 -9t9.5 -9l5.5 -5.5l4.5 -4.5l1 -1
q9 -8 18.5 -18.5t19.5 -21.5q4 -4 7.5 -8t7.5 -9q10 -11 21 -23.5t22 -24.5l3 -2l1 -3q0 -1 1 -2t2 -3q2 -2 2 -3q2 -2 2 -3h1q6 -5 13 -13t14.5 -17t14 -18t11.5 -16l1 -1q3 -6 7.5 -11.5t9.5 -11.5l6 -7v-1q9 -11 11 -16zM104 419l4 4q3 3 5 4q3 3 5 4l9.5 9.5t8.5 9.5
l1 1q11 14 22 25t21 24q2 2 2.5 3t2.5 2q1 2 1.5 2.5t1.5 2.5l1 1q22 27 42 52t30 55q8 23 5.5 49.5t-19.5 39.5q-27 21 -74 30l-15 3q-9 2 -18.5 3.5t-18.5 1.5q-25 0 -44 -3q-1 -6 -1.5 -13t-0.5 -14q0 -2 -0.5 -4t-0.5 -4v-16q0 -14 -1 -29l-2 -30l-1 -22
q-2 -53 -3.5 -106t-0.5 -107v-1v-8q7 5 13 10.5t11 9.5t8 6.5t6 4.5z" />
    <glyph glyph-name="s" unicode="s" horiz-adv-x="409" 
d="M358 268q1 -25 1.5 -51.5t-7.5 -53.5l-1 -2q0 -2 -2 -8q-3 -14 -6 -26t-8 -23l-2 -4q0 -2 -1 -3v-1q-1 -2 -1 -2.5t-1 -2.5q-4 -10 -9.5 -20t-15.5 -19q-31 -26 -61.5 -39t-65.5 -13h-11q-36 0 -65.5 13t-52.5 33q-5 4 -7.5 7t-5.5 6q0 1 -2 3l-2 2l-1 2q-10 14 -15.5 30
t-8.5 33q-2 6 -2 8q-3 29 11 39l1 1q5 4 14 4t15 -5t9.5 -12.5t5.5 -17t3 -17.5q0 -1 0.5 -1.5t0.5 -1.5q5 -25 21 -41q12 -11 30 -16t32 -8l1 -1q18 -3 32 -3q34 0 60 16q8 5 15 11.5t12 12.5q8 9 12.5 23t7.5 28l1 2q0 4 1 6.5t2 4.5q8 32 10.5 69t-1.5 69q-2 26 -12 49
t-24 39l-1 1q-7 7 -11 10q-1 1 -1.5 1t-1.5 1q-3 2 -6 4.5t-6 7.5q-26 12 -58 25t-70 27l-1 1q-16 5 -35.5 16t-33.5 30q-19 25 -26.5 59.5t-2.5 70.5q2 14 5.5 29.5t11.5 29.5q3 5 5.5 9.5t5.5 9.5v1q2 3 4 7q5 8 9 14.5t10 13.5q8 8 16 13t17 9l13 7q15 8 31.5 12t38.5 4
q8 0 16 -0.5t16 -1.5q9 -1 25 -3t32.5 -8t30.5 -17.5t20 -32.5v-2l-6 -19l-16 -6q-4 0 -13.5 3t-15.5 7q-4 3 -6 6.5t-4 5.5q-7 4 -19 6l-2 1q-11 3 -23.5 5.5t-25.5 2.5h-1q-17 0 -37 -7t-35 -18q-11 -8 -17 -18.5t-14 -22.5l-1 -1l-1 -2q-5 -8 -8.5 -18.5t-5.5 -23.5
q-3 -16 -2.5 -37t12.5 -41q5 -9 12 -15t15 -10h1q20 -11 39.5 -19.5t40.5 -16.5l6 -2l6 -3q1 -1 2 -1h1l5 -2l2 -1q27 -11 59.5 -29.5t54.5 -48.5q11 -15 18 -32.5t11 -34.5t6 -32.5t2 -26.5v-1v-6v-9z" />
    <glyph glyph-name="t" unicode="t" horiz-adv-x="475" 
d="M423 794v-36l-12 -6q-9 -5 -33 -6.5t-84 -2.5q-14 -1 -27.5 -1t-25.5 -1v-19q2 -38 3 -77.5t1 -68.5t-0.5 -55.5t-1.5 -54.5v-8q0 -24 -1 -48.5t-1 -48.5q0 -6 0.5 -12.5t1.5 -12.5q0 -3 0.5 -5.5t0.5 -4.5q0 -5 1 -7v-1v-2q3 -98 0 -251q0 -6 -1 -8v-4v-9
q0 -3 -0.5 -6.5t0.5 -5.5l1 -11l-8 -8q-1 -3 -7 -7q-6 -5 -11.5 -5.5t-7.5 -0.5h-11l-7 9q-8 11 -8 22t1 19v2l1 2v1v1q1 31 1.5 66t0.5 59v51v6.5t-1 8.5v17q-2 57 -3.5 105.5t0.5 99.5v1q1 21 2 53.5t1 70t-0.5 76.5t-2.5 73q-8 -1 -20 -1.5t-26 -1.5l-8 -1
q-5 -1 -10.5 -1t-10.5 -1q-16 -1 -31.5 -2t-27.5 -1q-9 0 -13.5 0.5t-6.5 0.5h-12l-6 12q-2 3 -3.5 6.5t-1.5 8.5q0 2 3 9.5t14 12.5h1q4 2 11 4t18 2h8q3 1 10 1t10 -1q2 0 4.5 0.5t4.5 0.5h8h3q4 1 7.5 1h6.5q7 1 13.5 1t13.5 1l34 3h22h23h22h21q7 1 14 0.5t14 0.5
q14 0 27.5 0.5t24.5 0.5h7h9l2 1h2h12q5 0 14.5 -0.5t17.5 -5.5h13z" />
    <glyph glyph-name="u" unicode="u" horiz-adv-x="419" 
d="M343 559v-38v-18v-32q0 -2 -0.5 -4t-0.5 -3q0 -6 1 -9v-2v-2q0 -26 -0.5 -50.5t-2.5 -49.5v-1q0 -2 -0.5 -5t-0.5 -5q0 -3 -0.5 -6t-0.5 -6q-1 -10 -1.5 -19.5t-0.5 -19.5v-20q0 -19 0.5 -39.5t-2.5 -45.5v-2v-6.5t-1 -7.5v-1v-4q-2 -32 -8.5 -66.5t-33.5 -62.5
q-29 -31 -88 -34h-8q-28 0 -54 11.5t-44 32.5v1q-6 8 -11 15l-10 14q-4 5 -7 9l-6 8q-7 9 -10.5 17.5t-5.5 16.5l-1 2q-2 4 -3 8t-3 9l-1 3q-16 47 -25 107q-3 22 -5 43.5t-2 44.5v32q-1 8 -1 16.5v16.5q-1 54 -1 108.5t4 111.5q2 31 3 66.5t2 58.5l1 29l3 11h46v-12l2 -2
v-75q0 -12 -0.5 -24.5t-1.5 -24.5q0 -6 -0.5 -11.5t-0.5 -11.5q0 -10 -0.5 -21t-1.5 -22v-10t1 -10v-1v-2v-6q1 -4 0.5 -8t-0.5 -9v-14t-1 -15q-2 -41 0 -84v-1q1 -15 1.5 -31t0.5 -32q1 -37 3 -74t11 -72q2 -6 2 -7v-1l3 -8q1 -3 2 -6.5t2 -6.5q1 -4 3 -10l1 -2l1 -4
q2 -9 4.5 -17.5t6.5 -16.5q8 -19 19.5 -35.5t25.5 -27.5h1l6 -5q9 -7 18.5 -11.5t23.5 -4.5h3q19 0 37 10t26 26q8 14 10 29.5t3 33.5v5q1 5 1 9.5t1 9.5q2 18 2 36.5t1 36.5v6q1 17 2.5 34.5t1.5 34.5v4q0 45 2.5 94t2.5 107q0 31 -3 60t-7 52q0 7 -2 17q-1 5 -1 9t-1 8
q-2 12 -4 24.5t-3 25.5q-1 4 -1 7.5v5.5q0 4 -0.5 7t-0.5 8l-1 2l-1 1v2q-2 5 -2.5 11.5t3.5 13.5l1 3l3 3q6 8 22 8h22l1 -20q2 -12 4 -20q0 -2 0.5 -3.5t0.5 -3.5l2 -3v-3q2 -13 3.5 -26.5t3.5 -24.5v-1q5 -32 9.5 -66.5t5.5 -69.5z" />
    <glyph glyph-name="v" unicode="v" horiz-adv-x="376" 
d="M341 773v-2q0 -4 -0.5 -7t-1.5 -7q-1 -1 -1 -4v-1q-1 -3 -3 -7q0 -2 -0.5 -2.5t-0.5 -1.5v-1q-5 -19 -10 -42t-10 -45q-2 -11 -4 -21t-4 -19l-2 -9q-4 -17 -7.5 -33.5t-6.5 -33.5q-2 -12 -4 -20q-1 -2 -1 -4t-1 -4q-1 -5 -1.5 -9t-0.5 -9q0 -18 -6 -36q0 -3 -0.5 -6
t-0.5 -6q-2 -6 -2 -11q-2 -20 -5 -39.5t-7 -39.5l-3 -18q-2 -9 -2.5 -17.5t-2.5 -16.5v-1q-1 -8 -1.5 -17t-1.5 -17l-1 -4q0 -3 -0.5 -6.5t-0.5 -7.5q-1 -6 -1.5 -12.5t-2.5 -13.5v-4v-2q-5 -27 -9.5 -54t-9.5 -54h-1q0 -5 -2 -13l-2 -14t-4 -15q-2 -4 -2 -11
q-2 -9 -4.5 -18.5t-6.5 -17.5t-11 -13.5t-17 -5.5q-13 0 -23 11h-1q-11 12 -15.5 28t-6.5 30v4l-2 6q-3 16 -6 30.5t-5 30.5q0 4 -2 12q-1 4 -1 6.5t-1 5.5v1q-3 14 -5 26t-3 23v2q-2 11 -3.5 23t-3.5 23v2q0 3 -2 11q0 4 -0.5 7t-0.5 6q-2 12 -3 23t-3 22q-2 8 -3 17l-2 18
q-2 9 -2.5 18t-2.5 17l-12 59l-1 8q-2 8 -3 11q0 4 -2 10q-4 12 -5 27q-3 14 -6.5 27.5t-6.5 26.5q-2 12 -4 19q-2 9 -4 18.5t-4 20.5q-5 20 -10.5 41t-10.5 41q-1 4 -2 7t-1 5q-7 14 -3 27q3 9 12 15.5t20 6.5h14l6 -13q5 -13 6 -21q2 -6 2 -8l1 -2v-2l3 -15l1 -4
q7 -25 13 -50.5t11 -50.5l9 -39v-2q0 -2 0.5 -3t0.5 -3q2 -6 2 -10l1 -3q9 -35 17 -81t16 -94l1 -6l1 -11q5 -35 9.5 -70t11.5 -70q2 -7 3 -15t3 -18q2 -8 3 -15t3 -14q1 1 1 3q1 4 1.5 8t1.5 8t1 8t2 9v1q2 7 3 13.5t2 13.5l1 5q7 35 11.5 71t9.5 71v1l1 10q7 48 14.5 95.5
t17.5 95.5l1 4q1 3 1 8q1 2 1 6v2l2 10q7 34 14.5 68.5t15.5 69.5q2 4 2 8q2 8 3 13q2 8 3.5 15t3.5 15l5 15h16q11 0 20.5 -7t11.5 -17z" />
    <glyph glyph-name="w" unicode="w" horiz-adv-x="648" 
d="M592 780q2 -4 3 -10.5t-2 -16.5q-2 -8 -2 -15q-1 -2 -1 -5v-2l-1 -1q0 -6 -2 -16q0 -2 -0.5 -3t-0.5 -2v-2v-2q-2 -6 -4 -16q0 -2 -2 -10v-5q-5 -24 -9 -47t-9 -54l-1 -3q-2 -8 -2.5 -15t-1.5 -15v-2l-1 -4q-2 -19 -6 -38q-8 -32 -14 -65t-11 -65l-1 -11q-2 -6 -2.5 -13
t-2.5 -14v-2q-1 -4 -1.5 -8t-1.5 -8t-1.5 -8t-1.5 -8q-2 -13 -4.5 -25t-5.5 -24q-1 -3 -1.5 -5.5t-1.5 -5.5q-2 -7 -3.5 -15t-4.5 -18q-1 -2 -1 -4.5t-1 -5.5q-1 -2 -1 -5t-1 -6q-2 -8 -3.5 -16.5t-3.5 -16.5q-1 -2 -1 -4.5t-1 -5.5t-1.5 -5.5t-0.5 -5.5q-2 -6 -3 -14.5
t-4 -17.5v-2q-2 -4 -2 -5q-1 -2 -1.5 -4t-1.5 -4q-1 -3 -1.5 -5.5t-1.5 -5.5q-3 -9 -4 -19v-1q-1 -2 -1 -3.5t-1 -3.5q0 -2 -0.5 -3t-0.5 -3l-1 -1q-9 -39 -35 -39q-4 0 -9 1.5t-10 6.5q-4 3 -6 6t-3 5l-1 1l-1 2l-1 4q-1 2 -1.5 3.5t-1.5 2.5l-3 3l-2 3q-17 39 -30 78
q-1 4 -2 7t-3 7l-22 62q-5 14 -9.5 28t-9.5 28q-2 5 -3.5 9.5t-3.5 9.5l-4 10l-4 10l-2 4q0 -5 -2 -13q-3 -8 -3 -14q-1 -2 -1 -4.5t-1 -4.5q-2 -12 -6 -29l-2 -4q-5 -17 -10 -36t-10 -42q-1 -5 -1.5 -8.5t-1.5 -7.5l-2 -10l-2 -10l-6 -30q-1 -4 -1 -8v-8v-2
q-1 -11 -3 -22.5t-10 -22.5l-1 -1l-1 -1q-3 -3 -8.5 -7t-14.5 -4q-20 0 -29.5 20t-14.5 40v1q-1 2 -1 3t-1 2v2q-2 3 -2.5 6t-2.5 6q-2 5 -4 10.5t-4 11.5l-3 9q0 3 -2 7v2q-2 5 -3.5 11t-3.5 12q-19 57 -35 120.5t-30 132.5q-3 13 -6 25v2l-1 1q-2 7 -3 14t-3 14l-6 30
q-5 28 -9.5 54.5t-9.5 51.5q-7 37 -13.5 71.5t-12.5 69.5v2v1q-1 1 -1 2.5t-1 3.5q-2 8 -4 20t4 23q8 16 24 16t24 -17l2 -3v-3q1 -4 1.5 -7.5t1.5 -8.5q2 -6 4 -16l3 -12q2 -7 3.5 -14t2.5 -15l1 -2q1 -6 1.5 -12t1.5 -11v-2q2 -12 4 -23t5 -25q5 -25 9.5 -50t9.5 -51
l3 -14q2 -8 3 -15.5t3 -15.5q1 -5 1.5 -8.5t1.5 -8.5q3 -19 6 -37t7 -35q2 -5 4 -13v-1q2 -5 2.5 -8.5t2.5 -8.5q1 -3 1.5 -6.5t1.5 -6.5v-1q5 -17 8.5 -32t7.5 -29q2 -7 4 -17l6 -21l1 -1q5 -18 8.5 -35.5t11.5 -34.5q2 -5 3.5 -11.5t3.5 -11.5l1 -3q1 -3 1.5 -6.5
t1.5 -6.5q0 -3 2 -7q13 59 21.5 96.5t13.5 59.5t7 31t2 12v2l1 2l1 2q0 4 1 7q3 17 7 37.5t19 31.5q11 8 20.5 5.5t16 -10t11.5 -18t7 -19.5q0 -1 0.5 -1.5t0.5 -1.5q0 -2 1 -2v-1l1 -2q4 -14 9 -26.5t10 -25.5t8.5 -24t5.5 -21q2 -6 4.5 -13t4.5 -14q2 -3 2.5 -6t2.5 -5v-1
v-1l3 -6q2 -6 4 -11.5t3 -10.5l1 -1q1 -8 6 -18v-2q5 -11 8 -20q4 -10 7.5 -20t7.5 -19v-1q1 -1 1 -2t1 -2q0 2 0.5 3t0.5 3v2q1 2 1 4t1 4q0 2 0.5 4t0.5 4q3 15 6 29.5t7 28.5q1 9 5 22q4 17 7.5 35t7.5 35v2q4 20 8 39.5t9 39.5q2 13 4.5 25.5t4.5 24.5t4.5 24.5
t4.5 24.5q3 17 6 33t5 32l2 9q4 24 8 48.5t9 48.5q3 16 5.5 32t4.5 32q2 15 3.5 28.5t5.5 27.5l1 3q2 12 4 17t8 13l7 9h12q12 0 22 -10l2 -2z" />
    <glyph glyph-name="x" unicode="x" horiz-adv-x="451" 
d="M366 66q1 -4 3 -10q3 -6 5.5 -14.5t-2.5 -21.5q-5 -16 -14.5 -17.5t-19 5.5t-17.5 18.5t-11 21.5l-1 2v2l-2 3l-1 2q-3 10 -7 19.5t-8 18.5q-8 20 -16 39l-16 38q-2 7 -5 13.5t-6 13.5q-5 9 -9 18.5t-7 19.5q-1 1 -1 3q-1 1 -1 2t-1 2q-2 4 -3.5 8t-3.5 9q-2 6 -5 12
t-5 12l-1 1q-2 7 -5 13t-5 13l-9 24q-2 -6 -5 -12t-5 -12q-2 -7 -5 -13t-5 -13v-1l-6 -12t-5 -13q-2 -4 -3.5 -8t-3.5 -8q-1 -1 -1 -2t-1 -2q0 -2 -1 -3q-3 -9 -6.5 -17.5t-6.5 -16.5q-4 -8 -7 -15t-6 -15q-5 -14 -10.5 -26.5t-10.5 -25.5q-3 -7 -5.5 -13t-4.5 -12l-1 -1
q-2 -3 -3 -6.5t-3 -6.5q-3 -7 -5.5 -13t-4.5 -12l-1 -3l-1 -2q-1 0 -1 -2l-1 -2q-2 -8 -10 -19t-18 -18.5t-19.5 -7t-14.5 16.5q-5 13 -2.5 21.5t5.5 14.5q2 6 4 10v2l1 1q2 4 5 8l2 4l2 4q1 3 2 6.5t4 8.5v1q3 5 7 11t6 13q5 13 10 25.5t10 24.5q5 13 10 25.5t10 25.5
q16 39 32 77.5t32 76.5q3 7 6 13.5t6 14.5q-5 14 -10.5 27t-12.5 25q-10 18 -19 38.5t-17 39.5q-4 11 -9 20.5t-10 20.5t-11 23.5t-11 24.5q-3 9 -6.5 16.5t-6.5 15.5q-11 25 -18.5 47t-18.5 51q-1 4 -2 6.5t-2 6.5l-3 10l7 9q8 11 21 13h3q15 0 22.5 -13.5t12.5 -29.5
q2 -4 2 -6l2 -4l1 -2q7 -17 11.5 -30t9.5 -24q8 -20 14.5 -36t14.5 -35l30 -69q8 -20 17 -39.5t18 -39.5q15 36 31 72.5t33 74.5q8 20 15 36t15 36q4 11 8.5 23.5t12.5 29.5q1 2 1 3t1 2q0 2 0.5 2.5t0.5 1.5v2l1 1q5 17 12.5 30.5t22.5 13.5h2q12 0 23 -13l6 -9l-3 -10
q-1 -4 -2 -6.5t-2 -6.5q-11 -29 -18.5 -51t-18.5 -47q-3 -8 -6.5 -15.5t-6.5 -16.5q-5 -12 -11 -24.5t-11 -23.5q-10 -20 -19 -41q-8 -19 -16.5 -39.5t-19.5 -38.5q-7 -12 -12 -25t-11 -27q3 -8 6 -14.5t6 -13.5q16 -38 32 -76.5t32 -77.5q5 -13 10 -25.5t10 -25.5
q5 -12 10 -24.5t10 -25.5q2 -7 6 -13t7 -11v-1q3 -5 4 -8.5t2 -6.5l2 -4l2 -4q3 -4 5 -8l1 -1z" />
    <glyph glyph-name="y" unicode="y" horiz-adv-x="463" 
d="M413 795q8 -10 8 -27l-1 -4q-1 -2 -1.5 -3.5t-1.5 -3.5l-1 -1v-2l-1 -1q-1 -1 -1 -2t-1 -2q-2 -5 -5 -10q-5 -12 -8 -18q-1 -1 -3 -5l-1 -2q-1 -3 -3 -7v-2l-1 -2q-2 -5 -4.5 -10.5t-5.5 -11.5q-2 -2 -2 -3t-1 -3q-2 -2 -2.5 -4.5t-2.5 -4.5v-1q-8 -14 -16 -34l-6 -12
q-5 -11 -10.5 -20.5t-11.5 -19.5q-3 -5 -5.5 -9.5t-5.5 -9.5l-1 -4q-7 -13 -14.5 -26.5t-15.5 -26.5q-8 -14 -12.5 -29.5t-12.5 -29.5q-8 -11 -15 -21.5t-13 -24.5l-6 -15q-10 -25 -22 -47q-4 -8 -7.5 -15.5t-6.5 -15.5q-4 -8 -8 -15.5t-9 -14.5q-3 -6 -6.5 -11.5
t-5.5 -11.5q-23 -55 -50 -109t-56 -108q-3 -11 -11 -20t-16.5 -11.5t-17 2.5t-12.5 21q-5 19 3.5 35t17.5 30q3 4 5.5 8t4.5 7q8 17 17.5 37t20.5 42q3 7 6.5 13.5t6.5 12.5q10 20 19.5 40.5t20.5 40.5q2 4 4 7.5t4 7.5q5 10 10.5 19.5t10.5 19.5l3 7q12 21 21 42l1 1l1 3
q7 16 13.5 32.5t14.5 31.5l5 9q-5 9 -10.5 18.5t-10.5 18.5q-3 7 -6.5 13.5t-6.5 12.5h-2l-6 12q-2 4 -4 7.5t-4 7.5t-4 6q-2 3 -3.5 6.5t-3.5 6.5q-8 12 -16 28v1l-18 36q-2 3 -3.5 6.5t-3.5 6.5l-8 17q-2 5 -4 9t-4 9q-2 2 -2 4v1q-2 3 -3 5.5t-2 4.5l-2 4l-1 1l-1 2
q-6 10 -9 20q-2 4 -4 7.5t-4 7.5l-1 1v2l-3 3q-4 5 -5.5 8l-2.5 5t-2 2q-3 5 0 9.5t9 8t12 5.5l9 3q17 4 23.5 -4t11.5 -23l1 -1q0 -2 1 -4l2 -4l22 -43q5 -11 10.5 -21.5t10.5 -20.5h1q11 -22 21.5 -41t19.5 -36t18.5 -34t19.5 -36q5 11 10 20.5t10 20.5q5 9 10 18.5
t10 19.5q8 14 15 27.5t14 27.5q2 5 5 9t5 9t4.5 10t4.5 10q4 10 10 20v1q4 7 7.5 13.5t6.5 14.5q2 3 3.5 6.5t3.5 6.5l1 2q0 2 1 3v2h1q8 23 23 28.5t25 -5.5z" />
    <glyph glyph-name="z" unicode="z" horiz-adv-x="466" 
d="M414 763q4 -11 2 -21.5t-7 -17.5q-2 -2 -4 -6q-6 -11 -16 -22q-8 -11 -17.5 -26.5t-19.5 -32.5q-9 -17 -18 -32.5t-18 -26.5q-5 -12 -10.5 -22t-10.5 -19q-1 -1 -3 -5l-2 -4l-2 -4q-2 -3 -4 -7q-2 -2 -2 -4l-1 -1q-1 -2 -2 -3t-2 -3l-6 -10t-5 -10q-3 -8 -8 -16
q-3 -7 -6 -13l-6 -12l-2 -4l-2 -4l-1 -1l-14 -26q-27 -49 -52 -100.5t-50 -105.5v-2l-6 -10l-1 -4q-14 -35 -21.5 -56t-9.5 -26v-1q-3 -11 -7 -21t-9 -21h10q18 5 39 7.5t46 5.5q14 2 27 3l26 2h1h10h2q8 -1 16 0q17 4 34.5 4h34.5h18q5 0 10.5 0.5t10.5 0.5q6 0 11.5 -0.5
t10.5 -1.5l25 -4l-8 -24q-2 -5 -9 -14.5t-27 -9.5h-7h-4q-11 -1 -20.5 -0.5t-18.5 -0.5q-29 -1 -60 -1t-59 -5q-5 -1 -8.5 -1h-6.5q-4 0 -13 -1.5t-20 -3l-22 -3t-20 -2.5q-5 -1 -9 -1.5t-6 -0.5q-10 -2 -19 -3t-17 -2q-1 0 -2 -0.5t-2 -0.5q-5 -1 -9.5 -2t-9.5 -1
q-9 0 -15 3t-11.5 12t0.5 23q2 5 3 9t3 8q2 2 4 8v1q6 17 13 33t13 32q6 17 12.5 33t13.5 33l10 22q4 11 9.5 23t11.5 25v2l1 1l1 2q2 4 4 7q5 6 6 13l3 11l4 2q10 23 20.5 44t22.5 44q3 5 5.5 9t4.5 9l1 1l5 10q5 6 8 12.5t7 14.5q3 7 7 13.5t8 14.5q2 3 2.5 5.5t2.5 4.5
l2 4l2 4v1q9 19 20 37q2 3 2.5 5.5t2.5 5.5l1 2q2 5 4.5 9t4.5 8t3 5q0 2 2 4l1 3l1 1q3 3 7 13q8 14 20 33.5t23 38.5q6 10 11.5 18.5t9.5 16.5l1 1q10 14 23 37q-35 4 -71.5 7t-73.5 5q-7 0 -9 1h-4h-1q-2 0 -6.5 0.5t-15 0.5h-28.5h-46q-10 0 -20 -0.5t-20 0.5h-1
q-2 0 -4 -0.5t-4 -0.5q-14 0 -24 10q-7 7 -7 20q1 8 8 16.5t31 8.5q13 0 18 -1h3h38h37q23 0 46 -1t46 -3q5 0 7 -1h1h3h2q5 -2 8.5 -2h8.5l11 1l2 -3q26 -1 50.5 -3.5t50.5 -5.5l8 -1q12 -2 18 -11l10 -1z" />
    <glyph glyph-name="braceleft" unicode="{" horiz-adv-x="262" 
d="M107 682q-11 -15 -22.5 -38.5t-9.5 -55.5q2 -19 8 -37t16 -38q5 -11 8.5 -19t5.5 -15q1 -1 1 -1.5t1 -1.5q0 -2 1 -2l1 -4v-1q4 -7 6.5 -16t0.5 -17t-7.5 -11.5t-8.5 -5.5q-1 0 -1 -1l-4 -2h-2l-6 -3h2l1 -1q9 -1 18.5 -2.5t17.5 -6.5q13 -6 11 -18.5t-6 -24.5
q-4 -14 -10.5 -26.5t-13.5 -25.5l-4 -7q-10 -17 -18 -35t-10 -39q-3 -32 3 -59.5t17 -49t26.5 -38t31.5 -26.5q1 -1 2 -1q0 -1 2 -1q1 0 1 -1h2l2 -1q5 -3 9 -6t7 -8l2 -3v-6q0 -2 -0.5 -6t-4.5 -9l-1 -2l-1 -1q-4 -3 -7.5 -5.5t-8.5 -3.5l-3 -1l-4 1q-6 1 -13.5 5.5
t-21.5 15.5l-4 4h-1l-1 1q-1 1 -2 1l-2 1l-1 2q-22 18 -34.5 36.5t-23.5 50.5q-8 23 -14 50.5t-3 64.5q2 27 11 49.5t20 39.5l1 1q2 3 6 11q1 1 1 2t1 2q2 5 5 10.5t6 10.5l2 4l2 2q0 1 1 2q-1 0 -2 0.5t-2 0.5q-2 1 -5 1q-11 3 -19 3h-2h-2q-1 1 -3 1q-4 0 -6 1h-7
q-2 0 -2.5 0.5t-2.5 0.5h-7q-4 0 -11 1t-13 8q-3 5 -4 9t-1 6v3l1 3q3 8 9.5 13t14.5 10q2 1 3.5 2t3.5 2q3 2 6.5 4.5t6.5 4.5q2 1 3.5 1.5t3.5 2.5l2 1h2q0 -1 3 2t5 3q2 2 3 2v2h2q-3 11 -7 20t-8 17q-9 19 -15.5 36.5t-9.5 37.5q-2 15 -2 31.5t3 33.5q11 49 45 89l1 1
q6 7 13 14t15 14l1 1q1 1 2.5 2t3.5 3t3.5 3t3.5 3l11 11t12 11h1q5 4 10.5 8.5t11.5 7t12 1.5t12 -7l8 -8l-4 -11q-4 -10 -11 -15t-13 -10l-10 -7q-17 -14 -30.5 -29t-24.5 -30z" />
    <glyph glyph-name="bar" unicode="|" horiz-adv-x="133" 
d="M48 835l4 -9q2 -10 2 -15q3 -17 4.5 -38.5t2.5 -44.5t0.5 -46.5t-1.5 -43.5q-2 -22 -1.5 -44.5t0.5 -43.5q1 -19 1.5 -39.5t-1.5 -40.5v-1q-2 -14 -1.5 -29t1.5 -29v-17q1 -4 1 -14q1 -8 1 -16.5v-17.5v-25q1 -6 1 -12v-13q0 -8 0.5 -14.5t0.5 -13.5q0 -4 0.5 -7.5
t0.5 -6.5v-1v-8q0 -5 0.5 -18.5t0.5 -29.5v-29.5v-17.5q0 -8 -0.5 -14.5t0.5 -12.5q2 -18 2 -35.5v-34.5v-8v-10t1 -10v-19v-1v-8q2 -13 -0.5 -28.5t-14.5 -23.5q-9 -6 -16.5 -4t-12.5 7.5t-8 14t-3 16.5v9q-1 5 1 15v3v2q0 3 -0.5 7.5t0.5 10.5q3 14 2 24q-1 19 -2 37.5
t-2 37.5v12.5t-1 13.5q-2 52 -3 113t-1 122.5v119.5v103q0 14 -0.5 26.5t-0.5 23.5v11t-1 12q0 6 -0.5 19t-1 27t-0.5 26.5v19.5q0 4 -2 12v1v4q-1 12 0.5 27.5t16.5 20.5q6 2 11 1.5t10 -2.5z" />
    <glyph glyph-name="braceright" unicode="}" horiz-adv-x="252" 
d="M97 682q-11 15 -24 30t-31 29l-10 7q-6 5 -13 10t-10 15l-5 11l9 8q6 6 12 7t11.5 -1.5t11 -7t10.5 -8.5h1q7 -5 12.5 -11t10.5 -11q3 -2 7 -6q2 -2 3.5 -3t3.5 -2l1 -1q8 -7 14.5 -14t13.5 -14v-1q18 -20 29 -43t16 -46q4 -17 3.5 -33.5t-2.5 -31.5q-3 -20 -9.5 -37.5
t-15.5 -36.5q-4 -8 -8 -17t-7 -20h2v-2q1 0 3 -2q3 0 6 -3q1 -1 1.5 -1t1.5 -1h2l1 -1q3 -2 7 -4q3 -2 6.5 -4.5t7.5 -4.5t6 -4q8 -5 14.5 -10t9.5 -13l1 -3v-3q0 -2 -0.5 -6t-4.5 -9q-6 -7 -13 -8t-11 -1h-7q-1 0 -2 -0.5t-3 -0.5h-6q-3 -1 -6 -1t-4 -1h-2h-2q-9 0 -19 -3
q-3 0 -5 -1q-1 0 -1.5 -0.5t-1.5 -0.5q0 -1 1 -2l1 -2l2 -4q3 -5 6 -10.5t5 -10.5q2 -2 2 -4q4 -8 6 -11l1 -1q11 -17 20.5 -39.5t11.5 -49.5q3 -37 -3 -64.5t-14 -50.5h-1q-11 -32 -23.5 -50.5t-33.5 -36.5l-2 -2l-2 -1q-1 -1 -2 -1l-1 -1h-1q-1 -1 -1.5 -2t-2.5 -2
q-14 -11 -21.5 -15.5t-13.5 -5.5l-3 -1l-4 1q-5 1 -8.5 3.5t-7.5 5.5l-1 1l-1 2q-4 5 -4.5 9t-0.5 6v6l2 3q3 5 7 8t9 6l2 1h2q1 0 3 2q2 0 2 1q16 10 31.5 26.5t26.5 38t17 49t3 59.5q-2 21 -10 39t-18 35l-4 7q-7 13 -13 25.5t-11 26.5q-4 12 -6 24.5t11 18.5q9 5 18 6.5
t18 2.5l1 1h3l-6 3h-1h-1l-4 2q-1 1 -2 1q-2 2 -7.5 5.5t-8.5 11.5q-2 8 0.5 17t6.5 16v1l2 4q0 1 1 2q0 2 1 3q3 7 6.5 15t8.5 19q9 20 15 38t8 37q2 32 -9 55.5t-22 38.5h-1z" />
    <glyph glyph-name="asciitilde" unicode="~" horiz-adv-x="560" 
d="M473 439q2 -15 -3 -25.5t-11 -18.5q0 -1 -2 -3q0 -2 -1 -2l-1 -2q-7 -13 -17.5 -20.5t-22.5 -14.5q-31 -20 -66 -20h-3q-31 0 -66 11q-24 9 -46 21.5t-39 29.5q-2 2 -5 4.5t-5 4.5l-3 3q-8 8 -14 12.5t-14 6.5h-1l-2 1q-8 2 -16 2q-28 0 -45 -14l-12 -10q-4 -4 -7.5 -7
t-7.5 -6l-10.5 -7t-15.5 -5t-13.5 4t-7.5 9q-3 4 -3 11q0 8 5.5 15t13.5 15l1 1q14 14 31.5 26.5t42.5 17.5q13 3 27 3q36 0 63 -18v-1q6 -4 11 -8.5t10 -9.5q2 -2 3 -4l3.5 -3.5t3.5 -2.5l2 -1q2 -2 5.5 -4.5t10.5 -6.5l11 -6v-1l1 -1l2 -1q5 -5 10 -6q3 -2 5.5 -2.5
t4.5 -2.5q1 0 1 -0.5t1 -0.5l1 -1h2q2 -2 4 -2l1 -1q3 -1 5.5 -2t5.5 -2q2 -1 8 -3q2 0 3 -1q8 -2 16 -3.5t15 -1.5h5l2 -1q21 2 43 16q8 5 11.5 8.5l5.5 5.5q2 4 5.5 10t6.5 12q2 6 10 16l9 6l4 2h5q10 0 16 -6t7 -15z" />
    <glyph glyph-name="uni00A0" unicode="&#xa0;" 
 />
    <glyph glyph-name="exclamdown" unicode="&#xa1;" horiz-adv-x="138" 
d="M64 -170l-1 -1l-2 -2q-2 -2 -6.5 -4.5t-12.5 -2.5q-4 0 -10 2h-17v22q0 69 -5 150.5t-6 191.5q0 23 -0.5 46.5t-1.5 48.5q-1 38 -1 72v64q0 7 -1 11v1v1q-2 26 -1 42.5t9 26.5q8 11 21 11q5 0 11 -2h7l6 -11q5 -8 5 -18.5t-2 -22.5q-1 -2 -1 -6v-1q-4 -36 -3 -76t3 -78
l2 -76t1 -76v-5q2 -65 3 -130t8 -129q1 -3 1 -5.5v-4.5q2 -8 2 -18t-8 -21zM59 560q-1 -1 -1 -2t-2 -3l-2 -4l-2 -1l-1 -1q-5 -9 -14 -10h-4q-13 0 -22 12v1q-9 13 -8 31.5t12 29.5q7 7 17 7q13 0 21.5 -11.5t8.5 -28.5q0 -11 -3 -20z" />
    <glyph glyph-name="cent" unicode="&#xa2;" horiz-adv-x="398" 
d="M342 288q1 -12 -5 -23.5t-7 -12.5l-1 -2q-17 -22 -50 -31t-67 -14q0 -24 1 -52t3 -57q2 -17 2.5 -34.5t1.5 -33.5v-9v-10l-8 -7q-10 -7 -19 -7t-14 4.5t-7.5 11.5t-3.5 15t-1 15v6v2l-2 13q0 5 -0.5 9.5t-0.5 9.5q-2 26 -5 53.5t-1 43.5v2q1 3 1 10v15h-6h-2q-5 0 -7 1
q-8 0 -16.5 1t-16.5 4q-56 18 -87 82q-28 60 -21 133.5t45 136.5q16 26 41 48q11 8 23 14.5t22 9.5l3 1h1q2 0 2.5 0.5t1.5 0.5v16.5t-1 16.5q-1 20 -1 42v43v20l53 5v-25q0 -28 0.5 -56.5t1.5 -58.5l16 -4l16 -4q10 -3 20.5 -7.5t24.5 -12.5q20 -13 29.5 -24.5t11.5 -22.5
q3 -19 -12 -28l-5 -4h-12l-3 2q-8 2 -13 7t-9 10q-1 2 -2 2.5t-2 1.5q-2 2 -2.5 3t-2.5 2q-17 14 -32.5 19t-41.5 5h-3q-2 -1 -7 -1q-6 0 -14 -2t-13 -4q-23 -11 -40 -34.5t-28 -57.5q-23 -73 -9 -132q22 -97 101 -97h23q28 0 67 13q4 3 10 3v1q12 3 18 7l1 1h1l5 5
q4 6 11 13.5t19 7.5h2q8 0 14.5 -6t7.5 -14z" />
    <glyph glyph-name="sterling" unicode="&#xa3;" horiz-adv-x="440" 
d="M402 214v-13l-1 -4q-2 -6 -8.5 -15t-14 -17.5t-13 -15l-5.5 -6.5h-1q-22 -21 -52.5 -34t-68.5 -20q-11 -2 -22.5 -3t-22.5 -2q-32 -2 -60 -7.5t-41 -25.5v-2l-1 -4q-1 -4 -2.5 -9t-6.5 -10q-3 -3 -12 -7.5t-17 -4.5h-23v26l1 2q4 18 9 30q8 20 22 31t31 19q7 4 19.5 7
t24.5 6q-2 20 -3 40.5t-3 48.5q-1 5 -1 9v9q0 7 -0.5 14t-1.5 13v1l-3 38q0 6 -1 10v11q-1 3 -1 10h-9l-2 -1q-8 -1 -15 -1t-13 -2q-3 -2 -6 -3.5l-7 -3.5l-6 -3q-5 -3 -11 -5.5t-13 -4.5l-16 -5l-23 37l14 13q18 16 45 24.5t58 9.5q0 35 -3 71q-2 35 -2.5 69.5t1.5 68.5
q1 19 5 42t10 46t14 45t19 39q25 39 68 39q12 0 24 -4q21 -6 32 -18t17 -22q1 -1 1 -1.5t1 -1.5t1 -1.5t1 -1.5l2 -2l3 -5l12 -26l-67 -14v22v1q-6 9 -14 15.5t-13 6.5q-2 0 -5 -1q-7 -3 -13 -11t-10.5 -16.5t-8 -17t-4.5 -12.5v-1q-15 -40 -18 -87t-2 -92q1 -13 1 -25.5
t1 -26.5q0 -13 0.5 -25.5t0.5 -23.5q1 -6 1 -12v-11q0 -7 1 -11q5 0 13.5 -0.5t19.5 -1.5q23 -2 32.5 -3t11.5 -1q17 0 31 6l1 1h2q1 0 1.5 0.5t1.5 0.5q2 1 4 1.5t4 1.5l17 4l20 -39l-14 -14l-2 -2q-22 -13 -60 -14h-1h-3q-2 -1 -8 -1q-12 0 -23 1t-22 3h-2q-5 1 -9.5 1.5
t-9.5 0.5q1 -13 1.5 -26t1.5 -27l1 -10q1 -10 1 -19.5t1 -19.5q0 -8 0.5 -15.5t0.5 -15.5l1 -5q1 -9 1 -17.5v-16.5q1 -14 3 -22q45 5 84 17.5t64 44.5l1 2q1 0 1 1q14 25 33 25q4 0 9.5 -2t11.5 -7z" />
    <glyph glyph-name="currency" unicode="&#xa4;" horiz-adv-x="434" 
d="M358 148q8 -13 10 -17.5t2 -9.5v-8l-4 -4q-8 -15 -26 -15q-12 0 -21 9l-3 2l-1 3q0 1 -1 1q-1 2 -3 8l-2 3l-4 6t-5 7q-1 2 -5 8l-1 1q-8 12 -15.5 24.5t-15.5 24.5q-28 -16 -56 -17h-5h-6h-1q-5 0 -8 1h-4q-6 0 -8 1h-1h-1q-11 2 -20.5 4.5t-19.5 7.5q-6 3 -10 7
q-4 -5 -7.5 -9.5t-6.5 -9.5t-6 -8.5t-6 -8.5q-23 -32 -31 -49l-2 -3l-2 -3q-6 -5 -13 -6q-2 -1 -5.5 -2t-7.5 -1q-9 0 -16.5 8.5t-6.5 18.5q1 11 6.5 19.5t11.5 17.5q0 2 2 4l1 3l2 1q0 1 2 3q1 4 6 10q2 1 2.5 2t1.5 2l4 4q0 1 2 3l1 1q2 3 4.5 6.5t4.5 7.5q2 2 3 4
q2 2 3 5t3 5l3.5 7t3.5 6q1 1 1.5 2t1.5 2l1 2l2 3l-2 2l-1 1q-2 4 -5.5 10.5t-5.5 12.5l-3 9q-5 18 -10 35t-7 37q-2 19 -1.5 37t2.5 37v1q1 12 4 20l6 16q1 2 2 5t2 5l1 2l3 7l2 2q-1 1 -2 2.5t-3 3.5t-3 3.5t-2 3.5q-2 2 -2 3h-1q-6 10 -13 19v1q-5 7 -9.5 14t-10.5 15
q-2 1 -2.5 2t-2.5 3v1q-5 7 -10 14.5t-3 18.5t9 16t15 5q12 0 21.5 -9t11.5 -13q3 -3 7 -9q2 -2 3 -3.5t3 -3.5v-1q11 -14 19.5 -25t16.5 -21q13 7 27.5 12.5t30.5 7.5h2h1q1 0 1.5 0.5t2.5 0.5h9q22 0 40.5 -5.5t34.5 -11.5q7 8 14 20t14 23l2 6q2 3 3.5 6t3.5 5l2 3v1
q1 0 1 1l1 2q1 1 1.5 3t2.5 4q0 1 2 5q2 5 5.5 10.5t12.5 8.5l3 2h7q9 0 15 -4.5t8 -5.5l5 -5l1 -7v-7.5t-3 -12.5t-10 -21t-22 -33l-12 -18q-1 -5 -5 -9q-4 -5 -5.5 -9t-2.5 -6v-1l4 -3v-7q2 -4 2.5 -7.5t2.5 -7.5q7 -19 12 -38q4 -16 6.5 -31.5t4.5 -32.5v-3l-1 -5
q-1 -5 -1 -8.5v-7.5v-2v-1q-1 -2 -1 -4.5t-1 -4.5q-2 -11 -3.5 -22.5t-6.5 -22.5q-3 -9 -7 -18t-10 -18l-1 -2q-2 -4 -3 -5q7 -15 15.5 -30t18.5 -29q2 -4 8 -12q2 -3 3.5 -5.5t3.5 -4.5l1 -2l1 -2zM265 273q18 36 18 61q0 15 -1.5 38t-7 46t-16.5 41t-30 24h-2
q-7 2 -15.5 3t-15.5 1h-5q-26 0 -40 -8t-26 -26q-6 -9 -9.5 -15t-5.5 -16q0 -2 -1 -3v-4q-5 -14 -4 -27v-2q1 -14 3.5 -29.5t5.5 -31t8 -28.5t11 -22l9 -12l14 -18t15 -12q9 -5 25 -5q9 0 20 3l1 1q34 10 49 41z" />
    <glyph glyph-name="yen" unicode="&#xa5;" horiz-adv-x="489" 
d="M394 442q-35 2 -74.5 3t-91.5 1q0 -20 -0.5 -39.5t0.5 -39.5h1h41.5t35.5 -2q8 -1 17 -1h19h27t27 -2h20v-52l-22 1q-35 2 -74.5 3t-91.5 1q0 -70 3 -137v-1v-131q1 -11 2.5 -22.5t1.5 -23.5h-54v1v42t-0.5 54t-1 54.5t-1.5 43.5q-1 29 -1.5 59.5t-0.5 60.5h-40
q-27 0 -54.5 -0.5t-56.5 -0.5h-21v53h22q5 0 7 -1q9 -1 19.5 -1h21.5q10 0 19 0.5t19 0.5h39h10.5t11.5 1h3v8v43v13.5t1 14.5h-41q-23 0 -48 -0.5t-50 -0.5h-34v53h31l1 -1q8 -1 17.5 -1h20.5h19t19 1h39h15q-7 15 -13.5 30t-14.5 30l-1 3q-12 26 -25.5 54.5t-23.5 55.5
q0 1 -2 5q-3 11 -8 19l-1 1l-3 7q-3 9 -6.5 18t-6.5 18l-3 15l41 21l8 -15l2 -4q19 -51 39.5 -95.5t40.5 -88.5l2 -4v-1q2 -5 4 -9t4 -9q2 -3 4 -9q1 2 1.5 3.5t1.5 3.5q6 10 10 20v1l2 4q20 43 39.5 87t39.5 93l10 25l43 -22l-4 -16q-3 -11 -7 -21t-9 -20v-1
q-2 -5 -4.5 -10t-4.5 -10q-1 -2 -1 -3t-1 -3q-10 -27 -23.5 -55.5t-25.5 -54.5q-5 -8 -8.5 -17t-7.5 -17q-3 -8 -6.5 -14.5t-6.5 -13.5q19 0 34.5 -0.5t29.5 -1.5q9 -1 18 -1h19q14 0 27 -0.5t27 -1.5h20v-52z" />
    <glyph glyph-name="brokenbar" unicode="&#xa6;" horiz-adv-x="132" 
d="M9 277q-1 6 -1 11.5v10.5h48v-52v-27v-349h-46q-1 38 -1.5 81t-0.5 94q-1 22 0 45t1 45q-1 31 -0.5 64t0.5 64v10v2v1zM9 767q-1 6 -1 11.5v10.5h48v-51v-26v-338h-43q-2 37 -2 79t-1 90q0 22 -0.5 44.5t-0.5 42.5q-1 30 -0.5 62.5t0.5 61.5v11v1v1z" />
    <glyph glyph-name="section" unicode="&#xa7;" horiz-adv-x="380" 
d="M289 207q17 -23 25 -51t5 -56q-5 -43 -36 -67q-35 -26 -99 -26q-20 0 -40.5 3.5t-39.5 8.5q-3 1 -10.5 3t-17 5.5t-19 7.5t-16.5 9q-2 1 -3.5 2t-3.5 2q0 2 -2 2q-8 5 -15.5 12.5t-8.5 26.5v1q-1 9 5.5 15t15.5 6q4 0 10 -2t30 -13q11 -5 21 -9.5t13 -6.5q14 -7 37.5 -13
t49.5 -6q71 0 74 54q2 25 -10.5 49.5t-33.5 37.5q-8 5 -15 9t-14 9l-2 1q-14 9 -30.5 20.5t-36.5 18.5q-6 3 -12 4.5t-12 3.5q-15 5 -29 10.5t-26 13.5q-35 26 -39 68t25 96q27 47 86 64q-29 21 -49 48t-27 59v1q-6 25 -1.5 49.5t16.5 42.5q18 26 47.5 36t55.5 10h6
q31 0 63 -16l14 -7t16 -9.5t14.5 -11t9.5 -11.5q4 -8 1.5 -12.5t-7.5 -10.5q0 -1 -3.5 -4t-7.5 -6.5t-7 -6l-3 -2.5q-5 2 -8.5 4t-8.5 4q-6 3 -12 10q-2 1 -5 4l-2 1l-1 2q-2 2 -3 3.5t-3 2.5l-2 1q-9 6 -21.5 10t-26.5 4q-4 0 -14 -1t-21.5 -6.5t-21.5 -16t-13 -28.5
q-2 -17 6.5 -37.5t18.5 -36.5q13 -11 28.5 -21.5t32.5 -21.5l7 -5q33 -21 64 -46t50 -60q14 -26 19 -55t2 -58t-13.5 -55.5t-28.5 -45.5q5 -3 8 -7t5 -7zM156 303q16 -7 29 -16q5 -3 10.5 -6t10.5 -5q6 -3 11 -7l10 -8q2 -2 4.5 -4t4.5 -4q2 2 8.5 11t14.5 33q12 33 7 70
q-4 31 -21.5 52t-42.5 43q-13 11 -23 14q-3 1 -9 1q-11 0 -25 -5l-28 -10q-15 -7 -28 -19.5t-19 -27.5l-1 -3q-4 -11 -9 -27t-1 -29q5 -16 21.5 -24.5t41.5 -16.5q19 -5 34 -12z" />
    <glyph glyph-name="dieresis" unicode="&#xa8;" horiz-adv-x="266" 
d="M10 869q0 13 9 22t22 9t22 -9t9 -22t-9 -22t-22 -9t-22 9t-9 22zM112 869q0 13 9 22t22 9t22 -9t9 -22t-9 -22t-22 -9t-22 9t-9 22z" />
    <glyph glyph-name="copyright" unicode="&#xa9;" horiz-adv-x="549" 
d="M295 263q10 0 17 -6.5t7 -16.5v-4l-1 -1v-11l-9 -7h-1q-16 -14 -33 -19.5t-39 -5.5q-36 0 -55 15q-21 17 -30 46.5t-14 59.5q-3 24 -3 51v1q0 7 -0.5 13.5t-0.5 14.5v1q0 8 -1 13v1v4v1q-1 5 -1 10v11q1 11 2 20t3 15v1v2q3 14 7.5 32t10.5 35q2 9 8.5 22.5t17.5 31.5
l1 1q2 4 4 5l2 6l9 3q20 13 44 13q10 0 21 -3q9 -2 17.5 -7.5t13.5 -10.5l2 -3q5 -7 8 -14q2 -6 3 -13.5t-1 -14.5q-5 -12 -18 -15h-2h-4q-11 0 -18 7l-7 8l-1 8q0 3 -4 5q-1 0 -4 0.5t-11 0.5t-18 -15v-1q-2 -2 -3.5 -6.5t-3.5 -8.5q-2 -5 -3.5 -9t-3.5 -7q-1 -4 -2 -7.5
t-2 -5.5v-2q-2 -4 -4 -12q-2 -3 -2.5 -6t-1.5 -5v-1q-2 -5 -2.5 -10.5t-1.5 -10.5q0 -2 -0.5 -5t-0.5 -6q-1 -2 -1 -4t-1 -4q-2 -14 -1.5 -29.5t2.5 -32.5v-14q1 -6 1 -12v-12q2 -6 2.5 -11t0.5 -9v-2v-2v-1q3 -15 6.5 -31.5t9.5 -27.5q5 -8 10 -11.5t17 -5.5h2h5q20 0 31 8
v1l5 4l7.5 5t12.5 3zM385 727q24 -26 42.5 -61t30 -77t16 -88.5t1.5 -95.5q-2 -32 -8 -73t-18 -92v-1q-2 -5 -3 -11t-3 -12q-3 -13 -6.5 -25.5t-7.5 -25.5q-9 -27 -20.5 -50.5t-27 -43t-36.5 -35t-51 -27.5q-3 -1 -5.5 -2t-5.5 -2q-8 -4 -14.5 -6.5t-13.5 -3.5h-14
q-30 0 -54 7.5t-33 12.5l-1 1q-9 5 -15.5 10.5t-11.5 10.5q-4 3 -6.5 5t-5.5 4l-3 3l-3 3q-69 90 -87 183q-4 17 -5.5 33t-3.5 32q-2 11 -3 22.5t-3 22.5q-4 25 -2.5 47t3.5 43q1 9 1.5 18t1.5 19q1 41 7 74t17 62q10 26 21 48.5t24 44.5q16 28 44.5 50.5t60.5 31.5
q7 2 14 3l14 2t13.5 2t13.5 3q5 3 14 1q23 0 43 -7t37 -17.5t30 -22t22 -20.5zM422 408q3 42 -1 83t-14 77t-25 65.5t-34 50.5q-7 7 -17 16t-22.5 16.5t-27 13t-30.5 5.5q-9 -3 -17 -4l-16 -2q-6 -1 -11 -1t-8 -2h-1q-23 -7 -43.5 -23t-31.5 -35l-1 -1q-10 -17 -19.5 -37.5
t-20.5 -46.5q-19 -49 -20 -115q0 -12 -1 -22.5t-2 -21.5q-2 -18 -3 -35t2 -36q2 -11 3 -22t3 -22q2 -16 3.5 -30t4.5 -28v-1q9 -42 26.5 -80t46.5 -74q5 -4 9 -7.5t8 -7.5q4 -3 7 -6t7 -5q12 -5 29 -10t36 -5h9q3 1 9 3.5t11 4.5q2 0 6 2q45 18 67.5 47t36.5 76v3
q5 16 10 32.5t9 33.5q9 39 15 78.5t8 72.5z" />
    <glyph glyph-name="ordfeminine" unicode="&#xaa;" horiz-adv-x="312" 
d="M235 497v-1q0 -7 -2 -13q-2 -7 -7.5 -12t-15.5 -5q-8 0 -15.5 5t-13.5 11v1q-11 11 -19 34q-7 -14 -14.5 -26t-15.5 -20l-1 -1q-27 -27 -58 -27h-3h-2q-14 1 -28 11l-1 1q-27 19 -35 69v1q-7 46 16 104q9 22 23 47.5t32 47.5t39 36.5t43 14.5h2l2 -1q22 -4 32.5 -16
t13.5 -28.5t1.5 -36t-3.5 -37.5v-2l-1 -2v-2v-3v-3l-1 -1v-2q0 -3 -1 -6q-1 -19 -1 -34.5t2 -29.5q5 -31 11 -41l6 -6q3 -3 8 -9t6 -16zM64 604q-15 -36 -10 -68q1 -8 4 -17t9 -14l6 -3q14 0 26 14q6 6 13.5 19.5t15 32t14.5 39.5t10 42q0 2 0.5 3.5t0.5 2.5q1 43 -2 60
q-15 -8 -31 -26q-36 -36 -56 -85z" />
    <glyph glyph-name="guillemotleft" unicode="&#xab;" horiz-adv-x="646" 
d="M291 206q-3 3 -20.5 12.5t-38 20t-38 19.5t-21.5 11l-5 3q-25 11 -43 22q-3 2 -7 4q-5 4 -12 9l-3 1l-36 22t-38 19l-14 5v15q0 6 4.5 16.5t25.5 38.5q11 15 22 27.5t14 15.5q16 15 31 31l16 16l17 17q7 7 10 11q13 13 24 24.5t25 28.5q3 4 12.5 15t20.5 23t21 22t15 13
l10 6l11 -5q2 -1 3.5 -2t3.5 -2q2 -2 4 -3t4 -3l13 -13l-10 -15q-2 -3 -8 -10t-13.5 -14.5t-14.5 -15t-10 -10.5l-11 -12q-6 -5 -13 -15l-1 -1l-1 -1q-5 -6 -10.5 -11.5t-10.5 -11.5t-10.5 -11.5t-10.5 -11.5q-7 -8 -13.5 -14.5l-13.5 -13.5l-8 -8l-8 -8l-15 -15l-1 -1
l-7 -7l-7 -7l-9.5 -9.5t-7.5 -8.5q-1 -1 -1.5 -2t-2.5 -2q-6 -8 -8 -11q-2 -5 -5 -8.5t-5 -6.5q2 -1 5 -4q6 -5 13 -8.5t15 -8.5q8 -4 15.5 -8t14.5 -9l2 -1q7 -5 29 -17t46.5 -24.5t45.5 -23.5t28 -14q13 -6 28 -12t25 -17l-31 -49q-11 4 -22 13q-4 2 -6 4h-2zM513 218
q-3 2 -20.5 11.5t-38 20.5t-38.5 20l-22 11l-5 3q-11 5 -21.5 10t-20.5 12q-2 1 -3.5 2t-3.5 2q-4 2 -12 8l-3 2q-18 11 -36 21.5t-38 18.5l-14 6v15q0 5 4.5 16t25.5 39q11 15 22 27.5t14 15.5l31 31l16 16l17 17l10 10q13 14 24 25.5t25 28.5q3 4 12.5 15t20.5 22.5
t21 21.5t15 13l10 7l11 -6q4 -2 7 -4q2 -1 8 -5l13 -13l-10 -15q-2 -3 -8.5 -10t-13.5 -15t-14 -15t-10 -11l-12 -11q-3 -4 -6 -7t-6 -8l-1 -1l-1 -2q-5 -5 -10.5 -11t-10.5 -11q-5 -6 -10.5 -12t-10.5 -11q-7 -8 -13.5 -14.5l-13.5 -13.5l-8 -8l-4 -4l-4 -4l-15 -15l-1 -1
l-8 -7q-2 -3 -6 -7q-11 -10 -18 -18q0 -2 -3 -5q-4 -5 -5.5 -7t-2.5 -3q-3 -5 -5.5 -8.5t-4.5 -7.5q1 -1 2 -1.5t2 -1.5q7 -5 14 -9t15 -8t15.5 -8t14.5 -9l2 -1q7 -5 29 -17t46 -24.5t45.5 -23.5t28.5 -14q12 -6 27.5 -12t25.5 -17l-31 -49q-7 2 -12 5.5t-10 6.5q-3 2 -7 4
l-1 1z" />
    <glyph glyph-name="logicalnot" unicode="&#xac;" horiz-adv-x="547" 
d="M486 410v-163v-1v-9q-1 -6 -1.5 -12.5t-2.5 -13.5l-3 -8l-8 -4q-6 -3 -14 -3t-14 3l-9 4l-2 9q-2 7 -2 12t1 8v4v1v176v45q0 17 -0.5 33t-0.5 33q-11 0 -37.5 0.5t-65.5 0.5h-51.5t-47.5 -0.5t-39 -0.5h-25q-12 -1 -24 -1h-24h-52q-5 -1 -11 -1.5t-11 -0.5q-13 0 -22 5
q-12 9 -12 21q-2 16 13 26l5 4l7 1h52h42h42h28.5t24.5 1h18h125h55h6q4 0 7.5 0.5t7.5 0.5q6 0 14.5 -1.5t15.5 -7.5h2v-1q11 -11 12 -24.5t0 -23.5v-5v-1v-51t1 -53v-2z" />
    <glyph glyph-name="uni00AD" unicode="&#xad;" 
 />
    <glyph glyph-name="registered" unicode="&#xae;" horiz-adv-x="543" 
d="M327 265q2 -3 4 -7q4 -7 4 -12t-2 -9q-5 -13 -19 -13q-4 0 -10 2q-8 3 -15.5 11.5t-18.5 23.5l-4 4q-4 6 -7 10q-1 3 -4 4q-4 6 -7 10q-16 24 -32 40l-2 2l-3 3q-1 1 -2 1.5t-2 1.5q1 -12 0.5 -24.5t-0.5 -28.5v-4q0 -2 -0.5 -3t-0.5 -3v-2v-1v-7q0 -8 -1 -12v-1
q1 -2 1.5 -8t-4.5 -12q-5 -7 -11.5 -8.5t-11.5 -1.5h-23l2 22q3 52 3 110v32v11v21v1v79v20.5t1 21.5q1 8 1.5 13.5t0.5 11.5v9q0 11 1.5 23.5t12.5 21.5l1 1q7 5 13.5 6t10.5 1h7h13q11 0 15 -1h2q6 -2 11.5 -3t12.5 -3q4 -2 5 -2h1q7 -2 15.5 -6t16.5 -12q14 -14 20 -33
t1 -38v-1q-5 -19 -12 -32q-2 -4 -5 -7.5t-6 -8.5q-1 -1 -1.5 -2t-1.5 -2q-2 -2 -2.5 -3t-2.5 -3q-5 -9 -11.5 -16t-12.5 -14l-8.5 -8.5t-6.5 -8.5l-1 -1q-4 -5 -8 -9l-7 -7q-2 -2 -3 -2l-2 -2l-9 -10l-1 -1l1 -1q1 -1 1.5 -1t1.5 -1l9 -9l5 -5v-1q4 -4 8.5 -9t9.5 -10
q2 -2 3.5 -4.5t3.5 -4.5q7 -11 19 -22l2 -3l2 -2v-1q1 -1 1 -2q7 -6 15 -16.5t11 -15.5v-1q4 -6 7 -10zM220 455l10 12t10 11q2 2 2 3q1 0 1 0.5t1 0.5l1 2q9 12 17.5 23t13.5 24q3 9 2 19t-6 13q-9 8 -29 13l-7 1q-10 2 -15 2h-10q-1 -2 -1 -5v-3v-8q0 -7 -0.5 -13.5
t-0.5 -14.5l-1 -11q-1 -20 -1.5 -41.5t-0.5 -42.5l1 1l1 1l3 3l2 1l7 7v2zM388 732q24 -26 42.5 -61t30 -77t16 -88.5t1.5 -95.5q-2 -32 -7.5 -73t-18.5 -92v-1q-2 -5 -3 -11t-3 -11q-3 -14 -6.5 -26.5t-7.5 -25.5q-9 -27 -20.5 -50.5t-27 -43t-36.5 -35t-51 -27.5
q-2 -1 -5 -2l-6 -2q-7 -4 -13.5 -6.5t-14.5 -2.5v-1h-14q-30 0 -53.5 8t-33.5 13h-1q-9 5 -15.5 10.5t-11.5 10.5q-3 3 -6 5.5t-5 4.5l-4 2l-3 3q-35 45 -56 90t-31 93q-4 17 -5.5 33t-3.5 33q-2 11 -3 22t-3 22q-4 25 -2.5 47t3.5 43l2 18t1 19q1 41 7 74t17 62
q11 26 21.5 48.5t23.5 44.5q16 28 45 50.5t61 31.5q7 2 13.5 3t13.5 2t13.5 2t13.5 3q7 4 14 1q23 0 43.5 -7t37 -17.5t29.5 -22t22 -20.5zM425 413q3 42 -1 83t-14 77t-25 65.5t-34 50.5q-7 7 -17 16t-22.5 16.5t-27 13t-30.5 5.5q-9 -3 -17 -4l-16 -2q-6 -1 -10.5 -1
t-8.5 -2h-1q-23 -7 -43.5 -23t-31.5 -35l-1 -1q-10 -17 -19.5 -37.5t-20.5 -46.5q-19 -49 -20 -115q0 -12 -1 -22.5t-2 -21.5q-2 -18 -3 -35t2 -36q2 -11 3 -22t3 -22q2 -15 3.5 -29.5t4.5 -28.5v-1q9 -42 26.5 -80t46.5 -74q10 -8 18 -15l6 -6t7 -5q12 -5 29.5 -10t35.5 -5
h9q3 1 9.5 3.5t11.5 4.5q1 0 5 2q45 18 67.5 47t36.5 77l1 2q5 16 9.5 32.5t8.5 33.5q9 39 15 78.5t8 72.5z" />
    <glyph glyph-name="macron" unicode="&#xaf;" horiz-adv-x="327" 
d="M246 837v-49h-4q-18 5 -37 3.5t-40 -1.5q-11 0 -8.5 0h7t7 -0.5t-7.5 -0.5q-15 -1 -29.5 -1h-29.5h-8h-46l-2 -1h-6q-17 0 -15.5 -0.5t6.5 -1t6.5 -0.5t-14.5 0h-19l-4 50h22q2 0 4.5 -0.5t4.5 -0.5h2h-26h21h8t8 1h1q7 0 6 0.5t-3 0.5t-1.5 0h11.5q23 0 45 0.5t44 0.5
q12 0 13.5 0.5t-2.5 0.5t-10 0.5t-9 0.5t-1 0h15h37.5t31.5 -1q3 0 7.5 1t8 1.5t6 0t0.5 -3.5z" />
    <glyph glyph-name="degree" unicode="&#xb0;" horiz-adv-x="219" 
d="M132 778q2 -10 1.5 -19.5t-2.5 -17.5h-1q-1 -6 -3.5 -13t-7.5 -13q-19 -22 -43 -22q-26 0 -44 18v1q-9 9 -12.5 21t-1.5 26q2 13 5.5 25t15.5 23q13 11 24 16h1q8 4 18 4q15 0 28 -9.5t18 -26.5v-1q0 -1 0.5 -2t0.5 -2l3 -4v-4zM84 728q7 6 9 14.5t1 28.5q0 5 -2.5 12.5
t-8.5 12.5q-2 0 -2 -0.5t-1 -0.5h-1l-3 -1q-9 -5 -13.5 -17t-4.5 -24q0 -18 5 -23v-1q3 -4 5 -4.5t4 -0.5q7 0 12 4z" />
    <glyph glyph-name="plusminus" unicode="&#xb1;" horiz-adv-x="545" 
d="M24 338q-13 10 -11 25q2 17 16 23l4 2h5q18 1 35.5 1.5t32.5 0.5h28q7 -1 14 -1h14q13 0 23.5 0.5t19.5 0.5v64q0 26 -0.5 51t-1.5 51v13v11q-1 12 -0.5 19.5t2.5 12.5l1 3l2 2q8 11 22 11q17 0 26 -15l3 -5v-6q1 -26 1 -52.5v-52.5q-2 -54 0 -107h142h11q7 -1 13.5 -1.5
t13.5 -2.5l9 -2l4 -9q7 -14 0 -28l-4 -8l-9 -3q-8 -2 -13 -2q-6 0 -8 1h-6h-1q-7 0 -23 0.5t-37 0.5h-45h-47v-172q0 -9 -1 -13v-15.5t-2 -15.5l-3 -10l-9 -4q-6 -3 -14 -3t-14 3l-9 4l-3 11q-2 6 -1.5 11.5t1.5 10.5v7v1v28t0.5 44t0.5 54v58h-45q-21 0 -40.5 -0.5
t-42.5 -0.5l-12 -1h-9q-3 0 -6.5 -0.5t-6.5 -0.5q-5 0 -9.5 1t-8.5 4zM461 48q7 -14 0 -29l-4 -9l-11 -2q-4 -1 -7 -1.5t-8 -0.5q-4 0 2.5 0.5t2.5 0.5q-10 1 -26 1h-50h-156q-21 -1 -37 -1h-24h-35h-41h-28.5t4.5 -1h5q3 -1 -3 -1h-9h6q-6 0 -10 0.5t-9 2.5q-15 8 -15 25
q1 8 6 15.5t13 10.5l4 1l3 1h8t1 0.5t2.5 0.5h11.5h26t26 -1h52h24t22 1h111h104q6 0 8.5 -0.5t4 -0.5t3.5 -0.5t7 -1.5l11 -1z" />
    <glyph glyph-name="uni00B2" unicode="&#xb2;" horiz-adv-x="264" 
d="M168 699q18 -5 22 -15.5t-10 -23.5q0 -1 -3 -4l-10 -10h-13l-2 1q-11 2 -23.5 3.5t-26.5 1.5t-26.5 -1t-23.5 -3h-2h-3q-2 -1 -5 -2t-7 -1q-5 0 -8 1h-20v27v2q3 15 10.5 27t13.5 23q2 3 3.5 6t3.5 6q2 2 2 4q11 18 18.5 32.5t14.5 27.5q1 3 5 9q0 2 2 4v1l5 10
q12 23 24 48t20 52q1 5 2 9q0 10 -3 13h-2q-12 0 -23 -6t-19 -14t-14.5 -13t-17.5 0q-13 7 -15.5 16t0.5 19t11 18.5t16 14.5q7 5 23.5 12.5t36.5 7.5q10 0 17.5 -2.5t14.5 -4.5l3 -1l2 -2q16 -12 21 -27.5t4 -31.5t-6.5 -32t-10.5 -28v-2l-2 -2q0 -1 -0.5 -1.5t-0.5 -2.5
q-12 -33 -34 -70q-1 -2 -5 -8q-2 -5 -4.5 -9.5t-5.5 -9.5q-2 -3 -3 -5.5t-3 -5.5q-7 -14 -14 -27t-15 -24q6 1 12 1h11q37 0 62 -7z" />
    <glyph glyph-name="uni00B3" unicode="&#xb3;" horiz-adv-x="229" 
d="M128 979q13 -8 25 -23.5t11 -44.5q0 -7 -2 -12q-2 -13 -8.5 -25t-13.5 -23l-2 -4q-8 -13 -16 -21q1 -2 4 -5l3 -3l8 -8l1 -1q10 -13 15 -31q2 -8 2.5 -17t-1.5 -23q-1 -14 -5 -27t-9 -25q-3 -8 -6.5 -13t-7.5 -10q-3 -3 -4 -5l-1 -1l-2 -2q-7 -7 -15 -11.5t-15 -6.5
q-12 -6 -26 -6q-23 0 -39 16l-5 5q-6 5 -7 10q-8 15 -7 20t14 14q8 6 16 6q11 0 16.5 -5t7.5 -8v-1l1 -1l1 -1q10 0 18 6q2 1 2.5 2t2.5 3l1 1q13 22 15 42v1q2 17 0 24.5t-4 9.5l-1 1q-2 4 -5.5 7t-8.5 7l-1 1l-1 1q-1 0 -1.5 0.5t-1.5 0.5q-9 6 -16 11.5t-10 11.5t0 13.5
t14 16.5q1 0 1 1l7 6h3q6 6 10 11.5t8 11.5l2 2v1q5 7 8.5 13.5t5.5 12.5v1v1q1 5 1 7v3v2q-1 8 -4 11q-2 2 -5 3.5t-9 1.5q-17 0 -25 -11l-2 -2q-9 -18 -26 -18q-18 0 -24 9.5t0 24.5q9 23 30 36.5t46 13.5q20 0 37 -9z" />
    <glyph glyph-name="acute" unicode="&#xb4;" horiz-adv-x="252" 
d="M132 941q11 0 18 -7t7 -17v-7q0 -13 -12 -20l-2 -1l-2 -1q-3 -2 -6.5 -4.5t-7.5 -5.5q-3 -2 -6.5 -4.5t-7.5 -5.5t-8 -5.5t-9 -5.5q-5 -4 -10.5 -7.5t-10.5 -7.5l-3 -3q-15 -15 -28 -15q-11 0 -19 8l-2 2l-1 2q-5 8 -4.5 17t8.5 17q2 3 5.5 5.5t5.5 4.5q1 1 1.5 1t1.5 1
q2 2 5.5 5t7.5 6l2 1l1 1q1 0 3 2q12 8 22 16t20 14l5 4q8 4 11 6l1 1h2q1 0 1 0.5t1 0.5q4 2 10 2z" />
    <glyph glyph-name="mu" unicode="&#xb5;" horiz-adv-x="562" 
d="M454 75q12 0 19 -7.5t7 -19.5q0 -2 -1 -8.5t-7 -12.5t-15.5 -9.5t-18.5 -5t-15.5 -2t-7.5 -0.5q-22 0 -40 11h-1q-10 7 -18.5 16t-16.5 23q-51 -54 -122 -65q-5 -1 -9 -1h-9q-38 0 -71 13t-57 29q0 -47 2 -93.5t0 -93.5q-1 -11 -0.5 -23t1.5 -24v-2v-10l1 -2v-3
q1 -10 1 -20.5t-5 -19.5l-1 -1q-8 -14 -25 -14q-5 0 -7 1h-5l-6 6q-2 2 -2.5 3t-1.5 2q-6 8 -6 15.5t1 13.5v58q0 17 -0.5 24t-0.5 9v4v16l-1 21q-1 11 0 21.5t2 21.5v5v9t-1 9v2q-1 5 -1.5 9t-0.5 9v26v12q-1 3 -1 6.5v6.5v105q0 23 -0.5 45.5t-1.5 44.5v28q-1 22 -1.5 45
t-0.5 47l1 3v1q0 1 -0.5 2.5t-0.5 3.5v8q0 11 1 28.5t1 42.5v3q0 5 0.5 12.5t2.5 15.5q1 8 5.5 19.5t19.5 11.5h4l3 -1q8 -3 12 -9.5t6 -14t2.5 -13.5l0.5 -6v-1v-15q0 -5 -0.5 -9t-0.5 -8v-5l-1 -2q-1 -14 -0.5 -18.5t1.5 -6.5v-2v-3q0 -32 1 -62.5t0 -59.5v-30v-58
q1 -19 1.5 -37.5t0.5 -38.5q11 -8 24.5 -17.5t18.5 -12.5q3 -1 5.5 -2.5t4.5 -2.5q18 -11 30 -14q5 0 15 -2q22 -5 36 -5h2h2l3 1q59 5 105 67q-19 73 -20 174q-1 34 0 68t3 65v10q0 4 1 6v1q0 8 0.5 15t0.5 14v2l1 1q1 10 5 18q3 7 8 13t13 8l12 3l8 -8q2 -2 4 -5.5t3 -9.5
q2 -8 2 -16t-1 -16q0 -1 -0.5 -2t-0.5 -2v-2v-1q0 -1 -0.5 -1.5t-0.5 -1.5q0 -4 -1 -6q-2 -18 -2 -38.5t1 -45.5v-1q0 -4 -1 -7v-8l1 -1v-21q0 -50 3 -99.5t16 -96.5q13 -46 33 -58q5 -3 7 -3.5t4 -0.5q4 0 9 1l3 1l1 1l3 1q1 0 1.5 0.5t1.5 0.5q5 2 10 3.5t10 1.5z" />
    <glyph glyph-name="paragraph" unicode="&#xb6;" horiz-adv-x="385" 
d="M212 740q2 -17 -0.5 -36.5t-4.5 -36.5l-1 -4v-2l-2 -10v-3q0 -3 -0.5 -6t-0.5 -6q-1 -3 -1 -6t-1 -6q-4 -36 -6.5 -69t-2.5 -65q1 -54 -1.5 -110t-4.5 -104l-2 -27q-2 -54 -4.5 -108.5t-0.5 -105.5q1 -6 0 -11t-2 -7q-5 -9 -12 -10.5t-14.5 1.5t-14 9.5t-9.5 14.5
q-3 9 -3 19t1 21v7v5v2v2v11q0 19 -1.5 39t0.5 39v2q1 5 1 9.5v9.5v2q1 14 1.5 27.5t0.5 26.5q1 13 1 26t2 27v1q0 8 0.5 17.5t1.5 20.5q3 32 5 64.5t0 62.5q-57 3 -91 27t-39 66q-5 36 7.5 74.5t38.5 70.5v1q8 10 21 22t28 22.5t32 17.5t33 7q13 0 21 -4q21 -8 24 -36v-1z
M293 7q-8 -10 -24 -2l-4 2q-10 4 -14.5 10.5t-5.5 13.5t0 14t2 13v2v5v1q2 52 3 109t2 115v5q1 88 2.5 159.5t4.5 130.5q1 18 1.5 36t0.5 35v5q1 24 2.5 48t1.5 47v22h52v-23q0 -134 -5.5 -254.5t-7.5 -235.5v-6q-1 -54 -1.5 -109.5t-2.5 -112.5q0 -8 -1 -16.5t-6 -13.5z
" />
    <glyph glyph-name="periodcentered" unicode="&#xb7;" horiz-adv-x="161" 
d="M9 468q0 18 13 31t31 13t31 -13t13 -31t-13 -31t-31 -13t-31 13t-13 31z" />
    <glyph glyph-name="cedilla" unicode="&#xb8;" horiz-adv-x="195" 
d="M109 -51q5 -4 13 -17t5 -32q-6 -42 -65 -59l-2 -1h-21l-4 2l-4 1q-8 3 -17 9.5t-9 20.5v8l6 5q1 2 4.5 4.5t10.5 2.5q6 0 10 -2.5t6 -4.5l1 -1h2l1 -1h2h3h1l1 1q11 2 19.5 9.5t10.5 12.5v3q-1 2 -5 6.5t-13 10.5h-1q-1 0 -5 2q-1 1 -3 1q-3 1 -6.5 2t-7.5 3l-12 6l2 13
q1 5 2.5 9.5t3.5 7.5l6 12h1q2 4 4 7.5t4 8.5v1q1 1 1 1.5t1 1.5l3 6q1 2 1 3t1 2q2 5 5.5 11.5t11.5 9.5l3 1h3q8 0 12.5 -3.5t5.5 -5.5l6 -5v-7q0 -2 -0.5 -6.5t-5.5 -13.5l-3 -5q-3 -6 -5.5 -12.5t-5.5 -12.5q1 0 1 -1q1 0 1 -0.5t1 -0.5q5 -3 9.5 -6t9.5 -8z" />
    <glyph glyph-name="uni00B9" unicode="&#xb9;" horiz-adv-x="188" 
d="M116 670q10 -5 8.5 -14t-9.5 -14t-18.5 -5.5t-20.5 -0.5q-2 0 -4 -0.5t-3 -0.5h-3h-6h-8q-24 0 -32 8l-6 4v5q0 6 1 8q3 11 6.5 12.5t13.5 -0.5q2 -1 5.5 -1t8.5 -1q0 18 0.5 34.5t1.5 33.5l1 5q0 6 0.5 12t0.5 12q1 15 1.5 30.5t1.5 31.5l-2 -1v52h1v2q0 9 -0.5 18.5
t-0.5 18.5v1q0 9 0.5 17t-0.5 16q-4 -3 -11.5 -5t-14.5 -2t-12.5 3t-5.5 11q0 13 18 19l4 2q2 1 3.5 2t3.5 2q6 5 13 9t16 4l10 1l6 -8q7 -10 8.5 -20t1.5 -19v-1q1 -6 1 -12t1 -12q1 -12 1.5 -24.5t0.5 -24.5q-1 -7 -1 -13t-1 -12q0 -10 -0.5 -19.5t-0.5 -19.5v-1v-10v-24
t-2 -25q-5 -48 -3 -81h10q4 0 8 -0.5t8 -2.5z" />
    <glyph glyph-name="ordmasculine" unicode="&#xba;" horiz-adv-x="213" 
d="M137 826v-10v-9v-1v-15q0 -3 -0.5 -5.5t-0.5 -4.5v-1q-2 -37 -7.5 -68t-19.5 -64h-2q-7 -9 -16 -13q-4 -2 -8.5 -4.5t-11.5 -2.5q-14 0 -23.5 6.5t-15.5 17t-10 23.5t-7 26v6q-3 7 -3 15l-1 2v8v10q-1 3 -1 11q-1 11 -1.5 22.5t0.5 23.5v3l1 3v1q0 3 1 5v6v2v3l2 9
q0 1 0.5 1t0.5 1q0 4 1 7q2 15 4 28t5 26q0 2 1 3v9l2 3q0 2 1 3v4l2 5v2l2 5q2 8 6.5 18t9.5 22l2 3l3 4q5 7 11 8t9 1q8 0 16 -5h3l11 -9l8 -10v-2q15 -23 20 -59.5t6 -71.5v-1zM92 774q1 6 1.5 15.5t0.5 20v21.5t-1 19q-2 29 -5.5 47.5t-7.5 30.5q-1 -2 -1.5 -5t-2.5 -6
q-1 -5 -1.5 -9t-1.5 -7q-1 -2 -1 -5l-1 -4l-2 -3v-5l-2 -5q-1 -2 -2.5 -6.5t-2.5 -11.5l-2 -10l-2 -10t-3 -13v-1q-2 -15 -4 -30.5t-1 -30.5q0 -14 0.5 -24.5t4.5 -22.5q2 -5 2 -11t2 -11q0 -2 2.5 -5.5t4.5 -8.5q3 -5 6 -11q2 4 5 9.5t5 13.5q2 7 2.5 14t2.5 15q0 9 1 11v2
v3l1 4q1 2 1 9v6l1 4v6v3z" />
    <glyph glyph-name="guillemotright" unicode="&#xbb;" horiz-adv-x="649" 
d="M76 217l-1 -1q-5 -2 -7 -4q-5 -3 -10 -6.5t-12 -5.5l-31 49q10 11 25.5 17t27.5 12q7 3 28.5 14t45.5 23.5t45.5 24.5t29.5 17l2 1q7 5 14.5 9t15.5 8t15 8t14 9q1 1 2 1.5t2 1.5q-2 4 -4.5 7.5t-5.5 8.5q-1 1 -2.5 3t-5.5 7q-3 3 -3 5q-7 8 -18 18q-4 4 -6 7l-8 7l-1 1
l-15 15l-4 4l-4 4l-8 8l-13.5 13.5t-13.5 14.5q-5 5 -10.5 11t-10.5 12q-5 5 -10.5 11t-10.5 11l-1 2l-1 1q-3 5 -6 8t-6 7l-12 11q-3 4 -10 11t-14 15t-13.5 15t-8.5 10l-10 15l13 13q6 4 8 5q3 2 7 4l11 6l10 -7q4 -3 14.5 -13t21.5 -21.5t20.5 -22.5t12.5 -15
q14 -17 25 -28.5t24 -25.5l10 -10l17 -17q4 -5 8 -8.5t8 -7.5l31 -31q3 -3 14 -15.5t22 -27.5q21 -28 25.5 -39t4.5 -16v-15l-14 -6q-20 -8 -38 -18.5t-36 -21.5l-3 -2q-8 -6 -12 -8q-2 -1 -3.5 -2t-3.5 -2q-10 -7 -20.5 -12t-21.5 -10l-5 -3l-22 -11t-38.5 -20t-38 -20.5
t-20.5 -11.5zM298 205h-2q-2 -2 -6 -4q-11 -9 -22 -13l-31 49q10 11 25 17t28 12q7 3 28 14t45.5 23.5t46 24.5t29.5 17l2 1q7 5 14.5 9t15.5 8q8 5 15 8.5t13 8.5q3 3 5 4q-2 3 -5 6.5t-5 8.5q-2 3 -8 11q-2 1 -2.5 2t-1.5 2q-3 4 -7.5 8.5l-9.5 9.5l-7 7l-7 7l-1 1l-15 15
l-8 8l-8 8l-13.5 13.5t-13.5 14.5q-5 6 -10.5 11.5t-10.5 11.5t-10.5 11.5t-10.5 11.5l-1 1l-1 1q-7 10 -13 15l-11 12q-3 3 -10 10.5t-14.5 15t-13.5 14.5t-8 10l-10 15l13 13q2 2 4 3t4 3q2 1 3.5 2t3.5 2l11 5l10 -6q4 -3 14.5 -13t21.5 -22t20.5 -23t12.5 -15
q14 -17 25 -28.5t24 -24.5q3 -4 10 -11l17 -17l16 -16q15 -16 31 -31q3 -3 14 -15.5t22 -27.5q21 -28 25.5 -38.5t4.5 -16.5v-15l-14 -5q-20 -8 -38 -19l-36 -22l-3 -1q-4 -2 -7 -4.5t-6 -4.5q-4 -2 -6 -4q-18 -11 -43 -22l-5 -3l-22 -11t-38 -19.5t-37.5 -20t-20.5 -12.5z
" />
    <glyph glyph-name="onequarter" unicode="&#xbc;" horiz-adv-x="441" 
d="M342 628q-8 -15 -27.5 -55.5t-43.5 -90t-49 -101.5t-44 -91q-9 -20 -16 -34.5t-12 -23.5q-18 -38 -34.5 -74t-36.5 -76v-1q-2 -3 -4 -8l-4 -10q-7 -15 -10 -21.5t-8 -10.5l-1 -1q-5 -5 -10 -6.5t-9 -1.5q-13 0 -20 9q-10 12 -7 27v3l1 3q17 38 36 76.5t38 76.5l30 62
t29 63l11 22t22.5 46.5t31 65t37.5 77.5q15 31 26 53t14 27v1q2 4 4 7.5t4 7.5q5 11 10 20t10 17l7 11h12q6 0 15 -4t14 -13l4 -8l-3 -9q-3 -9 -6.5 -16l-7.5 -15q-1 -1 -1.5 -2t-1.5 -2zM80 494v36.5t-1 36.5v1v168v1q1 3 1 9t0.5 12.5t2.5 13.5l3 8l9 4q6 3 14 3
q7 0 15 -3l8 -4l3 -9q2 -6 2 -11t-1 -9v-5v-181v-46q0 -19 0.5 -36.5t1.5 -37.5v-12v-8q2 -9 1.5 -17t-7.5 -15q-8 -10 -21 -10q-9 0 -16 4.5t-11 11.5l-2 4l-1 5q-1 21 -1 42.5v43.5zM362 235q14 -6 17.5 -14t3.5 -13q0 -2 -0.5 -3.5t-0.5 -3.5v-6l-7 -7q-6 -6 -16 -8
q-2 -11 -3 -20.5t-2 -20.5v-14q-1 -8 -1 -15t-2 -15q0 -7 -1 -11q-1 -5 -1 -9v-10q0 -5 -1 -10v-8v-2q0 -8 -1 -16t-6 -15q-9 -11 -23 -11q-10 0 -17 6q-8 8 -9.5 16.5t-1.5 13.5v2v3q0 11 1 25.5t3 24.5q1 6 1.5 12.5t0.5 14.5v1q1 14 2 25.5t3 19.5v1q1 2 1 12q-5 0 -7 -1
q-5 -1 -10.5 -1h-10.5h-10.5t-10.5 1q-33 0 -45.5 9.5t-12.5 24.5t9.5 34.5t21.5 39.5q2 2 2.5 4.5t2.5 4.5v1l10 16t9 16l1 2l1 1q2 4 4 6q1 1 3 5l4 6q1 2 2 3.5t1 2.5l1 2l1 2q2 3 3.5 7t3.5 8q1 2 2 4.5t2 4.5q5 13 11.5 26t16.5 26v1l9 8h3q4 4 9 5v1l1 -1q2 1 8 1
q13 0 22 -9.5t9 -23.5q0 -44 -1 -84.5t-3 -80.5v-3v-2q-1 0 -1 -3q0 -4 -1 -7v-2zM309 320q-14 -22 -26.5 -43t-23.5 -43l2 -1q6 0 7 1h3h32h4q3 45 3 89z" />
    <glyph glyph-name="onehalf" unicode="&#xbd;" horiz-adv-x="438" 
d="M338 633q-8 -15 -27.5 -55.5t-43.5 -90t-49 -101.5t-44 -91q-10 -20 -17 -34.5t-11 -23.5q-19 -38 -35 -73.5t-36 -76.5l-4.5 -9t-4.5 -10q-7 -15 -10 -21.5t-7 -10.5l-1 -1q-5 -5 -10.5 -6.5t-9.5 -1.5q-11 0 -20 9q-9 10 -7 27l1 3l1 3q17 38 35.5 77t37.5 77l30.5 61
t29.5 63q2 4 10.5 22t22.5 46.5t31.5 65t37.5 77.5q15 31 26 53.5t13 27.5t4 8.5t4 7.5q5 10 10.5 19.5t10.5 17.5l6 10h13q6 0 14.5 -3.5t13.5 -12.5l5 -9l-3 -8q-3 -9 -7 -16.5t-8 -15.5q-2 -2 -2 -4zM76 499q0 18 -0.5 36.5t-0.5 36.5v1v169v10q1 5 1.5 11.5t2.5 13.5
l3 9l8 4q6 3 15 3q8 0 14 -3l9 -5l3 -9q2 -6 1.5 -11t-0.5 -9v-4v-1q0 -8 -0.5 -29t-0.5 -47v-54.5v-50.5q0 -16 0.5 -28t0.5 -18v-36.5t1 -37.5v-12q1 -2 1 -8q1 -9 0.5 -17t-6.5 -15q-8 -9 -22 -9q-19 0 -27 15l-2 4v5q-2 21 -2 43t1 43zM351 58q15 -5 21 -13.5t-7 -22.5
v-6l-20 -10h-9l-3 1q-25 5 -50 5q-14 0 -27 -1t-25 -3h-2q-2 0 -3 -1q-6 -2 -13 -2q-5 0 -8 1h-20v27v3q3 15 10 28t15 24q1 2 1.5 2.5t1.5 2.5q2 3 3.5 5.5t3.5 5.5l10 18l10 18q3 7 6.5 13t6.5 12q2 2 2.5 4t1.5 4q2 3 2.5 5.5t2.5 4.5l1 4l2 1q14 26 25.5 51.5t19.5 52.5
q0 1 2 9.5t-3 13.5h-1q-18 0 -32 -10l-4 -4q-2 -3 -5.5 -6t-6.5 -5l-8 -8q-22 6 -32.5 10.5t-2.5 27.5q2 8 8 15t17 15l1 1q7 5 24 13t38 8q8 0 15.5 -2t13.5 -4h4l6 -5q16 -12 21 -27.5t3.5 -32t-7 -33t-9.5 -29.5l-4 -9q-7 -21 -17 -39.5t-18 -31.5q-4 -6 -7 -13t-7 -14
v-1q-8 -15 -18 -32.5t-19 -31.5q7 1 13 1h12q8 0 28 -2t36 -8z" />
    <glyph glyph-name="threequarters" unicode="&#xbe;" horiz-adv-x="438" 
d="M342 633q-8 -15 -27.5 -55.5t-43.5 -90t-49 -101.5t-44 -91q-9 -20 -16 -34.5t-12 -23.5q-18 -38 -34.5 -73.5t-36.5 -76.5q-2 -4 -4 -9l-4 -10q-7 -15 -10 -21.5t-7 -10.5l-2 -1q-5 -5 -10 -6.5t-9 -1.5q-11 0 -20 9q-10 12 -7 27v3l1 3q17 38 36 77t38 77q15 30 30 61
t30 63q2 4 10.5 22t22.5 46.5t31.5 65t37.5 77.5q15 31 25.5 53.5t13.5 27.5q2 5 4 8.5t4 7.5q5 10 10 19.5t10 17.5l7 10h12q6 0 15 -3.5t14 -12.5l4 -9l-3 -8q-3 -9 -6.5 -16.5t-7.5 -15.5q-2 -2 -3 -4zM357 240q14 -5 17.5 -13.5t3.5 -13.5q0 -2 -0.5 -3.5t-0.5 -2.5v-7
l-7 -6q-3 -4 -7 -5.5t-9 -3.5q-2 -11 -3 -20.5t-2 -20.5v-14q-1 -8 -1 -15t-2 -15q0 -7 -1 -10q-1 -5 -1 -9.5v-9.5q0 -2 -0.5 -4.5t-0.5 -6.5v-8v-2q0 -8 -1.5 -15.5t-6.5 -14.5q-7 -12 -22 -12q-10 0 -17 7q-9 7 -10 15.5t-1 13.5v2v3q0 11 1 26t3 25q1 6 1.5 12.5
t0.5 13.5v1q0 14 1.5 25.5t3.5 19.5v2q1 1 1 11h-7q-5 -2 -10.5 -2h-10.5h-10.5t-11.5 1q-32 1 -44.5 10.5t-12.5 24.5t9.5 34t21.5 40q1 4 5 8v1l10 16t9 16l1 2l1 2q1 1 3 5q2 2 4 6q2 2 4 6t3 5l1 2l1 2q2 4 3.5 7.5t3.5 7.5q1 2 2 4.5t2 5.5q5 12 11.5 25.5t15.5 25.5
l1 1l9 9h3l4 2l4 2l1 1l1 -1q2 1 8 1q13 0 22 -9.5t9 -23.5q0 -43 -1 -84t-3 -81v-2l-1 -2v-4q0 -2 -0.5 -3.5t-0.5 -3.5v-2zM304 326q-14 -23 -26.5 -44t-23.5 -43h2h7l3 1h32h4q3 43 3 88zM132 551q2 24 -6.5 35t-27.5 25q-20 14 -15.5 27t19.5 28h2q13 12 20 24l2 2v1
q5 7 8.5 14t5.5 13v2q2 5 2 7v3l-1 2q-1 6 -1.5 7.5t-2.5 3.5q-3 5 -14 5q-8 0 -15 -2.5t-11 -7.5l-2 -2v-1q-10 -19 -27 -19q-5 0 -10.5 2.5t-10 7t-6.5 10t0 11.5l2 4q9 23 31 37.5t48 14.5q19 0 37 -10q14 -8 26.5 -23.5t11.5 -45.5v-5.5t-2 -7.5q-3 -13 -9 -25t-13 -24
l-3 -4q-8 -13 -17 -22q2 -2 3 -2.5t2 -2.5l3 -3l8 -8l1 -1q12 -15 15 -32q2 -8 2.5 -17.5t-0.5 -23.5q-1 -15 -5.5 -28t-9.5 -26q-8 -16 -16 -24q-1 -1 -1.5 -2t-1.5 -2v-1l-2 -2q-14 -14 -31 -19q-12 -6 -27 -6q-25 0 -40 17l-5 5q-3 2 -4 4.5t-3 4.5l-3 6q-5 11 -4.5 17.5
t13.5 12.5q5 4 9.5 5t8.5 1q11 0 16.5 -5t7.5 -8v-1l1 -1l2 -2q4 1 9.5 3t8.5 4q3 3 4 5l2 1q6 10 10.5 21.5t4.5 22.5h1z" />
    <glyph glyph-name="questiondown" unicode="&#xbf;" horiz-adv-x="386" 
d="M178 583q-4 13 -1.5 29t9.5 30q4 7 11 13.5t18 6.5q13 0 24 -13q16 -20 3 -52q-13 -31 -37 -31q-10 0 -16 4l-8 4zM29 -113q-16 23 -23 52t-1 64v1v11v2q1 8 2.5 16.5t2.5 15.5q4 20 9.5 40t18.5 37q19 23 46.5 41.5t58.5 27.5q4 2 6 2q2 1 5 1v1h3q10 3 12 4.5t2 4.5
q2 9 2 19v19v13.5t1 12.5q1 10 1 23.5t1 28.5q1 32 2.5 64t2.5 52l3 72l10 6l4 2l27 1l6 -42q4 -23 2.5 -50t-4.5 -54q0 -6 -0.5 -11.5t-0.5 -10.5v-2q-1 -14 -2 -41.5t-2 -50.5q0 -10 -0.5 -18t-0.5 -13v-11v-5q1 -9 0 -20t-8 -22q-8 -12 -19 -15.5t-20 -5.5q-6 -2 -8 -2
q-2 -1 -4 -1.5t-4 -1.5q-8 -2 -15.5 -4t-12.5 -6q-4 -2 -7.5 -4t-7.5 -4t-7 -4l-6 -4l-1 -1q-11 -9 -19 -20q-5 -7 -8.5 -15.5t-6.5 -17.5q-5 -12 -7.5 -24t-4.5 -23q-6 -37 0 -67q8 -33 34 -43l1 -1q13 -6 29 -6q32 0 61.5 21.5t47.5 46.5l2 2q1 1 1 2l2 3q4 6 8 12.5
t7 12.5q0 2 0.5 2.5t0.5 2.5q1 1 1 4l1 1v2q10 29 31 29q10 0 17 -7q9 -9 9 -26v-2q-1 -14 -8.5 -28t-11.5 -20q-12 -20 -30 -40t-39.5 -36.5t-46 -27t-51.5 -10.5q-25 0 -50 12q-4 2 -6 2l-1 1l-2 1l-2 1q-8 3 -16.5 9t-16.5 17z" />
    <glyph glyph-name="Agrave" unicode="&#xc0;" horiz-adv-x="440" 
d="M154 941q5 0 11 -2q1 -1 2 -1h1l1 -1q3 -2 5.5 -3t5.5 -3l5 -4q10 -6 20 -14t22 -16q0 -1 2 -1q1 0 1 -1h1l1 -1l1 -1q4 -3 7.5 -6t6.5 -5l2 -2q3 -2 6 -4.5t6 -5.5q7 -8 8 -17t-5 -17l-1 -2l-1 -2q-10 -8 -19 -8q-14 0 -29 15l-2 3q-5 4 -10.5 7.5t-11.5 7.5
q-5 3 -8.5 5.5t-8.5 5.5q-8 6 -14 10q-4 3 -7.5 5.5t-6.5 4.5l-1 1q-1 0 -1 0.5t-1 0.5q-12 7 -12 20v7q0 10 7 17t17 7zM129 359q7 1 13 1.5t13 0.5q17 0 36 -0.5t42 -1.5h13q5 -1 14 -1q-2 9 -4 17.5t-4 17.5q-2 8 -4 14l-1 7l-6 24q-5 15 -8.5 29t-5.5 28l-2 16t-3 16
q-4 30 -8 55.5t-8 51.5q0 3 -0.5 6.5t-0.5 6.5q-1 2 -1 4t-1 4q-2 -9 -5 -18.5t-7 -18.5v-1q-5 -11 -7.5 -22t-5.5 -22l-1 -1l-3 -12q-2 -10 -5 -20t-8 -21q-2 -7 -3.5 -14t-3.5 -15q-1 -2 -1 -3.5t-1 -3.5v-5l-1 -2q-1 -8 -2.5 -14t-3.5 -12l-2 -6q-2 -4 -3 -7t-3 -7
q-2 -7 -3.5 -14t-3.5 -14q-5 -16 -8 -28q-2 -5 -2.5 -8.5t-1.5 -7.5q2 0 3 0.5t3 0.5h4h1zM379 55q2 -14 3 -24t-4 -18q-7 -13 -21 -13q-17 0 -23.5 13.5t-8.5 23.5q-1 5 -2 9.5t-2 8.5q-1 2 -1 4l-1 3v3q-1 7 -2 14.5t-3 16.5l-1 6q-2 5 -2.5 9t-1.5 8q-5 21 -8.5 42
t-7.5 42q-3 14 -5.5 27t-5.5 27l-1 3l-1 3q0 4 -1 6q-2 6 -2 12q-1 2 -1 3.5t-1 3.5q0 2 -0.5 3.5t-0.5 3.5q0 1 -0.5 2t-0.5 2q-24 2 -46.5 2.5t-40.5 0.5q-40 0 -85 -3h-2q-2 -7 -3.5 -13.5t-3.5 -13.5q-2 -8 -4 -15t-4 -15l-6 -21q-1 -2 -1 -2.5t-1 -2.5l-1 -1
q-2 -7 -4 -13l-4 -12q-2 -11 -5 -21l-6 -20l-2 -6q-2 -5 -3 -8.5t-2 -8.5q-2 -4 -4 -12v-1l-1 -3q-7 -28 -12.5 -49t-16.5 -37l-10 -21l-26 2l-3 4q-2 0 -2 1l-13 6v16l1 1q1 7 3 13.5t4 13.5h1q0 1 0.5 1.5t0.5 1.5l2 6l1 2v2q1 2 1.5 3.5t1.5 3.5q1 3 3 7q2 5 3 9.5t2 7.5
q1 2 1 2.5t1 2.5q5 23 12 45.5t13 42.5q1 4 2 7.5t3 7.5l8 27q1 3 1.5 5.5t1.5 5.5q2 3 2.5 6.5t1.5 5.5v2l1 4q2 3 2 5.5t1 6.5l1 2q0 2 0.5 3t0.5 3l1 1v2l1 3q1 10 6 22v1v2l1 3q10 31 20 66q1 2 1.5 5t1.5 5t1 3t1 3v1l1 4q2 3 2.5 7t2.5 9q0 2 2 8q2 4 2 8l1 2l1 7v1
q1 4 3 10q2 4 2.5 8t2.5 8v1l1 3q6 22 12 43.5t13 42.5l1 1q10 31 20 66v2q5 13 8 23q2 4 3 8t3 9v2q2 5 3.5 9.5t3.5 8.5v1q4 11 7.5 22t6.5 23q1 3 2 6.5t3 7.5q5 12 5 18v13l9 6q9 7 18 7t14.5 -5t9 -11.5t5.5 -14t3 -12.5q2 -9 3.5 -20.5t3.5 -25.5q0 -5 0.5 -7.5
t0.5 -4.5q4 -17 6 -34l4 -34q2 -14 4 -27.5t4 -27.5q0 -4 2 -14q5 -27 12 -56q9 -33 15.5 -65t11.5 -58q5 -24 10.5 -48.5t11.5 -49.5q1 -5 2 -10.5t2 -10.5q5 -17 8.5 -35t7.5 -36q1 -5 1.5 -9.5t1.5 -9.5q1 -6 2 -12.5t2 -12.5q0 -3 0.5 -6t0.5 -6q3 -20 6 -36l1 -1l2 -7
q0 -2 0.5 -3t0.5 -3q0 -1 0.5 -2t0.5 -2v-1l1 -2q1 -2 2 -5.5t1 -7.5l2 -5h1v-2l1 -1v-1v-3z" />
    <glyph glyph-name="Aacute" unicode="&#xc1;" horiz-adv-x="424" 
d="M379 55q2 -14 3 -24t-4 -18q-7 -13 -21 -13q-17 0 -23.5 13.5t-8.5 23.5q-1 5 -2 9.5t-2 8.5q-1 2 -1 4l-1 3v3q-1 7 -2 14.5t-3 16.5l-1 6q-2 5 -2.5 9t-1.5 8q-5 21 -8.5 42t-7.5 42q-3 14 -5.5 27t-5.5 27l-1 3l-1 3q0 4 -1 6q-2 6 -2 12q-1 2 -1 3.5t-1 3.5
q0 2 -0.5 3.5t-0.5 3.5q0 1 -0.5 2t-0.5 2q-24 2 -46.5 2.5t-40.5 0.5q-40 0 -85 -3h-2q-2 -7 -3.5 -13.5t-3.5 -13.5q-2 -8 -4 -15t-4 -15l-6 -21q-1 -2 -1 -2.5t-1 -2.5l-1 -1q-2 -7 -4 -13l-4 -12q-2 -11 -5 -21l-6 -20l-2 -6q-2 -5 -3 -8.5t-2 -8.5q-2 -4 -4 -12v-1
l-1 -3q-7 -28 -12.5 -49t-16.5 -37l-10 -21l-26 2l-3 4q-2 0 -2 1l-13 6v16l1 1q1 7 3 13.5t4 13.5h1q0 1 0.5 1.5t0.5 1.5l2 6l1 2v2q1 2 1.5 3.5t1.5 3.5q1 3 3 7q2 5 3 9.5t2 7.5q1 2 1 2.5t1 2.5q5 23 12 45.5t13 42.5q1 4 2 7.5t3 7.5l8 27q1 3 1.5 5.5t1.5 5.5
q2 3 2.5 6.5t1.5 5.5v2l1 4q2 3 2 5.5t1 6.5l1 2q0 2 0.5 3t0.5 3l1 1v2l1 3q1 10 6 22v1v2l1 3q10 31 20 66q1 2 1.5 5t1.5 5t1 3t1 3v1l1 4q2 3 2.5 7t2.5 9q0 2 2 8q2 4 2 8l1 2l1 7v1q1 4 3 10q2 4 2.5 8t2.5 8v1l1 3q6 22 12 43.5t13 42.5l1 1q10 31 20 66v2q5 13 8 23
q2 4 3 8t3 9v2q2 5 3.5 9.5t3.5 8.5v1q4 11 7.5 22t6.5 23q1 3 2 6.5t3 7.5q5 12 5 18v13l9 6q9 7 18 7t14.5 -5t9 -11.5t5.5 -14t3 -12.5q2 -9 3.5 -20.5t3.5 -25.5q0 -5 0.5 -7.5t0.5 -4.5q4 -17 6 -34l4 -34q2 -14 4 -27.5t4 -27.5q0 -4 2 -14q5 -27 12 -56
q9 -33 15.5 -65t11.5 -58q5 -24 10.5 -48.5t11.5 -49.5q1 -5 2 -10.5t2 -10.5q5 -17 8.5 -35t7.5 -36q1 -5 1.5 -9.5t1.5 -9.5q1 -6 2 -12.5t2 -12.5q0 -3 0.5 -6t0.5 -6q3 -20 6 -36l1 -1l2 -7q0 -2 0.5 -3t0.5 -3q0 -1 0.5 -2t0.5 -2v-1l1 -2q1 -2 2 -5.5t1 -7.5l2 -5h1
v-2l1 -1v-1v-3zM129 359q7 1 13 1.5t13 0.5q17 0 36 -0.5t42 -1.5h13q5 -1 14 -1q-2 9 -4 17.5t-4 17.5q-2 8 -4 14l-1 7l-6 24q-5 15 -8.5 29t-5.5 28l-2 16t-3 16q-4 30 -8 55.5t-8 51.5q0 3 -0.5 6.5t-0.5 6.5q-1 2 -1 4t-1 4q-2 -9 -5 -18.5t-7 -18.5v-1
q-5 -11 -7.5 -22t-5.5 -22l-1 -1l-3 -12q-2 -10 -5 -20t-8 -21q-2 -7 -3.5 -14t-3.5 -15q-1 -2 -1 -3.5t-1 -3.5v-5l-1 -2q-1 -8 -2.5 -14t-3.5 -12l-2 -6q-2 -4 -3 -7t-3 -7q-2 -7 -3.5 -14t-3.5 -14q-5 -16 -8 -28q-2 -5 -2.5 -8.5t-1.5 -7.5q2 0 3 0.5t3 0.5h4h1z
M280 941q11 0 17.5 -7t6.5 -17v-7q0 -13 -12 -20q-1 -1 -2 -1l-1 -1q-3 -2 -6.5 -4.5t-7.5 -5.5q-3 -2 -6.5 -4.5t-7.5 -5.5q-5 -3 -8.5 -5.5t-8.5 -5.5q-6 -4 -11.5 -7.5t-10.5 -7.5l-2 -3q-15 -15 -29 -15q-10 0 -18 8l-2 2l-1 2q-12 17 3 34q3 3 6.5 5.5t5.5 4.5
q1 1 1.5 1t1.5 1q2 2 5.5 5t7.5 6l1 1l1 1h1q1 0 3 2q12 8 22 16t20 14l5 4q8 4 11 6l1 1h2q1 1 2 1q4 2 10 2z" />
    <glyph glyph-name="Acircumflex" unicode="&#xc2;" horiz-adv-x="436" 
d="M385 55q2 -14 3 -24t-4 -18q-7 -13 -21 -13q-17 0 -23.5 13.5t-8.5 23.5q-2 5 -2.5 9.5t-1.5 8.5q-1 2 -1 4l-1 3v3q-1 7 -2 14.5t-3 16.5l-1 6q-2 5 -2.5 9t-1.5 8q-5 21 -8.5 42t-7.5 42q-3 14 -6 27t-5 27l-1 3l-1 3q0 2 -0.5 3t-0.5 3q-2 4 -3 12q0 2 -0.5 3.5
t-0.5 3.5t-0.5 3.5t-0.5 3.5q-1 1 -1 4q-25 2 -47.5 2.5t-40.5 0.5q-39 0 -84 -3h-2q-2 -7 -3.5 -13.5t-3.5 -13.5q-2 -8 -4 -15t-4 -15q-2 -5 -3.5 -10.5t-3.5 -10.5q0 -2 -0.5 -2.5t-0.5 -2.5l-1 -1q-2 -7 -4.5 -13t-3.5 -12q-2 -11 -5 -21l-6 -20l-2 -6q-2 -5 -3 -8.5
t-3 -8.5l-3 -12v-1l-1 -3q-7 -28 -12.5 -49t-16.5 -37l-10 -21l-26 2l-3 4q-2 0 -3 1l-12 6v16l1 1q1 7 3 13.5t4 13.5q1 1 1 1.5t1 1.5l2 6v2l1 2q1 2 1.5 3.5t1.5 3.5q1 3 3 7q2 5 3 9.5t2 7.5q1 2 1 2.5t1 2.5q5 23 11.5 45.5t13.5 42.5q1 4 2 7.5t3 7.5l8 27
q1 3 1.5 5.5t1.5 5.5q2 3 2.5 6.5t1.5 5.5v2l1 4q2 3 2 5.5t1 6.5l1 2q0 2 0.5 3t0.5 3l1 1v2v3q2 5 3.5 10.5t3.5 11.5v1v2l1 3q5 14 9.5 31t10.5 35q1 2 1.5 5t1.5 5t1 3t1 3v1l1 4q2 3 2.5 7t2.5 9q0 2 2 8q2 4 2 8l1 2l1 7v1q1 4 3 10q2 4 2.5 8t2.5 8v1l1 3
q6 22 12 43.5t13 42.5v1q5 14 10.5 31t10.5 35v2q2 5 4 11l4 12q2 4 2.5 8t2.5 9l1 2q2 5 3.5 9.5t3.5 8.5v1q3 11 6.5 22t7.5 23q1 3 2 6.5t3 7.5q2 5 3 9.5t1 8.5v13l10 6q9 7 18 7t14.5 -5t9 -11.5t5.5 -14t3 -12.5q2 -9 3.5 -20.5t3.5 -25.5q0 -5 0.5 -7.5t0.5 -4.5
q3 -17 5.5 -34t4.5 -34q2 -14 3.5 -27.5t3.5 -27.5q1 -4 3 -14q5 -27 12 -56q9 -33 15.5 -65t11.5 -58q5 -24 10.5 -48.5t10.5 -49.5h1q1 -5 2 -10.5t2 -10.5q5 -17 8.5 -35t7.5 -36q1 -5 1 -9.5t1 -9.5q2 -6 2.5 -12.5t1.5 -12.5q2 -8 2 -12q2 -10 3 -19t3 -17l1 -1l2 -7
q0 -4 1 -6q0 -1 0.5 -2t0.5 -2v-1l1 -2q1 -2 2 -5.5t1 -7.5l2 -5h1v-2v-1v-1zM135 359q6 1 12.5 1.5t13.5 0.5q17 0 36 -0.5t42 -1.5h12q5 -1 8 -1h6q-2 9 -3.5 17.5t-3.5 17.5q-2 6 -4 14l-2 7l-6 24q-4 15 -7.5 29t-5.5 28q-2 8 -2.5 16t-2.5 16q-4 30 -8 55.5t-8 51.5
q0 5 -2 13q0 6 -1 8q-3 -9 -5.5 -18.5t-6.5 -18.5v-1q-5 -11 -8 -22l-6 -22v-1l-3 -12q-2 -10 -5 -20t-8 -21q-2 -7 -3.5 -14t-3.5 -15q-1 -2 -1 -3.5t-1 -3.5v-5l-1 -2q-3 -16 -7 -26l-2 -6q-1 -4 -2 -7t-3 -7q-2 -7 -3.5 -14t-3.5 -14q-5 -16 -8 -28q-2 -5 -2.5 -8.5
t-1.5 -7.5q2 0 3 0.5t3 0.5h3h2zM304 843q7 -11 0 -19q-7 -10 -26 -12h-4q-11 0 -17.5 3.5t-9.5 5.5v1l-3 2l-2 3q-1 1 -1 2q-4 4 -6 8q-1 1 -1 2l-1 1q-3 3 -5.5 6.5t-4.5 6.5q-4 6 -6 8q-1 -1 -1.5 -2t-1.5 -2q-4 -4 -8 -10q-1 -1 -1 -2l-2 -2q-3 -8 -12.5 -19.5
t-29.5 -11.5q-19 0 -27 10q-8 8 -4.5 15.5t5.5 11.5l1 1q6 8 11 13q2 3 4.5 6t4.5 6q7 10 16 19q1 1 1 2q2 2 4.5 5t6.5 6q12 12 30 12h3q17 0 28 -8t17 -15l2 -2q2 0 2 -2l6 -4v-1l1 -4q2 -2 3 -4l2 -4q2 -2 4 -5t4 -5l10 -13l3 -3q2 -2 2.5 -3t2.5 -3z" />
    <glyph glyph-name="Atilde" unicode="&#xc3;" horiz-adv-x="427" 
d="M379 55q2 -14 3 -24t-4 -18q-7 -13 -21 -13q-17 0 -23.5 13.5t-8.5 23.5q-1 5 -2 9.5t-2 8.5q-1 2 -1 4l-1 3v3q-1 7 -2 14.5t-3 16.5l-1 6q-2 5 -2.5 9t-1.5 8q-5 21 -8.5 42t-7.5 42q-3 14 -5.5 27t-5.5 27l-1 3l-1 3q0 4 -1 6q-2 6 -2 12q-1 2 -1 3.5t-1 3.5
q0 2 -0.5 3.5t-0.5 3.5q0 1 -0.5 2t-0.5 2q-24 2 -46.5 2.5t-40.5 0.5q-40 0 -85 -3h-2q-2 -7 -3.5 -13.5t-3.5 -13.5q-2 -8 -4 -15t-4 -15l-6 -21q-1 -2 -1 -2.5t-1 -2.5l-1 -1q-2 -7 -4 -13l-4 -12q-2 -11 -5 -21l-6 -20l-2 -6q-2 -5 -3 -8.5t-2 -8.5q-2 -4 -4 -12v-1
l-1 -3q-7 -28 -12.5 -49t-16.5 -37l-10 -21l-26 2l-3 4q-2 0 -2 1l-13 6v16l1 1q1 7 3 13.5t4 13.5h1q0 1 0.5 1.5t0.5 1.5l2 6l1 2v2q1 2 1.5 3.5t1.5 3.5q1 3 3 7q2 5 3 9.5t2 7.5q1 2 1 2.5t1 2.5q5 23 12 45.5t13 42.5q1 4 2 7.5t3 7.5l8 27q1 3 1.5 5.5t1.5 5.5
q2 3 2.5 6.5t1.5 5.5v2l1 4q2 3 2 5.5t1 6.5l1 2q0 2 0.5 3t0.5 3l1 1v2l1 3q1 10 6 22v1v2l1 3q10 31 20 66q1 2 1.5 5t1.5 5t1 3t1 3v1l1 4q2 3 2.5 7t2.5 9q0 2 2 8q2 4 2 8l1 2l1 7v1q1 4 3 10q2 4 2.5 8t2.5 8v1l1 3q6 22 12 43.5t13 42.5l1 1q10 31 20 66v2q5 13 8 23
q2 4 3 8t3 9v2q2 5 3.5 9.5t3.5 8.5v1q4 11 7.5 22t6.5 23q1 3 2 6.5t3 7.5q5 12 5 18v13l9 6q9 7 18 7t14.5 -5t9 -11.5t5.5 -14t3 -12.5q2 -9 3.5 -20.5t3.5 -25.5q0 -5 0.5 -7.5t0.5 -4.5q4 -17 6 -34l4 -34q2 -14 4 -27.5t4 -27.5q0 -4 2 -14q5 -27 12 -56
q9 -33 15.5 -65t11.5 -58q5 -24 10.5 -48.5t11.5 -49.5q1 -5 2 -10.5t2 -10.5q5 -17 8.5 -35t7.5 -36q1 -5 1.5 -9.5t1.5 -9.5q1 -6 2 -12.5t2 -12.5q0 -3 0.5 -6t0.5 -6q3 -20 6 -36l1 -1l2 -7q0 -2 0.5 -3t0.5 -3q0 -1 0.5 -2t0.5 -2v-1l1 -2q1 -2 2 -5.5t1 -7.5l2 -5h1
v-2l1 -1v-1v-3zM129 359q7 1 13 1.5t13 0.5q17 0 36 -0.5t42 -1.5h13q5 -1 14 -1q-2 9 -4 17.5t-4 17.5q-2 8 -4 14l-1 7l-6 24q-5 15 -8.5 29t-5.5 28l-2 16t-3 16q-4 30 -8 55.5t-8 51.5q0 3 -0.5 6.5t-0.5 6.5q-1 2 -1 4t-1 4q-2 -9 -5 -18.5t-7 -18.5v-1
q-5 -11 -7.5 -22t-5.5 -22l-1 -1l-3 -12q-2 -10 -5 -20t-8 -21q-2 -7 -3.5 -14t-3.5 -15q-1 -2 -1 -3.5t-1 -3.5v-5l-1 -2q-1 -8 -2.5 -14t-3.5 -12l-2 -6q-2 -4 -3 -7t-3 -7q-2 -7 -3.5 -14t-3.5 -14q-5 -16 -8 -28q-2 -5 -2.5 -8.5t-1.5 -7.5q2 0 3 0.5t3 0.5h4h1z
M371 884q4 -6 3 -11t-2 -8q-1 -1 -1 -2v-1q-1 -1 -1 -2t-1 -2v-3l-2 -4q-5 -10 -16.5 -24.5t-34.5 -22.5q-5 -2 -12 -3t-12 -1h-2q-8 0 -15 2.5t-12 4.5q-2 1 -3.5 1.5t-3.5 2.5q-6 3 -11 7.5t-10 9.5q-4 4 -7 7.5t-6 7.5q-8 10 -12.5 14.5t-12.5 6.5h-2h-1h-1
q-15 0 -31 -16q-2 -2 -4 -5t-4 -5l-1 -1l-1 -1l-1 -2l-2 -2q-11 -21 -28 -24h-1h-2q-4 0 -12 1.5t-13 9.5l-1 2v1q-2 5 -0.5 12t12.5 20q1 1 1 2l4 4q12 15 17 20.5t7 7.5q27 22 67 22q11 0 20 -4.5t14 -7.5q11 -7 18 -15t13 -16q2 -2 2.5 -3t2.5 -3q5 -5 10 -9.5t10 -6.5h3
q5 0 10.5 3t7.5 5q6 8 8 11v6l3 3q4 12 11.5 17t15.5 5h1q5 0 7 -1h9z" />
    <glyph glyph-name="Adieresis" unicode="&#xc4;" horiz-adv-x="435" 
d="M130 850q0 13 9 22t22 9t22 -9t9 -22t-9 -22t-22 -9t-22 9t-9 22zM232 850q0 13 9 22t22 9t22 -9t9 -22t-9 -22t-22 -9t-22 9t-9 22zM134 359q7 1 13 1.5t13 0.5q17 0 36 -0.5t42 -1.5h13q5 -1 14 -1q-2 9 -4 17.5t-4 17.5q-2 8 -4 14l-1 7l-6 24q-5 15 -8.5 29t-5.5 28
l-2 16t-3 16q-4 30 -8 55.5t-8 51.5q0 3 -0.5 6.5t-0.5 6.5q-1 2 -1 4t-1 4q-2 -9 -5 -18.5t-7 -18.5v-1q-5 -11 -7.5 -22t-5.5 -22l-1 -1l-3 -12q-2 -10 -5 -20t-8 -21q-2 -7 -3.5 -14t-3.5 -15q-1 -2 -1 -3.5t-1 -3.5v-5l-1 -2q-1 -8 -2.5 -14t-3.5 -12l-2 -6q-2 -4 -3 -7
t-3 -7q-2 -7 -3.5 -14t-3.5 -14q-5 -16 -8 -28q-2 -5 -2.5 -8.5t-1.5 -7.5q2 0 3 0.5t3 0.5h4h1zM384 55q2 -14 3 -24t-4 -18q-7 -13 -21 -13q-17 0 -23.5 13.5t-8.5 23.5q-1 5 -2 9.5t-2 8.5q-1 2 -1 4l-1 3v3q-1 7 -2 14.5t-3 16.5l-1 6q-2 5 -2.5 9t-1.5 8q-5 21 -8.5 42
t-7.5 42q-3 14 -5.5 27t-5.5 27l-1 3l-1 3q0 4 -1 6q-2 6 -2 12q-1 2 -1 3.5t-1 3.5q0 2 -0.5 3.5t-0.5 3.5q0 1 -0.5 2t-0.5 2q-24 2 -46.5 2.5t-40.5 0.5q-40 0 -85 -3h-2q-2 -7 -3.5 -13.5t-3.5 -13.5q-2 -8 -4 -15t-4 -15l-6 -21q-1 -2 -1 -2.5t-1 -2.5l-1 -1
q-2 -7 -4 -13l-4 -12q-2 -11 -5 -21l-6 -20l-2 -6q-2 -5 -3 -8.5t-2 -8.5q-2 -4 -4 -12v-1l-1 -3q-7 -28 -12.5 -49t-16.5 -37l-10 -21l-26 2l-3 4q-2 0 -2 1l-13 6v16l1 1q1 7 3 13.5t4 13.5h1q0 1 0.5 1.5t0.5 1.5l2 6l1 2v2q1 2 1.5 3.5t1.5 3.5q1 3 3 7q2 5 3 9.5t2 7.5
q1 2 1 2.5t1 2.5q5 23 12 45.5t13 42.5q1 4 2 7.5t3 7.5l8 27q1 3 1.5 5.5t1.5 5.5q2 3 2.5 6.5t1.5 5.5v2l1 4q2 3 2 5.5t1 6.5l1 2q0 2 0.5 3t0.5 3l1 1v2l1 3q1 10 6 22v1v2l1 3q10 31 20 66q1 2 1.5 5t1.5 5t1 3t1 3v1l1 4q2 3 2.5 7t2.5 9q0 2 2 8q2 4 2 8l1 2l1 7v1
q1 4 3 10q2 4 2.5 8t2.5 8v1l1 3q6 22 12 43.5t13 42.5l1 1q10 31 20 66v2q5 13 8 23q2 4 3 8t3 9v2q2 5 3.5 9.5t3.5 8.5v1q4 11 7.5 22t6.5 23q1 3 2 6.5t3 7.5q5 12 5 18v13l9 6q9 7 18 7t14.5 -5t9 -11.5t5.5 -14t3 -12.5q2 -9 3.5 -20.5t3.5 -25.5q0 -5 0.5 -7.5
t0.5 -4.5q4 -17 6 -34l4 -34q2 -14 4 -27.5t4 -27.5q0 -4 2 -14q5 -27 12 -56q9 -33 15.5 -65t11.5 -58q5 -24 10.5 -48.5t11.5 -49.5q1 -5 2 -10.5t2 -10.5q5 -17 8.5 -35t7.5 -36q1 -5 1.5 -9.5t1.5 -9.5q1 -6 2 -12.5t2 -12.5q0 -3 0.5 -6t0.5 -6q3 -20 6 -36l1 -1l2 -7
q0 -2 0.5 -3t0.5 -3q0 -1 0.5 -2t0.5 -2v-1l1 -2q1 -2 2 -5.5t1 -7.5l2 -5h1v-2l1 -1v-1v-3z" />
    <glyph glyph-name="Aring" unicode="&#xc5;" horiz-adv-x="439" 
d="M383 55q2 -14 3 -24t-4 -18q-7 -13 -22 -13q-8 0 -13.5 4t-9 9.5t-5.5 12t-3 11.5q-2 5 -2.5 9.5t-1.5 8.5q-1 2 -1 4l-1 3v3q-1 7 -2 14.5t-3 16.5l-1 6q-2 5 -3 9t-1 8q-5 21 -8.5 42t-8.5 42q-2 14 -5 27t-5 27l-1 3l-1 3q0 2 -0.5 3t-0.5 3q-2 4 -3 12q0 2 -0.5 3.5
t-0.5 3.5q-1 3 -1 7q-1 1 -1 4q-25 2 -47.5 2.5t-40.5 0.5q-39 0 -84 -3h-2q-2 -7 -4 -13.5t-4 -13.5q-2 -8 -3.5 -15t-3.5 -15q-2 -5 -3.5 -10.5t-3.5 -10.5q0 -2 -0.5 -2.5t-0.5 -2.5l-1 -1q-2 -7 -4.5 -13t-3.5 -12q-2 -11 -5 -21l-6 -20l-2 -6q-2 -5 -3 -8.5t-3 -8.5
l-3 -12v-1l-1 -3q-7 -28 -12.5 -49t-16.5 -37l-11 -21l-25 2l-3 4q-2 0 -3 1l-12 6v16v1q2 7 4 13.5t4 13.5q1 1 1 1.5t1 1.5l2 6v2l1 2q1 2 1.5 3.5t1.5 3.5q2 6 2 7q2 5 3 9.5t3 7.5q1 2 1 5q5 23 12 45.5t14 42.5q2 10 4 15l8 27q2 5 4 11q2 3 2.5 6.5t1.5 5.5v2l1 4
q2 3 2 5.5t1 6.5v2q2 4 2 6l1 1v2v3q2 5 3.5 10.5t3.5 11.5v1v2l1 3q5 14 9.5 31t10.5 35q1 2 1.5 5t1.5 5t1 3t1 3v1l1 4q1 3 2 7t3 9q0 2 2 8q2 4 2 8l1 2l1 7v1q1 4 3 10q1 7 5 16v1v3q7 22 13 43.5t13 42.5v1q5 14 10.5 31t10.5 35v2q2 5 4 11l4 12q2 4 2.5 8t2.5 9l1 2
q2 5 3.5 9.5t3.5 8.5v1q3 11 6.5 22t7.5 23q1 3 2 6.5t3 7.5q2 5 3 9.5t1 8.5v13l10 6q9 7 18 7t14.5 -5t9 -11.5t5.5 -14t3 -12.5q2 -9 3.5 -20.5t3.5 -25.5q0 -5 0.5 -7.5t0.5 -4.5q3 -17 5.5 -34t4.5 -34q2 -14 3.5 -27.5t3.5 -27.5q1 -4 3 -14q5 -27 12 -56
q9 -33 15.5 -65t11.5 -58q9 -50 21 -98q2 -5 3 -10.5t2 -10.5q9 -34 15 -71h1q1 -5 1 -9.5t1 -9.5q2 -6 2.5 -12.5t1.5 -12.5q1 -3 1 -6t1 -6q2 -10 3 -19t3 -17l1 -1l1 -7q1 -2 1 -3t1 -3q0 -3 1 -4v-1l1 -2q1 -3 3 -13l2 -5h1v-2v-1v-1zM133 359q6 1 12.5 1.5t13.5 0.5
q17 0 36 -0.5t42 -1.5h12q4 -1 7.5 -1h6.5q-2 9 -4 17.5t-4 17.5q-1 4 -1.5 7t-1.5 7l-2 7l-6 24q-4 15 -7.5 29t-5.5 28q-2 8 -2.5 16t-2.5 16q-5 30 -8.5 55.5t-7.5 51.5q0 5 -2 13q0 6 -1 8q-3 -9 -5.5 -18.5t-6.5 -18.5l-1 -1q-4 -11 -7 -22l-6 -22v-1l-3 -12
q-3 -10 -5.5 -20t-7.5 -21q-3 -7 -4 -14t-3 -15q-1 -2 -1 -3.5t-1 -3.5q0 -4 -1 -5v-2q-3 -16 -7 -26l-2 -6q-1 -4 -2 -7t-3 -7l-4 -14l-4 -14q-3 -12 -8 -28q-1 -5 -1.5 -8.5t-1.5 -7.5q2 0 3 0.5t3 0.5h3h2zM270 918q2 -10 1.5 -19.5t-2.5 -17.5q-2 -6 -4.5 -13t-7.5 -13
q-17 -22 -43 -22q-12 0 -23.5 4.5t-19.5 13.5l-1 1q-9 9 -12.5 21t-1.5 26q2 13 5.5 25t16.5 23q12 11 24 16q9 4 18 4q16 0 28.5 -9.5t17.5 -26.5v-1q1 -1 1 -4l3 -4v-4zM223 868q6 6 8 14.5t2 28.5q-1 5 -3 12.5t-9 12.5q-2 0 -2.5 -0.5t-1.5 -0.5l-2 -1q-9 -5 -14 -17
t-5 -24q0 -18 5 -23l1 -1q2 -4 4.5 -4.5t3.5 -0.5q6 0 13 4z" />
    <glyph glyph-name="AE" unicode="&#xc6;" horiz-adv-x="574" 
d="M506 48q7 -11 0 -23q-5 -11 -18.5 -14t-23.5 -5h-2h-2q-12 -2 -24.5 -3t-27.5 -1h-20q-5 1 -9 1h-8h-2l-6 1q-8 0 -16 -0.5t-16 -1.5t-16 -1.5t-16 -0.5h-8t-9 1q-12 1 -18.5 7.5t-9.5 14.5t-3 15.5v12.5v7q0 12 0.5 24t0.5 23q1 5 1 10.5t1 10.5q1 13 1.5 26t0.5 27
q-14 -1 -26.5 -1h-23.5h-27h-33t-36 -1q-5 -14 -10.5 -30.5t-12.5 -35.5l-5 -12q-8 -21 -15 -42t-12 -40l-4 -16h-17q-6 0 -10.5 1.5t-6.5 2.5l-3 2l-14 14l4 13q18 57 34 105.5t31 90.5t28.5 78.5t27.5 70.5q3 8 4.5 14.5t4.5 14.5v2l2 6t2 7q2 6 5 12.5t5 14.5q3 6 5.5 12
t4.5 12q2 4 2.5 7.5t2.5 6.5q3 8 6 14.5t6 13.5l5 13q11 27 22.5 57t27.5 62q2 5 4.5 10t5.5 10q8 17 16 34.5t20 37.5l1 2q0 1 1 2q0 1 2 5q1 1 1 2t1 3v1q0 3 3 9l4 9l10 3q6 1 20 4t32 5.5t38.5 4.5t41.5 2h20t23.5 -2.5t19.5 -8.5t8 -19q0 -12 -7 -17.5t-16.5 -7
t-20 -0.5t-18.5 1q-23 0 -46.5 -2.5t-48.5 -6.5q3 -92 -3 -181t-14 -170q11 2 20.5 2h19.5h20q8 2 15 2q5 1 11 1.5t11 0.5q10 1 23.5 2t25 -1.5t19 -10t5.5 -23.5q-2 -14 -10.5 -19t-19.5 -5.5t-23 1.5t-21 2q-20 0 -38.5 -1.5t-38.5 -3.5h-1q-5 -1 -9.5 -1.5t-9.5 -1.5
q0 -2 -1 -3q-1 -5 -2 -13t-3 -19q-2 -19 -3 -35.5t-1 -20.5v-9.5t-1 -18.5q-1 -5 -1.5 -10.5t-0.5 -12.5q-3 -40 -5 -73t-3 -50h19.5t19.5 1q8 0 15.5 0.5t15.5 0.5q7 1 13.5 1h14.5q14 0 28 0.5t29 1.5h1h5q5 1 10 1q19 0 29 -15zM177 364l-18 -46t-17 -47q0 -2 -0.5 -3.5
t-0.5 -3.5q-1 -1 -1 -2v-1q-2 -4 -3.5 -10t-4.5 -14h20h18.5t18.5 -1h19q5 -1 9.5 -1h9.5q11 0 19 0.5t15 1.5q9 93 18 199.5t11 206.5q-4 -6 -5 -9l-3 -6q-8 -12 -14 -26l-12 -28q-4 -9 -7.5 -18t-7.5 -19q-2 -4 -3 -7l-12 -30q-8 -17 -14 -33t-12 -33q-1 -3 -1.5 -6.5
t-2.5 -6.5q-1 -3 -2 -6.5t-2 -6.5q-7 -25 -15 -43v-1z" />
    <glyph glyph-name="Ccedilla" unicode="&#xc7;" horiz-adv-x="387" 
d="M305 89q9 0 16 -6.5t7 -16.5v-3l-1 -3v-2v-12l-9 -6q-1 -1 -1.5 -1t-1.5 -1q-22 -18 -45 -28.5t-50 -13.5q0 -5 -6 -17l-2 -5q-3 -6 -6 -12.5t-6 -12.5q1 0 1 -0.5t1 -0.5q1 -1 2 -1q5 -3 9.5 -6t9.5 -8q4 -5 12.5 -18t5.5 -32q-8 -43 -65 -59l-3 -1h-21l-3 1l-5 2
q-8 3 -17 9.5t-9 20.5v8l5 5q2 2 5.5 4.5t10.5 2.5q6 0 10 -2.5t6 -4.5q1 0 1 -1h2l1 -1h2q3 0 3 1h1h1q11 2 20 9.5t10 12.5v1v2q-1 2 -5 7t-13 10v1q-2 0 -3 0.5l-3 1.5q-2 0 -3 1q-3 1 -6.5 1.5t-7.5 2.5l-12 6l2 13q1 6 2.5 10.5t3.5 7.5l6 12h2q2 4 3.5 7.5t3.5 8.5
l1 1q0 1 0.5 1.5t0.5 1.5l3 6v1q-50 3 -80 25q-19 15 -32 36.5t-22 48t-15 55t-10 56.5q-3 23 -4 48.5t-2 51.5v1q0 14 -0.5 27.5t-1.5 29.5v1q0 7 -0.5 13.5t-1.5 13.5v1v11q-1 10 -1.5 19t-0.5 19q2 23 5 40.5t5 30.5v1v2q6 29 14.5 63.5t20.5 68.5q5 19 20 48t30 53l1 2
q2 3 3.5 5t3.5 4h1l2 7l11 4q38 23 77 23q16 0 36 -5q14 -4 28.5 -13.5t22.5 -17.5l1 -1l1 -1q7 -11 11 -22q4 -10 6.5 -20.5t-0.5 -18.5q-5 -13 -19 -16h-2h-4q-13 0 -20 7l-9 9l-1 8q-2 22 -22 30q-3 1 -12.5 2.5t-26.5 1.5q-16 0 -31 -13t-24 -29h-1q-4 -6 -8 -15.5
t-8 -19.5q-8 -20 -15 -33q-1 -7 -2.5 -14t-3.5 -12q-1 -2 -1 -4l-4 -12t-4 -11q-2 -7 -4 -13l-4 -12l-1 -2q-2 -11 -3.5 -21.5t-3.5 -22.5q-1 -5 -1.5 -11t-1.5 -11q0 -7 -3 -14q-5 -29 -3 -61.5t4 -68.5v-1q0 -6 0.5 -12.5t0.5 -13.5q1 -13 1.5 -26t0.5 -26q5 -9 5.5 -17.5
t-0.5 -16.5q0 -1 -0.5 -2t-0.5 -2q0 -7 1 -10v-2q7 -32 14.5 -65t19.5 -58q11 -20 26.5 -31.5t47.5 -15.5h2q4 -1 13 -1q53 0 80 25h1l1 2l3 3q1 0 3 2q5 4 10.5 7.5t14.5 3.5z" />
    <glyph glyph-name="Egrave" unicode="&#xc8;" horiz-adv-x="387" 
d="M67 537q-1 -5 -1.5 -10.5t0.5 -10.5q0 -10 -0.5 -19t-1.5 -17v-9q-1 -3 -1 -11q-1 -8 -1.5 -14.5t0.5 -13.5v-19h16q1 0 2 0.5t3 0.5h8h9q2 0 3 -0.5t2 -0.5h13q8 0 9 1h3h7h5q2 0 9 -1t13 -7l3 -2l1 -4q5 -9 3 -20v-20h-23h-4.5t-4.5 -1q-3 -1 -7.5 -2t-9.5 -1
q-3 0 -6 0.5t-6 0.5h-11q-3 0 -6 0.5t-7 0.5h-10h-8h-6l-1 -1v-30v-10.5t-1 -10.5v-21v-2l-1 -7q-2 -17 -2.5 -35.5t-1.5 -35.5q0 -8 0.5 -16.5t0.5 -18.5v-2v-9q-1 -2 -1 -6v-6v-6v-2v-2q0 -10 1 -19.5t3 -19.5q1 -5 1 -10v-10q1 -5 1 -12t1 -10q2 0 3 1q4 1 8 1t9 1
q9 1 18 1t18 1q8 1 17 1.5t18 0.5l3 1l51 3h2h23l1 1h27h17q3 0 5.5 -0.5t4.5 -0.5h3q6 0 19 -2.5t18 -17.5q2 -5 2.5 -10t-3.5 -13l-1 -3l-3 -2q-6 -7 -14 -8.5t-14 -1.5h-46h-18q-5 0 -10 -0.5t-10 -0.5h-37h-22t-22 -2h-1q-4 -1 -11 -1q-2 0 -3.5 -0.5t-3.5 -0.5h-2h-2
q-2 0 -12 -2h-3q-10 -2 -19.5 -2h-19.5h-8q-20 0 -27.5 9t-9.5 19v1q-1 5 -1 9v8q1 1 1 4q0 7 -1 10v2v2q0 6 -1 11.5t-1 11.5v3v5q0 5 -0.5 10t-1.5 10q-1 18 -2 35t0 34l2 74t3 63q1 15 1 30.5v31.5v43.5t2 44.5q1 17 1.5 35.5t1.5 36.5v7v9q0 6 0.5 12t1.5 13v2
q2 11 2 22v22v1v2q1 3 1 11q0 3 0.5 6.5t0.5 7.5q3 21 3 42q0 6 1 8v1v2v7q2 14 2 30t7 28q9 14 25 16.5t31 2.5h9q19 0 38 1t39 1h3l13 1q9 0 17.5 0.5t16.5 0.5q25 1 48 0t43 -1h1q18 0 23 -18q2 -13 -5 -22q-7 -10 -21 -13t-37 -3h-16h-9h-2q-6 0 -12 -0.5t-13 -0.5
q-6 0 -12 0.5t-12 0.5h-23q-19 0 -41 -3h-1h-1q-6 0 -11.5 -1t-12.5 -1h-2h-5l-3 -1h-9t-9 -1v-6q0 -2 -0.5 -4t-0.5 -4v-4q0 -3 -0.5 -4.5t-0.5 -3.5v-2l-1 -2q0 -3 -0.5 -5.5t-0.5 -4.5q0 -12 -0.5 -24t-1.5 -25v-1q-1 -11 -2 -22.5t-1 -22.5v-12q-1 -3 -1 -8v-2v-2
q-1 -4 -1.5 -7t-0.5 -7v-13q0 -2 -0.5 -4.5t-0.5 -4.5v-1v-2zM113 949q6 0 10 -2q1 0 2 -1h1l2 -1l5 -2.5t5 -3.5l6 -3q10 -7 20 -15t21 -16l4 -2l1 -1l2 -1q4 -3 7 -5.5t6 -5.5q1 0 3 -2q6 -4 11 -9q15 -17 4 -35l-1 -2l-2 -1q-7 -8 -19 -8q-14 0 -28 14l-3 3
q-5 4 -10.5 7.5t-11.5 7.5l-8 6l-8 6q-4 2 -7.5 4.5t-7.5 5.5q-4 2 -7 4.5t-7 4.5l-1 1q0 1 -2 1q-12 7 -12 20v7q0 11 7 17.5t18 6.5z" />
    <glyph glyph-name="Eacute" unicode="&#xc9;" horiz-adv-x="401" 
d="M245 951q11 0 18 -7t7 -17v-7q0 -13 -12 -20l-2 -1l-1 -1q-6 -4 -14 -10q-4 -2 -7.5 -4.5t-7.5 -5.5t-8 -5.5t-8 -5.5q-6 -4 -11.5 -7.5t-10.5 -7.5l-3 -3q-15 -15 -28 -15q-11 0 -19 8l-2 2l-1 2q-5 8 -4 17t8 17q3 3 6 5.5t5 4.5q2 1 3 2q3 2 6 5t7 6l2 1l1 1l4 2
q11 8 21 16t20 14l6 4q2 2 5 3t5 3l2 1h1q1 0 1 0.5t1 0.5q6 2 10 2zM67 537q-1 -5 -1.5 -10.5t0.5 -10.5q0 -10 -0.5 -19t-1.5 -17v-9q-1 -3 -1 -11q-1 -8 -1.5 -14.5t0.5 -13.5v-19h16q1 0 2 0.5t3 0.5h8h9q2 0 3 -0.5t2 -0.5h13q8 0 9 1h3h7h5q2 0 9 -1t13 -7l3 -2l1 -4
q5 -9 3 -20v-20h-23h-4.5t-4.5 -1q-3 -1 -7.5 -2t-9.5 -1q-3 0 -6 0.5t-6 0.5h-11q-3 0 -6 0.5t-7 0.5h-10h-8h-6l-1 -1v-30v-10.5t-1 -10.5v-21v-2l-1 -7q-2 -17 -2.5 -35.5t-1.5 -35.5q0 -8 0.5 -16.5t0.5 -18.5v-2v-9q-1 -2 -1 -6v-6v-6v-2v-2q0 -10 1 -19.5t3 -19.5
q1 -5 1 -10v-10q1 -5 1 -12t1 -10q2 0 3 1q4 1 8 1t9 1q9 1 18 1t18 1q8 1 17 1.5t18 0.5l3 1l51 3h2h23l1 1h27h17q3 0 5.5 -0.5t4.5 -0.5h3q6 0 19 -2.5t18 -17.5q2 -5 2.5 -10t-3.5 -13l-1 -3l-3 -2q-6 -7 -14 -8.5t-14 -1.5h-46h-18q-5 0 -10 -0.5t-10 -0.5h-37h-22
t-22 -2h-1q-4 -1 -11 -1q-2 0 -3.5 -0.5t-3.5 -0.5h-2h-2q-2 0 -12 -2h-3q-10 -2 -19.5 -2h-19.5h-8q-20 0 -27.5 9t-9.5 19v1q-1 5 -1 9v8q1 1 1 4q0 7 -1 10v2v2q0 6 -1 11.5t-1 11.5v3v5q0 5 -0.5 10t-1.5 10q-1 18 -2 35t0 34l2 74t3 63q1 15 1 30.5v31.5v43.5t2 44.5
q1 17 1.5 35.5t1.5 36.5v7v9q0 6 0.5 12t1.5 13v2q2 11 2 22v22v1v2q1 3 1 11q0 3 0.5 6.5t0.5 7.5q3 21 3 42q0 6 1 8v1v2v7q2 14 2 30t7 28q9 14 25 16.5t31 2.5h9q19 0 38 1t39 1h3l13 1q9 0 17.5 0.5t16.5 0.5q25 1 48 0t43 -1h1q18 0 23 -18q2 -13 -5 -22
q-7 -10 -21 -13t-37 -3h-16h-9h-2q-6 0 -12 -0.5t-13 -0.5q-6 0 -12 0.5t-12 0.5h-23q-19 0 -41 -3h-1h-1q-6 0 -11.5 -1t-12.5 -1h-2h-5l-3 -1h-9t-9 -1v-6q0 -2 -0.5 -4t-0.5 -4v-4q0 -3 -0.5 -4.5t-0.5 -3.5v-2l-1 -2q0 -3 -0.5 -5.5t-0.5 -4.5q0 -12 -0.5 -24t-1.5 -25
v-1q-1 -11 -2 -22.5t-1 -22.5v-12q-1 -3 -1 -8v-2v-2q-1 -4 -1.5 -7t-0.5 -7v-13q0 -2 -0.5 -4.5t-0.5 -4.5v-1v-2z" />
    <glyph glyph-name="Ecircumflex" unicode="&#xca;" horiz-adv-x="391" 
d="M267 862q8 -10 0 -19q-6 -10 -25 -12h-5q-11 0 -17.5 4t-8.5 6h-1l-3 2l-2 3q0 1 -0.5 1t-0.5 1q-2 2 -3 4l-2 4l-2 2l-1 1q-3 3 -5.5 6.5t-4.5 6.5q-4 6 -6 8q-1 -1 -1.5 -2t-1.5 -2q-4 -4 -8 -10l-1 -1q0 -1 -0.5 -1.5t-0.5 -1.5q-4 -8 -13.5 -19.5t-29.5 -11.5
q-17 0 -27 10q-7 8 -3.5 15.5t5.5 11.5v1q5 5 11 13q3 4 5.5 6.5t4.5 5.5q5 9 15 19l2 2t4.5 5t5.5 6q12 12 30 12h3q18 0 28.5 -8t17.5 -15q1 -1 1 -2q2 0 2 -2l6 -4l1 -1v-4q2 -2 3 -4t3 -4q4 -6 7 -10l11 -13q1 0 1 -1q0 -2 1 -2q2 -2 2.5 -3t2.5 -3zM67 537
q-1 -5 -1.5 -10.5t0.5 -10.5q0 -10 -0.5 -19t-1.5 -17v-9q-1 -3 -1 -11q-1 -8 -1.5 -14.5t0.5 -13.5v-19h16q1 0 2 0.5t3 0.5h8h9q2 0 3 -0.5t2 -0.5h13q8 0 9 1h3h7h5q2 0 9 -1t13 -7l3 -2l1 -4q5 -9 3 -20v-20h-23h-4.5t-4.5 -1q-3 -1 -7.5 -2t-9.5 -1q-3 0 -6 0.5t-6 0.5
h-11q-3 0 -6 0.5t-7 0.5h-10h-8h-6l-1 -1v-30v-10.5t-1 -10.5v-21v-2l-1 -7q-2 -17 -2.5 -35.5t-1.5 -35.5q0 -8 0.5 -16.5t0.5 -18.5v-2v-9q-1 -2 -1 -6v-6v-6v-2v-2q0 -10 1 -19.5t3 -19.5q1 -5 1 -10v-10q1 -5 1 -12t1 -10q2 0 3 1q4 1 8 1t9 1q9 1 18 1t18 1q8 1 17 1.5
t18 0.5l3 1l51 3h2h23l1 1h27h17q3 0 5.5 -0.5t4.5 -0.5h3q6 0 19 -2.5t18 -17.5q2 -5 2.5 -10t-3.5 -13l-1 -3l-3 -2q-6 -7 -14 -8.5t-14 -1.5h-46h-18q-5 0 -10 -0.5t-10 -0.5h-37h-22t-22 -2h-1q-4 -1 -11 -1q-2 0 -3.5 -0.5t-3.5 -0.5h-2h-2q-2 0 -12 -2h-3
q-10 -2 -19.5 -2h-19.5h-8q-20 0 -27.5 9t-9.5 19v1q-1 5 -1 9v8q1 1 1 4q0 7 -1 10v2v2q0 6 -1 11.5t-1 11.5v3v5q0 5 -0.5 10t-1.5 10q-1 18 -2 35t0 34l2 74t3 63q1 15 1 30.5v31.5v43.5t2 44.5q1 17 1.5 35.5t1.5 36.5v7v9q0 6 0.5 12t1.5 13v2q2 11 2 22v22v1v2
q1 3 1 11q0 3 0.5 6.5t0.5 7.5q3 21 3 42q0 6 1 8v1v2v7q2 14 2 30t7 28q9 14 25 16.5t31 2.5h9q19 0 38 1t39 1h3l13 1q9 0 17.5 0.5t16.5 0.5q25 1 48 0t43 -1h1q18 0 23 -18q2 -13 -5 -22q-7 -10 -21 -13t-37 -3h-16h-9h-2q-6 0 -12 -0.5t-13 -0.5q-6 0 -12 0.5t-12 0.5
h-23q-19 0 -41 -3h-1h-1q-6 0 -11.5 -1t-12.5 -1h-2h-5l-3 -1h-9t-9 -1v-6q0 -2 -0.5 -4t-0.5 -4v-4q0 -3 -0.5 -4.5t-0.5 -3.5v-2l-1 -2q0 -3 -0.5 -5.5t-0.5 -4.5q0 -12 -0.5 -24t-1.5 -25v-1q-1 -11 -2 -22.5t-1 -22.5v-12q-1 -3 -1 -8v-2v-2q-1 -4 -1.5 -7t-0.5 -7v-13
q0 -2 -0.5 -4.5t-0.5 -4.5v-1v-2z" />
    <glyph glyph-name="Edieresis" unicode="&#xcb;" horiz-adv-x="402" 
d="M67 537q-1 -5 -1.5 -10.5t0.5 -10.5q0 -10 -0.5 -19t-1.5 -17v-9q-1 -3 -1 -11q-1 -8 -1.5 -14.5t0.5 -13.5v-19h16q1 0 2 0.5t3 0.5h8h9q2 0 3 -0.5t2 -0.5h13q8 0 9 1h3h7h5q2 0 9 -1t13 -7l3 -2l1 -4q5 -9 3 -20v-20h-23h-4.5t-4.5 -1q-3 -1 -7.5 -2t-9.5 -1
q-3 0 -6 0.5t-6 0.5h-11q-3 0 -6 0.5t-7 0.5h-10h-8h-6l-1 -1v-30v-10.5t-1 -10.5v-21v-2l-1 -7q-2 -17 -2.5 -35.5t-1.5 -35.5q0 -8 0.5 -16.5t0.5 -18.5v-2v-9q-1 -2 -1 -6v-6v-6v-2v-2q0 -10 1 -19.5t3 -19.5q1 -5 1 -10v-10q1 -5 1 -12t1 -10q2 0 3 1q4 1 8 1t9 1
q9 1 18 1t18 1q8 1 17 1.5t18 0.5l3 1l51 3h2h23l1 1h27h17q3 0 5.5 -0.5t4.5 -0.5h3q6 0 19 -2.5t18 -17.5q2 -5 2.5 -10t-3.5 -13l-1 -3l-3 -2q-6 -7 -14 -8.5t-14 -1.5h-46h-18q-5 0 -10 -0.5t-10 -0.5h-37h-22t-22 -2h-1q-4 -1 -11 -1q-2 0 -3.5 -0.5t-3.5 -0.5h-2h-2
q-2 0 -12 -2h-3q-10 -2 -19.5 -2h-19.5h-8q-20 0 -27.5 9t-9.5 19v1q-1 5 -1 9v8q1 1 1 4q0 7 -1 10v2v2q0 6 -1 11.5t-1 11.5v3v5q0 5 -0.5 10t-1.5 10q-1 18 -2 35t0 34l2 74t3 63q1 15 1 30.5v31.5v43.5t2 44.5q1 17 1.5 35.5t1.5 36.5v7v9q0 6 0.5 12t1.5 13v2
q2 11 2 22v22v1v2q1 3 1 11q0 3 0.5 6.5t0.5 7.5q3 21 3 42q0 6 1 8v1v2v7q2 14 2 30t7 28q9 14 25 16.5t31 2.5h9q19 0 38 1t39 1h3l13 1q9 0 17.5 0.5t16.5 0.5q25 1 48 0t43 -1h1q18 0 23 -18q2 -13 -5 -22q-7 -10 -21 -13t-37 -3h-16h-9h-2q-6 0 -12 -0.5t-13 -0.5
q-6 0 -12 0.5t-12 0.5h-23q-19 0 -41 -3h-1h-1q-6 0 -11.5 -1t-12.5 -1h-2h-5l-3 -1h-9t-9 -1v-6q0 -2 -0.5 -4t-0.5 -4v-4q0 -3 -0.5 -4.5t-0.5 -3.5v-2l-1 -2q0 -3 -0.5 -5.5t-0.5 -4.5q0 -12 -0.5 -24t-1.5 -25v-1q-1 -11 -2 -22.5t-1 -22.5v-12q-1 -3 -1 -8v-2v-2
q-1 -4 -1.5 -7t-0.5 -7v-13q0 -2 -0.5 -4.5t-0.5 -4.5v-1v-2zM112 869q0 13 9 22t22 9t22 -9t9 -22t-9 -22t-22 -9t-22 9t-9 22zM214 869q0 13 9 22t22 9t22 -9t9 -22t-9 -22t-22 -9t-22 9t-9 22z" />
    <glyph glyph-name="Igrave" unicode="&#xcc;" horiz-adv-x="350" 
d="M221 743q-12 1 -22.5 2t-26.5 1q1 -12 3 -18l1 -2q2 -9 0 -17v-6v-14q0 -22 1 -47t-2 -53q-1 -10 -1 -20.5v-20.5v-15v-17t-1 -18v-13q0 -3 -0.5 -5.5t-0.5 -5.5v-1v-2q-2 -9 -2 -18v-18v-54q0 -20 -1 -39.5t0 -39.5q2 -75 5.5 -132.5t9.5 -105.5q2 1 6 1h2q15 2 26 3
t19 1h8q15 0 25 -8l1 -2l2 -1q6 -10 5 -17.5t-3 -11.5l-1 -1q-9 -17 -41 -17h-1q-12 0 -22.5 -1t-21.5 -2l-9 -1q-5 -1 -9 -1t-9 -1q-14 -1 -29 -2t-30 -1h-21q-5 0 -10 -0.5t-11 -0.5h-2h-5q-3 -1 -8 -1q-10 0 -16 3t-8 5q-5 5 -7 13.5t4 19.5l1 3l3 3l2 2l3 7h14
q12 0 24.5 0.5t26.5 1.5h3q8 1 16 1t16 1q-2 22 -3 43.5t-3 42.5q0 3 -0.5 6t-0.5 6q0 7 -1 9v1q-1 8 -1.5 16.5t-0.5 16.5q0 14 -0.5 27.5t-0.5 28.5l-1 4v30q0 8 -0.5 16.5t-0.5 16.5q0 22 0.5 44.5t1.5 46.5v8q1 9 1 18v18q1 9 1 18v18v10.5t1 10.5v21v2q0 9 0.5 18
t0.5 19t0.5 19t0.5 18v49q0 22 -0.5 43.5t-3.5 38.5h-29h-29t-24 1l-14 1l-6 6q-7 7 -7 19v4l1 3q5 14 20 21l5 1h4q21 -2 40 -3t47 -1q23 0 44.5 0.5t44.5 0.5l15 1l4 -2h7q5 1 14 1q6 0 11 -0.5t10 -4.5l12 -3v-17q0 -11 -5.5 -17t-8.5 -8l-6 -4h-2l-4 -2h-7
q-10 0 -18 0.5t-15 1.5zM69 941q5 0 11 -2q1 -1 2 -1h1l2 -1q2 -2 5 -3t5 -3l6 -4q10 -6 20 -14t21 -16l4 -2l1 -1l2 -1q4 -3 7 -6t6 -5l2 -2q3 -2 6 -4.5t6 -5.5q7 -8 8 -17t-4 -17l-2 -2l-1 -2q-8 -8 -19 -8q-13 0 -28 15l-3 3q-5 4 -10.5 7.5t-11.5 7.5q-4 3 -8 5.5
t-9 5.5q-3 3 -6.5 5.5t-7.5 4.5q-4 3 -7.5 5.5t-6.5 4.5l-1 1q-1 1 -2 1q-12 7 -12 20v7q0 10 7 17t17 7z" />
    <glyph glyph-name="Iacute" unicode="&#xcd;" horiz-adv-x="351" 
d="M218 941q11 0 17.5 -7t6.5 -17v-7q0 -13 -12 -20q-1 -1 -2 -1l-1 -1q-3 -2 -6.5 -4.5t-7.5 -5.5q-3 -2 -6.5 -4.5t-7.5 -5.5q-5 -3 -8.5 -5.5t-8.5 -5.5q-6 -4 -11.5 -7.5t-10.5 -7.5l-2 -3q-15 -15 -29 -15q-10 0 -18 8l-2 2l-1 2q-12 17 3 34q3 3 6.5 5.5t5.5 4.5
q1 1 1.5 1t1.5 1q2 2 5.5 5t7.5 6l1 1l1 1h1q1 0 3 2q12 8 22 16t20 14l5 4q8 4 11 6l1 1h2q1 1 2 1q4 2 10 2zM221 743q-12 1 -22.5 2t-26.5 1q1 -12 3 -18l1 -2q2 -9 0 -17v-6v-14q0 -22 1 -47t-2 -53q-1 -10 -1 -20.5v-20.5v-15v-17t-1 -18v-13q0 -3 -0.5 -5.5t-0.5 -5.5
v-1v-2q-2 -9 -2 -18v-18v-54q0 -20 -1 -39.5t0 -39.5q2 -75 5.5 -132.5t9.5 -105.5q2 1 6 1h2q15 2 26 3t19 1h8q15 0 25 -8l1 -2l2 -1q6 -10 5 -17.5t-3 -11.5l-1 -1q-9 -17 -41 -17h-1q-12 0 -22.5 -1t-21.5 -2l-9 -1q-5 -1 -9 -1t-9 -1q-14 -1 -29 -2t-30 -1h-21
q-5 0 -10 -0.5t-11 -0.5h-2h-5q-3 -1 -8 -1q-10 0 -16 3t-8 5q-5 5 -7 13.5t4 19.5l1 3l3 3l2 2l3 7h14q12 0 24.5 0.5t26.5 1.5h3q8 1 16 1t16 1q-2 22 -3 43.5t-3 42.5q0 3 -0.5 6t-0.5 6q0 7 -1 9v1q-1 8 -1.5 16.5t-0.5 16.5q0 14 -0.5 27.5t-0.5 28.5l-1 4v30
q0 8 -0.5 16.5t-0.5 16.5q0 22 0.5 44.5t1.5 46.5v8q1 9 1 18v18q1 9 1 18v18v10.5t1 10.5v21v2q0 9 0.5 18t0.5 19t0.5 19t0.5 18v49q0 22 -0.5 43.5t-3.5 38.5h-29h-29t-24 1l-14 1l-6 6q-7 7 -7 19v4l1 3q5 14 20 21l5 1h4q21 -2 40 -3t47 -1q23 0 44.5 0.5t44.5 0.5
l15 1l4 -2h7q5 1 14 1q6 0 11 -0.5t10 -4.5l12 -3v-17q0 -11 -5.5 -17t-8.5 -8l-6 -4h-2l-4 -2h-7q-10 0 -18 0.5t-15 1.5z" />
    <glyph glyph-name="Icircumflex" unicode="&#xce;" horiz-adv-x="345" 
d="M232 862q8 -10 0 -19q-6 -10 -25 -12h-5q-11 0 -17.5 4t-8.5 6h-1l-3 2l-2 3q0 1 -0.5 1t-0.5 1q-2 2 -3 4l-2 4l-2 2l-1 1q-3 3 -5.5 6.5t-4.5 6.5q-4 6 -6 8q-1 -1 -1.5 -2t-1.5 -2q-4 -4 -8 -10l-1 -1q0 -1 -0.5 -1.5t-0.5 -1.5q-4 -8 -13.5 -19.5t-29.5 -11.5
q-17 0 -27 10q-7 8 -3.5 15.5t5.5 11.5v1q5 5 11 13q3 4 5.5 6.5t4.5 5.5q5 9 15 19l2 2t4.5 5t5.5 6q12 12 30 12h3q18 0 28.5 -8t17.5 -15q1 -1 1 -2q2 0 2 -2l6 -4l1 -1v-4q2 -2 3 -4t3 -4q4 -6 7 -10l11 -13q1 0 1 -1q0 -2 1 -2q2 -2 2.5 -3t2.5 -3zM221 743
q-12 1 -22.5 2t-26.5 1q1 -12 3 -18l1 -2q2 -9 0 -17v-6v-14q0 -22 1 -47t-2 -53q-1 -10 -1 -20.5v-20.5v-15v-17t-1 -18v-13q0 -3 -0.5 -5.5t-0.5 -5.5v-1v-2q-2 -9 -2 -18v-18v-54q0 -20 -1 -39.5t0 -39.5q2 -75 5.5 -132.5t9.5 -105.5q2 1 6 1h2q15 2 26 3t19 1h8
q15 0 25 -8l1 -2l2 -1q6 -10 5 -17.5t-3 -11.5l-1 -1q-9 -17 -41 -17h-1q-12 0 -22.5 -1t-21.5 -2l-9 -1q-5 -1 -9 -1t-9 -1q-14 -1 -29 -2t-30 -1h-21q-5 0 -10 -0.5t-11 -0.5h-2h-5q-3 -1 -8 -1q-10 0 -16 3t-8 5q-5 5 -7 13.5t4 19.5l1 3l3 3l2 2l3 7h14q12 0 24.5 0.5
t26.5 1.5h3q8 1 16 1t16 1q-2 22 -3 43.5t-3 42.5q0 3 -0.5 6t-0.5 6q0 7 -1 9v1q-1 8 -1.5 16.5t-0.5 16.5q0 14 -0.5 27.5t-0.5 28.5l-1 4v30q0 8 -0.5 16.5t-0.5 16.5q0 22 0.5 44.5t1.5 46.5v8q1 9 1 18v18q1 9 1 18v18v10.5t1 10.5v21v2q0 9 0.5 18t0.5 19t0.5 19
t0.5 18v49q0 22 -0.5 43.5t-3.5 38.5h-29h-29t-24 1l-14 1l-6 6q-7 7 -7 19v4l1 3q5 14 20 21l5 1h4q21 -2 40 -3t47 -1q23 0 44.5 0.5t44.5 0.5l15 1l4 -2h7q5 1 14 1q6 0 11 -0.5t10 -4.5l12 -3v-17q0 -11 -5.5 -17t-8.5 -8l-6 -4h-2l-4 -2h-7q-10 0 -18 0.5t-15 1.5z" />
    <glyph glyph-name="Idieresis" unicode="&#xcf;" horiz-adv-x="355" 
d="M221 743q-12 1 -22.5 2t-26.5 1q1 -12 3 -18l1 -2q2 -9 0 -17v-6v-14q0 -22 1 -47t-2 -53q-1 -10 -1 -20.5v-20.5v-15v-17t-1 -18v-13q0 -3 -0.5 -5.5t-0.5 -5.5v-1v-2q-2 -9 -2 -18v-18v-54q0 -20 -1 -39.5t0 -39.5q2 -75 5.5 -132.5t9.5 -105.5q2 1 6 1h2q15 2 26 3
t19 1h8q15 0 25 -8l1 -2l2 -1q6 -10 5 -17.5t-3 -11.5l-1 -1q-9 -17 -41 -17h-1q-12 0 -22.5 -1t-21.5 -2l-9 -1q-5 -1 -9 -1t-9 -1q-14 -1 -29 -2t-30 -1h-21q-5 0 -10 -0.5t-11 -0.5h-2h-5q-3 -1 -8 -1q-10 0 -16 3t-8 5q-5 5 -7 13.5t4 19.5l1 3l3 3l2 2l3 7h14
q12 0 24.5 0.5t26.5 1.5h3q8 1 16 1t16 1q-2 22 -3 43.5t-3 42.5q0 3 -0.5 6t-0.5 6q0 7 -1 9v1q-1 8 -1.5 16.5t-0.5 16.5q0 14 -0.5 27.5t-0.5 28.5l-1 4v30q0 8 -0.5 16.5t-0.5 16.5q0 22 0.5 44.5t1.5 46.5v8q1 9 1 18v18q1 9 1 18v18v10.5t1 10.5v21v2q0 9 0.5 18
t0.5 19t0.5 19t0.5 18v49q0 22 -0.5 43.5t-3.5 38.5h-29h-29t-24 1l-14 1l-6 6q-7 7 -7 19v4l1 3q5 14 20 21l5 1h4q21 -2 40 -3t47 -1q23 0 44.5 0.5t44.5 0.5l15 1l4 -2h7q5 1 14 1q6 0 11 -0.5t10 -4.5l12 -3v-17q0 -11 -5.5 -17t-8.5 -8l-6 -4h-2l-4 -2h-7
q-10 0 -18 0.5t-15 1.5zM59 869q0 13 9 22t22 9t22 -9t9 -22t-9 -22t-22 -9t-22 9t-9 22zM161 869q0 13 9 22t22 9t22 -9t9 -22t-9 -22t-22 -9t-22 9t-9 22z" />
    <glyph glyph-name="Eth" unicode="&#xd0;" horiz-adv-x="471" 
d="M403 568q3 -14 3 -25.5t-1 -23.5v-1v-43v-14q-1 -8 -1 -16t-2 -16q-4 -40 -20 -92l-10 -36t-12 -35v-1l-12 -28l-12 -28t-14 -28.5t-21 -32.5l-2 -4l-1 -1q0 -1 -0.5 -1.5t-0.5 -1.5q-4 -8 -11 -14v-7l-6 -6q-2 -2 -4 -3l-1 -2q0 -1 -1 -1l-4 -4v-2l-2 -2q-1 -1 -1 -3v-3
l-6 -5l-1 -2q-2 -1 -3.5 -3t-5.5 -4l-10 -12l-2 -1q-1 -1 -1.5 -2t-2.5 -3q-4 -5 -7 -7q-2 -4 -9 -8q-2 -2 -3 -2q-2 -2 -5 -3.5t-6 -3.5l-4 -2h-1h-1q-2 -1 -3.5 -2t-2.5 -1q-2 -2 -3 -2.5t-2 -1.5l-1 -2l-2 -3q-5 -5 -11.5 -9t-17.5 -6q-6 -2 -10 -2q-14 0 -24 10.5
t-13 21.5v1l-1 2q-1 7 -1 9.5v3.5v1q0 16 -1 32.5t-3 33.5q-3 38 -5.5 80.5t-2.5 86.5q-3 15 -3.5 29.5t-0.5 30.5v15v16l-1 23q-1 9 -1.5 18.5t-0.5 20.5h-8q-6 0 -8 -0.5t-4 -0.5t-5.5 -0.5t-12.5 -0.5h-1h-3q-2 0 -4.5 -0.5t-4.5 -0.5t-8.5 1t-11.5 6q-8 8 -8 24
q1 13 13 21l4 3l6 1h30h12h11q-2 41 -2.5 79t-0.5 77v24.5t-2 24.5v1q-1 8 0 14t1 12q1 5 1 9v9v1q-9 24 1 38.5t36 14.5q6 0 16 -2h2l5 -2q1 -1 3 -2h1l2 -1q11 -4 20 -5l4 -1q8 -2 10 -2l2 -1h2q2 -1 4.5 -1t5.5 -2q4 -1 8 -4q2 0 6 -2h4l3 -1q8 -2 11 -4q9 -2 16 -6
l14 -8q6 -4 9 -5l7 -3.5t5 -3.5l2 -2l2 -2q1 0 3 -2q7 -3 15 -9l24 -22t23 -24h1q9 -11 14.5 -22t10.5 -22q2 -5 4 -8.5t4 -7.5q8 -14 13 -26.5t8 -26.5zM160 107v-10l-1 -2v-3v-9t2 -9q1 0 5 2l1 1q10 3 14 7l1 1q13 10 26 26.5t20 24.5l3 5q26 32 39.5 58.5t23.5 52.5
q23 58 37.5 108.5t18.5 92.5v7q3 32 4 57.5t-5 48.5q-3 15 -11 30t-19 32q-11 15 -22 28t-22 24q-12 9 -26 17q-2 1 -3.5 2t-3.5 2q-4 2 -5 3l-4 2l-5 2q-16 7 -31 13t-31 10q-8 2 -13 4h-1l-4 1q-4 2 -12 4q1 -18 -2 -40q0 -7 -0.5 -13t-0.5 -11q0 -9 0.5 -18.5t1.5 -18.5
q1 -14 1.5 -28t0.5 -28q1 -16 1 -30.5t2 -29.5q1 -7 1.5 -13.5t0.5 -14.5h84q7 -1 13.5 -1t13.5 -2l15 -5v-39l-14 -6q-8 -2 -12 -2q-6 0 -8 1h-1h-2q-3 0 -13.5 0.5t-29.5 0.5h-21.5t-21.5 -1q0 -9 -0.5 -18.5t-0.5 -17.5v-15v-22.5t1 -22.5q2 -15 2.5 -29t1.5 -28v-1v-20
q0 -11 0.5 -21t1.5 -20q0 -8 0.5 -16.5t1.5 -16.5v-24q-1 -9 0 -17v-1q1 -2 1 -4.5t1 -4.5q0 -2 0.5 -4.5t0.5 -5.5q1 -2 1 -5t1 -6t1 -6t1 -6v-2z" />
    <glyph glyph-name="Ntilde" unicode="&#xd1;" horiz-adv-x="477" 
d="M353 910q4 -6 3 -11t-2 -8q-1 -1 -1 -2v-1q-1 -1 -1 -2t-1 -2v-3l-2 -4q-5 -10 -16.5 -24.5t-34.5 -22.5q-5 -2 -12 -3t-12 -1h-2q-8 0 -15 2.5t-12 4.5q-2 1 -3.5 1.5t-3.5 2.5q-6 3 -11 7.5t-10 9.5q-4 4 -7 7.5t-6 7.5q-8 10 -12.5 14.5t-12.5 6.5h-2h-1h-1
q-15 0 -31 -16q-2 -2 -4 -5t-4 -5l-1 -1l-1 -1l-1 -2l-2 -2q-11 -21 -28 -24h-1h-2q-4 0 -12 1.5t-13 9.5l-1 2v1q-2 5 -0.5 12t12.5 20q1 1 1 2l4 4q12 15 17 20.5t7 7.5q27 22 67 22q11 0 20 -4.5t14 -7.5q11 -7 18 -15t13 -16q2 -2 2.5 -3t2.5 -3q5 -5 10 -9.5t10 -6.5h3
q5 0 10.5 3t7.5 5q6 8 8 11v6l3 3q4 12 11.5 17t15.5 5h1q5 0 7 -1h9zM408 748q0 -22 -1 -44.5t-1 -36.5q-1 -15 -0.5 -31t1.5 -33v-1v-49q0 -75 -0.5 -151t-2.5 -152q-1 -9 -0.5 -18t0.5 -19q1 -9 1 -19v-20v-26v-30v-59v-5q1 -12 1 -21.5t-7 -17.5q-6 -6 -11.5 -7.5
t-9.5 -1.5q-10 0 -16.5 5t-10.5 12t-6 14.5t-3 12.5l-18 54q-5 14 -9.5 28.5t-9.5 28.5q-12 40 -27 81q-8 23 -20.5 52.5t-25.5 58.5q-2 5 -5 10.5t-5 10.5l-8 16t-8 17v1q-6 17 -12.5 31t-13.5 28q-3 7 -6 13t-6 13q-9 20 -18.5 38.5t-19.5 36.5l-14 26t-14 27v1
q-8 17 -16 31.5t-16 27.5q0 -12 -0.5 -24t-0.5 -21q-1 -19 0 -40v-23v-22q1 -6 1 -12v-13q0 -83 -1 -154t-3 -137q0 -8 0.5 -17.5t0.5 -17.5q0 -10 1 -19t0 -19v-2v-9.5t-0.5 -18t-0.5 -22.5v-22v-46v-15v-5q-1 -12 -8 -17t-14 -5h-17l-7 6q-7 8 -8 15.5t-1 14.5v8
q0 32 -1 72t1 76q1 9 0.5 18.5t-0.5 20.5v20q-1 10 -1 20v19q0 14 0.5 28.5t1.5 29.5q0 7 0.5 13.5t0.5 13.5q1 14 1.5 26t0.5 25q0 5 -0.5 9.5t-0.5 9.5v20q0 8 -1 12v13.5t1 13.5v17.5t-1 17.5q-2 20 -1.5 38.5t0.5 37.5v25v33t1 33q0 7 0.5 12t1.5 10q0 5 0.5 10.5
t0.5 10.5l1 5v3q0 5 1 12.5t3.5 14t8 11.5t15.5 5q11 0 18.5 -7t9.5 -11q11 -14 21 -30.5t21 -38.5q4 -5 7 -11l6 -12q12 -21 23.5 -42.5t22.5 -43.5l18 -36q14 -26 27.5 -53.5t24.5 -56.5v-1q3 -6 5.5 -12t5.5 -13q2 -4 6 -14q2 -6 5 -11.5t6 -11.5q5 -8 8.5 -16t7.5 -17
q5 -14 11 -28t12 -29q9 -23 18.5 -47t18.5 -47q1 14 0.5 28t-0.5 28v1q0 5 -0.5 9t-0.5 9v21q0 11 0.5 21t0.5 21q1 5 1 9.5t1 9.5q1 20 1 40.5v40.5v39q0 11 -0.5 21t-0.5 20v37v1q-2 26 -1.5 52t0.5 52v34.5t1 34.5q0 7 0.5 13.5t0.5 13.5q0 6 -1.5 9.5t-1.5 5.5t2.5 4
t8.5 4q2 1 9 1.5t15 0.5t15 -0.5t9 -1.5v-42z" />
    <glyph glyph-name="Ograve" unicode="&#xd2;" horiz-adv-x="405" 
d="M283 168q4 17 5.5 32.5t3.5 32.5q1 5 1.5 10t1.5 10q2 14 3 28.5t1 31.5q0 8 -0.5 15.5t-0.5 15.5q0 12 -0.5 24.5t0.5 25.5v1v23t-1 25q0 3 -0.5 6.5t-0.5 6.5t-0.5 6t-0.5 6v2q-1 8 -1 16.5t-1 16.5v1q-2 33 -3.5 60t-6.5 53q-2 7 -4.5 13.5t-5.5 14.5q-1 1 -1 2t-1 2
l-1 4q-5 11 -8 20q-3 3 -5 7l-4 4l-1 2q-11 17 -27 31q-9 8 -25.5 15.5t-27.5 9.5q-7 2 -13 2h-11t-15 -0.5t-15 -2.5l-4 -2q-2 -2 -4.5 -4t-5.5 -4l-1 -2q-2 -2 -3 -2q-2 -2 -4.5 -4t-5.5 -4q-19 -34 -23 -56q-6 -29 -6 -61v-4q-1 -5 -1 -8.5v-7.5q0 -5 -0.5 -8.5
t-0.5 -8.5q-1 -5 -1 -16q0 -4 -0.5 -7.5t-0.5 -8.5q-1 -13 0 -25t2 -25q1 -12 2 -23.5t1 -24.5v-1q-1 -16 -1 -31t2 -29q2 -8 2 -16v-16q0 -5 0.5 -10t0.5 -10l1 -9q3 -23 5 -46t1 -49q0 -12 2.5 -25t5.5 -27l3 -15q20 -91 83 -91q6 0 12 0.5t13 1.5l2 1h1h2q4 0 7 1
q5 0 9.5 1t8.5 2q8 3 14 9t13 15l1 1q1 1 1.5 2t2.5 3l2 2q1 3 6 6q0 1 2 3v1q7 11 10.5 25t7.5 31zM350 471q2 -21 3.5 -43t1.5 -45q0 -66 -3 -133q-1 -19 -4 -36.5t-6 -34.5q-2 -11 -3.5 -22t-3.5 -22q-3 -18 -13 -39t-18 -32q-14 -21 -33.5 -33.5t-31.5 -18.5h-2l-2 -1
q-1 0 -2 -1q-4 -1 -11 -3t-21 -4h-1q-20 -3 -42 -3q-41 0 -71 25t-44 72l-2 6q-8 26 -14.5 50.5t-8.5 52.5q-2 17 -3 34.5t-2 34.5q-1 11 -1.5 23t-1.5 23v3v9l-1 15q-4 66 -6.5 132t2.5 131v1q2 27 7.5 52t14.5 47q10 28 25 43v1q14 19 23 24.5t12 7.5q11 5 28 8.5t29 4.5
h2h6q64 0 114 -41q23 -19 33.5 -40.5t20.5 -44.5q1 -2 1.5 -4t2.5 -4v-1q2 -5 3 -9l2 -8q1 -8 3 -12q10 -24 11.5 -48t2.5 -48v-16.5t1 -16.5zM94 941q6 0 10 -2l2 -1h2l1 -1q3 -2 11 -6l5 -4q10 -6 20 -14t22 -16q2 -2 3 -2l1 -1l2 -1q4 -3 7.5 -6t5.5 -5q1 -1 1.5 -1
t1.5 -1q2 -2 5.5 -4.5t5.5 -5.5q8 -8 8.5 -17t-4.5 -17l-1 -2l-2 -2q-8 -8 -19 -8q-13 0 -28 15l-3 3q-9 7 -21 15q-5 3 -9 5.5t-8 5.5t-7.5 5.5t-6.5 4.5q-4 3 -7.5 5.5t-6.5 4.5l-2 1l-1 1q-12 6 -12 20v7q0 10 6.5 17t17.5 7z" />
    <glyph glyph-name="Oacute" unicode="&#xd3;" horiz-adv-x="417" 
d="M220 951q10 0 17 -7t7 -17v-7q0 -13 -12 -20q-1 0 -1 -0.5t-1 -0.5l-1 -1q-3 -2 -6.5 -4.5t-7.5 -5.5q-4 -2 -7.5 -4.5t-6.5 -5.5q-5 -3 -9 -5.5t-8 -5.5q-6 -4 -11.5 -7.5t-10.5 -7.5l-2 -3q-15 -15 -29 -15q-9 0 -19 8l-1 2l-1 2q-6 8 -5 17t8 17q3 3 6 5.5t6 4.5l2 2
q3 2 6 5t8 6l1 1l1 1q2 0 4 2q11 8 21.5 16t20.5 14l5 4q4 2 10 6l2 1h1l2 1q6 2 11 2zM350 471q2 -21 3.5 -43t1.5 -45q0 -66 -3 -133q-1 -19 -4 -36.5t-6 -34.5q-2 -11 -3.5 -22t-3.5 -22q-3 -18 -13 -39t-18 -32q-14 -21 -33.5 -33.5t-31.5 -18.5h-2l-2 -1q-1 0 -2 -1
q-4 -1 -11 -3t-21 -4h-1q-20 -3 -42 -3q-41 0 -71 25t-44 72l-2 6q-8 26 -14.5 50.5t-8.5 52.5q-2 17 -3 34.5t-2 34.5q-1 11 -1.5 23t-1.5 23v3v9l-1 15q-4 66 -6.5 132t2.5 131v1q2 27 7.5 52t14.5 47q10 28 25 43v1q14 19 23 24.5t12 7.5q11 5 28 8.5t29 4.5h2h6
q64 0 114 -41q23 -19 33.5 -40.5t20.5 -44.5q1 -2 1.5 -4t2.5 -4v-1q2 -5 3 -9l2 -8q1 -8 3 -12q10 -24 11.5 -48t2.5 -48v-16.5t1 -16.5zM283 168q4 17 5.5 32.5t3.5 32.5q1 5 1.5 10t1.5 10q2 14 3 28.5t1 31.5q0 8 -0.5 15.5t-0.5 15.5q0 12 -0.5 24.5t0.5 25.5v1v23
t-1 25q0 3 -0.5 6.5t-0.5 6.5t-0.5 6t-0.5 6v2q-1 8 -1 16.5t-1 16.5v1q-2 33 -3.5 60t-6.5 53q-2 7 -4.5 13.5t-5.5 14.5q-1 1 -1 2t-1 2l-1 4q-5 11 -8 20q-3 3 -5 7l-4 4l-1 2q-11 17 -27 31q-9 8 -25.5 15.5t-27.5 9.5q-7 2 -13 2h-11t-15 -0.5t-15 -2.5l-4 -2
q-2 -2 -4.5 -4t-5.5 -4l-1 -2q-2 -2 -3 -2q-2 -2 -4.5 -4t-5.5 -4q-19 -34 -23 -56q-6 -29 -6 -61v-4q-1 -5 -1 -8.5v-7.5q0 -5 -0.5 -8.5t-0.5 -8.5q-1 -5 -1 -16q0 -4 -0.5 -7.5t-0.5 -8.5q-1 -13 0 -25t2 -25q1 -12 2 -23.5t1 -24.5v-1q-1 -16 -1 -31t2 -29q2 -8 2 -16
v-16q0 -5 0.5 -10t0.5 -10l1 -9q3 -23 5 -46t1 -49q0 -12 2.5 -25t5.5 -27l3 -15q20 -91 83 -91q6 0 12 0.5t13 1.5l2 1h1h2q4 0 7 1q5 0 9.5 1t8.5 2q8 3 14 9t13 15l1 1q1 1 1.5 2t2.5 3l2 2q1 3 6 6q0 1 2 3v1q7 11 10.5 25t7.5 31z" />
    <glyph glyph-name="Ocircumflex" unicode="&#xd4;" horiz-adv-x="417" 
d="M350 471q2 -21 3.5 -43t1.5 -45q0 -66 -3 -133q-1 -19 -4 -36.5t-6 -34.5q-2 -11 -3.5 -22t-3.5 -22q-3 -18 -13 -39t-18 -32q-14 -21 -33.5 -33.5t-31.5 -18.5h-2l-2 -1q-1 0 -2 -1q-4 -1 -11 -3t-21 -4h-1q-20 -3 -42 -3q-41 0 -71 25t-44 72l-2 6q-8 26 -14.5 50.5
t-8.5 52.5q-2 17 -3 34.5t-2 34.5q-1 11 -1.5 23t-1.5 23v3v9l-1 15q-4 66 -6.5 132t2.5 131v1q2 27 7.5 52t14.5 47q10 28 25 43v1q14 19 23 24.5t12 7.5q11 5 28 8.5t29 4.5h2h6q64 0 114 -41q23 -19 33.5 -40.5t20.5 -44.5q1 -2 1.5 -4t2.5 -4v-1q2 -5 3 -9l2 -8
q1 -8 3 -12q10 -24 11.5 -48t2.5 -48v-16.5t1 -16.5zM283 168q4 17 5.5 32.5t3.5 32.5q1 5 1.5 10t1.5 10q2 14 3 28.5t1 31.5q0 8 -0.5 15.5t-0.5 15.5q0 12 -0.5 24.5t0.5 25.5v1v23t-1 25q0 3 -0.5 6.5t-0.5 6.5t-0.5 6t-0.5 6v2q-1 8 -1 16.5t-1 16.5v1q-2 33 -3.5 60
t-6.5 53q-2 7 -4.5 13.5t-5.5 14.5q-1 1 -1 2t-1 2l-1 4q-5 11 -8 20q-3 3 -5 7l-4 4l-1 2q-11 17 -27 31q-9 8 -25.5 15.5t-27.5 9.5q-7 2 -13 2h-11t-15 -0.5t-15 -2.5l-4 -2q-2 -2 -4.5 -4t-5.5 -4l-1 -2q-2 -2 -3 -2q-2 -2 -4.5 -4t-5.5 -4q-19 -34 -23 -56
q-6 -29 -6 -61v-4q-1 -5 -1 -8.5v-7.5q0 -5 -0.5 -8.5t-0.5 -8.5q-1 -5 -1 -16q0 -4 -0.5 -7.5t-0.5 -8.5q-1 -13 0 -25t2 -25q1 -12 2 -23.5t1 -24.5v-1q-1 -16 -1 -31t2 -29q2 -8 2 -16v-16q0 -5 0.5 -10t0.5 -10l1 -9q3 -23 5 -46t1 -49q0 -12 2.5 -25t5.5 -27l3 -15
q20 -91 83 -91q6 0 12 0.5t13 1.5l2 1h1h2q4 0 7 1q5 0 9.5 1t8.5 2q8 3 14 9t13 15l1 1q1 1 1.5 2t2.5 3l2 2q1 3 6 6q0 1 2 3v1q7 11 10.5 25t7.5 31zM235 863q8 -10 0 -20q-7 -11 -25 -11q-2 0 -2.5 -0.5t-2.5 -0.5q-11 0 -17.5 4t-8.5 6l-1 1l-3 2l-2 3l-1 1v1
q-3 3 -5 7l-2 2l-1 2q-3 3 -5.5 6.5t-4.5 6.5q-2 2 -3 4t-3 4q-1 -2 -3 -4q-2 -3 -4 -5.5t-4 -5.5q-1 0 -1 -1t-0.5 -1.5t-0.5 -1.5q-4 -7 -13.5 -18.5t-29.5 -11.5q-18 0 -27 10q-7 8 -3.5 15.5t5.5 10.5v1q3 4 6 7.5t5 6.5q3 3 5.5 6t4.5 6q6 10 15 18l1 2q2 3 5 6l6 6
q14 12 30 12h3q18 0 28.5 -8t17.5 -15q0 -1 0.5 -1t0.5 -1l2 -2l6 -4v-1h1v-4q4 -6 6 -8q3 -6 7 -10l11 -13q0 -1 2 -3t2.5 -3t2.5 -3z" />
    <glyph glyph-name="Otilde" unicode="&#xd5;" horiz-adv-x="422" 
d="M301 908q4 -6 3 -11t-2 -8q-1 -1 -1 -2v-1q-1 -1 -1 -2t-1 -2v-3l-2 -4q-5 -10 -16.5 -24.5t-34.5 -22.5q-5 -2 -12 -3t-12 -1h-2q-8 0 -15 2.5t-12 4.5q-2 1 -3.5 1.5t-3.5 2.5q-6 3 -11 7.5t-10 9.5q-4 4 -7 7.5t-6 7.5q-8 10 -12.5 14.5t-12.5 6.5h-2h-1h-1
q-15 0 -31 -16q-2 -2 -4 -5t-4 -5l-1 -1l-1 -1l-1 -2l-2 -2q-11 -21 -28 -24h-1h-2q-4 0 -12 1.5t-13 9.5l-1 2v1q-2 5 -0.5 12t12.5 20q1 1 1 2l4 4q12 15 17 20.5t7 7.5q27 22 67 22q11 0 20 -4.5t14 -7.5q11 -7 18 -15t13 -16q2 -2 2.5 -3t2.5 -3q5 -5 10 -9.5t10 -6.5h3
q5 0 10.5 3t7.5 5q6 8 8 11v6l3 3q4 12 11.5 17t15.5 5h1q5 0 7 -1h9zM350 471q2 -21 3.5 -43t1.5 -45q0 -66 -3 -133q-1 -19 -4 -36.5t-6 -34.5q-2 -11 -3.5 -22t-3.5 -22q-3 -18 -13 -39t-18 -32q-14 -21 -33.5 -33.5t-31.5 -18.5h-2l-2 -1q-1 0 -2 -1q-4 -1 -11 -3
t-21 -4h-1q-20 -3 -42 -3q-41 0 -71 25t-44 72l-2 6q-8 26 -14.5 50.5t-8.5 52.5q-2 17 -3 34.5t-2 34.5q-1 11 -1.5 23t-1.5 23v3v9l-1 15q-4 66 -6.5 132t2.5 131v1q2 27 7.5 52t14.5 47q10 28 25 43v1q14 19 23 24.5t12 7.5q11 5 28 8.5t29 4.5h2h6q64 0 114 -41
q23 -19 33.5 -40.5t20.5 -44.5q1 -2 1.5 -4t2.5 -4v-1q2 -5 3 -9l2 -8q1 -8 3 -12q10 -24 11.5 -48t2.5 -48v-16.5t1 -16.5zM283 168q4 17 5.5 32.5t3.5 32.5q1 5 1.5 10t1.5 10q2 14 3 28.5t1 31.5q0 8 -0.5 15.5t-0.5 15.5q0 12 -0.5 24.5t0.5 25.5v1v23t-1 25
q0 3 -0.5 6.5t-0.5 6.5t-0.5 6t-0.5 6v2q-1 8 -1 16.5t-1 16.5v1q-2 33 -3.5 60t-6.5 53q-2 7 -4.5 13.5t-5.5 14.5q-1 1 -1 2t-1 2l-1 4q-5 11 -8 20q-3 3 -5 7l-4 4l-1 2q-11 17 -27 31q-9 8 -25.5 15.5t-27.5 9.5q-7 2 -13 2h-11t-15 -0.5t-15 -2.5l-4 -2q-2 -2 -4.5 -4
t-5.5 -4l-1 -2q-2 -2 -3 -2q-2 -2 -4.5 -4t-5.5 -4q-19 -34 -23 -56q-6 -29 -6 -61v-4q-1 -5 -1 -8.5v-7.5q0 -5 -0.5 -8.5t-0.5 -8.5q-1 -5 -1 -16q0 -4 -0.5 -7.5t-0.5 -8.5q-1 -13 0 -25t2 -25q1 -12 2 -23.5t1 -24.5v-1q-1 -16 -1 -31t2 -29q2 -8 2 -16v-16
q0 -5 0.5 -10t0.5 -10l1 -9q3 -23 5 -46t1 -49q0 -12 2.5 -25t5.5 -27l3 -15q20 -91 83 -91q6 0 12 0.5t13 1.5l2 1h1h2q4 0 7 1q5 0 9.5 1t8.5 2q8 3 14 9t13 15l1 1q1 1 1.5 2t2.5 3l2 2q1 3 6 6q0 1 2 3v1q7 11 10.5 25t7.5 31z" />
    <glyph glyph-name="Odieresis" unicode="&#xd6;" horiz-adv-x="417" 
d="M283 168q4 17 5.5 32.5t3.5 32.5q1 5 1.5 10t1.5 10q2 14 3 28.5t1 31.5q0 8 -0.5 15.5t-0.5 15.5q0 12 -0.5 24.5t0.5 25.5v1v23t-1 25q0 3 -0.5 6.5t-0.5 6.5t-0.5 6t-0.5 6v2q-1 8 -1 16.5t-1 16.5v1q-2 33 -3.5 60t-6.5 53q-2 7 -4.5 13.5t-5.5 14.5q-1 1 -1 2t-1 2
l-1 4q-5 11 -8 20q-3 3 -5 7l-4 4l-1 2q-11 17 -27 31q-9 8 -25.5 15.5t-27.5 9.5q-7 2 -13 2h-11t-15 -0.5t-15 -2.5l-4 -2q-2 -2 -4.5 -4t-5.5 -4l-1 -2q-2 -2 -3 -2q-2 -2 -4.5 -4t-5.5 -4q-19 -34 -23 -56q-6 -29 -6 -61v-4q-1 -5 -1 -8.5v-7.5q0 -5 -0.5 -8.5
t-0.5 -8.5q-1 -5 -1 -16q0 -4 -0.5 -7.5t-0.5 -8.5q-1 -13 0 -25t2 -25q1 -12 2 -23.5t1 -24.5v-1q-1 -16 -1 -31t2 -29q2 -8 2 -16v-16q0 -5 0.5 -10t0.5 -10l1 -9q3 -23 5 -46t1 -49q0 -12 2.5 -25t5.5 -27l3 -15q20 -91 83 -91q6 0 12 0.5t13 1.5l2 1h1h2q4 0 7 1
q5 0 9.5 1t8.5 2q8 3 14 9t13 15l1 1q1 1 1.5 2t2.5 3l2 2q1 3 6 6q0 1 2 3v1q7 11 10.5 25t7.5 31zM350 471q2 -21 3.5 -43t1.5 -45q0 -66 -3 -133q-1 -19 -4 -36.5t-6 -34.5q-2 -11 -3.5 -22t-3.5 -22q-3 -18 -13 -39t-18 -32q-14 -21 -33.5 -33.5t-31.5 -18.5h-2l-2 -1
q-1 0 -2 -1q-4 -1 -11 -3t-21 -4h-1q-20 -3 -42 -3q-41 0 -71 25t-44 72l-2 6q-8 26 -14.5 50.5t-8.5 52.5q-2 17 -3 34.5t-2 34.5q-1 11 -1.5 23t-1.5 23v3v9l-1 15q-4 66 -6.5 132t2.5 131v1q2 27 7.5 52t14.5 47q10 28 25 43v1q14 19 23 24.5t12 7.5q11 5 28 8.5t29 4.5
h2h6q64 0 114 -41q23 -19 33.5 -40.5t20.5 -44.5q1 -2 1.5 -4t2.5 -4v-1q2 -5 3 -9l2 -8q1 -8 3 -12q10 -24 11.5 -48t2.5 -48v-16.5t1 -16.5zM76 869q0 13 9 22t22 9t22 -9t9 -22t-9 -22t-22 -9t-22 9t-9 22zM178 869q0 13 9 22t22 9t22 -9t9 -22t-9 -22t-22 -9t-22 9
t-9 22z" />
    <glyph glyph-name="multiply" unicode="&#xd7;" horiz-adv-x="377" 
d="M322 27l-10 -10q-3 -3 -8.5 -7t-13.5 -4h-10l-6 8q-8 9 -13 21q-2 4 -4 6v1q-7 14 -27.5 50.5t-46.5 81.5q-8 17 -20 35q-12 -23 -26 -48.5t-26 -48t-20.5 -39t-10.5 -20.5l-3 -6q-5 -10 -10.5 -19.5t-12.5 -17.5l-6 -7h-10q-9 0 -16.5 5t-10.5 11l-4 8l3 8q4 11 11 22
q2 4 4 6q5 9 16 30t26 48.5t31.5 59.5t33.5 64q-14 26 -25.5 45.5t-16.5 28.5h-1q-17 31 -37 65q-7 11 -13 22.5t-14 23.5q-15 24 -18 31t-4 10l-1 2v2q0 12 8 20t19 8q10 0 19 -7l3 -3l2 -3q16 -26 32 -54.5t32 -56.5q22 -41 44 -79q8 15 14 27t10 19q6 11 11.5 22.5
t11.5 22.5q8 17 16.5 34t18.5 36q2 2 3 5.5t3 6.5l10.5 19.5t8.5 9.5l1 1q7 5 15 5q13 0 19 -9q10 -12 7 -25v-3l-2 -3q-14 -28 -28.5 -56t-29.5 -56q-13 -24 -26.5 -49t-25.5 -50q-2 -2 -5 -11h-1q13 -23 30 -52.5t33 -57t27.5 -48.5t13.5 -25v-1q2 -3 4 -6.5t4 -7.5
q4 -8 7.5 -14.5t5.5 -13.5z" />
    <glyph glyph-name="Oslash" unicode="&#xd8;" horiz-adv-x="627" 
d="M559 570q6 -3 11 -10t5 -16v-9l-6 -6q-7 -7 -13.5 -11t-12.5 -9l-4 -2q-5 -4 -13.5 -9.5t-19.5 -13.5q-10 -7 -21 -15t-24 -17q3 -32 3 -65q0 -65 -3 -132q-1 -19 -3.5 -36t-6.5 -34q-2 -11 -3.5 -21.5t-3.5 -21.5q-2 -17 -12 -38t-18 -32q-14 -21 -33 -33.5t-32 -18.5
l-2 -1h-1q-1 0 -1.5 -0.5t-1.5 -0.5q-4 -1 -11 -3t-19 -4h-1q-21 -3 -42 -3q-41 0 -71 25t-44 71q-8 28 -15 53.5t-9 54.5v1l-21 -15q-7 -5 -13 -9t-12 -9q-6 -4 -11 -9q-14 -11 -21.5 -15.5t-13.5 -6.5q-22 -5 -30 12q-8 16 3 31l2 3l2 2q26 20 53 40t56 40h1q-1 8 -1 15
v14q-1 5 -0.5 10t-0.5 10l-1 11l-1 15q-4 66 -7 131.5t2 129.5v1q2 24 7.5 49t14.5 49h1q8 25 23 41l2 2q4 5 13 15.5t20 15.5v1q11 5 28 8.5t30 4.5h1h7q30 0 59 -10.5t53 -29.5q23 -20 34.5 -42t20.5 -46l2 -5q4 -10 6 -20q1 -6 3 -9q10 -24 11.5 -48t1.5 -47
q1 -8 1 -14.5v-13.5q13 8 19 13q7 5 11 7.5t6 4.5q2 1 3 2t3 2q11 8 21 15t21 12l9 4zM408 344v54q1 4 0.5 7.5t-0.5 8.5q-30 -21 -60.5 -43.5t-58 -42.5t-49 -35.5t-32.5 -23.5h-1q-5 -4 -9.5 -7t-9.5 -7q-2 -2 -3 -2q0 -5 1 -7v-22v-1q0 -11 2 -23t5 -25q1 -5 2 -9t2 -9
q3 -15 8.5 -31t15.5 -29t24 -21.5t34 -8.5q9 0 24 3h2h1h2q2 0 3 0.5t3 0.5q6 1 11 1.5t8 2.5q8 2 14 8t13 15v1l4 4q2 2 3 4q1 0 1 1l1 1l1 2l2 1q1 2 4 5q7 12 10.5 26t6.5 31t5 32t4 32l3 21v1q2 14 2.5 28.5t0.5 29.5v26zM336 718q-10 8 -26 15.5t-27 9.5q-5 1 -11 1.5
t-13 0.5q-5 0 -14.5 -1t-14.5 -3h-1q-4 -2 -6 -4t-7 -6l-2 -1q-1 -2 -1.5 -2t-1.5 -1q-5 -5 -8 -7q-12 -20 -17 -34t-7 -22q-3 -14 -4 -30t-2 -30v-4q0 -5 -0.5 -8.5t-0.5 -7.5t-0.5 -8t-0.5 -8v-15q-1 -5 -1 -8.5v-7.5v-1v-26.5t2 -26.5q1 -11 1.5 -22t0.5 -22v-17
q-1 -12 -1 -22.5t2 -21.5q2 -8 2 -15.5t1 -15.5v-20q1 -3 1 -6t1 -6q17 13 34 25t34 25q2 2 13.5 10t28.5 20t38.5 27.5t44.5 31.5l32 23q0 4 -0.5 7t-0.5 6v17q-2 29 -4 57t-7 55q-2 7 -4.5 13.5t-5.5 13.5q0 1 -2 5q-2 6 -4.5 11.5t-4.5 12.5q-5 4 -9 12q-5 8 -12 16
t-15 14v1z" />
    <glyph glyph-name="Ugrave" unicode="&#xd9;" horiz-adv-x="411" 
d="M343 559v-38v-18v-32q0 -2 -0.5 -4t-0.5 -3q0 -6 1 -9v-2v-2q0 -26 -0.5 -50.5t-2.5 -49.5v-1q0 -2 -0.5 -5t-0.5 -5q0 -3 -0.5 -6t-0.5 -6q-1 -10 -1.5 -19.5t-0.5 -19.5v-20q0 -19 0.5 -39.5t-2.5 -45.5v-2v-6.5t-1 -7.5v-1v-4q-2 -32 -8.5 -66.5t-33.5 -62.5
q-29 -31 -88 -34h-8q-28 0 -54 11.5t-44 32.5v1q-6 8 -11 15l-10 14q-4 5 -7 9l-6 8q-7 9 -10.5 17.5t-5.5 16.5l-1 2q-2 4 -3 8t-3 9l-1 3q-16 47 -25 107q-3 22 -5 43.5t-2 44.5v32q-1 8 -1 16.5v16.5q-1 54 -1 108.5t4 111.5q2 31 3 66.5t2 58.5l1 29l3 11h46v-12l2 -2
v-75q0 -12 -0.5 -24.5t-1.5 -24.5q0 -6 -0.5 -11.5t-0.5 -11.5q0 -10 -0.5 -21t-1.5 -22v-10t1 -10v-1v-2v-6q1 -4 0.5 -8t-0.5 -9v-14t-1 -15q-2 -41 0 -84v-1q1 -15 1.5 -31t0.5 -32q1 -37 3 -74t11 -72q2 -6 2 -7v-1l3 -8q1 -3 2 -6.5t2 -6.5q1 -4 3 -10l1 -2l1 -4
q2 -9 4.5 -17.5t6.5 -16.5q8 -19 19.5 -35.5t25.5 -27.5h1l6 -5q9 -7 18.5 -11.5t23.5 -4.5h3q19 0 37 10t26 26q8 14 10 29.5t3 33.5v5q1 5 1 9.5t1 9.5q2 18 2 36.5t1 36.5v6q1 17 2.5 34.5t1.5 34.5v4q0 45 2.5 94t2.5 107q0 31 -3 60t-7 52q0 7 -2 17q-1 5 -1 9t-1 8
q-2 12 -4 24.5t-3 25.5q-1 4 -1 7.5v5.5q0 4 -0.5 7t-0.5 8l-1 2l-1 1v2q-2 5 -2.5 11.5t3.5 13.5l1 3l3 3q6 8 22 8h22l1 -20q2 -12 4 -20q0 -2 0.5 -3.5t0.5 -3.5l2 -3v-3q2 -13 3.5 -26.5t3.5 -24.5v-1q5 -32 9.5 -66.5t5.5 -69.5zM84 944q4 0 6.5 -1t4.5 -1q0 -1 2 -1
l1 -1h1q3 -2 5.5 -3t5.5 -3l5 -4q10 -6 20.5 -14t21.5 -16q2 -2 4 -2v-1h1l1 -1q5 -3 8 -6t6 -5q0 -2 2 -2q3 -2 6 -4.5t6 -5.5q7 -8 8 -17t-5 -17l-1 -2l-1 -2q-10 -8 -19 -8q-14 0 -29 15l-2 2q-5 4 -10.5 7.5t-11.5 8.5q-4 2 -8 5t-9 6q-8 6 -14 10q-4 3 -7.5 5.5
t-6.5 4.5l-1 1q-1 0 -1 0.5t-1 0.5q-12 7 -12 20v6q0 11 7 18t17 7z" />
    <glyph glyph-name="Uacute" unicode="&#xda;" horiz-adv-x="411" 
d="M230 944q11 0 17.5 -7t6.5 -18v-6q0 -14 -12 -20q-1 -1 -2 -1l-1 -1q-3 -2 -6.5 -4.5t-7.5 -5.5q-3 -2 -6.5 -4.5t-7.5 -5.5q-5 -3 -8.5 -6t-8.5 -5q-6 -5 -11 -8.5t-10 -7.5l-3 -2q-15 -15 -28 -15q-11 0 -19 8l-2 2l-1 2q-12 17 3 34q3 3 6.5 5.5t5.5 4.5q1 0 3 2
t5.5 5t7.5 6l2 1q1 0 1 1q1 0 3 2q12 8 22 16t20 14l5 4q8 4 11 6h1l2 1q1 0 2 1q2 0 4 1t6 1zM343 559v-38v-18v-32q0 -2 -0.5 -4t-0.5 -3q0 -6 1 -9v-2v-2q0 -26 -0.5 -50.5t-2.5 -49.5v-1q0 -2 -0.5 -5t-0.5 -5q0 -3 -0.5 -6t-0.5 -6q-1 -10 -1.5 -19.5t-0.5 -19.5v-20
q0 -19 0.5 -39.5t-2.5 -45.5v-2v-6.5t-1 -7.5v-1v-4q-2 -32 -8.5 -66.5t-33.5 -62.5q-29 -31 -88 -34h-8q-28 0 -54 11.5t-44 32.5v1q-6 8 -11 15l-10 14q-4 5 -7 9l-6 8q-7 9 -10.5 17.5t-5.5 16.5l-1 2q-2 4 -3 8t-3 9l-1 3q-16 47 -25 107q-3 22 -5 43.5t-2 44.5v32
q-1 8 -1 16.5v16.5q-1 54 -1 108.5t4 111.5q2 31 3 66.5t2 58.5l1 29l3 11h46v-12l2 -2v-75q0 -12 -0.5 -24.5t-1.5 -24.5q0 -6 -0.5 -11.5t-0.5 -11.5q0 -10 -0.5 -21t-1.5 -22v-10t1 -10v-1v-2v-6q1 -4 0.5 -8t-0.5 -9v-14t-1 -15q-2 -41 0 -84v-1q1 -15 1.5 -30.5
t0.5 -32.5q1 -37 3 -74t11 -72q2 -6 2 -7v-1l3 -8q1 -3 2 -6.5t2 -6.5q1 -4 3 -10l1 -2l1 -4q2 -9 4.5 -17.5t6.5 -16.5q8 -19 19.5 -35.5t25.5 -27.5h1l6 -5q9 -7 18.5 -11.5t23.5 -4.5h3q19 0 37 10t26 26q8 14 10 29.5t3 33.5v5q1 5 1 9.5t1 9.5q2 18 2 36.5t1 36.5v6
q1 17 2.5 34.5t1.5 34.5v4q0 45 2.5 94t2.5 107q0 31 -3 60t-7 52q0 7 -2 17q-1 5 -1 9t-1 8q-2 12 -4 24.5t-3 25.5q-1 4 -1 7.5v5.5q0 4 -0.5 7t-0.5 8l-1 2l-1 1v2q-2 5 -2.5 11.5t3.5 13.5l1 3l3 3q6 8 22 8h22l1 -20q2 -12 4 -20q0 -2 0.5 -3.5t0.5 -3.5l2 -3v-3
q2 -13 3.5 -26.5t3.5 -24.5v-1q5 -32 9.5 -66.5t5.5 -69.5z" />
    <glyph glyph-name="Ucircumflex" unicode="&#xdb;" horiz-adv-x="408" 
d="M242 862q8 -10 0 -19q-6 -10 -25 -12h-5q-11 0 -17.5 4t-8.5 6h-1l-3 2l-2 3q0 1 -0.5 1t-0.5 1q-2 2 -3 4l-2 4l-2 2l-1 1q-3 3 -5.5 6.5t-4.5 6.5q-4 6 -6 8q-1 -1 -1.5 -2t-1.5 -2q-4 -4 -8 -10l-1 -1q0 -1 -0.5 -1.5t-0.5 -1.5q-4 -8 -13.5 -19.5t-29.5 -11.5
q-17 0 -27 10q-7 8 -3.5 15.5t5.5 11.5v1q5 5 11 13q3 4 5.5 6.5t4.5 5.5q5 9 15 19l2 2t4.5 5t5.5 6q12 12 30 12h3q18 0 28.5 -8t17.5 -15q1 -1 1 -2q2 0 2 -2l6 -4l1 -1v-4q2 -2 3 -4t3 -4q4 -6 7 -10l11 -13q1 0 1 -1q0 -2 1 -2q2 -2 2.5 -3t2.5 -3zM343 559v-38v-18
v-32q0 -2 -0.5 -4t-0.5 -3q0 -6 1 -9v-2v-2q0 -26 -0.5 -50.5t-2.5 -49.5v-1q0 -2 -0.5 -5t-0.5 -5q0 -3 -0.5 -6t-0.5 -6q-1 -10 -1.5 -19.5t-0.5 -19.5v-20q0 -19 0.5 -39.5t-2.5 -45.5v-2v-6.5t-1 -7.5v-1v-4q-2 -32 -8.5 -66.5t-33.5 -62.5q-29 -31 -88 -34h-8
q-28 0 -54 11.5t-44 32.5v1q-6 8 -11 15l-10 14q-4 5 -7 9l-6 8q-7 9 -10.5 17.5t-5.5 16.5l-1 2q-2 4 -3 8t-3 9l-1 3q-16 47 -25 107q-3 22 -5 43.5t-2 44.5v32q-1 8 -1 16.5v16.5q-1 54 -1 108.5t4 111.5q2 31 3 66.5t2 58.5l1 29l3 11h46v-12l2 -2v-75q0 -12 -0.5 -24.5
t-1.5 -24.5q0 -6 -0.5 -11.5t-0.5 -11.5q0 -10 -0.5 -21t-1.5 -22v-10t1 -10v-1v-2v-6q1 -4 0.5 -8t-0.5 -9v-14t-1 -15q-2 -41 0 -84v-1q1 -15 1.5 -31t0.5 -32q1 -37 3 -74t11 -72q2 -6 2 -7v-1l3 -8q1 -3 2 -6.5t2 -6.5q1 -4 3 -10l1 -2l1 -4q2 -9 4.5 -17.5t6.5 -16.5
q8 -19 19.5 -35.5t25.5 -27.5h1l6 -5q9 -7 18.5 -11.5t23.5 -4.5h3q19 0 37 10t26 26q8 14 10 29.5t3 33.5v5q1 5 1 9.5t1 9.5q2 18 2 36.5t1 36.5v6q1 17 2.5 34.5t1.5 34.5v4q0 45 2.5 94t2.5 107q0 31 -3 60t-7 52q0 7 -2 17q-1 5 -1 9t-1 8q-2 12 -4 24.5t-3 25.5
q-1 4 -1 7.5v5.5q0 4 -0.5 7t-0.5 8l-1 2l-1 1v2q-2 5 -2.5 11.5t3.5 13.5l1 3l3 3q6 8 22 8h22l1 -20q2 -12 4 -20q0 -2 0.5 -3.5t0.5 -3.5l2 -3v-3q2 -13 3.5 -26.5t3.5 -24.5v-1q5 -32 9.5 -66.5t5.5 -69.5z" />
    <glyph glyph-name="Udieresis" unicode="&#xdc;" horiz-adv-x="408" 
d="M343 559v-38v-18v-32q0 -2 -0.5 -4t-0.5 -3q0 -6 1 -9v-2v-2q0 -26 -0.5 -50.5t-2.5 -49.5v-1q0 -2 -0.5 -5t-0.5 -5q0 -3 -0.5 -6t-0.5 -6q-1 -10 -1.5 -19.5t-0.5 -19.5v-20q0 -19 0.5 -39.5t-2.5 -45.5v-2v-6.5t-1 -7.5v-1v-4q-2 -32 -8.5 -66.5t-33.5 -62.5
q-29 -31 -88 -34h-8q-28 0 -54 11.5t-44 32.5v1q-6 8 -11 15l-10 14q-4 5 -7 9l-6 8q-7 9 -10.5 17.5t-5.5 16.5l-1 2q-2 4 -3 8t-3 9l-1 3q-16 47 -25 107q-3 22 -5 43.5t-2 44.5v32q-1 8 -1 16.5v16.5q-1 54 -1 108.5t4 111.5q2 31 3 66.5t2 58.5l1 29l3 11h46v-12l2 -2
v-75q0 -12 -0.5 -24.5t-1.5 -24.5q0 -6 -0.5 -11.5t-0.5 -11.5q0 -10 -0.5 -21t-1.5 -22v-10t1 -10v-1v-2v-6q1 -4 0.5 -8t-0.5 -9v-14t-1 -15q-2 -41 0 -84v-1q1 -15 1.5 -31t0.5 -32q1 -37 3 -74t11 -72q2 -6 2 -7v-1l3 -8q1 -3 2 -6.5t2 -6.5q1 -4 3 -10l1 -2l1 -4
q2 -9 4.5 -17.5t6.5 -16.5q8 -19 19.5 -35.5t25.5 -27.5h1l6 -5q9 -7 18.5 -11.5t23.5 -4.5h3q19 0 37 10t26 26q8 14 10 29.5t3 33.5v5q1 5 1 9.5t1 9.5q2 18 2 36.5t1 36.5v6q1 17 2.5 34.5t1.5 34.5v4q0 45 2.5 94t2.5 107q0 31 -3 60t-7 52q0 7 -2 17q-1 5 -1 9t-1 8
q-2 12 -4 24.5t-3 25.5q-1 4 -1 7.5v5.5q0 4 -0.5 7t-0.5 8l-1 2l-1 1v2q-2 5 -2.5 11.5t3.5 13.5l1 3l3 3q6 8 22 8h22l1 -20q2 -12 4 -20q0 -2 0.5 -3.5t0.5 -3.5l2 -3v-3q2 -13 3.5 -26.5t3.5 -24.5v-1q5 -32 9.5 -66.5t5.5 -69.5zM79 869q0 13 9 22t22 9t22 -9t9 -22
t-9 -22t-22 -9t-22 9t-9 22zM181 869q0 13 9 22t22 9t22 -9t9 -22t-9 -22t-22 -9t-22 9t-9 22z" />
    <glyph glyph-name="Yacute" unicode="&#xdd;" horiz-adv-x="467" 
d="M292 930q11 0 17.5 -7t6.5 -17v-7q0 -13 -12 -20q-1 -1 -2 -1l-1 -1q-3 -2 -6.5 -4.5t-7.5 -5.5q-3 -2 -6.5 -4.5t-7.5 -5.5q-5 -3 -8.5 -5.5t-8.5 -5.5q-6 -4 -11.5 -7.5t-10.5 -7.5l-2 -3q-15 -15 -29 -15q-10 0 -18 8l-2 2l-1 2q-12 17 3 34q3 3 6.5 5.5t5.5 4.5
q1 1 1.5 1t1.5 1q2 2 5.5 5t7.5 6l1 1l1 1h1q1 0 3 2q12 8 22 16t20 14l5 4q8 4 11 6l1 1h2q1 1 2 1q4 2 10 2zM413 795q8 -10 8 -27l-1 -4q-1 -2 -1.5 -3.5t-1.5 -3.5l-1 -1v-2l-1 -1q-1 -1 -1 -2t-1 -2q-2 -5 -5 -10q-5 -12 -8 -18q-1 -1 -3 -5l-1 -2q-1 -3 -3 -7v-2
l-1 -2q-2 -5 -4.5 -10.5t-5.5 -11.5q-2 -2 -2 -3t-1 -3q-2 -2 -2.5 -4.5t-2.5 -4.5v-1q-8 -14 -16 -34l-6 -12q-5 -11 -10.5 -20.5t-11.5 -19.5q-3 -5 -5.5 -9.5t-5.5 -9.5l-1 -4q-7 -13 -14.5 -26.5t-15.5 -26.5q-8 -14 -12.5 -29.5t-12.5 -29.5q-8 -11 -15 -21.5
t-13 -24.5l-6 -15q-10 -25 -22 -47q-4 -8 -7.5 -15.5t-6.5 -15.5q-4 -8 -8 -15.5t-9 -14.5q-3 -6 -6.5 -11.5t-5.5 -11.5q-23 -55 -50 -109t-56 -108q-3 -11 -11 -20t-16.5 -11.5t-17 2.5t-12.5 21q-5 19 3.5 35t17.5 30q3 4 5.5 8t4.5 7q8 17 17.5 37t20.5 42q3 7 6.5 13.5
t6.5 12.5q10 20 19.5 40.5t20.5 40.5q2 4 4 7.5t4 7.5q5 10 10.5 19.5t10.5 19.5l3 7q12 21 21 42l1 1l1 3q7 16 13.5 32.5t14.5 31.5l5 9q-5 9 -10.5 18.5t-10.5 18.5q-3 7 -6.5 13.5t-6.5 12.5h-2l-6 12q-2 4 -4 7.5t-4 7.5t-4 6q-2 3 -3.5 6.5t-3.5 6.5q-8 12 -16 28v1
l-18 36q-2 3 -3.5 6.5t-3.5 6.5l-8 17q-2 5 -4 9t-4 9q-2 2 -2 4v1q-2 3 -3 5.5t-2 4.5l-2 4l-1 1l-1 2q-6 10 -9 20q-2 4 -4 7.5t-4 7.5l-1 1v2l-3 3q-4 5 -5.5 8l-2.5 5t-2 2q-3 5 0 9.5t9 8t12 5.5l9 3q17 4 23.5 -4t11.5 -23l1 -1q0 -2 1 -4l2 -4l22 -43
q5 -11 10.5 -21.5t10.5 -20.5h1q11 -22 21.5 -41t19.5 -36t18.5 -34t19.5 -36q5 11 10 20.5t10 20.5q5 9 10 18.5t10 19.5q8 14 15 27.5t14 27.5q2 5 5 9t5 9t4.5 10t4.5 10q4 10 10 20v1q4 7 7.5 13.5t6.5 14.5q2 3 3.5 6.5t3.5 6.5l1 2q0 2 1 3v2h1q8 23 23 28.5t25 -5.5z
" />
    <glyph glyph-name="Thorn" unicode="&#xde;" horiz-adv-x="445" 
d="M354 480q0 -2 0.5 -3.5t0.5 -3.5q1 -3 0.5 -6t-0.5 -6q-1 -2 -1 -6q-1 -14 -6 -25q-1 -1 -1 -2t-1 -3q0 -1 -0.5 -2t-0.5 -2l-3 -9q-1 -1 -1 -2t-1 -3q-2 -8 -5 -12q-1 -2 -3 -4v-3l-5 -4q-25 -22 -56 -35l-8 -4l-3 1q-12 -5 -31 -10q-9 -3 -16 -3q-2 0 -4 -0.5t-3 -0.5
q-29 -7 -63.5 -11t-77.5 -6v-4v-19v-15q0 -4 -0.5 -7t-0.5 -7q0 -3 0.5 -6.5t0.5 -6.5q1 -5 1 -9v-9q0 -4 -2 -8v-2q1 -2 1 -7v-9q-1 -5 -1 -10.5v-10.5q0 -4 0.5 -7.5t0.5 -7.5q1 -6 1.5 -12t-0.5 -12q0 -4 -1 -6v-9q0 -5 0.5 -10.5t0.5 -10.5v-10q0 -9 -1 -14
q0 -4 -0.5 -7t0.5 -6q1 -10 0 -18q0 -4 -1 -6q-1 -6 -1.5 -13t-0.5 -14q1 -5 -4 -12l-6 -6h-2q-4 -2 -7 -3t-10 -1q-13 0 -20 7q-7 6 -7 13t2 12v1q0 5 0.5 10t0.5 10q1 12 1.5 23t0.5 22q0 20 -0.5 44.5t-0.5 51.5q1 41 1 85.5t-1 83.5q-1 23 -0.5 48t0.5 50q1 21 1 41.5
v38.5v32q1 8 1 14.5v13.5v8.5t1 8.5q2 7 2 15.5v17.5v15q2 20 0 40v10q0 5 -1 7t-1 5t-1 5v9v6q-2 12 1 23q-1 2 -1 7q0 9 12 18l3 2l4 1q3 1 8 1t8 -1t5 -2l16 -3l-2 -15q0 -2 -0.5 -4.5t-0.5 -5.5v-2q1 -3 1.5 -6.5t-1.5 -8.5q2 -5 2 -8.5v-7.5q-1 -2 -1 -5h1
q0 -1 0.5 -2.5t0.5 -3.5q2 -6 2 -12.5v-13.5t1 -11q0 -3 -0.5 -6.5t-0.5 -6.5v-10v-7v-14v-5q25 -2 49 -6l13 -1q35 -5 63.5 -13.5t60.5 -15.5q11 -2 18.5 -6.5t13.5 -9.5q6 -4 9 -5q14 -8 20.5 -19t13.5 -22q-1 -1 0 -1q0 -1 1 -1h3l2 -6q2 -3 3.5 -6l3.5 -7q5 -7 8 -14
l1 -3v-2q0 -2 0.5 -2.5t0.5 -2.5t0.5 -4.5t0.5 -4.5t-0.5 -3.5t-0.5 -3.5zM300 450q1 1 1 2q1 1 1 7v8q1 9 0.5 17t-2.5 16q-2 4 -4.5 7t-4.5 7q-5 7 -9 13.5t-9 11.5q-6 7 -13 12l-14 10l-6 2l-5 4q-1 0 -4 1t-5 2q-2 0 -8 2l-1 -2l-6 5h-1q-8 1 -13 4l-1 1q-2 0 -5 0.5
t-6 0.5q-4 0 -8 0.5t-9 1.5q-8 1 -12 3q-2 0 -4 0.5t-3 0.5q-8 2 -15 2.5t-15 1.5q-4 1 -7.5 1t-6.5 1q-8 1 -17.5 2t-20.5 2v-1v-9q1 -5 1 -10.5t-2 -11.5q2 -17 1.5 -35t-1.5 -36q-1 -8 -1 -14.5v-14.5v-4q0 -9 -1 -13q0 -4 1 -6v-9q0 -5 -2 -7q0 -2 0.5 -4t0.5 -4
q1 -2 1 -4.5t1 -5.5q0 -7 -1 -10v-6q0 -7 -1 -9v-6q0 -7 1 -11v-6q18 2 32 0q15 4 31 4q5 1 9.5 1t9.5 1l1 1h4q19 2 37.5 6.5t38.5 9.5q3 1 6.5 1.5t6.5 1.5q4 2 7.5 4t7.5 4l12 6q3 3 6 5t5 4q2 1 3 2t3 2q2 3 4 8.5t4 10.5q1 2 1.5 5t1.5 5l2 4z" />
    </font>
</defs>
</svg>
